<svg width="45" height="45" viewBox="0 0 45 45" fill="none" xmlns="http://www.w3.org/2000/svg">
<path d="M38.417 6.58295C29.6379 -2.19432 15.3606 -2.19432 6.5815 6.58295C-2.19383 15.3602 -2.19383 29.6412 6.5815 38.4185C10.9711 42.8062 16.7356 44.9991 22.5002 44.9991C28.2649 44.9991 34.0275 42.8061 38.417 38.4185C47.1943 29.6413 47.1943 15.3602 38.417 6.58295ZM31.7839 29.1329C32.5173 29.8663 32.5173 31.0519 31.7839 31.7854C31.4181 32.1512 30.9379 32.335 30.4576 32.335C29.9774 32.335 29.4972 32.1512 29.1314 31.7854L22.5002 25.1522L15.8708 31.7834C15.5032 32.1492 15.0229 32.3331 14.5445 32.3331C14.0643 32.3331 13.584 32.1492 13.2182 31.7834C12.4848 31.05 12.4848 29.8626 13.2182 29.131L19.8476 22.4998L13.2164 15.8686C12.483 15.1351 12.483 13.9477 13.2164 13.2161C13.948 12.4827 15.1354 12.4827 15.8689 13.2161L22.5001 19.8473L29.1313 13.2161C29.8647 12.4827 31.0503 12.4827 31.7837 13.2161C32.5172 13.9477 32.5172 15.1351 31.7837 15.8686L25.1525 22.4998L31.7839 29.1329Z" fill="#6ECCA9"/>
</svg>
