<?xml version="1.0" standalone="no"?>
<!DOCTYPE svg PUBLIC "-//W3C//DTD SVG 1.1//EN" "http://www.w3.org/Graphics/SVG/1.1/DTD/svg11.dtd" >
<svg xmlns="http://www.w3.org/2000/svg" xmlns:xlink="http://www.w3.org/1999/xlink" version="1.1">
<metadata>
Created by FontForge 20170731 at Mon Feb 17 13:33:03 2020
 By Aleksey,,,
Copyright 2020, Kris Sowersby, Klim Type Foundry.
</metadata>
<defs>
<font id="SohneBreit-Halbfett" horiz-adv-x="600" >
  <font-face 
    font-family="Copyright Klim Type Foundry"
    font-weight="600"
    font-stretch="expanded"
    units-per-em="1000"
    panose-1="2 11 7 5 3 2 2 6 2 3"
    ascent="800"
    descent="-200"
    x-height="526"
    cap-height="718"
    bbox="-270 -207 1388 1014"
    underline-thickness="110"
    underline-position="-301"
    unicode-range="U+000D-FB04"
  />
<missing-glyph 
d="M0 0v718h600v-718h-600zM132 242l51 -51l117 117l118 -117l50 51l-116 118l116 117l-50 51l-118 -117l-117 117l-51 -51l117 -117z" />
    <glyph glyph-name="ff" unicode="ff" horiz-adv-x="867" 
d="M363 729q36 0 68.5 -4.5t53.5 -12.5l-20 -115q-26 7 -47.5 9.5t-49.5 2.5q-56 0 -81.5 -18.5t-25.5 -59.5v-5h257v9q0 95 61 144.5t178 49.5q35 0 69.5 -5t56.5 -13l-21 -115q-27 7 -49.5 10t-50.5 3q-56 0 -81.5 -18.5t-25.5 -59.5v-5h201v-117h-200v-409h-138v409h-256
v-409h-138v409h-126v117h126v9q0 95 61 144.5t178 49.5z" />
    <glyph glyph-name="fi" unicode="fi" horiz-adv-x="728" 
d="M363 729q31 0 61 -3.5t51 -10.5l-24 -115q-20 5 -38.5 7t-44.5 2q-56 0 -81.5 -18.5t-25.5 -59.5v-5h189v-117h-188v-409h-138v409h-126v117h126v9q0 95 61 144.5t178 49.5zM659 588h-143v130h143v-130zM518 526h140v-526h-140v526z" />
    <glyph glyph-name="fl" unicode="fl" horiz-adv-x="728" 
d="M363 729q31 0 61 -3.5t51 -10.5l-24 -115q-20 5 -38.5 7t-44.5 2q-56 0 -81.5 -18.5t-25.5 -59.5v-5h189v-117h-188v-409h-138v409h-126v117h126v9q0 95 61 144.5t178 49.5zM518 718h140v-718h-140v718z" />
    <glyph glyph-name="ffi" unicode="ffi" horiz-adv-x="1105" 
d="M363 729q36 0 68.5 -4.5t53.5 -12.5l-20 -115q-26 7 -47.5 9.5t-49.5 2.5q-56 0 -81.5 -18.5t-25.5 -59.5v-5h257v9q0 95 61 144.5t178 49.5q31 0 61 -3.5t51 -10.5l-24 -115q-20 5 -38.5 7t-44.5 2q-56 0 -81.5 -18.5t-25.5 -59.5v-5h189v-117h-188v-409h-138v409h-256
v-409h-138v409h-126v117h126v9q0 95 61 144.5t178 49.5zM1053 588h-143v130h143v-130zM912 526h140v-526h-140v526z" />
    <glyph glyph-name="ffl" unicode="ffl" horiz-adv-x="1105" 
d="M363 729q36 0 68.5 -4.5t53.5 -12.5l-20 -115q-26 7 -47.5 9.5t-49.5 2.5q-56 0 -81.5 -18.5t-25.5 -59.5v-5h257v9q0 95 61 144.5t178 49.5q31 0 61 -3.5t51 -10.5l-24 -115q-20 5 -38.5 7t-44.5 2q-56 0 -81.5 -18.5t-25.5 -59.5v-5h189v-117h-188v-409h-138v409h-256
v-409h-138v409h-126v117h126v9q0 95 61 144.5t178 49.5zM912 718h140v-718h-140v718z" />
    <glyph glyph-name="f_b" unicode="fb" horiz-adv-x="1165" 
d="M363 729q31 0 61 -3.5t51 -10.5l-24 -115q-20 5 -38.5 7t-44.5 2q-56 0 -81.5 -18.5t-25.5 -59.5v-5h189v-117h-188v-409h-138v409h-126v117h126v9q0 95 61 144.5t178 49.5zM855 -11q-62 0 -114 20t-83 54v-63h-140v718h140v-256q31 34 83 54t114 20q128 0 207 -77
t79 -196q0 -120 -79 -197t-207 -77zM830 422q-76 0 -127 -44.5t-51 -111.5v-7q0 -66 51.5 -111t126.5 -45q77 0 127 44t50 116q0 71 -50 115t-127 44z" />
    <glyph glyph-name="f_h" unicode="fh" horiz-adv-x="1130" 
d="M363 729q31 0 61 -3.5t51 -10.5l-24 -115q-20 5 -38.5 7t-44.5 2q-56 0 -81.5 -18.5t-25.5 -59.5v-5h189v-117h-188v-409h-138v409h-126v117h126v9q0 95 61 144.5t178 49.5zM658 0h-140v718h140v-258q32 36 82 56t110 20q105 0 167 -66t62 -177v-293h-140v260
q0 71 -35.5 110.5t-99.5 39.5q-69 0 -107.5 -40t-38.5 -112v-258z" />
    <glyph glyph-name="f_idieresis" unicode="f&#xef;" horiz-adv-x="714" 
d="M363 729q35 0 69.5 -5t56.5 -13l-21 -115q-27 7 -49.5 10t-50.5 3q-56 0 -81.5 -18.5t-25.5 -59.5v-5h201v-117h-200v-409h-138v409h-126v117h126v9q0 95 61 144.5t178 49.5zM786 588h-145v130h145v-130zM521 526h140v-526h-140v526z" />
    <glyph glyph-name="f_j" unicode="fj" horiz-adv-x="712" 
d="M363 729q31 0 61 -3.5t51 -10.5l-24 -115q-20 5 -38.5 7t-44.5 2q-56 0 -81.5 -18.5t-25.5 -59.5v-5h189v-117h-188v-409h-138v409h-126v117h126v9q0 95 61 144.5t178 49.5zM659 588h-143v130h143v-130zM658 526v-508q0 -101 -56.5 -153t-166.5 -52q-27 0 -59.5 5
t-53.5 13l21 109q26 -7 43.5 -10t38.5 -3q50 0 71.5 21t21.5 67v511h140z" />
    <glyph glyph-name="f_k" unicode="fk" horiz-adv-x="1129" 
d="M363 729q31 0 61 -3.5t51 -10.5l-24 -115q-20 5 -38.5 7t-44.5 2q-56 0 -81.5 -18.5t-25.5 -59.5v-5h189v-117h-188v-409h-138v409h-126v117h126v9q0 95 61 144.5t178 49.5zM518 718h140v-435l284 243h193l-272 -226l280 -300h-176l-204 216l-105 -87v-129h-140v718z" />
    <glyph glyph-name=".notdef" 
d="M0 0v718h600v-718h-600zM132 242l51 -51l117 117l118 -117l50 51l-116 118l116 117l-50 51l-118 -117l-117 117l-51 -51l117 -117z" />
    <glyph glyph-name=".null" horiz-adv-x="0" 
 />
    <glyph glyph-name="uni000D" unicode="&#xd;" horiz-adv-x="268" 
 />
    <glyph glyph-name="space" unicode=" " horiz-adv-x="268" 
 />
    <glyph glyph-name="exclam" unicode="!" horiz-adv-x="306" 
d="M206 223h-107l-36 495h179zM236 0h-166v159h166v-159z" />
    <glyph glyph-name="quotedbl" unicode="&#x22;" horiz-adv-x="394" 
d="M148 421h-97l-32 297h162zM342 421h-97l-32 297h162z" />
    <glyph glyph-name="numbersign" unicode="#" horiz-adv-x="750" 
d="M210 0h-122l46 185h-107v106h134l33 136h-137v106h164l46 185h122l-46 -185h167l46 185h122l-46 -185h91v-106h-117l-33 -136h121v-106h-147l-46 -185h-124l46 185h-167zM316 427l-33 -136h167l33 136h-167z" />
    <glyph glyph-name="dollar" unicode="$" horiz-adv-x="805" 
d="M-10 164l100 96q44 -55 111.5 -90t148.5 -46v185q-181 19 -246 62.5t-65 128.5q0 92 84 150.5t227 66.5v103h119v-106q101 -11 180.5 -47t121.5 -89l-99 -91q-31 39 -83 66t-120 38v-169q186 -20 252 -64t66 -131q0 -98 -82.5 -156.5t-235.5 -68.5v-106h-119v106
q-118 10 -215.5 54t-144.5 108zM179 511q0 -35 34.5 -50t136.5 -27v164q-86 -3 -128.5 -24.5t-42.5 -62.5zM643 214q0 39 -32.5 55t-141.5 27v-174q84 5 129 29t45 63z" />
    <glyph glyph-name="percent" unicode="%" horiz-adv-x="972" 
d="M233 350q-90 0 -149.5 54t-59.5 136t59.5 135.5t149.5 53.5t149 -53.5t59 -135.5t-59 -136t-149 -54zM708 718h126l-569 -718h-126zM233 635q-43 0 -70 -26t-27 -69t26.5 -69t70.5 -26q43 0 69.5 26t26.5 69t-26.5 69t-69.5 26zM740 368q90 0 149 -54t59 -136t-59 -135.5
t-149 -53.5t-149.5 53.5t-59.5 135.5t59.5 136t149.5 54zM740 273q-43 0 -69.5 -26t-26.5 -69t26.5 -69t69.5 -26t69.5 26t26.5 69t-26.5 69t-69.5 26z" />
    <glyph glyph-name="ampersand" unicode="&#x26;" horiz-adv-x="894" 
d="M716 402l135 -29q-16 -63 -48.5 -120t-79.5 -104q37 -21 71.5 -27.5t87.5 -1.5v-119q-72 -9 -135.5 6.5t-128.5 59.5q-65 -38 -138 -58t-150 -20q-144 0 -229 59t-85 158q0 71 47.5 124t131.5 76q-24 30 -35.5 60.5t-11.5 64.5q0 87 68.5 142.5t179.5 55.5
q113 0 178.5 -51.5t65.5 -135.5q0 -67 -49 -118t-134 -75l160 -124q36 37 61 82t38 95zM395 623q-50 0 -81 -24t-31 -60q0 -29 15.5 -53.5t52.5 -54.5q78 8 117.5 35t39.5 72q0 39 -30 62t-83 23zM160 221q0 -51 50 -81.5t134 -30.5q43 0 85 10t81 29l-223 176
q-60 -7 -93.5 -34t-33.5 -69z" />
    <glyph glyph-name="quotesingle" unicode="'" horiz-adv-x="199" 
d="M148 421h-97l-32 297h162z" />
    <glyph glyph-name="parenleft" unicode="(" horiz-adv-x="392" 
d="M166 320q0 -119 57 -224t169 -194h-146q-107 69 -167 179.5t-60 238.5t60 238.5t167 179.5h146q-112 -90 -169 -194.5t-57 -223.5z" />
    <glyph glyph-name="parenright" unicode=")" horiz-adv-x="392" 
d="M226 320q0 119 -57 223.5t-169 194.5h146q107 -69 167 -179.5t60 -238.5t-60 -238.5t-167 -179.5h-146q112 89 169 194t57 224z" />
    <glyph glyph-name="asterisk" unicode="*" horiz-adv-x="453" 
d="M390 383l-78 -57l-85 117l-86 -117l-78 57l85 118l-138 44l30 92l138 -44v145h97v-145l139 44l29 -92l-139 -44z" />
    <glyph glyph-name="plus" unicode="+" horiz-adv-x="800" 
d="M740 414v-120h-281v-280h-119v280h-280v120h280v280h119v-280h281z" />
    <glyph glyph-name="comma" unicode="," horiz-adv-x="240" 
d="M107 0h-69v162h164v-159q0 -69 -44 -109.5t-120 -40.5v74q35 2 52 18.5t17 47.5v7z" />
    <glyph glyph-name="hyphen" unicode="-" horiz-adv-x="368" 
d="M328 230h-288v125h288v-125z" />
    <glyph glyph-name="period" unicode="." horiz-adv-x="240" 
d="M202 0h-164v162h164v-162z" />
    <glyph glyph-name="slash" unicode="/" horiz-adv-x="560" 
d="M161 -98h-149l387 836h149z" />
    <glyph glyph-name="zero" unicode="0" horiz-adv-x="868" 
d="M434 -11q-177 0 -294 105t-117 265t117 265t294 105t294 -105.5t117 -264.5t-117 -264.5t-294 -105.5zM434 600q-117 0 -189.5 -66.5t-72.5 -174.5t72.5 -174.5t189.5 -66.5q116 0 188 66.5t72 174.5t-72 174.5t-188 66.5z" />
    <glyph glyph-name="one" unicode="1" horiz-adv-x="464" 
d="M289 722h112v-722h-147v481h-247v112l139 6q71 4 104 32t39 91z" />
    <glyph glyph-name="two" unicode="2" horiz-adv-x="749" 
d="M29 0v117l344 187q78 43 93.5 52t27.5 18q39 26 55.5 52t16.5 58q0 54 -48.5 87t-126.5 33q-94 0 -159.5 -50t-80.5 -134l-134 34q24 125 126 200t255 75q139 0 227 -66.5t88 -172.5q0 -74 -51 -132.5t-184 -127.5l-192 -103h444v-127h-701z" />
    <glyph glyph-name="three" unicode="3" horiz-adv-x="780" 
d="M763 206q0 -93 -103 -155t-265 -62q-148 0 -253 58t-138 156l133 57q24 -66 94.5 -107t163.5 -41q96 0 155 28.5t59 76.5q0 44 -50.5 67.5t-145.5 23.5h-132v120h129q86 0 131 22t45 64t-50 66.5t-135 24.5q-89 0 -155 -37t-88 -98l-130 49q34 95 136 152.5t243 57.5
q151 0 242.5 -56.5t91.5 -147.5q0 -55 -34.5 -96t-93.5 -57q74 -18 112 -60t38 -106z" />
    <glyph glyph-name="four" unicode="4" horiz-adv-x="823" 
d="M627 172v-172h-141v172h-476v114l426 432h191v-426h186v-120h-186zM486 598l-305 -306h305v306z" />
    <glyph glyph-name="five" unicode="5" horiz-adv-x="770" 
d="M383 369q-64 0 -119 -17.5t-99 -50.5l-114 31l47 386h599v-127h-488l-21 -156q44 25 102 39t121 14q153 0 248.5 -68t95.5 -178q0 -112 -103 -182.5t-264 -70.5q-148 0 -253 57.5t-135 156.5l132 56q29 -72 94 -109.5t163 -37.5t158 34.5t60 93.5t-61 94t-163 35z" />
    <glyph glyph-name="six" unicode="6" horiz-adv-x="819" 
d="M443 729q118 0 212 -41t140 -112l-103 -90q-32 56 -100 88.5t-154 32.5q-119 0 -197 -62t-80 -156q44 46 118 71.5t165 25.5q157 0 256.5 -68.5t99.5 -174.5q0 -112 -105.5 -183t-271.5 -71q-187 0 -293.5 96t-106.5 260q0 173 114.5 278.5t305.5 105.5zM419 110
q104 0 169.5 35.5t65.5 93.5q0 57 -65 93t-168 36q-105 0 -170 -35.5t-65 -93.5t64 -93.5t169 -35.5z" />
    <glyph glyph-name="seven" unicode="7" horiz-adv-x="739" 
d="M572 593h-436v-141h-126v266h719v-131q-145 -135 -210.5 -274.5t-65.5 -312.5h-150q0 171 67 319t202 274z" />
    <glyph glyph-name="eight" unicode="8" horiz-adv-x="810" 
d="M64 527q0 92 94 147t247 55q152 0 246 -54.5t94 -147.5q0 -50 -31 -87.5t-98 -65.5q87 -22 133 -66.5t46 -107.5q0 -98 -106.5 -154.5t-283.5 -56.5t-283.5 56.5t-106.5 154.5q0 63 46 107.5t133 66.5q-67 29 -98.5 66t-31.5 87zM209 522q0 -44 51.5 -68t144.5 -24
t144.5 24t51.5 68q0 43 -52 67t-144 24t-144 -24t-52 -67zM647 212q0 49 -64.5 76t-177.5 27t-177.5 -27t-64.5 -76q0 -51 64 -78.5t178 -27.5t178 28t64 78z" />
    <glyph glyph-name="nine" unicode="9" horiz-adv-x="819" 
d="M376 -11q-118 0 -212 41t-140 112l103 90q32 -56 100 -88.5t154 -32.5q119 0 197 62t80 156q-44 -46 -118 -71.5t-165 -25.5q-157 0 -256.5 68.5t-99.5 174.5q0 112 105.5 183t271.5 71q187 0 293.5 -96t106.5 -260q0 -173 -114.5 -278.5t-305.5 -105.5zM400 608
q-104 0 -169.5 -35.5t-65.5 -93.5q0 -57 65 -93t168 -36q105 0 170 35.5t65 93.5t-64 93.5t-169 35.5z" />
    <glyph glyph-name="colon" unicode=":" horiz-adv-x="240" 
d="M202 0h-164v162h164v-162zM202 339h-164v162h164v-162z" />
    <glyph glyph-name="semicolon" unicode=";" horiz-adv-x="240" 
d="M107 0h-69v162h164v-159q0 -69 -44 -109.5t-120 -40.5v74q35 2 52 18.5t17 47.5v7zM202 339h-164v162h164v-162z" />
    <glyph glyph-name="less" unicode="&#x3c;" horiz-adv-x="800" 
d="M741 19l-682 244v185l682 243v-147l-565 -189l565 -189v-147z" />
    <glyph glyph-name="equal" unicode="=" horiz-adv-x="800" 
d="M740 425h-680v120h680v-120zM740 157h-680v120h680v-120z" />
    <glyph glyph-name="greater" unicode="&#x3e;" horiz-adv-x="800" 
d="M741 448v-185l-682 -244v147l565 189l-565 189v147z" />
    <glyph glyph-name="question" unicode="?" horiz-adv-x="707" 
d="M541 497q0 53 -46 80t-136 27q-85 0 -141.5 -34t-66.5 -91l-149 22q18 103 116.5 165.5t248.5 62.5t240 -61t90 -163q0 -84 -70 -139.5t-193 -71.5v-71h-142v170q130 0 189.5 25t59.5 79zM451 0h-165v159h165v-159z" />
    <glyph glyph-name="at" unicode="@" horiz-adv-x="1062" 
d="M801 455l-50 -254q-6 -30 5 -44.5t40 -14.5q56 0 94 47t38 121q0 118 -96.5 185t-263.5 67q-194 0 -311 -92.5t-117 -242.5q0 -137 104.5 -213t293.5 -76q97 0 189 20.5t156 55.5l52 -88q-73 -44 -177 -68.5t-221 -24.5q-238 0 -376 105t-138 289q0 101 45 187t129 146
q73 51 167 78t204 27q212 0 341.5 -95.5t129.5 -254.5q0 -123 -75 -198t-192 -74q-46 0 -82.5 15.5t-55.5 42.5q-24 -27 -68.5 -42t-95.5 -15q-96 0 -152.5 50t-56.5 133q0 100 72 168.5t181 68.5q48 0 87.5 -14.5t64.5 -41.5l10 47h125zM400 238q0 -42 27.5 -66t75.5 -24
q57 0 95 35.5t38 86.5q0 42 -27.5 66t-75.5 24q-57 0 -95 -35.5t-38 -86.5z" />
    <glyph glyph-name="A" unicode="A" horiz-adv-x="876" 
d="M-7 0l362 718h165l362 -718h-159l-83 167h-406l-84 -167h-157zM577 292l-140 281l-141 -281h281z" />
    <glyph glyph-name="B" unicode="B" horiz-adv-x="815" 
d="M551 0h-488v718h471q117 0 180 -49.5t63 -141.5q0 -53 -27.5 -93t-77.5 -61q59 -20 93 -65.5t34 -106.5q0 -94 -66.5 -147.5t-181.5 -53.5zM204 596v-170h315q58 0 88.5 22t30.5 63t-31 63t-88 22h-315zM541 307h-337v-184h337q54 0 85 25t31 67t-31.5 67t-84.5 25z" />
    <glyph glyph-name="C" unicode="C" horiz-adv-x="835" 
d="M448 600q-120 0 -197.5 -67.5t-77.5 -173.5t77.5 -173.5t197.5 -67.5q92 0 156.5 41.5t96.5 119.5l127 -64q-42 -107 -142 -166.5t-239 -59.5q-183 0 -303.5 105.5t-120.5 264.5t120.5 264.5t303.5 105.5q139 0 239 -59.5t142 -166.5l-127 -64q-32 78 -96.5 119.5
t-156.5 41.5z" />
    <glyph glyph-name="D" unicode="D" horiz-adv-x="863" 
d="M430 0h-367v718h367q189 0 300 -97t111 -262t-111 -262t-300 -97zM207 592v-466h223q121 0 191 62.5t70 170.5t-70 170.5t-191 62.5h-223z" />
    <glyph glyph-name="E" unicode="E" horiz-adv-x="789" 
d="M63 0v718h695v-127h-550v-160h493v-126h-493v-178h550v-127h-695z" />
    <glyph glyph-name="F" unicode="F" horiz-adv-x="770" 
d="M208 285v-285h-145v718h684v-127h-539v-179h482v-127h-482z" />
    <glyph glyph-name="G" unicode="G" horiz-adv-x="897" 
d="M851 0h-138v84q-33 -42 -105.5 -68.5t-157.5 -26.5q-186 0 -306.5 105t-120.5 267q0 160 122.5 264t310.5 104q140 0 241 -58.5t143 -163.5l-129 -62q-32 75 -97.5 115t-158.5 40q-124 0 -202.5 -67t-78.5 -174t77.5 -174.5t199.5 -67.5q103 0 179.5 43.5t83.5 108.5
h-323v124h460v-393z" />
    <glyph glyph-name="H" unicode="H" horiz-adv-x="881" 
d="M671 432v286h148v-718h-148v305h-461v-305h-147v718h147v-286h461z" />
    <glyph glyph-name="I" unicode="I" horiz-adv-x="272" 
d="M63 718h147v-718h-147v718z" />
    <glyph glyph-name="J" unicode="J" horiz-adv-x="717" 
d="M339 -11q-120 0 -213.5 58t-125.5 151l134 76q18 -69 74.5 -112.5t131.5 -43.5q89 0 138 42.5t49 120.5v437h147v-444q0 -128 -92 -206.5t-243 -78.5z" />
    <glyph glyph-name="K" unicode="K" horiz-adv-x="829" 
d="M63 718h147v-344l403 344h207l-367 -304l390 -414h-194l-304 324l-135 -112v-212h-147v718z" />
    <glyph glyph-name="L" unicode="L" horiz-adv-x="736" 
d="M715 0h-652v718h147v-591h505v-127z" />
    <glyph glyph-name="M" unicode="M" horiz-adv-x="1053" 
d="M846 578l-260 -578h-119l-261 578v-578h-143v718h224l241 -538l241 538h221v-718h-144v578z" />
    <glyph glyph-name="N" unicode="N" horiz-adv-x="866" 
d="M661 718h143v-718h-130l-469 531v-531h-142v718h150l448 -507v507z" />
    <glyph glyph-name="O" unicode="O" horiz-adv-x="894" 
d="M23 359q0 160 120 265t304 105q183 0 303.5 -105t120.5 -265t-120.5 -265t-303.5 -105q-184 0 -304 105t-120 265zM720 359q0 108 -75.5 174.5t-197.5 66.5t-197.5 -66.5t-75.5 -174.5t75.5 -174.5t197.5 -66.5t197.5 66.5t75.5 174.5z" />
    <glyph glyph-name="P" unicode="P" horiz-adv-x="801" 
d="M512 264h-302v-264h-147v718h449q128 0 200 -59.5t72 -167.5q0 -107 -72 -167t-200 -60zM210 593v-204h294q64 0 99.5 27t35.5 75t-35.5 75t-99.5 27h-294z" />
    <glyph glyph-name="Q" unicode="Q" horiz-adv-x="894" 
d="M447 -11q-184 0 -304 105t-120 265t120 265t304 105q183 0 303.5 -105t120.5 -265q0 -86 -38 -160.5t-109 -125.5q22 -25 55 -42.5t76 -27.5l-81 -106q-52 14 -100 45t-75 69q-36 -11 -74.5 -16.5t-77.5 -5.5zM447 118q122 0 197.5 66.5t75.5 174.5t-75.5 174.5
t-197.5 66.5t-197.5 -66.5t-75.5 -174.5t75.5 -174.5t197.5 -66.5z" />
    <glyph glyph-name="R" unicode="R" horiz-adv-x="808" 
d="M466 267h-256v-267h-147v718h451q128 0 200.5 -59.5t72.5 -166.5q0 -80 -43.5 -134.5t-122.5 -76.5l183 -281h-169zM210 593v-203h296q64 0 99.5 26.5t35.5 74.5q0 49 -35 75.5t-100 26.5h-296z" />
    <glyph glyph-name="S" unicode="S" horiz-adv-x="776" 
d="M399 -11q-131 0 -245 46.5t-166 120.5l99 103q52 -70 135 -107t183 -37q92 0 148.5 25.5t56.5 68.5q0 34 -23.5 50.5t-87.5 27.5q-20 3 -48 6.5t-102 11.5q-178 20 -244.5 65t-66.5 130q0 103 92.5 166t244.5 63q119 0 219.5 -39t149.5 -104l-98 -94q-41 53 -114.5 82.5
t-164.5 29.5q-87 0 -136.5 -24t-49.5 -65q0 -36 40.5 -52t189.5 -33q87 -10 136.5 -19t84.5 -22q66 -23 96.5 -63t30.5 -101q0 -110 -97.5 -173t-262.5 -63z" />
    <glyph glyph-name="T" unicode="T" horiz-adv-x="818" 
d="M800 718v-127h-317v-591h-148v591h-317v127h782z" />
    <glyph glyph-name="U" unicode="U" horiz-adv-x="824" 
d="M412 -10q-178 0 -273.5 91t-95.5 258v379h147v-371q0 -114 55.5 -171t166.5 -57q110 0 165.5 57t55.5 171v371h148v-379q0 -167 -95.5 -258t-273.5 -91z" />
    <glyph glyph-name="V" unicode="V" horiz-adv-x="881" 
d="M887 718l-363 -718h-168l-363 718h160l289 -573l288 573h157z" />
    <glyph glyph-name="W" unicode="W" horiz-adv-x="1182" 
d="M336 162l180 556h153l179 -556l189 556h151l-251 -718h-171l-175 549l-177 -549h-170l-251 718h154z" />
    <glyph glyph-name="X" unicode="X" horiz-adv-x="850" 
d="M652 718h180l-316 -344l344 -374h-185l-251 277l-254 -277h-180l343 373l-316 345h184l225 -248z" />
    <glyph glyph-name="Y" unicode="Y" horiz-adv-x="848" 
d="M169 718l257 -294l257 294h175l-360 -413v-305h-147v305l-361 413h179z" />
    <glyph glyph-name="Z" unicode="Z" horiz-adv-x="795" 
d="M245 127h512v-127h-721v112l507 479h-503v127h713v-112z" />
    <glyph glyph-name="bracketleft" unicode="[" horiz-adv-x="364" 
d="M354 628h-179v-617h179v-109h-314v836h314v-110z" />
    <glyph glyph-name="backslash" unicode="\" horiz-adv-x="560" 
d="M399 -98h149l-387 836h-149z" />
    <glyph glyph-name="bracketright" unicode="]" horiz-adv-x="364" 
d="M189 11v617h-179v110h314v-836h-314v109h179z" />
    <glyph glyph-name="asciicircum" unicode="^" horiz-adv-x="584" 
d="M14 408l211 310h134l211 -310h-146l-132 198l-133 -198h-145z" />
    <glyph glyph-name="underscore" unicode="_" horiz-adv-x="456" 
d="M414 -166h-372v114h372v-114z" />
    <glyph glyph-name="grave" unicode="`" 
d="M324 718l104 -145h-118l-166 145h180z" />
    <glyph glyph-name="a" unicode="a" horiz-adv-x="663" 
d="M464 65q-38 -36 -96 -56t-125 -20q-100 0 -160.5 44t-60.5 119q0 69 54.5 111.5t154.5 52.5l219 23v4q0 37 -34.5 58.5t-96.5 21.5q-56 0 -100 -22.5t-58 -57.5l-121 41q24 68 103 110t181 42q126 0 193.5 -50.5t67.5 -144.5v-207q0 -25 17 -32q7 -3 19 -2q15 0 37 5
v-105q-34 -7 -63 -7q-35 0 -62 9q-49 17 -69 63zM262 96q76 0 132 30.5t56 76.5v36l-198 -22q-51 -6 -72.5 -20t-21.5 -41q0 -29 27 -44.5t77 -15.5z" />
    <glyph glyph-name="b" unicode="b" horiz-adv-x="701" 
d="M677 263q0 -120 -79 -197t-207 -77q-62 0 -114 20t-83 54v-63h-140v718h140v-256q31 34 83 54t114 20q128 0 207 -77t79 -196zM366 422q-76 0 -127 -44.5t-51 -111.5v-7q0 -66 51.5 -111t126.5 -45q77 0 127 44t50 116q0 71 -50 115t-127 44z" />
    <glyph glyph-name="c" unicode="c" horiz-adv-x="618" 
d="M334 420q-78 0 -126.5 -43t-48.5 -114t48.5 -114.5t126.5 -43.5q56 0 100.5 30.5t60.5 78.5l116 -59q-27 -73 -102.5 -119.5t-173.5 -46.5q-136 0 -224 77t-88 197t88 196.5t224 76.5q98 0 174 -47t103 -121l-117 -57q-16 48 -60.5 78.5t-100.5 30.5z" />
    <glyph glyph-name="d" unicode="d" horiz-adv-x="701" 
d="M310 -11q-128 0 -207 77t-79 197q0 119 79 196t207 77q62 0 114 -20t83 -54v256h140v-718h-140v63q-31 -34 -83 -54t-114 -20zM513 259v7q0 67 -51 111.5t-127 44.5q-77 0 -127 -44t-50 -115q0 -72 50 -116t127 -44q75 0 126.5 45t51.5 111z" />
    <glyph glyph-name="e" unicode="e" horiz-adv-x="647" 
d="M334 -11q-137 0 -224 76.5t-87 197.5q0 118 87.5 195.5t222.5 77.5q131 0 211 -75t80 -193v-44h-466q13 -56 60 -88.5t116 -32.5q57 0 100.5 25.5t61.5 70.5l119 -51q-28 -70 -105.5 -114.5t-175.5 -44.5zM328 424q-61 0 -105 -28t-60 -77h323q-7 43 -52 74t-106 31z" />
    <glyph glyph-name="f" unicode="f" horiz-adv-x="473" 
d="M363 729q35 0 69.5 -5t56.5 -13l-21 -115q-27 7 -49.5 10t-50.5 3q-56 0 -81.5 -18.5t-25.5 -59.5v-5h201v-117h-200v-409h-138v409h-126v117h126v9q0 95 61 144.5t178 49.5z" />
    <glyph glyph-name="g" unicode="g" horiz-adv-x="696" 
d="M642 526v-452q0 -118 -89.5 -190.5t-233.5 -72.5q-107 0 -185.5 36.5t-110.5 101.5l111 68q20 -45 69 -70.5t114 -25.5q82 0 133.5 38t51.5 102v20q-34 -35 -84.5 -54t-111.5 -19q-128 0 -207 74.5t-79 190.5q0 114 79.5 188.5t206.5 74.5q61 0 111.5 -18.5t84.5 -52.5
v61h140zM509 271v4q0 65 -51 107t-127 42t-125.5 -42t-49.5 -109q0 -68 49.5 -110t125.5 -42q77 0 127.5 42t50.5 108z" />
    <glyph glyph-name="h" unicode="h" horiz-adv-x="665" 
d="M194 0h-140v718h140v-258q32 36 82 56t110 20q105 0 167 -66t62 -177v-293h-140v260q0 71 -35.5 110.5t-99.5 39.5q-69 0 -107.5 -40t-38.5 -112v-258z" />
    <glyph glyph-name="i" unicode="i" horiz-adv-x="247" 
d="M195 588h-143v130h143v-130zM54 526h140v-526h-140v526z" />
    <glyph glyph-name="j" unicode="j" horiz-adv-x="247" 
d="M195 588h-143v130h143v-130zM-39 -73q50 0 71.5 21t21.5 67v511h140v-508q0 -101 -56.5 -153t-166.5 -52q-27 0 -59.5 5t-53.5 13l21 109q26 -7 43.5 -10t38.5 -3z" />
    <glyph glyph-name="k" unicode="k" horiz-adv-x="665" 
d="M54 718h140v-435l284 243h193l-272 -226l280 -300h-176l-204 216l-105 -87v-129h-140v718z" />
    <glyph glyph-name="l" unicode="l" horiz-adv-x="247" 
d="M54 718h140v-718h-140v718z" />
    <glyph glyph-name="m" unicode="m" horiz-adv-x="1059" 
d="M334 411q-68 0 -104 -39t-36 -112v-260h-140v526h140v-65q33 37 79 56t103 19q60 0 108.5 -24.5t74.5 -69.5q42 47 95 70.5t117 23.5q113 0 175.5 -65.5t62.5 -181.5v-289h-140v262q0 72 -33 110.5t-95 38.5q-67 0 -103 -39t-36 -112v-260h-140v262q0 72 -33 110.5
t-95 38.5z" />
    <glyph glyph-name="n" unicode="n" horiz-adv-x="665" 
d="M194 0h-140v526h140v-66q32 36 82 56t110 20q105 0 167 -66t62 -177v-293h-140v260q0 71 -35.5 110.5t-99.5 39.5q-69 0 -107.5 -40t-38.5 -112v-258z" />
    <glyph glyph-name="o" unicode="o" horiz-adv-x="661" 
d="M331 536q132 0 219 -77t87 -196q0 -120 -87 -197t-219 -77q-133 0 -220.5 77t-87.5 197q0 119 87.5 196t220.5 77zM331 419q-76 0 -124 -43t-48 -113q0 -71 48 -114t124 -43q75 0 123 43t48 114q0 70 -48 113t-123 43z" />
    <glyph glyph-name="p" unicode="p" horiz-adv-x="701" 
d="M677 263q0 -120 -79 -197t-207 -77q-62 0 -114 20t-83 54v-241h-140v704h140v-64q31 34 83 54t114 20q128 0 207 -77t79 -196zM366 422q-76 0 -127 -44.5t-51 -111.5v-7q0 -66 51.5 -111t126.5 -45q77 0 127 44t50 116q0 71 -50 115t-127 44z" />
    <glyph glyph-name="q" unicode="q" horiz-adv-x="701" 
d="M310 -11q-128 0 -207 77t-79 197q0 119 79 196t207 77q62 0 114 -20t83 -54v64h140v-704h-140v241q-31 -34 -83 -54t-114 -20zM513 259v7q0 67 -51 111.5t-127 44.5q-77 0 -127 -44t-50 -115q0 -72 50 -116t127 -44q75 0 126.5 45t51.5 111z" />
    <glyph glyph-name="r" unicode="r" horiz-adv-x="461" 
d="M392 529q16 0 30.5 -1.5t27.5 -5.5v-138q-21 5 -33 6.5t-30 1.5q-96 0 -144.5 -42.5t-48.5 -125.5v-224h-140v526h140v-93q32 49 80.5 72.5t117.5 23.5z" />
    <glyph glyph-name="s" unicode="s" horiz-adv-x="585" 
d="M299 -11q-97 0 -178 29.5t-125 80.5l80 92q43 -46 100.5 -69.5t128.5 -23.5q62 0 95 14.5t33 41.5q0 18 -15.5 27.5t-58.5 15.5q-15 3 -48 6.5t-47 5.5q-140 18 -188.5 52.5t-48.5 99.5q0 79 71 127t189 48q87 0 159.5 -26.5t112.5 -72.5l-80 -85q-34 37 -85 56.5
t-114 19.5q-55 0 -85.5 -13.5t-30.5 -38.5q0 -19 21 -28.5t130 -22.5q65 -8 101.5 -15t62.5 -17q48 -19 70.5 -49.5t22.5 -75.5q0 -83 -74.5 -131t-198.5 -48z" />
    <glyph glyph-name="t" unicode="t" horiz-adv-x="523" 
d="M339 -7q-103 0 -158.5 47t-55.5 136v233h-126v117h126v150h138v-150h224v-117h-224v-210q0 -44 24.5 -63.5t82.5 -19.5q26 0 53 5t62 17l24 -115q-36 -14 -81.5 -22t-88.5 -8z" />
    <glyph glyph-name="u" unicode="u" horiz-adv-x="660" 
d="M467 526h140v-526h-140v66q-33 -37 -81.5 -57t-107.5 -20q-104 0 -166 65t-62 174v298h140v-274q0 -69 33.5 -104.5t98.5 -35.5q69 0 107 39t38 110v265z" />
    <glyph glyph-name="v" unicode="v" horiz-adv-x="658" 
d="M660 526l-259 -526h-144l-259 526h156l178 -375l178 375h150z" />
    <glyph glyph-name="w" unicode="w" horiz-adv-x="921" 
d="M278 170l125 356h122l126 -356l128 356h144l-207 -526h-126l-129 350l-129 -350h-126l-208 526h149z" />
    <glyph glyph-name="x" unicode="x" horiz-adv-x="669" 
d="M670 0h-177l-158 177l-166 -177h-170l250 263l-242 263h176l152 -169l157 169h170l-241 -255z" />
    <glyph glyph-name="y" unicode="y" horiz-adv-x="658" 
d="M660 526l-275 -563q-39 -81 -91 -115.5t-136 -34.5q-29 0 -62.5 6.5t-51.5 15.5l25 114q21 -11 39.5 -15.5t37.5 -4.5q42 0 67.5 16.5t38.5 51.5l5 16l-259 513h156l180 -375l176 375h150z" />
    <glyph glyph-name="z" unicode="z" horiz-adv-x="625" 
d="M231 117h361v-117h-558v104l360 305h-357v117h552v-105z" />
    <glyph glyph-name="braceleft" unicode="{" horiz-adv-x="422" 
d="M69 264h-49v112h49q28 0 41.5 19t13.5 56v114q0 82 50.5 127.5t142.5 45.5h95v-110h-71q-47 0 -69 -22t-22 -71v-89q0 -49 -17.5 -79.5t-54.5 -46.5q37 -16 54.5 -46.5t17.5 -79.5v-89q0 -49 22 -71t69 -22h71v-110h-95q-92 0 -142.5 45.5t-50.5 127.5v114q0 37 -13.5 56
t-41.5 19z" />
    <glyph glyph-name="bar" unicode="|" horiz-adv-x="270" 
d="M204 -98h-138v836h138v-836z" />
    <glyph glyph-name="braceright" unicode="}" horiz-adv-x="422" 
d="M402 376v-112h-49q-28 0 -41.5 -19t-13.5 -56v-114q0 -82 -50.5 -127.5t-142.5 -45.5h-95v110h71q47 0 69 22t22 71v89q0 49 17.5 79.5t54.5 46.5q-37 16 -54.5 46.5t-17.5 79.5v89q0 49 -22 71t-69 22h-71v110h95q92 0 142.5 -45.5t50.5 -127.5v-114q0 -37 13.5 -56
t41.5 -19h49z" />
    <glyph glyph-name="asciitilde" unicode="~" horiz-adv-x="506" 
d="M176 413q17 0 34.5 -6.5t45.5 -27.5q23 -16 34 -21t21 -5q21 0 32 14t18 47h105q-5 -91 -41 -144t-95 -53q-18 0 -35 7t-46 27q-22 16 -32.5 21t-20.5 5q-21 0 -32.5 -13.5t-17.5 -46.5h-106q5 90 41.5 143t94.5 53z" />
    <glyph glyph-name="uni00A0" unicode="&#xa0;" horiz-adv-x="268" 
 />
    <glyph glyph-name="exclamdown" unicode="&#xa1;" horiz-adv-x="306" 
d="M70 559v159h166v-159h-166zM63 0l36 495h107l36 -495h-179z" />
    <glyph glyph-name="cent" unicode="&#xa2;" horiz-adv-x="656" 
d="M411 -103h-111v95q-122 15 -198 91.5t-76 186.5t76 186.5t198 91.5v107h111v-107q85 -11 149 -55.5t90 -107.5l-103 -60q-18 42 -53 70t-83 38v-327q48 11 84 40t52 70l102 -63q-26 -63 -89.5 -106.5t-148.5 -54.5v-95zM154 270q0 -62 39.5 -106t106.5 -58v328
q-67 -14 -106.5 -58t-39.5 -106z" />
    <glyph glyph-name="sterling" unicode="&#xa3;" horiz-adv-x="880" 
d="M249 285h-162v99h89q-20 28 -29 54.5t-9 54.5q0 100 96.5 168t245.5 68q153 0 246 -70t93 -188q0 -13 -1 -25.5t-3 -23.5h-134q2 9 2.5 17.5t0.5 15.5q0 72 -54 111t-152 39q-89 0 -142.5 -35.5t-53.5 -92.5q0 -20 7.5 -40t30.5 -53h267v-99h-208q5 -15 7 -30t2 -29
q0 -9 -0.5 -17.5t-2.5 -17.5q102 -52 139.5 -63t71.5 -11q62 0 98 30.5t40 86.5h134q1 -109 -69.5 -177t-184.5 -68q-60 0 -118 20.5t-149 81.5q-32 -48 -81 -75t-107 -27q-71 0 -115 36.5t-44 96.5t47 97t121 37q24 0 49 -3.5t51 -11.5q-2 10 -6.5 20.5t-12.5 23.5z
M172 166q-28 0 -44.5 -11.5t-16.5 -30.5q0 -18 14.5 -29t38.5 -11q31 0 56 16t39 44q-26 12 -46.5 17t-40.5 5z" />
    <glyph glyph-name="yen" unicode="&#xa5;" horiz-adv-x="914" 
d="M387 174h-277v97h277v59h-277v97h184l-295 291h184l276 -278l276 278h180l-294 -291h185v-97h-278v-59h278v-97h-278v-174h-141v174z" />
    <glyph glyph-name="section" unicode="&#xa7;" horiz-adv-x="802" 
d="M721 256q18 -19 27 -41t9 -48q0 -83 -89.5 -130.5t-246.5 -47.5q-135 0 -245.5 30.5t-166.5 83.5l85 99q54 -49 141 -75.5t196 -26.5q81 0 129 15.5t48 42.5q0 23 -22.5 35t-71.5 14l-296 18q-82 5 -128 41.5t-46 97.5q0 29 12 54t36 46q-18 17 -27.5 39.5t-9.5 48.5
q0 82 87.5 129.5t241.5 47.5q123 0 220 -26.5t151 -74.5l-81 -93q-47 39 -124.5 59t-179.5 20q-81 0 -124.5 -13.5t-43.5 -38.5q0 -20 18 -30t58 -12l275 -14q106 -6 159.5 -43.5t53.5 -105.5q0 -30 -11.5 -55.5t-33.5 -45.5zM250 336l281 -16q29 -2 52 -5.5t41 -8.5
q7 8 11 17.5t4 19.5q0 25 -23.5 37t-78.5 15l-290 16q-15 1 -30 3t-31 5q-10 -8 -15 -17.5t-5 -20.5q0 -21 20.5 -32t63.5 -13z" />
    <glyph glyph-name="dieresis" unicode="&#xa8;" 
d="M249 588h-144v130h144v-130zM495 588h-144v130h144v-130z" />
    <glyph glyph-name="copyright" unicode="&#xa9;" horiz-adv-x="896" 
d="M449 729q174 0 292 -105.5t118 -264.5q0 -158 -118.5 -264t-291.5 -106q-175 0 -294 106t-119 264q0 159 118.5 264.5t294.5 105.5zM449 60q143 0 240.5 86t97.5 213q0 128 -97 213.5t-241 85.5q-145 0 -242.5 -85.5t-97.5 -213.5q0 -127 98 -213t242 -86zM453 149
q-106 0 -173 59t-67 152t67 152t173 59q82 0 139 -32t80 -90l-108 -46q-15 33 -43 50t-68 17q-57 0 -90 -29.5t-33 -80.5t33 -80.5t90 -29.5q41 0 68.5 17t42.5 50l108 -46q-23 -59 -79.5 -90.5t-139.5 -31.5z" />
    <glyph glyph-name="ordfeminine" unicode="&#xaa;" horiz-adv-x="510" 
d="M336 384q-27 -24 -68 -37t-88 -13q-72 0 -115.5 31.5t-43.5 84.5q0 50 40 80.5t113 37.5l152 15v2q0 25 -23 39t-65 14q-38 0 -67 -14.5t-37 -37.5l-99 28q17 50 74 80.5t134 30.5q92 0 141 -36t49 -105v-140q0 -18 11 -22q5 -2 12 -2q10 0 26 3v-81q-28 -6 -51 -6t-41 6
q-37 11 -54 42zM200 415q51 0 88.5 20.5t37.5 50.5v22l-136 -14q-33 -3 -47 -12.5t-14 -27.5q0 -19 18.5 -29t52.5 -10zM481 188h-450v94h450v-94z" />
    <glyph glyph-name="guillemotleft" unicode="&#xab;" horiz-adv-x="545" 
d="M260 59l-222 136v130l222 136v-135l-102 -66l102 -66v-135zM507 59l-222 136v130l222 136v-135l-102 -66l102 -66v-135z" />
    <glyph glyph-name="registered" unicode="&#xae;" horiz-adv-x="542" 
d="M271 729q105 0 175 -63.5t70 -159.5t-70 -159.5t-175 -63.5t-175 63.5t-70 159.5t70 159.5t175 63.5zM271 330q83 0 138.5 50.5t55.5 125.5t-55.5 125.5t-138.5 50.5t-138.5 -50.5t-55.5 -125.5t55.5 -125.5t138.5 -50.5zM347 487l55 -90h-75l-42 73h-58v-73h-67v225h140
q43 0 67 -19t24 -54q0 -21 -11.5 -36.5t-32.5 -25.5zM322 543q0 12 -8.5 18.5t-22.5 6.5h-64v-50h64q14 0 22.5 6.5t8.5 18.5z" />
    <glyph glyph-name="macron" unicode="&#xaf;" 
d="M483 696v-106h-366v106h366z" />
    <glyph glyph-name="degree" unicode="&#xb0;" horiz-adv-x="406" 
d="M18 575q0 68 51.5 111t133.5 43t133.5 -43t51.5 -111q0 -67 -52 -111t-133 -44q-82 0 -133.5 43.5t-51.5 111.5zM114 575q0 -31 24.5 -49.5t64.5 -18.5q41 0 64.5 18t23.5 50t-23.5 50t-64.5 18q-40 0 -64.5 -18.5t-24.5 -49.5z" />
    <glyph glyph-name="uni00B2" unicode="&#xb2;" horiz-adv-x="444" 
d="M27 320v79l169 92q71 36 89.5 53.5t18.5 38.5q0 22 -20 36t-54 14q-44 0 -74.5 -24t-37.5 -63l-100 21q10 70 69 113.5t148 43.5q81 0 131.5 -36t50.5 -96q0 -44 -27.5 -77t-89.5 -62l-83 -42h209v-91h-399z" />
    <glyph glyph-name="uni00B3" unicode="&#xb3;" horiz-adv-x="464" 
d="M447 434q0 -52 -59 -86t-154 -34q-84 0 -143 29t-87 83l97 44q15 -31 51.5 -49.5t81.5 -18.5q41 0 66.5 11.5t25.5 30.5t-22 28t-66 9h-74v82h69q43 0 64 8.5t21 26.5q0 17 -22.5 27t-61.5 10q-43 0 -76 -17t-46 -44l-92 43q24 49 84 78t138 29q89 0 142.5 -32t53.5 -84
q0 -29 -19 -52t-51 -33q40 -12 59.5 -34t19.5 -55z" />
    <glyph glyph-name="acute" unicode="&#xb4;" 
d="M290 573h-118l104 145h180z" />
    <glyph glyph-name="paragraph" unicode="&#xb6;" horiz-adv-x="851" 
d="M708 0h-133v600h-144v-282h-177q-103 0 -167 54t-64 143q0 91 68 147t178 56h570v-118h-131v-600z" />
    <glyph glyph-name="periodcentered" unicode="&#xb7;" horiz-adv-x="244" 
d="M204 210h-164v162h164v-162z" />
    <glyph glyph-name="cedilla" unicode="&#xb8;" 
d="M439 -100q0 -40 -39.5 -64t-102.5 -24q-42 0 -78 9.5t-58 26.5l43 64q18 -14 39.5 -21t47.5 -7t39.5 6t13.5 18q0 14 -21.5 20.5t-74.5 7.5l23 76h67l-10 -33q51 -2 81 -23.5t30 -55.5z" />
    <glyph glyph-name="uni00B9" unicode="&#xb9;" horiz-adv-x="373" 
d="M366 320h-353v92h128v156h-128v82l60 2q45 1 66.5 16.5t27.5 49.5h85v-306h114v-92z" />
    <glyph glyph-name="ordmasculine" unicode="&#xba;" horiz-adv-x="488" 
d="M244 725q98 0 160.5 -54.5t62.5 -141.5q0 -86 -63 -141t-160 -55t-160 55t-63 141q0 87 62.5 141.5t160.5 54.5zM244 635q-51 0 -83 -29t-32 -77t32 -76.5t83 -28.5t83.5 29t32.5 76q0 48 -32.5 77t-83.5 29zM461 188h-434v94h434v-94z" />
    <glyph glyph-name="guillemotright" unicode="&#xbb;" horiz-adv-x="545" 
d="M260 325v-130l-222 -136v135l102 66l-102 66v135zM507 325v-130l-222 -136v135l102 66l-102 66v135z" />
    <glyph glyph-name="onequarter" unicode="&#xbc;" horiz-adv-x="1012" 
d="M366 320h-353v92h128v156h-128v82l60 2q45 1 66.5 16.5t27.5 49.5h85v-306h114v-92zM173 0l569 718h123l-569 -718h-123zM906 87v-87h-106v87h-252v81l217 230h141v-225h91v-86h-91zM800 310l-130 -137h130v137z" />
    <glyph glyph-name="onehalf" unicode="&#xbd;" horiz-adv-x="1039" 
d="M366 320h-353v92h128v156h-128v82l60 2q45 1 66.5 16.5t27.5 49.5h85v-306h114v-92zM173 0l569 718h123l-569 -718h-123zM622 0v79l169 92q71 36 89.5 53.5t18.5 38.5q0 22 -20 36t-54 14q-44 0 -74.5 -24t-37.5 -63l-100 21q10 70 69 113.5t148 43.5q81 0 131.5 -36
t50.5 -96q0 -44 -27.5 -77t-89.5 -62l-83 -42h209v-91h-399z" />
    <glyph glyph-name="threequarters" unicode="&#xbe;" horiz-adv-x="1034" 
d="M447 434q0 -52 -59 -86t-154 -34q-84 0 -143 29t-87 83l97 44q15 -31 51.5 -49.5t81.5 -18.5q41 0 66.5 11.5t25.5 30.5t-22 28t-66 9h-74v82h69q43 0 64 8.5t21 26.5q0 17 -22.5 27t-61.5 10q-43 0 -76 -17t-46 -44l-92 43q24 49 84 78t138 29q89 0 142.5 -32t53.5 -84
q0 -29 -19 -52t-51 -33q40 -12 59.5 -34t19.5 -55zM194 0l569 718h123l-569 -718h-123zM928 87v-87h-106v87h-252v81l217 230h141v-225h91v-86h-91zM822 310l-130 -137h130v137z" />
    <glyph glyph-name="questiondown" unicode="&#xbf;" horiz-adv-x="707" 
d="M256 728h165v-159h-165v159zM166 231q0 -53 46 -80t136 -27q85 0 141.5 34t66.5 91l149 -22q-18 -103 -116.5 -165.5t-248.5 -62.5t-240 61t-90 163q0 84 70 139.5t193 71.5v71h142v-170q-130 0 -189.5 -25t-59.5 -79z" />
    <glyph glyph-name="Agrave" unicode="&#xc0;" horiz-adv-x="876" 
d="M-7 0l362 718h165l362 -718h-159l-83 167h-406l-84 -167h-157zM577 292l-140 281l-141 -281h281zM393 910l117 -151h-126l-190 151h199z" />
    <glyph glyph-name="Aacute" unicode="&#xc1;" horiz-adv-x="876" 
d="M-7 0l362 718h165l362 -718h-159l-83 167h-406l-84 -167h-157zM577 292l-140 281l-141 -281h281zM495 759h-126l117 151h199z" />
    <glyph glyph-name="Acircumflex" unicode="&#xc2;" horiz-adv-x="876" 
d="M-7 0l362 718h165l362 -718h-159l-83 167h-406l-84 -167h-157zM577 292l-140 281l-141 -281h281zM359 910h156l144 -151h-116l-106 67l-106 -67h-116z" />
    <glyph glyph-name="Atilde" unicode="&#xc3;" horiz-adv-x="876" 
d="M-7 0l362 718h165l362 -718h-159l-83 167h-406l-84 -167h-157zM577 292l-140 281l-141 -281h281zM338 923q26 0 50.5 -6t64.5 -26q29 -14 43.5 -18t27.5 -4q17 0 27 12.5t16 41.5h93q-4 -76 -37 -120t-86 -44q-25 0 -50 6.5t-65 25.5q-29 15 -43 19t-27 4q-18 0 -28 -13
t-15 -42h-93q3 76 35.5 120t86.5 44z" />
    <glyph glyph-name="Adieresis" unicode="&#xc4;" horiz-adv-x="876" 
d="M-7 0l362 718h165l362 -718h-159l-83 167h-406l-84 -167h-157zM577 292l-140 281l-141 -281h281zM382 759h-144v132h144v-132zM636 759h-144v132h144v-132z" />
    <glyph glyph-name="Aring" unicode="&#xc5;" horiz-adv-x="876" 
d="M295 789q0 54 40.5 90t101.5 36q62 0 102.5 -36t40.5 -90q0 -29 -12.5 -54t-34.5 -42l349 -693h-159l-83 167h-406l-84 -167h-157l349 693q-22 18 -34.5 43t-12.5 53zM437 842q-26 0 -42.5 -15t-16.5 -38t17 -38t42 -15q26 0 42.5 15t16.5 38t-16.5 38t-42.5 15zM577 292
l-140 281l-141 -281h281z" />
    <glyph glyph-name="AE" unicode="&#xc6;" horiz-adv-x="1419" 
d="M-12 0l642 718h758v-127h-550v-160h493v-126h-493v-178h550v-127h-695v165h-374l-146 -165h-185zM693 587l-264 -298h264v298z" />
    <glyph glyph-name="Ccedilla" unicode="&#xc7;" horiz-adv-x="835" 
d="M23 359q0 159 120.5 264.5t303.5 105.5q139 0 239 -59.5t142 -166.5l-127 -64q-32 78 -96.5 119.5t-156.5 41.5q-120 0 -197.5 -67.5t-77.5 -173.5t77.5 -173.5t197.5 -67.5q92 0 156.5 41.5t96.5 119.5l127 -64q-42 -107 -141.5 -166.5t-236.5 -59.5l-3 -10
q51 -2 81 -23.5t30 -55.5q0 -40 -39.5 -64t-102.5 -24q-42 0 -78 9.5t-58 26.5l43 64q18 -14 39.5 -21t47.5 -7t39.5 6t13.5 18q0 14 -21.5 20.5t-74.5 7.5l17 57q-160 18 -260.5 120t-100.5 246z" />
    <glyph glyph-name="Egrave" unicode="&#xc8;" horiz-adv-x="789" 
d="M63 0v718h695v-127h-550v-160h493v-126h-493v-178h550v-127h-695zM393 910l117 -151h-126l-190 151h199z" />
    <glyph glyph-name="Eacute" unicode="&#xc9;" horiz-adv-x="789" 
d="M63 0v718h695v-127h-550v-160h493v-126h-493v-178h550v-127h-695zM453 759h-126l117 151h199z" />
    <glyph glyph-name="Ecircumflex" unicode="&#xca;" horiz-adv-x="789" 
d="M63 0v718h695v-127h-550v-160h493v-126h-493v-178h550v-127h-695zM330 910h156l144 -151h-116l-106 67l-106 -67h-116z" />
    <glyph glyph-name="Edieresis" unicode="&#xcb;" horiz-adv-x="789" 
d="M63 0v718h695v-127h-550v-160h493v-126h-493v-178h550v-127h-695zM353 759h-144v132h144v-132zM607 759h-144v132h144v-132z" />
    <glyph glyph-name="Igrave" unicode="&#xcc;" horiz-adv-x="272" 
d="M63 718h147v-718h-147v718zM84 910l117 -151h-126l-190 151h199z" />
    <glyph glyph-name="Iacute" unicode="&#xcd;" horiz-adv-x="272" 
d="M63 718h147v-718h-147v718zM198 759h-126l117 151h199z" />
    <glyph glyph-name="Icircumflex" unicode="&#xce;" horiz-adv-x="272" 
d="M63 718h147v-718h-147v718zM58 910h156l144 -151h-116l-106 67l-106 -67h-116z" />
    <glyph glyph-name="Idieresis" unicode="&#xcf;" horiz-adv-x="272" 
d="M63 718h147v-718h-147v718zM81 759h-144v132h144v-132zM335 759h-144v132h144v-132z" />
    <glyph glyph-name="Eth" unicode="&#xd0;" horiz-adv-x="903" 
d="M470 0h-367v305h-98v125h98v288h367q189 0 300 -97t111 -262t-111 -262t-300 -97zM247 305v-179h223q121 0 191 62.5t70 170.5t-70 170.5t-191 62.5h-223v-162h164v-125h-164z" />
    <glyph glyph-name="Ntilde" unicode="&#xd1;" horiz-adv-x="866" 
d="M661 718h143v-718h-130l-469 531v-531h-142v718h150l448 -507v507zM329 923q26 0 50.5 -6t64.5 -26q29 -14 43.5 -18t27.5 -4q17 0 27 12.5t16 41.5h93q-4 -76 -37 -120t-86 -44q-25 0 -50 6.5t-65 25.5q-29 15 -43 19t-27 4q-18 0 -28 -13t-15 -42h-93q3 76 35.5 120
t86.5 44z" />
    <glyph glyph-name="Ograve" unicode="&#xd2;" horiz-adv-x="894" 
d="M23 359q0 160 120 265t304 105q183 0 303.5 -105t120.5 -265t-120.5 -265t-303.5 -105q-184 0 -304 105t-120 265zM720 359q0 108 -75.5 174.5t-197.5 66.5t-197.5 -66.5t-75.5 -174.5t75.5 -174.5t197.5 -66.5t197.5 66.5t75.5 174.5zM410 910l117 -151h-126l-190 151
h199z" />
    <glyph glyph-name="Oacute" unicode="&#xd3;" horiz-adv-x="894" 
d="M23 359q0 160 120 265t304 105q183 0 303.5 -105t120.5 -265t-120.5 -265t-303.5 -105q-184 0 -304 105t-120 265zM720 359q0 108 -75.5 174.5t-197.5 66.5t-197.5 -66.5t-75.5 -174.5t75.5 -174.5t197.5 -66.5t197.5 66.5t75.5 174.5zM496 759h-126l117 151h199z" />
    <glyph glyph-name="Ocircumflex" unicode="&#xd4;" horiz-adv-x="894" 
d="M23 359q0 160 120 265t304 105q183 0 303.5 -105t120.5 -265t-120.5 -265t-303.5 -105q-184 0 -304 105t-120 265zM720 359q0 108 -75.5 174.5t-197.5 66.5t-197.5 -66.5t-75.5 -174.5t75.5 -174.5t197.5 -66.5t197.5 66.5t75.5 174.5zM369 910h156l144 -151h-116
l-106 67l-106 -67h-116z" />
    <glyph glyph-name="Otilde" unicode="&#xd5;" horiz-adv-x="894" 
d="M23 359q0 160 120 265t304 105q183 0 303.5 -105t120.5 -265t-120.5 -265t-303.5 -105q-184 0 -304 105t-120 265zM720 359q0 108 -75.5 174.5t-197.5 66.5t-197.5 -66.5t-75.5 -174.5t75.5 -174.5t197.5 -66.5t197.5 66.5t75.5 174.5zM347 923q26 0 50.5 -6t64.5 -26
q29 -14 43.5 -18t27.5 -4q17 0 27 12.5t16 41.5h93q-4 -76 -37 -120t-86 -44q-25 0 -50 6.5t-65 25.5q-29 15 -43 19t-27 4q-18 0 -28 -13t-15 -42h-93q3 76 35.5 120t86.5 44z" />
    <glyph glyph-name="Odieresis" unicode="&#xd6;" horiz-adv-x="894" 
d="M23 359q0 160 120 265t304 105q183 0 303.5 -105t120.5 -265t-120.5 -265t-303.5 -105q-184 0 -304 105t-120 265zM720 359q0 108 -75.5 174.5t-197.5 66.5t-197.5 -66.5t-75.5 -174.5t75.5 -174.5t197.5 -66.5t197.5 66.5t75.5 174.5zM392 759h-144v132h144v-132z
M646 759h-144v132h144v-132z" />
    <glyph glyph-name="multiply" unicode="&#xd7;" horiz-adv-x="800" 
d="M78 116l239 238l-239 238l84 84l239 -238l237 236l83 -82l-237 -238l238 -238l-83 -84l-239 239l-238 -239z" />
    <glyph glyph-name="Oslash" unicode="&#xd8;" horiz-adv-x="893" 
d="M117 -29l-84 83l76 73q-42 49 -64 108t-22 124q0 160 120 265t304 105q71 0 135.5 -17.5t118.5 -50.5l76 73l83 -82l-70 -67q40 -48 60.5 -105.5t20.5 -120.5q0 -160 -120.5 -265t-303.5 -105q-68 0 -130.5 16t-116.5 47zM447 604q-125 0 -201 -67t-76 -178
q0 -41 11.5 -77.5t34.5 -67.5l381 356q-32 17 -70 25.5t-80 8.5zM447 114q124 0 200 67t76 178q0 38 -10.5 73t-30.5 65l-378 -353q32 -15 68 -22.5t75 -7.5z" />
    <glyph glyph-name="Ugrave" unicode="&#xd9;" horiz-adv-x="824" 
d="M412 -10q-178 0 -273.5 91t-95.5 258v379h147v-371q0 -114 55.5 -171t166.5 -57q110 0 165.5 57t55.5 171v371h148v-379q0 -167 -95.5 -258t-273.5 -91zM389 910l117 -151h-126l-190 151h199z" />
    <glyph glyph-name="Uacute" unicode="&#xda;" horiz-adv-x="824" 
d="M412 -10q-178 0 -273.5 91t-95.5 258v379h147v-371q0 -114 55.5 -171t166.5 -57q110 0 165.5 57t55.5 171v371h148v-379q0 -167 -95.5 -258t-273.5 -91zM455 759h-126l117 151h199z" />
    <glyph glyph-name="Ucircumflex" unicode="&#xdb;" horiz-adv-x="824" 
d="M412 -10q-178 0 -273.5 91t-95.5 258v379h147v-371q0 -114 55.5 -171t166.5 -57q110 0 165.5 57t55.5 171v371h148v-379q0 -167 -95.5 -258t-273.5 -91zM334 910h156l144 -151h-116l-106 67l-106 -67h-116z" />
    <glyph glyph-name="Udieresis" unicode="&#xdc;" horiz-adv-x="824" 
d="M412 -10q-178 0 -273.5 91t-95.5 258v379h147v-371q0 -114 55.5 -171t166.5 -57q110 0 165.5 57t55.5 171v371h148v-379q0 -167 -95.5 -258t-273.5 -91zM357 759h-144v132h144v-132zM611 759h-144v132h144v-132z" />
    <glyph glyph-name="Yacute" unicode="&#xdd;" horiz-adv-x="848" 
d="M169 718l257 -294l257 294h175l-360 -413v-305h-147v305l-361 413h179zM471 759h-126l117 151h199z" />
    <glyph glyph-name="Thorn" unicode="&#xde;" horiz-adv-x="801" 
d="M784 369q0 -107 -72 -167t-200 -60h-302v-142h-147v718h147v-122h302q128 0 200 -59.5t72 -167.5zM504 473h-294v-208h294q64 0 99.5 27.5t35.5 76.5t-35.5 76.5t-99.5 27.5z" />
    <glyph glyph-name="germandbls" unicode="&#xdf;" horiz-adv-x="731" 
d="M374 729q118 0 189.5 -51t71.5 -132q0 -49 -26 -85.5t-74 -54.5q85 -20 130.5 -70t45.5 -124q0 -98 -76.5 -160.5t-196.5 -62.5q-69 0 -127.5 22.5t-96.5 64.5l70 101q34 -37 72 -55.5t81 -18.5q62 0 100.5 31t38.5 80q0 57 -50.5 86.5t-148.5 29.5h-106v118h97
q63 0 98 21.5t35 60.5q0 41 -34.5 63.5t-95.5 22.5q-82 0 -128 -45t-46 -123v-448h-139v450q0 122 86.5 200.5t229.5 78.5z" />
    <glyph glyph-name="agrave" unicode="&#xe0;" horiz-adv-x="663" 
d="M464 65q-38 -36 -96 -56t-125 -20q-100 0 -160.5 44t-60.5 119q0 69 54.5 111.5t154.5 52.5l219 23v4q0 37 -34.5 58.5t-96.5 21.5q-56 0 -100 -22.5t-58 -57.5l-121 41q24 68 103 110t181 42q126 0 193.5 -50.5t67.5 -144.5v-207q0 -25 17 -32q7 -3 19 -2q15 0 37 5
v-105q-34 -7 -63 -7q-35 0 -62 9q-49 17 -69 63zM262 96q76 0 132 30.5t56 76.5v36l-198 -22q-51 -6 -72.5 -20t-21.5 -41q0 -29 27 -44.5t77 -15.5zM304 718l104 -145h-118l-166 145h180z" />
    <glyph glyph-name="aacute" unicode="&#xe1;" horiz-adv-x="663" 
d="M464 65q-38 -36 -96 -56t-125 -20q-100 0 -160.5 44t-60.5 119q0 69 54.5 111.5t154.5 52.5l219 23v4q0 37 -34.5 58.5t-96.5 21.5q-56 0 -100 -22.5t-58 -57.5l-121 41q24 68 103 110t181 42q126 0 193.5 -50.5t67.5 -144.5v-207q0 -25 17 -32q7 -3 19 -2q15 0 37 5
v-105q-34 -7 -63 -7q-35 0 -62 9q-49 17 -69 63zM262 96q76 0 132 30.5t56 76.5v36l-198 -22q-51 -6 -72.5 -20t-21.5 -41q0 -29 27 -44.5t77 -15.5zM373 573h-118l104 145h180z" />
    <glyph glyph-name="acircumflex" unicode="&#xe2;" horiz-adv-x="663" 
d="M464 65q-38 -36 -96 -56t-125 -20q-100 0 -160.5 44t-60.5 119q0 69 54.5 111.5t154.5 52.5l219 23v4q0 37 -34.5 58.5t-96.5 21.5q-56 0 -100 -22.5t-58 -57.5l-121 41q24 68 103 110t181 42q126 0 193.5 -50.5t67.5 -144.5v-207q0 -25 17 -32q7 -3 19 -2q15 0 37 5
v-105q-34 -7 -63 -7q-35 0 -62 9q-49 17 -69 63zM262 96q76 0 132 30.5t56 76.5v36l-198 -22q-51 -6 -72.5 -20t-21.5 -41q0 -29 27 -44.5t77 -15.5zM250 718h142l129 -145h-109l-91 58l-91 -58h-109z" />
    <glyph glyph-name="atilde" unicode="&#xe3;" horiz-adv-x="663" 
d="M464 65q-38 -36 -96 -56t-125 -20q-100 0 -160.5 44t-60.5 119q0 69 54.5 111.5t154.5 52.5l219 23v4q0 37 -34.5 58.5t-96.5 21.5q-56 0 -100 -22.5t-58 -57.5l-121 41q24 68 103 110t181 42q126 0 193.5 -50.5t67.5 -144.5v-207q0 -25 17 -32q7 -3 19 -2q15 0 37 5
v-105q-34 -7 -63 -7q-35 0 -62 9q-49 17 -69 63zM262 96q76 0 132 30.5t56 76.5v36l-198 -22q-51 -6 -72.5 -20t-21.5 -41q0 -29 27 -44.5t77 -15.5zM230 726q22 0 43 -6t54 -25q22 -12 33.5 -16t21.5 -4q15 0 24 12t14 39h86q-3 -71 -32 -112t-77 -41q-22 0 -43 6t-54 25
q-23 13 -34 16.5t-21 3.5q-15 0 -24 -12t-14 -39h-86q3 71 32 112t77 41z" />
    <glyph glyph-name="adieresis" unicode="&#xe4;" horiz-adv-x="663" 
d="M464 65q-38 -36 -96 -56t-125 -20q-100 0 -160.5 44t-60.5 119q0 69 54.5 111.5t154.5 52.5l219 23v4q0 37 -34.5 58.5t-96.5 21.5q-56 0 -100 -22.5t-58 -57.5l-121 41q24 68 103 110t181 42q126 0 193.5 -50.5t67.5 -144.5v-207q0 -25 17 -32q7 -3 19 -2q15 0 37 5
v-105q-34 -7 -63 -7q-35 0 -62 9q-49 17 -69 63zM262 96q76 0 132 30.5t56 76.5v36l-198 -22q-51 -6 -72.5 -20t-21.5 -41q0 -29 27 -44.5t77 -15.5zM273 588h-144v130h144v-130zM519 588h-144v130h144v-130z" />
    <glyph glyph-name="aring" unicode="&#xe5;" horiz-adv-x="663" 
d="M464 65q-38 -36 -96 -56t-125 -20q-100 0 -160.5 44t-60.5 119q0 69 54.5 111.5t154.5 52.5l219 23v4q0 37 -34.5 58.5t-96.5 21.5q-56 0 -100 -22.5t-58 -57.5l-121 41q24 68 103 110t181 42q126 0 193.5 -50.5t67.5 -144.5v-207q0 -25 17 -32q7 -3 19 -2q15 0 37 5
v-105q-34 -7 -63 -7q-35 0 -62 9q-49 17 -69 63zM262 96q76 0 132 30.5t56 76.5v36l-198 -22q-51 -6 -72.5 -20t-21.5 -41q0 -29 27 -44.5t77 -15.5zM321 561q-49 0 -81.5 31.5t-32.5 77.5q0 45 32.5 76.5t81.5 31.5t81.5 -31.5t32.5 -76.5q0 -46 -32.5 -77.5t-81.5 -31.5z
M321 715q-18 0 -31 -13.5t-13 -31.5q0 -19 12.5 -32t31.5 -13t31.5 13t12.5 32q0 18 -13 31.5t-31 13.5z" />
    <glyph glyph-name="ae" unicode="&#xe6;" horiz-adv-x="1072" 
d="M22 152q0 77 63 121t175 44h190v26q0 37 -34.5 58.5t-96.5 21.5q-56 0 -100 -22.5t-58 -57.5l-121 41q24 68 103 110t181 42q77 0 132 -19.5t86 -57.5q41 37 97 57t120 20q130 0 210 -75t80 -193v-44h-465q13 -56 59 -88.5t114 -32.5q58 0 101.5 25.5t62.5 70.5l119 -51
q-28 -70 -105.5 -114.5t-175.5 -44.5q-81 0 -147 29t-108 82q-41 -55 -107 -83t-151 -28q-102 0 -163 43.5t-61 119.5zM753 425q-61 0 -105 -29t-60 -79h325q-8 44 -54 76t-106 32zM158 158q0 -30 27.5 -46t76.5 -16q77 0 132.5 30t55.5 77v21h-175q-59 0 -88 -16.5
t-29 -49.5z" />
    <glyph glyph-name="ccedilla" unicode="&#xe7;" horiz-adv-x="618" 
d="M23 263q0 120 88 196.5t224 76.5q98 0 174 -47t103 -121l-117 -57q-16 48 -60.5 78.5t-100.5 30.5q-78 0 -126.5 -43t-48.5 -114t48.5 -114.5t126.5 -43.5q56 0 100.5 30.5t60.5 78.5l116 -59q-26 -71 -98.5 -117t-167.5 -49l-3 -10q51 -2 81 -23.5t30 -55.5
q0 -40 -39.5 -64t-102.5 -24q-42 0 -78 9.5t-58 26.5l43 64q18 -14 39.5 -21t47.5 -7t39.5 6t13.5 18q0 14 -21.5 20.5t-74.5 7.5l17 57q-115 15 -185.5 89.5t-70.5 180.5z" />
    <glyph glyph-name="egrave" unicode="&#xe8;" horiz-adv-x="647" 
d="M334 -11q-137 0 -224 76.5t-87 197.5q0 118 87.5 195.5t222.5 77.5q131 0 211 -75t80 -193v-44h-466q13 -56 60 -88.5t116 -32.5q57 0 100.5 25.5t61.5 70.5l119 -51q-28 -70 -105.5 -114.5t-175.5 -44.5zM328 424q-61 0 -105 -28t-60 -77h323q-7 43 -52 74t-106 31z
M310 718l104 -145h-118l-166 145h180z" />
    <glyph glyph-name="eacute" unicode="&#xe9;" horiz-adv-x="647" 
d="M334 -11q-137 0 -224 76.5t-87 197.5q0 118 87.5 195.5t222.5 77.5q131 0 211 -75t80 -193v-44h-466q13 -56 60 -88.5t116 -32.5q57 0 100.5 25.5t61.5 70.5l119 -51q-28 -70 -105.5 -114.5t-175.5 -44.5zM328 424q-61 0 -105 -28t-60 -77h323q-7 43 -52 74t-106 31z
M383 573h-118l104 145h180z" />
    <glyph glyph-name="ecircumflex" unicode="&#xea;" horiz-adv-x="647" 
d="M334 -11q-137 0 -224 76.5t-87 197.5q0 118 87.5 195.5t222.5 77.5q131 0 211 -75t80 -193v-44h-466q13 -56 60 -88.5t116 -32.5q57 0 100.5 25.5t61.5 70.5l119 -51q-28 -70 -105.5 -114.5t-175.5 -44.5zM328 424q-61 0 -105 -28t-60 -77h323q-7 43 -52 74t-106 31z
M259 718h142l129 -145h-109l-91 58l-91 -58h-109z" />
    <glyph glyph-name="edieresis" unicode="&#xeb;" horiz-adv-x="647" 
d="M334 -11q-137 0 -224 76.5t-87 197.5q0 118 87.5 195.5t222.5 77.5q131 0 211 -75t80 -193v-44h-466q13 -56 60 -88.5t116 -32.5q57 0 100.5 25.5t61.5 70.5l119 -51q-28 -70 -105.5 -114.5t-175.5 -44.5zM328 424q-61 0 -105 -28t-60 -77h323q-7 43 -52 74t-106 31z
M276 588h-144v130h144v-130zM522 588h-144v130h144v-130z" />
    <glyph glyph-name="igrave" unicode="&#xec;" horiz-adv-x="247" 
d="M54 526h140v-526h-140v526zM84 718l104 -145h-118l-166 145h180z" />
    <glyph glyph-name="iacute" unicode="&#xed;" horiz-adv-x="247" 
d="M54 526h140v-526h-140v526zM179 573h-118l104 145h180z" />
    <glyph glyph-name="icircumflex" unicode="&#xee;" horiz-adv-x="247" 
d="M54 526h140v-526h-140v526zM53 718h142l129 -145h-109l-91 58l-91 -58h-109z" />
    <glyph glyph-name="idieresis" unicode="&#xef;" horiz-adv-x="247" 
d="M54 526h140v-526h-140v526zM73 588h-144v130h144v-130zM319 588h-144v130h144v-130z" />
    <glyph glyph-name="eth" unicode="&#xf0;" horiz-adv-x="660" 
d="M312 528q39 0 72.5 -7t54.5 -19q-14 20 -35 40.5t-48 40.5l-231 -55v96l123 29q-27 15 -51.5 27t-46.5 22l151 26q24 -10 45 -21t39 -22l181 43v-96l-82 -19q75 -67 114 -150.5t39 -176.5q0 -134 -85 -215.5t-221 -81.5q-133 0 -220.5 77t-87.5 196q0 115 83.5 190.5
t205.5 75.5zM331 419q-76 0 -124 -43t-48 -113q0 -71 48 -114t124 -43q75 0 123 43t48 114q0 70 -48 113t-123 43z" />
    <glyph glyph-name="ntilde" unicode="&#xf1;" horiz-adv-x="665" 
d="M194 0h-140v526h140v-66q32 36 82 56t110 20q105 0 167 -66t62 -177v-293h-140v260q0 71 -35.5 110.5t-99.5 39.5q-69 0 -107.5 -40t-38.5 -112v-258zM251 726q22 0 43 -6t54 -25q22 -12 33.5 -16t21.5 -4q15 0 24 12t14 39h86q-3 -71 -32 -112t-77 -41q-22 0 -43 6
t-54 25q-23 13 -34 16.5t-21 3.5q-15 0 -24 -12t-14 -39h-86q3 71 32 112t77 41z" />
    <glyph glyph-name="ograve" unicode="&#xf2;" horiz-adv-x="661" 
d="M331 536q132 0 219 -77t87 -196q0 -120 -87 -197t-219 -77q-133 0 -220.5 77t-87.5 197q0 119 87.5 196t220.5 77zM331 419q-76 0 -124 -43t-48 -113q0 -71 48 -114t124 -43q75 0 123 43t48 114q0 70 -48 113t-123 43zM300 719l104 -145h-118l-166 145h180z" />
    <glyph glyph-name="oacute" unicode="&#xf3;" horiz-adv-x="661" 
d="M331 536q132 0 219 -77t87 -196q0 -120 -87 -197t-219 -77q-133 0 -220.5 77t-87.5 197q0 119 87.5 196t220.5 77zM331 419q-76 0 -124 -43t-48 -113q0 -71 48 -114t124 -43q75 0 123 43t48 114q0 70 -48 113t-123 43zM381 573h-118l104 145h180z" />
    <glyph glyph-name="ocircumflex" unicode="&#xf4;" horiz-adv-x="661" 
d="M331 536q132 0 219 -77t87 -196q0 -120 -87 -197t-219 -77q-133 0 -220.5 77t-87.5 197q0 119 87.5 196t220.5 77zM331 419q-76 0 -124 -43t-48 -113q0 -71 48 -114t124 -43q75 0 123 43t48 114q0 70 -48 113t-123 43zM259 718h142l129 -145h-109l-91 58l-91 -58h-109z
" />
    <glyph glyph-name="otilde" unicode="&#xf5;" horiz-adv-x="661" 
d="M331 536q132 0 219 -77t87 -196q0 -120 -87 -197t-219 -77q-133 0 -220.5 77t-87.5 197q0 119 87.5 196t220.5 77zM331 419q-76 0 -124 -43t-48 -113q0 -71 48 -114t124 -43q75 0 123 43t48 114q0 70 -48 113t-123 43zM247 726q22 0 43 -6t54 -25q22 -12 33.5 -16
t21.5 -4q15 0 24 12t14 39h86q-3 -71 -32 -112t-77 -41q-22 0 -43 6t-54 25q-23 13 -34 16.5t-21 3.5q-15 0 -24 -12t-14 -39h-86q3 71 32 112t77 41z" />
    <glyph glyph-name="odieresis" unicode="&#xf6;" horiz-adv-x="661" 
d="M331 536q132 0 219 -77t87 -196q0 -120 -87 -197t-219 -77q-133 0 -220.5 77t-87.5 197q0 119 87.5 196t220.5 77zM331 419q-76 0 -124 -43t-48 -113q0 -71 48 -114t124 -43q75 0 123 43t48 114q0 70 -48 113t-123 43zM279 588h-144v130h144v-130zM525 588h-144v130h144
v-130z" />
    <glyph glyph-name="divide" unicode="&#xf7;" horiz-adv-x="800" 
d="M474 515h-150v145h150v-145zM740 294h-680v120h680v-120zM474 48h-150v145h150v-145z" />
    <glyph glyph-name="oslash" unicode="&#xf8;" horiz-adv-x="661" 
d="M24 263q0 120 87 196.5t220 76.5q48 0 91.5 -11t79.5 -32l62 62l69 -67l-56 -56q29 -35 44.5 -78t15.5 -91q0 -120 -87 -197t-219 -77q-48 0 -91.5 11t-80.5 32l-61 -61l-70 66l56 57q-29 34 -44.5 77t-15.5 92zM331 426q-78 0 -127.5 -45t-49.5 -118q0 -25 6 -47.5
t18 -41.5l235 235q-18 8 -39 12.5t-43 4.5zM331 100q78 0 127 44.5t49 118.5q0 24 -6 46t-18 41l-235 -234q18 -8 39 -12t44 -4z" />
    <glyph glyph-name="ugrave" unicode="&#xf9;" horiz-adv-x="660" 
d="M467 526h140v-526h-140v66q-33 -37 -81.5 -57t-107.5 -20q-104 0 -166 65t-62 174v298h140v-274q0 -69 33.5 -104.5t98.5 -35.5q69 0 107 39t38 110v265zM300 718l104 -145h-118l-166 145h180z" />
    <glyph glyph-name="uacute" unicode="&#xfa;" horiz-adv-x="660" 
d="M467 526h140v-526h-140v66q-33 -37 -81.5 -57t-107.5 -20q-104 0 -166 65t-62 174v298h140v-274q0 -69 33.5 -104.5t98.5 -35.5q69 0 107 39t38 110v265zM377 573h-118l104 145h180z" />
    <glyph glyph-name="ucircumflex" unicode="&#xfb;" horiz-adv-x="660" 
d="M467 526h140v-526h-140v66q-33 -37 -81.5 -57t-107.5 -20q-104 0 -166 65t-62 174v298h140v-274q0 -69 33.5 -104.5t98.5 -35.5q69 0 107 39t38 110v265zM257 718h142l129 -145h-109l-91 58l-91 -58h-109z" />
    <glyph glyph-name="udieresis" unicode="&#xfc;" horiz-adv-x="660" 
d="M467 526h140v-526h-140v66q-33 -37 -81.5 -57t-107.5 -20q-104 0 -166 65t-62 174v298h140v-274q0 -69 33.5 -104.5t98.5 -35.5q69 0 107 39t38 110v265zM277 588h-144v130h144v-130zM523 588h-144v130h144v-130z" />
    <glyph glyph-name="yacute" unicode="&#xfd;" horiz-adv-x="658" 
d="M660 526l-275 -563q-39 -81 -91 -115.5t-136 -34.5q-29 0 -62.5 6.5t-51.5 15.5l25 114q21 -11 39.5 -15.5t37.5 -4.5q42 0 67.5 16.5t38.5 51.5l5 16l-259 513h156l180 -375l176 375h150zM377 573h-118l104 145h180z" />
    <glyph glyph-name="thorn" unicode="&#xfe;" horiz-adv-x="701" 
d="M677 263q0 -120 -79 -197t-207 -77q-62 0 -114 20t-83 54v-241h-140v896h140v-256q31 34 83 54t114 20q128 0 207 -77t79 -196zM366 422q-76 0 -127 -44.5t-51 -111.5v-7q0 -66 51.5 -111t126.5 -45q77 0 127 44t50 116q0 71 -50 115t-127 44z" />
    <glyph glyph-name="ydieresis" unicode="&#xff;" horiz-adv-x="658" 
d="M660 526l-275 -563q-39 -81 -91 -115.5t-136 -34.5q-29 0 -62.5 6.5t-51.5 15.5l25 114q21 -11 39.5 -15.5t37.5 -4.5q42 0 67.5 16.5t38.5 51.5l5 16l-259 513h156l180 -375l176 375h150zM278 588h-144v130h144v-130zM524 588h-144v130h144v-130z" />
    <glyph glyph-name="Amacron" unicode="&#x100;" horiz-adv-x="876" 
d="M-7 0l362 718h165l362 -718h-159l-83 167h-406l-84 -167h-157zM577 292l-140 281l-141 -281h281zM633 876v-109h-392v109h392z" />
    <glyph glyph-name="amacron" unicode="&#x101;" horiz-adv-x="663" 
d="M464 65q-38 -36 -96 -56t-125 -20q-100 0 -160.5 44t-60.5 119q0 69 54.5 111.5t154.5 52.5l219 23v4q0 37 -34.5 58.5t-96.5 21.5q-56 0 -100 -22.5t-58 -57.5l-121 41q24 68 103 110t181 42q126 0 193.5 -50.5t67.5 -144.5v-207q0 -25 17 -32q7 -3 19 -2q15 0 37 5
v-105q-34 -7 -63 -7q-35 0 -62 9q-49 17 -69 63zM262 96q76 0 132 30.5t56 76.5v36l-198 -22q-51 -6 -72.5 -20t-21.5 -41q0 -29 27 -44.5t77 -15.5zM500 696v-106h-366v106h366z" />
    <glyph glyph-name="Abreve" unicode="&#x102;" horiz-adv-x="876" 
d="M-7 0l362 718h165l362 -718h-159l-83 167h-406l-84 -167h-157zM577 292l-140 281l-141 -281h281zM437 849q42 0 69.5 17t27.5 44h103q0 -70 -54 -112.5t-146 -42.5t-146 42.5t-54 112.5h103q0 -27 27.5 -44t69.5 -17z" />
    <glyph glyph-name="abreve" unicode="&#x103;" horiz-adv-x="663" 
d="M464 65q-38 -36 -96 -56t-125 -20q-100 0 -160.5 44t-60.5 119q0 69 54.5 111.5t154.5 52.5l219 23v4q0 37 -34.5 58.5t-96.5 21.5q-56 0 -100 -22.5t-58 -57.5l-121 41q24 68 103 110t181 42q126 0 193.5 -50.5t67.5 -144.5v-207q0 -25 17 -32q7 -3 19 -2q15 0 37 5
v-105q-34 -7 -63 -7q-35 0 -62 9q-49 17 -69 63zM262 96q76 0 132 30.5t56 76.5v36l-198 -22q-51 -6 -72.5 -20t-21.5 -41q0 -29 27 -44.5t77 -15.5zM331 662q42 0 65 14.5t26 41.5h96q-1 -70 -50 -109t-137 -39t-137 39t-50 109h96q3 -27 26 -41.5t65 -14.5z" />
    <glyph glyph-name="Aogonek" unicode="&#x104;" horiz-adv-x="876" 
d="M733 -184q-58 0 -94.5 24.5t-36.5 64.5q0 37 27.5 69t79.5 54l-69 139h-406l-84 -167h-157l362 718h165l362 -718h-74q-58 -18 -84.5 -34t-26.5 -35q0 -14 16.5 -22.5t44.5 -8.5q13 0 25.5 1.5t24.5 4.5v-82q-23 -4 -41.5 -6t-33.5 -2zM577 292l-140 281l-141 -281h281z
" />
    <glyph glyph-name="aogonek" unicode="&#x105;" horiz-adv-x="663" 
d="M464 65q-38 -36 -96 -56t-125 -20q-100 0 -160.5 44t-60.5 119q0 69 54.5 111.5t154.5 52.5l219 23v4q0 37 -34.5 58.5t-96.5 21.5q-56 0 -100 -22.5t-58 -57.5l-121 41q24 68 103 110t181 42q126 0 193.5 -50.5t67.5 -144.5v-207q0 -25 17 -32q7 -3 19 -2q15 0 37 5
v-105q-58 -18 -84.5 -34t-26.5 -35q0 -14 16.5 -22.5t44.5 -8.5q13 0 25.5 1.5t24.5 4.5v-82q-23 -4 -41.5 -6t-33.5 -2q-58 0 -94.5 24.5t-36.5 64.5q0 29 17.5 55.5t50.5 47.5q-19 8 -33.5 22.5t-22.5 34.5zM262 96q76 0 132 30.5t56 76.5v36l-198 -22q-51 -6 -72.5 -20
t-21.5 -41q0 -29 27 -44.5t77 -15.5z" />
    <glyph glyph-name="Cacute" unicode="&#x106;" horiz-adv-x="835" 
d="M448 600q-120 0 -197.5 -67.5t-77.5 -173.5t77.5 -173.5t197.5 -67.5q92 0 156.5 41.5t96.5 119.5l127 -64q-42 -107 -142 -166.5t-239 -59.5q-183 0 -303.5 105.5t-120.5 264.5t120.5 264.5t303.5 105.5q139 0 239 -59.5t142 -166.5l-127 -64q-32 78 -96.5 119.5
t-156.5 41.5zM500 759h-126l117 151h199z" />
    <glyph glyph-name="cacute" unicode="&#x107;" horiz-adv-x="618" 
d="M334 420q-78 0 -126.5 -43t-48.5 -114t48.5 -114.5t126.5 -43.5q56 0 100.5 30.5t60.5 78.5l116 -59q-27 -73 -102.5 -119.5t-173.5 -46.5q-136 0 -224 77t-88 197t88 196.5t224 76.5q98 0 174 -47t103 -121l-117 -57q-16 48 -60.5 78.5t-100.5 30.5zM378 573h-118
l104 145h180z" />
    <glyph glyph-name="Ccircumflex" unicode="&#x108;" horiz-adv-x="835" 
d="M448 600q-120 0 -197.5 -67.5t-77.5 -173.5t77.5 -173.5t197.5 -67.5q92 0 156.5 41.5t96.5 119.5l127 -64q-42 -107 -142 -166.5t-239 -59.5q-183 0 -303.5 105.5t-120.5 264.5t120.5 264.5t303.5 105.5q139 0 239 -59.5t142 -166.5l-127 -64q-32 78 -96.5 119.5
t-156.5 41.5zM367 910h156l144 -151h-116l-106 67l-106 -67h-116z" />
    <glyph glyph-name="ccircumflex" unicode="&#x109;" horiz-adv-x="618" 
d="M334 420q-78 0 -126.5 -43t-48.5 -114t48.5 -114.5t126.5 -43.5q56 0 100.5 30.5t60.5 78.5l116 -59q-27 -73 -102.5 -119.5t-173.5 -46.5q-136 0 -224 77t-88 197t88 196.5t224 76.5q98 0 174 -47t103 -121l-117 -57q-16 48 -60.5 78.5t-100.5 30.5zM259 718h142
l129 -145h-109l-91 58l-91 -58h-109z" />
    <glyph glyph-name="Cdotaccent" unicode="&#x10a;" horiz-adv-x="835" 
d="M448 600q-120 0 -197.5 -67.5t-77.5 -173.5t77.5 -173.5t197.5 -67.5q92 0 156.5 41.5t96.5 119.5l127 -64q-42 -107 -142 -166.5t-239 -59.5q-183 0 -303.5 105.5t-120.5 264.5t120.5 264.5t303.5 105.5q139 0 239 -59.5t142 -166.5l-127 -64q-32 78 -96.5 119.5
t-156.5 41.5zM515 759h-150v132h150v-132z" />
    <glyph glyph-name="cdotaccent" unicode="&#x10b;" horiz-adv-x="618" 
d="M334 420q-78 0 -126.5 -43t-48.5 -114t48.5 -114.5t126.5 -43.5q56 0 100.5 30.5t60.5 78.5l116 -59q-27 -73 -102.5 -119.5t-173.5 -46.5q-136 0 -224 77t-88 197t88 196.5t224 76.5q98 0 174 -47t103 -121l-117 -57q-16 48 -60.5 78.5t-100.5 30.5zM401 588h-144v130
h144v-130z" />
    <glyph glyph-name="Ccaron" unicode="&#x10c;" horiz-adv-x="835" 
d="M448 600q-120 0 -197.5 -67.5t-77.5 -173.5t77.5 -173.5t197.5 -67.5q92 0 156.5 41.5t96.5 119.5l127 -64q-42 -107 -142 -166.5t-239 -59.5q-183 0 -303.5 105.5t-120.5 264.5t120.5 264.5t303.5 105.5q139 0 239 -59.5t142 -166.5l-127 -64q-32 78 -96.5 119.5
t-156.5 41.5zM668 910l-144 -151h-156l-144 151h116l106 -67l106 67h116z" />
    <glyph glyph-name="ccaron" unicode="&#x10d;" horiz-adv-x="618" 
d="M334 420q-78 0 -126.5 -43t-48.5 -114t48.5 -114.5t126.5 -43.5q56 0 100.5 30.5t60.5 78.5l116 -59q-27 -73 -102.5 -119.5t-173.5 -46.5q-136 0 -224 77t-88 197t88 196.5t224 76.5q98 0 174 -47t103 -121l-117 -57q-16 48 -60.5 78.5t-100.5 30.5zM532 718l-129 -145
h-142l-129 145h109l91 -58l91 58h109z" />
    <glyph glyph-name="Dcaron" unicode="&#x10e;" horiz-adv-x="863" 
d="M430 0h-367v718h367q189 0 300 -97t111 -262t-111 -262t-300 -97zM207 592v-466h223q121 0 191 62.5t70 170.5t-70 170.5t-191 62.5h-223zM619 910l-144 -151h-156l-144 151h116l106 -67l106 67h116z" />
    <glyph glyph-name="dcaron" unicode="&#x10f;" horiz-adv-x="701" 
d="M310 -11q-128 0 -207 77t-79 197q0 119 79 196t207 77q62 0 114 -20t83 -54v256h140v-718h-140v63q-31 -34 -83 -54t-114 -20zM513 259v7q0 67 -51 111.5t-127 44.5q-77 0 -127 -44t-50 -115q0 -72 50 -116t127 -44q75 0 126.5 45t51.5 111zM788 552h-95l25 166h153z" />
    <glyph glyph-name="Dcroat" unicode="&#x110;" horiz-adv-x="903" 
d="M470 0h-367v305h-98v125h98v288h367q189 0 300 -97t111 -262t-111 -262t-300 -97zM247 305v-179h223q121 0 191 62.5t70 170.5t-70 170.5t-191 62.5h-223v-162h164v-125h-164z" />
    <glyph glyph-name="dcroat" unicode="&#x111;" horiz-adv-x="737" 
d="M310 -11q-128 0 -207 77t-79 197q0 119 79 196t207 77q62 0 114 -20t83 -54v102h-151v102h151v52h140v-52h72v-102h-72v-564h-140v63q-31 -34 -83 -54t-114 -20zM513 259v7q0 67 -51 111.5t-127 44.5q-77 0 -127 -44t-50 -115q0 -72 50 -116t127 -44q75 0 126.5 45
t51.5 111z" />
    <glyph glyph-name="Emacron" unicode="&#x112;" horiz-adv-x="789" 
d="M63 0v718h695v-127h-550v-160h493v-126h-493v-178h550v-127h-695zM604 876v-109h-392v109h392z" />
    <glyph glyph-name="emacron" unicode="&#x113;" horiz-adv-x="647" 
d="M334 -11q-137 0 -224 76.5t-87 197.5q0 118 87.5 195.5t222.5 77.5q131 0 211 -75t80 -193v-44h-466q13 -56 60 -88.5t116 -32.5q57 0 100.5 25.5t61.5 70.5l119 -51q-28 -70 -105.5 -114.5t-175.5 -44.5zM328 424q-61 0 -105 -28t-60 -77h323q-7 43 -52 74t-106 31z
M510 696v-106h-366v106h366z" />
    <glyph glyph-name="Ebreve" unicode="&#x114;" horiz-adv-x="789" 
d="M63 0v718h695v-127h-550v-160h493v-126h-493v-178h550v-127h-695zM408 849q42 0 69.5 17t27.5 44h103q0 -70 -54 -112.5t-146 -42.5t-146 42.5t-54 112.5h103q0 -27 27.5 -44t69.5 -17z" />
    <glyph glyph-name="ebreve" unicode="&#x115;" horiz-adv-x="647" 
d="M334 -11q-137 0 -224 76.5t-87 197.5q0 118 87.5 195.5t222.5 77.5q131 0 211 -75t80 -193v-44h-466q13 -56 60 -88.5t116 -32.5q57 0 100.5 25.5t61.5 70.5l119 -51q-28 -70 -105.5 -114.5t-175.5 -44.5zM328 424q-61 0 -105 -28t-60 -77h323q-7 43 -52 74t-106 31z
M330 662q42 0 65 14.5t26 41.5h96q-1 -70 -50 -109t-137 -39t-137 39t-50 109h96q3 -27 26 -41.5t65 -14.5z" />
    <glyph glyph-name="Edotaccent" unicode="&#x116;" horiz-adv-x="789" 
d="M63 0v718h695v-127h-550v-160h493v-126h-493v-178h550v-127h-695zM483 759h-150v132h150v-132z" />
    <glyph glyph-name="edotaccent" unicode="&#x117;" horiz-adv-x="647" 
d="M334 -11q-137 0 -224 76.5t-87 197.5q0 118 87.5 195.5t222.5 77.5q131 0 211 -75t80 -193v-44h-466q13 -56 60 -88.5t116 -32.5q57 0 100.5 25.5t61.5 70.5l119 -51q-28 -70 -105.5 -114.5t-175.5 -44.5zM328 424q-61 0 -105 -28t-60 -77h323q-7 43 -52 74t-106 31z
M397 588h-144v130h144v-130z" />
    <glyph glyph-name="Eogonek" unicode="&#x118;" horiz-adv-x="789" 
d="M609 -184q-58 0 -94.5 24.5t-36.5 64.5q0 27 14.5 51.5t42.5 43.5h-472v718h695v-127h-550v-160h493v-126h-493v-178h550v-127h-74q-58 -18 -84.5 -34t-26.5 -35q0 -14 16.5 -22.5t44.5 -8.5q13 0 25.5 1.5t24.5 4.5v-82q-23 -4 -41.5 -6t-33.5 -2z" />
    <glyph glyph-name="eogonek" unicode="&#x119;" horiz-adv-x="647" 
d="M468 13q-41 -16 -61 -33t-20 -38q0 -19 17 -30.5t46 -11.5q13 0 25.5 1.5t23.5 4.5v-82q-23 -4 -41 -6t-33 -2q-58 0 -94.5 27t-36.5 72q0 21 7.5 39.5t21.5 34.5q-133 3 -216.5 79t-83.5 195q0 118 87.5 195.5t222.5 77.5q131 0 211 -75t80 -193v-44h-466
q13 -56 59.5 -88.5t114.5 -32.5q58 0 101.5 25.5t62.5 70.5l119 -51q-18 -43 -56 -78.5t-91 -56.5zM328 424q-60 0 -104.5 -28t-60.5 -77h323q-7 42 -52.5 73.5t-105.5 31.5z" />
    <glyph glyph-name="Ecaron" unicode="&#x11a;" horiz-adv-x="789" 
d="M63 0v718h695v-127h-550v-160h493v-126h-493v-178h550v-127h-695zM630 910l-144 -151h-156l-144 151h116l106 -67l106 67h116z" />
    <glyph glyph-name="ecaron" unicode="&#x11b;" horiz-adv-x="647" 
d="M334 -11q-137 0 -224 76.5t-87 197.5q0 118 87.5 195.5t222.5 77.5q131 0 211 -75t80 -193v-44h-466q13 -56 60 -88.5t116 -32.5q57 0 100.5 25.5t61.5 70.5l119 -51q-28 -70 -105.5 -114.5t-175.5 -44.5zM328 424q-61 0 -105 -28t-60 -77h323q-7 43 -52 74t-106 31z
M530 718l-129 -145h-142l-129 145h109l91 -58l91 58h109z" />
    <glyph glyph-name="Gcircumflex" unicode="&#x11c;" horiz-adv-x="897" 
d="M851 0h-138v84q-33 -42 -105.5 -68.5t-157.5 -26.5q-186 0 -306.5 105t-120.5 267q0 160 122.5 264t310.5 104q140 0 241 -58.5t143 -163.5l-129 -62q-32 75 -97.5 115t-158.5 40q-124 0 -202.5 -67t-78.5 -174t77.5 -174.5t199.5 -67.5q103 0 179.5 43.5t83.5 108.5
h-323v124h460v-393zM379 910h156l144 -151h-116l-106 67l-106 -67h-116z" />
    <glyph glyph-name="gcircumflex" unicode="&#x11d;" horiz-adv-x="696" 
d="M642 526v-452q0 -118 -89.5 -190.5t-233.5 -72.5q-107 0 -185.5 36.5t-110.5 101.5l111 68q20 -45 69 -70.5t114 -25.5q82 0 133.5 38t51.5 102v20q-34 -35 -84.5 -54t-111.5 -19q-128 0 -207 74.5t-79 190.5q0 114 79.5 188.5t206.5 74.5q61 0 111.5 -18.5t84.5 -52.5
v61h140zM509 271v4q0 65 -51 107t-127 42t-125.5 -42t-49.5 -109q0 -68 49.5 -110t125.5 -42q77 0 127.5 42t50.5 108zM266 718h142l129 -145h-109l-91 58l-91 -58h-109z" />
    <glyph glyph-name="Gbreve" unicode="&#x11e;" horiz-adv-x="897" 
d="M851 0h-138v84q-33 -42 -105.5 -68.5t-157.5 -26.5q-186 0 -306.5 105t-120.5 267q0 160 122.5 264t310.5 104q140 0 241 -58.5t143 -163.5l-129 -62q-32 75 -97.5 115t-158.5 40q-124 0 -202.5 -67t-78.5 -174t77.5 -174.5t199.5 -67.5q103 0 179.5 43.5t83.5 108.5
h-323v124h460v-393zM457 849q42 0 69.5 17t27.5 44h103q0 -70 -54 -112.5t-146 -42.5t-146 42.5t-54 112.5h103q0 -27 27.5 -44t69.5 -17z" />
    <glyph glyph-name="gbreve" unicode="&#x11f;" horiz-adv-x="696" 
d="M642 526v-452q0 -118 -89.5 -190.5t-233.5 -72.5q-107 0 -185.5 36.5t-110.5 101.5l111 68q20 -45 69 -70.5t114 -25.5q82 0 133.5 38t51.5 102v20q-34 -35 -84.5 -54t-111.5 -19q-128 0 -207 74.5t-79 190.5q0 114 79.5 188.5t206.5 74.5q61 0 111.5 -18.5t84.5 -52.5
v61h140zM509 271v4q0 65 -51 107t-127 42t-125.5 -42t-49.5 -109q0 -68 49.5 -110t125.5 -42q77 0 127.5 42t50.5 108zM340 662q42 0 65 14.5t26 41.5h96q-1 -70 -50 -109t-137 -39t-137 39t-50 109h96q3 -27 26 -41.5t65 -14.5z" />
    <glyph glyph-name="Gdotaccent" unicode="&#x120;" horiz-adv-x="897" 
d="M851 0h-138v84q-33 -42 -105.5 -68.5t-157.5 -26.5q-186 0 -306.5 105t-120.5 267q0 160 122.5 264t310.5 104q140 0 241 -58.5t143 -163.5l-129 -62q-32 75 -97.5 115t-158.5 40q-124 0 -202.5 -67t-78.5 -174t77.5 -174.5t199.5 -67.5q103 0 179.5 43.5t83.5 108.5
h-323v124h460v-393zM530 759h-150v132h150v-132z" />
    <glyph glyph-name="gdotaccent" unicode="&#x121;" horiz-adv-x="696" 
d="M642 526v-452q0 -118 -89.5 -190.5t-233.5 -72.5q-107 0 -185.5 36.5t-110.5 101.5l111 68q20 -45 69 -70.5t114 -25.5q82 0 133.5 38t51.5 102v20q-34 -35 -84.5 -54t-111.5 -19q-128 0 -207 74.5t-79 190.5q0 114 79.5 188.5t206.5 74.5q61 0 111.5 -18.5t84.5 -52.5
v61h140zM509 271v4q0 65 -51 107t-127 42t-125.5 -42t-49.5 -109q0 -68 49.5 -110t125.5 -42q77 0 127.5 42t50.5 108zM416 588h-144v130h144v-130z" />
    <glyph glyph-name="uni0122" unicode="&#x122;" horiz-adv-x="897" 
d="M851 0h-138v84q-33 -42 -105.5 -68.5t-157.5 -26.5q-186 0 -306.5 105t-120.5 267q0 160 122.5 264t310.5 104q140 0 241 -58.5t143 -163.5l-129 -62q-32 75 -97.5 115t-158.5 40q-124 0 -202.5 -67t-78.5 -174t77.5 -174.5t199.5 -67.5q103 0 179.5 43.5t83.5 108.5
h-323v124h460v-393zM421 -119h-52v85h140v-57q0 -56 -37 -86t-103 -30v56q25 0 37 7.5t15 24.5z" />
    <glyph glyph-name="uni0123" unicode="&#x123;" horiz-adv-x="696" 
d="M642 526v-452q0 -118 -89.5 -190.5t-233.5 -72.5q-107 0 -185.5 36.5t-110.5 101.5l111 68q20 -45 69 -70.5t114 -25.5q82 0 133.5 38t51.5 102v20q-34 -35 -84.5 -54t-111.5 -19q-128 0 -207 74.5t-79 190.5q0 114 79.5 188.5t206.5 74.5q61 0 111.5 -18.5t84.5 -52.5
v61h140zM509 271v4q0 65 -51 107t-127 42t-125.5 -42t-49.5 -109q0 -68 49.5 -110t125.5 -42q77 0 127.5 42t50.5 108zM362 658h52v-85h-140v57q0 56 37 86t103 30v-56q-25 0 -37 -7.5t-15 -24.5z" />
    <glyph glyph-name="Hcircumflex" unicode="&#x124;" horiz-adv-x="881" 
d="M671 432v286h148v-718h-148v305h-461v-305h-147v718h147v-286h461zM355 910h156l144 -151h-116l-106 67l-106 -67h-116z" />
    <glyph glyph-name="hcircumflex" unicode="&#x125;" horiz-adv-x="665" 
d="M194 0h-140v718h140v-258q32 36 82 56t110 20q105 0 167 -66t62 -177v-293h-140v260q0 71 -35.5 110.5t-99.5 39.5q-69 0 -107.5 -40t-38.5 -112v-258zM245 910h156l144 -151h-116l-106 67l-106 -67h-116z" />
    <glyph glyph-name="Hbar" unicode="&#x126;" horiz-adv-x="929" 
d="M930 589v-124h-87v-465h-148v237h-461v-237h-148v465h-82v124h82v129h148v-129h461v129h148v-129h87zM234 465v-104h461v104h-461z" />
    <glyph glyph-name="hbar" unicode="&#x127;" horiz-adv-x="701" 
d="M230 0h-140v564h-72v102h72v52h140v-52h160v-102h-160v-104q32 36 82 56t110 20q105 0 167 -66t62 -177v-293h-140v260q0 71 -35.5 110.5t-99.5 39.5q-69 0 -107.5 -40t-38.5 -112v-258z" />
    <glyph glyph-name="Itilde" unicode="&#x128;" horiz-adv-x="272" 
d="M63 718h147v-718h-147v718zM36 923q26 0 50.5 -6t64.5 -26q29 -14 43.5 -18t27.5 -4q17 0 27 12.5t16 41.5h93q-4 -76 -37 -120t-86 -44q-25 0 -50 6.5t-65 25.5q-29 15 -43 19t-27 4q-18 0 -28 -13t-15 -42h-93q3 76 35.5 120t86.5 44z" />
    <glyph glyph-name="itilde" unicode="&#x129;" horiz-adv-x="247" 
d="M54 526h140v-526h-140v526zM40 726q22 0 43 -6t54 -25q22 -12 33.5 -16t21.5 -4q15 0 24 12t14 39h86q-3 -71 -32 -112t-77 -41q-22 0 -43 6t-54 25q-23 13 -34 16.5t-21 3.5q-15 0 -24 -12t-14 -39h-86q3 71 32 112t77 41z" />
    <glyph glyph-name="Imacron" unicode="&#x12a;" horiz-adv-x="272" 
d="M63 718h147v-718h-147v718zM332 876v-109h-392v109h392z" />
    <glyph glyph-name="imacron" unicode="&#x12b;" horiz-adv-x="247" 
d="M54 526h140v-526h-140v526zM307 696v-106h-366v106h366z" />
    <glyph glyph-name="Ibreve" unicode="&#x12c;" horiz-adv-x="272" 
d="M63 718h147v-718h-147v718zM136 849q42 0 69.5 17t27.5 44h103q0 -70 -54 -112.5t-146 -42.5t-146 42.5t-54 112.5h103q0 -27 27.5 -44t69.5 -17z" />
    <glyph glyph-name="ibreve" unicode="&#x12d;" horiz-adv-x="247" 
d="M54 526h140v-526h-140v526zM124 662q42 0 65 14.5t26 41.5h96q-1 -70 -50 -109t-137 -39t-137 39t-50 109h96q3 -27 26 -41.5t65 -14.5z" />
    <glyph glyph-name="Iogonek" unicode="&#x12e;" horiz-adv-x="272" 
d="M135 -184q-58 0 -94.5 24.5t-36.5 64.5q0 27 15 52t44 45v716h147v-718q-58 -18 -84.5 -34t-26.5 -35q0 -14 16.5 -22.5t44.5 -8.5q13 0 25.5 1.5t24.5 4.5v-82q-23 -4 -41.5 -6t-33.5 -2z" />
    <glyph glyph-name="iogonek" unicode="&#x12f;" horiz-adv-x="247" 
d="M52 718h143v-130h-143v130zM-11 -95q0 58 65 101v520h140v-526q-32 -10 -53.5 -19t-34 -17.5t-17.5 -16.5t-5 -16q0 -14 16 -22.5t45 -8.5q10 0 22.5 1t27.5 5v-82q-21 -4 -39.5 -6t-35.5 -2q-26 0 -50 5.5t-42 17t-28.5 28t-10.5 38.5z" />
    <glyph glyph-name="Idotaccent" unicode="&#x130;" horiz-adv-x="272" 
d="M63 718h147v-718h-147v718zM211 759h-150v132h150v-132z" />
    <glyph glyph-name="dotlessi" unicode="&#x131;" horiz-adv-x="247" 
d="M54 526h140v-526h-140v526z" />
    <glyph glyph-name="Jcircumflex" unicode="&#x134;" horiz-adv-x="717" 
d="M339 -11q-120 0 -213.5 58t-125.5 151l134 76q18 -69 74.5 -112.5t131.5 -43.5q89 0 138 42.5t49 120.5v437h147v-444q0 -128 -92 -206.5t-243 -78.5zM520 910h156l144 -151h-116l-106 67l-106 -67h-116z" />
    <glyph glyph-name="jcircumflex" unicode="&#x135;" horiz-adv-x="247" 
d="M-39 -73q50 0 71.5 21t21.5 67v511h140v-508q0 -101 -56.5 -153t-166.5 -52q-27 0 -59.5 5t-53.5 13l21 109q26 -7 43.5 -10t38.5 -3zM52 718h142l129 -145h-109l-91 58l-91 -58h-109z" />
    <glyph glyph-name="uni0136" unicode="&#x136;" horiz-adv-x="829" 
d="M63 718h147v-344l403 344h207l-367 -304l390 -414h-194l-304 324l-135 -112v-212h-147v718zM404 -119h-52v85h140v-57q0 -56 -37 -86t-103 -30v56q25 0 37 7.5t15 24.5z" />
    <glyph glyph-name="uni0137" unicode="&#x137;" horiz-adv-x="665" 
d="M54 718h140v-435l284 243h193l-272 -226l280 -300h-176l-204 216l-105 -87v-129h-140v718zM328 -119h-52v85h140v-57q0 -56 -37 -86t-103 -30v56q25 0 37 7.5t15 24.5z" />
    <glyph glyph-name="kgreenlandic" unicode="&#x138;" horiz-adv-x="665" 
d="M54 526h140v-243l284 243h193l-272 -226l280 -300h-176l-204 216l-105 -87v-129h-140v526z" />
    <glyph glyph-name="Lacute" unicode="&#x139;" horiz-adv-x="736" 
d="M715 0h-652v718h147v-591h505v-127zM199 759h-126l117 151h199z" />
    <glyph glyph-name="lacute" unicode="&#x13a;" horiz-adv-x="247" 
d="M54 718h140v-718h-140v718zM189 759h-126l117 151h199z" />
    <glyph glyph-name="uni013B" unicode="&#x13b;" horiz-adv-x="736" 
d="M715 0h-652v718h147v-591h505v-127zM288 -119h-52v85h140v-57q0 -56 -37 -86t-103 -30v56q25 0 37 7.5t15 24.5z" />
    <glyph glyph-name="uni013C" unicode="&#x13c;" horiz-adv-x="247" 
d="M54 718h140v-718h-140v718zM106 -119h-52v85h140v-57q0 -56 -37 -86t-103 -30v56q25 0 37 7.5t15 24.5z" />
    <glyph glyph-name="Lcaron" unicode="&#x13d;" horiz-adv-x="736" 
d="M715 0h-652v718h147v-591h505v-127zM425 552h-95l25 166h153z" />
    <glyph glyph-name="lcaron" unicode="&#x13e;" horiz-adv-x="247" 
d="M54 718h140v-718h-140v718zM335 552h-95l25 166h153z" />
    <glyph glyph-name="Ldot" unicode="&#x13f;" horiz-adv-x="736" 
d="M715 0h-652v718h147v-591h505v-127zM576 304h-144v130h144v-130z" />
    <glyph glyph-name="ldot" unicode="&#x140;" horiz-adv-x="426" 
d="M54 718h140v-718h-140v718zM409 298h-144v130h144v-130z" />
    <glyph glyph-name="Lslash" unicode="&#x141;" horiz-adv-x="762" 
d="M742 0h-652v241l-95 -37v123l95 37v354h147v-305l214 80v-124l-214 -80v-162h505v-127z" />
    <glyph glyph-name="lslash" unicode="&#x142;" horiz-adv-x="351" 
d="M347 533v-126l-102 -50v-357h-140v296l-100 -50v126l100 50v296h140v-236z" />
    <glyph glyph-name="Nacute" unicode="&#x143;" horiz-adv-x="866" 
d="M661 718h143v-718h-130l-469 531v-531h-142v718h150l448 -507v507zM474 759h-126l117 151h199z" />
    <glyph glyph-name="nacute" unicode="&#x144;" horiz-adv-x="665" 
d="M194 0h-140v526h140v-66q32 36 82 56t110 20q105 0 167 -66t62 -177v-293h-140v260q0 71 -35.5 110.5t-99.5 39.5q-69 0 -107.5 -40t-38.5 -112v-258zM391 573h-118l104 145h180z" />
    <glyph glyph-name="uni0145" unicode="&#x145;" horiz-adv-x="866" 
d="M661 718h143v-718h-130l-469 531v-531h-142v718h150l448 -507v507zM411 -119h-52v85h140v-57q0 -56 -37 -86t-103 -30v56q25 0 37 7.5t15 24.5z" />
    <glyph glyph-name="uni0146" unicode="&#x146;" horiz-adv-x="665" 
d="M194 0h-140v526h140v-66q32 36 82 56t110 20q105 0 167 -66t62 -177v-293h-140v260q0 71 -35.5 110.5t-99.5 39.5q-69 0 -107.5 -40t-38.5 -112v-258zM316 -119h-52v85h140v-57q0 -56 -37 -86t-103 -30v56q25 0 37 7.5t15 24.5z" />
    <glyph glyph-name="Ncaron" unicode="&#x147;" horiz-adv-x="866" 
d="M661 718h143v-718h-130l-469 531v-531h-142v718h150l448 -507v507zM651 910l-144 -151h-156l-144 151h116l106 -67l106 67h116z" />
    <glyph glyph-name="ncaron" unicode="&#x148;" horiz-adv-x="665" 
d="M194 0h-140v526h140v-66q32 36 82 56t110 20q105 0 167 -66t62 -177v-293h-140v260q0 71 -35.5 110.5t-99.5 39.5q-69 0 -107.5 -40t-38.5 -112v-258zM537 718l-129 -145h-142l-129 145h109l91 -58l91 58h109z" />
    <glyph glyph-name="Eng" unicode="&#x14a;" horiz-adv-x="866" 
d="M661 211v507h143v-700q0 -101 -56.5 -153t-166.5 -52q-27 0 -59.5 5t-53.5 13l21 110q25 -7 43 -10t38 -3q47 0 70 19.5t23 58.5v6l-458 514v-526h-142v718h150z" />
    <glyph glyph-name="eng" unicode="&#x14b;" horiz-adv-x="665" 
d="M386 536q105 0 167 -66t62 -177v-275q0 -101 -56 -153t-166 -52q-27 0 -59.5 5t-53.5 13l20 110q25 -7 43.5 -10t38.5 -3q50 0 71.5 21t21.5 67v244q0 71 -35.5 110.5t-99.5 39.5q-69 0 -107.5 -40t-38.5 -112v-258h-140v526h140v-66q32 36 82 56t110 20z" />
    <glyph glyph-name="Omacron" unicode="&#x14c;" horiz-adv-x="894" 
d="M23 359q0 160 120 265t304 105q183 0 303.5 -105t120.5 -265t-120.5 -265t-303.5 -105q-184 0 -304 105t-120 265zM720 359q0 108 -75.5 174.5t-197.5 66.5t-197.5 -66.5t-75.5 -174.5t75.5 -174.5t197.5 -66.5t197.5 66.5t75.5 174.5zM643 876v-109h-392v109h392z" />
    <glyph glyph-name="omacron" unicode="&#x14d;" horiz-adv-x="661" 
d="M331 536q132 0 219 -77t87 -196q0 -120 -87 -197t-219 -77q-133 0 -220.5 77t-87.5 197q0 119 87.5 196t220.5 77zM331 419q-76 0 -124 -43t-48 -113q0 -71 48 -114t124 -43q75 0 123 43t48 114q0 70 -48 113t-123 43zM513 696v-106h-366v106h366z" />
    <glyph glyph-name="Obreve" unicode="&#x14e;" horiz-adv-x="894" 
d="M23 359q0 160 120 265t304 105q183 0 303.5 -105t120.5 -265t-120.5 -265t-303.5 -105q-184 0 -304 105t-120 265zM720 359q0 108 -75.5 174.5t-197.5 66.5t-197.5 -66.5t-75.5 -174.5t75.5 -174.5t197.5 -66.5t197.5 66.5t75.5 174.5zM447 849q42 0 69.5 17t27.5 44h103
q0 -70 -54 -112.5t-146 -42.5t-146 42.5t-54 112.5h103q0 -27 27.5 -44t69.5 -17z" />
    <glyph glyph-name="obreve" unicode="&#x14f;" horiz-adv-x="661" 
d="M331 536q132 0 219 -77t87 -196q0 -120 -87 -197t-219 -77q-133 0 -220.5 77t-87.5 197q0 119 87.5 196t220.5 77zM331 419q-76 0 -124 -43t-48 -113q0 -71 48 -114t124 -43q75 0 123 43t48 114q0 70 -48 113t-123 43zM330 662q42 0 65 14.5t26 41.5h96q-1 -70 -50 -109
t-137 -39t-137 39t-50 109h96q3 -27 26 -41.5t65 -14.5z" />
    <glyph glyph-name="Ohungarumlaut" unicode="&#x150;" horiz-adv-x="894" 
d="M23 359q0 160 120 265t304 105q183 0 303.5 -105t120.5 -265t-120.5 -265t-303.5 -105q-184 0 -304 105t-120 265zM720 359q0 108 -75.5 174.5t-197.5 66.5t-197.5 -66.5t-75.5 -174.5t75.5 -174.5t197.5 -66.5t197.5 66.5t75.5 174.5zM616 759h-108l95 151h164zM381 759
h-108l88 151h171z" />
    <glyph glyph-name="ohungarumlaut" unicode="&#x151;" horiz-adv-x="661" 
d="M331 536q132 0 219 -77t87 -196q0 -120 -87 -197t-219 -77q-133 0 -220.5 77t-87.5 197q0 119 87.5 196t220.5 77zM331 419q-76 0 -124 -43t-48 -113q0 -71 48 -114t124 -43q75 0 123 43t48 114q0 70 -48 113t-123 43zM476 573h-106l93 145h154zM263 573h-106l93 145h153
z" />
    <glyph glyph-name="OE" unicode="&#x152;" horiz-adv-x="1348" 
d="M27 359q0 165 111 262t299 97h879v-127h-530v-160h473v-126h-473v-178h530v-127h-879q-188 0 -299 97t-111 262zM641 126v466h-203q-122 0 -192 -62.5t-70 -170.5t70 -170.5t191 -62.5h204z" />
    <glyph glyph-name="oe" unicode="&#x153;" horiz-adv-x="1124" 
d="M811 -10q-75 0 -137.5 27t-104.5 76q-41 -50 -103 -77t-136 -27q-133 0 -220 77t-87 197q0 119 87.5 196t219.5 77q73 0 135 -26.5t104 -75.5q43 50 106 77t137 27q129 0 209 -75.5t80 -193.5v-43h-465q13 -56 59.5 -88.5t114.5 -32.5q58 0 101.5 25.5t61.5 70.5l119 -51
q-28 -71 -105.5 -115.5t-175.5 -44.5zM805 426q-59 0 -103.5 -28.5t-60.5 -77.5h322q-6 42 -52 74t-106 32zM159 263q0 -71 48 -114t124 -43q75 0 123 43t48 114q0 70 -48 113t-124 43t-123.5 -43t-47.5 -113z" />
    <glyph glyph-name="Racute" unicode="&#x154;" horiz-adv-x="808" 
d="M466 267h-256v-267h-147v718h451q128 0 200.5 -59.5t72.5 -166.5q0 -80 -43.5 -134.5t-122.5 -76.5l183 -281h-169zM210 593v-203h296q64 0 99.5 26.5t35.5 74.5q0 49 -35 75.5t-100 26.5h-296zM446 759h-126l117 151h199z" />
    <glyph glyph-name="racute" unicode="&#x155;" horiz-adv-x="461" 
d="M392 529q16 0 30.5 -1.5t27.5 -5.5v-138q-21 5 -33 6.5t-30 1.5q-96 0 -144.5 -42.5t-48.5 -125.5v-224h-140v526h140v-93q32 49 80.5 72.5t117.5 23.5zM293 573h-118l104 145h180z" />
    <glyph glyph-name="uni0156" unicode="&#x156;" horiz-adv-x="808" 
d="M466 267h-256v-267h-147v718h451q128 0 200.5 -59.5t72.5 -166.5q0 -80 -43.5 -134.5t-122.5 -76.5l183 -281h-169zM210 593v-203h296q64 0 99.5 26.5t35.5 74.5q0 49 -35 75.5t-100 26.5h-296zM373 -119h-52v85h140v-57q0 -56 -37 -86t-103 -30v56q25 0 37 7.5t15 24.5z
" />
    <glyph glyph-name="uni0157" unicode="&#x157;" horiz-adv-x="461" 
d="M392 529q16 0 30.5 -1.5t27.5 -5.5v-138q-21 5 -33 6.5t-30 1.5q-96 0 -144.5 -42.5t-48.5 -125.5v-224h-140v526h140v-93q32 49 80.5 72.5t117.5 23.5zM106 -119h-52v85h140v-57q0 -56 -37 -86t-103 -30v56q25 0 37 7.5t15 24.5z" />
    <glyph glyph-name="Rcaron" unicode="&#x158;" horiz-adv-x="808" 
d="M466 267h-256v-267h-147v718h451q128 0 200.5 -59.5t72.5 -166.5q0 -80 -43.5 -134.5t-122.5 -76.5l183 -281h-169zM210 593v-203h296q64 0 99.5 26.5t35.5 74.5q0 49 -35 75.5t-100 26.5h-296zM620 910l-144 -151h-156l-144 151h116l106 -67l106 67h116z" />
    <glyph glyph-name="rcaron" unicode="&#x159;" horiz-adv-x="461" 
d="M392 529q16 0 30.5 -1.5t27.5 -5.5v-138q-21 5 -33 6.5t-30 1.5q-96 0 -144.5 -42.5t-48.5 -125.5v-224h-140v526h140v-93q32 49 80.5 72.5t117.5 23.5zM453 718l-129 -145h-142l-129 145h109l91 -58l91 58h109z" />
    <glyph glyph-name="Sacute" unicode="&#x15a;" horiz-adv-x="776" 
d="M399 -11q-131 0 -245 46.5t-166 120.5l99 103q52 -70 135 -107t183 -37q92 0 148.5 25.5t56.5 68.5q0 34 -23.5 50.5t-87.5 27.5q-20 3 -48 6.5t-102 11.5q-178 20 -244.5 65t-66.5 130q0 103 92.5 166t244.5 63q119 0 219.5 -39t149.5 -104l-98 -94q-41 53 -114.5 82.5
t-164.5 29.5q-87 0 -136.5 -24t-49.5 -65q0 -36 40.5 -52t189.5 -33q87 -10 136.5 -19t84.5 -22q66 -23 96.5 -63t30.5 -101q0 -110 -97.5 -173t-262.5 -63zM445 759h-126l117 151h199z" />
    <glyph glyph-name="sacute" unicode="&#x15b;" horiz-adv-x="585" 
d="M299 -11q-97 0 -178 29.5t-125 80.5l80 92q43 -46 100.5 -69.5t128.5 -23.5q62 0 95 14.5t33 41.5q0 18 -15.5 27.5t-58.5 15.5q-15 3 -48 6.5t-47 5.5q-140 18 -188.5 52.5t-48.5 99.5q0 79 71 127t189 48q87 0 159.5 -26.5t112.5 -72.5l-80 -85q-34 37 -85 56.5
t-114 19.5q-55 0 -85.5 -13.5t-30.5 -38.5q0 -19 21 -28.5t130 -22.5q65 -8 101.5 -15t62.5 -17q48 -19 70.5 -49.5t22.5 -75.5q0 -83 -74.5 -131t-198.5 -48zM351 573h-118l104 145h180z" />
    <glyph glyph-name="Scircumflex" unicode="&#x15c;" horiz-adv-x="776" 
d="M399 -11q-131 0 -245 46.5t-166 120.5l99 103q52 -70 135 -107t183 -37q92 0 148.5 25.5t56.5 68.5q0 34 -23.5 50.5t-87.5 27.5q-20 3 -48 6.5t-102 11.5q-178 20 -244.5 65t-66.5 130q0 103 92.5 166t244.5 63q119 0 219.5 -39t149.5 -104l-98 -94q-41 53 -114.5 82.5
t-164.5 29.5q-87 0 -136.5 -24t-49.5 -65q0 -36 40.5 -52t189.5 -33q87 -10 136.5 -19t84.5 -22q66 -23 96.5 -63t30.5 -101q0 -110 -97.5 -173t-262.5 -63zM304 910h156l144 -151h-116l-106 67l-106 -67h-116z" />
    <glyph glyph-name="scircumflex" unicode="&#x15d;" horiz-adv-x="585" 
d="M299 -11q-97 0 -178 29.5t-125 80.5l80 92q43 -46 100.5 -69.5t128.5 -23.5q62 0 95 14.5t33 41.5q0 18 -15.5 27.5t-58.5 15.5q-15 3 -48 6.5t-47 5.5q-140 18 -188.5 52.5t-48.5 99.5q0 79 71 127t189 48q87 0 159.5 -26.5t112.5 -72.5l-80 -85q-34 37 -85 56.5
t-114 19.5q-55 0 -85.5 -13.5t-30.5 -38.5q0 -19 21 -28.5t130 -22.5q65 -8 101.5 -15t62.5 -17q48 -19 70.5 -49.5t22.5 -75.5q0 -83 -74.5 -131t-198.5 -48zM218 718h142l129 -145h-109l-91 58l-91 -58h-109z" />
    <glyph glyph-name="Scedilla" unicode="&#x15e;" horiz-adv-x="776" 
d="M-12 156l99 103q52 -70 135 -107t183 -37q92 0 148.5 25.5t56.5 68.5q0 34 -23.5 50.5t-87.5 27.5q-20 3 -48 6.5t-102 11.5q-178 20 -244.5 65t-66.5 130q0 103 92.5 166t244.5 63q119 0 219.5 -39t149.5 -104l-98 -94q-41 53 -114.5 82.5t-164.5 29.5q-87 0 -136.5 -24
t-49.5 -65q0 -36 40.5 -52t189.5 -33q87 -10 136.5 -19t84.5 -22q66 -23 96.5 -63t30.5 -101q0 -109 -96.5 -172.5t-257.5 -63.5l-3 -10q51 -2 81 -23.5t30 -55.5q0 -40 -39.5 -64t-102.5 -24q-42 0 -78 9.5t-58 26.5l43 64q18 -14 39.5 -21t47.5 -7t39.5 6t13.5 18
q0 14 -21.5 20.5t-74.5 7.5l17 56q-115 10 -210.5 54.5t-140.5 109.5z" />
    <glyph glyph-name="scedilla" unicode="&#x15f;" horiz-adv-x="585" 
d="M-4 99l80 92q43 -46 100.5 -69.5t128.5 -23.5q62 0 95 14.5t33 41.5q0 18 -15.5 27.5t-58.5 15.5q-15 3 -48 6.5t-47 5.5q-140 18 -188.5 52.5t-48.5 99.5q0 79 71 127t189 48q87 0 159.5 -26.5t112.5 -72.5l-80 -85q-34 37 -85 56.5t-114 19.5q-55 0 -85.5 -13.5
t-30.5 -38.5q0 -19 21 -28.5t130 -22.5q65 -8 101.5 -15t62.5 -17q48 -19 70.5 -49.5t22.5 -75.5q0 -83 -74.5 -131t-198.5 -48h-3l-3 -10q51 -2 81 -23.5t30 -55.5q0 -40 -39.5 -64t-102.5 -24q-42 0 -78 9.5t-58 26.5l43 64q18 -14 39.5 -21t47.5 -7t39.5 6t13.5 18
q0 14 -21.5 20.5t-74.5 7.5l17 57q-76 9 -137 36.5t-97 69.5z" />
    <glyph glyph-name="Scaron" unicode="&#x160;" horiz-adv-x="776" 
d="M399 -11q-131 0 -245 46.5t-166 120.5l99 103q52 -70 135 -107t183 -37q92 0 148.5 25.5t56.5 68.5q0 34 -23.5 50.5t-87.5 27.5q-20 3 -48 6.5t-102 11.5q-178 20 -244.5 65t-66.5 130q0 103 92.5 166t244.5 63q119 0 219.5 -39t149.5 -104l-98 -94q-41 53 -114.5 82.5
t-164.5 29.5q-87 0 -136.5 -24t-49.5 -65q0 -36 40.5 -52t189.5 -33q87 -10 136.5 -19t84.5 -22q66 -23 96.5 -63t30.5 -101q0 -110 -97.5 -173t-262.5 -63zM606 910l-144 -151h-156l-144 151h116l106 -67l106 67h116z" />
    <glyph glyph-name="scaron" unicode="&#x161;" horiz-adv-x="585" 
d="M299 -11q-97 0 -178 29.5t-125 80.5l80 92q43 -46 100.5 -69.5t128.5 -23.5q62 0 95 14.5t33 41.5q0 18 -15.5 27.5t-58.5 15.5q-15 3 -48 6.5t-47 5.5q-140 18 -188.5 52.5t-48.5 99.5q0 79 71 127t189 48q87 0 159.5 -26.5t112.5 -72.5l-80 -85q-34 37 -85 56.5
t-114 19.5q-55 0 -85.5 -13.5t-30.5 -38.5q0 -19 21 -28.5t130 -22.5q65 -8 101.5 -15t62.5 -17q48 -19 70.5 -49.5t22.5 -75.5q0 -83 -74.5 -131t-198.5 -48zM493 718l-129 -145h-142l-129 145h109l91 -58l91 58h109z" />
    <glyph glyph-name="uni0162" unicode="&#x162;" horiz-adv-x="818" 
d="M543 -100q0 -40 -39.5 -64t-102.5 -24q-42 0 -78 9.5t-58 26.5l43 64q18 -14 39.5 -21t47.5 -7t39.5 6t13.5 18q0 14 -21.5 20.5t-74.5 7.5l19 64h-36v591h-317v127h782v-127h-317v-591h-45l-6 -21q51 -2 81 -23.5t30 -55.5z" />
    <glyph glyph-name="uni0163" unicode="&#x163;" horiz-adv-x="523" 
d="M125 176v233h-126v117h126v150h138v-150h224v-117h-224v-210q0 -44 24.5 -63.5t82.5 -19.5q26 0 53 5t62 17l24 -115q-36 -14 -81.5 -22t-88.5 -8h-15t-10 1l-4 -15q51 -2 81 -23.5t30 -55.5q0 -40 -39.5 -64t-102.5 -24q-42 0 -78 9.5t-58 26.5l43 64q18 -14 39.5 -21
t47.5 -7t39.5 6t13.5 18q0 14 -21.5 20.5t-74.5 7.5l21 68q-62 18 -94 61.5t-32 110.5z" />
    <glyph glyph-name="Tcaron" unicode="&#x164;" horiz-adv-x="818" 
d="M800 718v-127h-317v-591h-148v591h-317v127h782zM631 910l-144 -151h-156l-144 151h116l106 -67l106 67h116z" />
    <glyph glyph-name="tcaron" unicode="&#x165;" horiz-adv-x="523" 
d="M339 -7q-103 0 -158.5 47t-55.5 136v233h-126v117h126v150h138v-150h224v-117h-224v-210q0 -44 24.5 -63.5t82.5 -19.5q26 0 53 5t62 17l24 -115q-36 -14 -81.5 -22t-88.5 -8zM404 572h-95l25 166h153z" />
    <glyph glyph-name="Tbar" unicode="&#x166;" horiz-adv-x="818" 
d="M645 427v-127h-162v-300h-148v300h-162v127h162v164h-317v127h782v-127h-317v-164h162z" />
    <glyph glyph-name="tbar" unicode="&#x167;" horiz-adv-x="523" 
d="M339 -7q-103 0 -158.5 47t-55.5 136v56h-124v111h124v72h-126v111h126v150h138v-150h224v-111h-224v-72h224v-111h-224v-35q0 -44 24.5 -63.5t82.5 -19.5q26 0 53 5t62 17l24 -113q-36 -14 -81.5 -22t-88.5 -8z" />
    <glyph glyph-name="Utilde" unicode="&#x168;" horiz-adv-x="824" 
d="M412 -10q-178 0 -273.5 91t-95.5 258v379h147v-371q0 -114 55.5 -171t166.5 -57q110 0 165.5 57t55.5 171v371h148v-379q0 -167 -95.5 -258t-273.5 -91zM313 923q26 0 50.5 -6t64.5 -26q29 -14 43.5 -18t27.5 -4q17 0 27 12.5t16 41.5h93q-4 -76 -37 -120t-86 -44
q-25 0 -50 6.5t-65 25.5q-29 15 -43 19t-27 4q-18 0 -28 -13t-15 -42h-93q3 76 35.5 120t86.5 44z" />
    <glyph glyph-name="utilde" unicode="&#x169;" horiz-adv-x="660" 
d="M467 526h140v-526h-140v66q-33 -37 -81.5 -57t-107.5 -20q-104 0 -166 65t-62 174v298h140v-274q0 -69 33.5 -104.5t98.5 -35.5q69 0 107 39t38 110v265zM245 726q22 0 43 -6t54 -25q22 -12 33.5 -16t21.5 -4q15 0 24 12t14 39h86q-3 -71 -32 -112t-77 -41q-22 0 -43 6
t-54 25q-23 13 -34 16.5t-21 3.5q-15 0 -24 -12t-14 -39h-86q3 71 32 112t77 41z" />
    <glyph glyph-name="Umacron" unicode="&#x16a;" horiz-adv-x="824" 
d="M412 -10q-178 0 -273.5 91t-95.5 258v379h147v-371q0 -114 55.5 -171t166.5 -57q110 0 165.5 57t55.5 171v371h148v-379q0 -167 -95.5 -258t-273.5 -91zM608 876v-109h-392v109h392z" />
    <glyph glyph-name="umacron" unicode="&#x16b;" horiz-adv-x="660" 
d="M467 526h140v-526h-140v66q-33 -37 -81.5 -57t-107.5 -20q-104 0 -166 65t-62 174v298h140v-274q0 -69 33.5 -104.5t98.5 -35.5q69 0 107 39t38 110v265zM511 696v-106h-366v106h366z" />
    <glyph glyph-name="Ubreve" unicode="&#x16c;" horiz-adv-x="824" 
d="M412 -10q-178 0 -273.5 91t-95.5 258v379h147v-371q0 -114 55.5 -171t166.5 -57q110 0 165.5 57t55.5 171v371h148v-379q0 -167 -95.5 -258t-273.5 -91zM412 849q42 0 69.5 17t27.5 44h103q0 -70 -54 -112.5t-146 -42.5t-146 42.5t-54 112.5h103q0 -27 27.5 -44t69.5 -17
z" />
    <glyph glyph-name="ubreve" unicode="&#x16d;" horiz-adv-x="660" 
d="M467 526h140v-526h-140v66q-33 -37 -81.5 -57t-107.5 -20q-104 0 -166 65t-62 174v298h140v-274q0 -69 33.5 -104.5t98.5 -35.5q69 0 107 39t38 110v265zM328 662q42 0 65 14.5t26 41.5h96q-1 -70 -50 -109t-137 -39t-137 39t-50 109h96q3 -27 26 -41.5t65 -14.5z" />
    <glyph glyph-name="Uring" unicode="&#x16e;" horiz-adv-x="824" 
d="M412 -10q-178 0 -273.5 91t-95.5 258v379h147v-371q0 -114 55.5 -171t166.5 -57q110 0 165.5 57t55.5 171v371h148v-379q0 -167 -95.5 -258t-273.5 -91zM412 728q-58 0 -96.5 37.5t-38.5 92.5q0 54 38.5 91t96.5 37t96.5 -37t38.5 -91q0 -55 -38.5 -92.5t-96.5 -37.5z
M412 910q-22 0 -36.5 -14.5t-14.5 -37.5q0 -24 14 -38t37 -14t37 14t14 38q0 23 -14.5 37.5t-36.5 14.5z" />
    <glyph glyph-name="uring" unicode="&#x16f;" horiz-adv-x="660" 
d="M467 526h140v-526h-140v66q-33 -37 -81.5 -57t-107.5 -20q-104 0 -166 65t-62 174v298h140v-274q0 -69 33.5 -104.5t98.5 -35.5q69 0 107 39t38 110v265zM328 561q-49 0 -81.5 31.5t-32.5 77.5q0 45 32.5 76.5t81.5 31.5t81.5 -31.5t32.5 -76.5q0 -46 -32.5 -77.5
t-81.5 -31.5zM328 715q-18 0 -31 -13.5t-13 -31.5q0 -19 12.5 -32t31.5 -13t31.5 13t12.5 32q0 18 -13 31.5t-31 13.5z" />
    <glyph glyph-name="Uhungarumlaut" unicode="&#x170;" horiz-adv-x="824" 
d="M412 -10q-178 0 -273.5 91t-95.5 258v379h147v-371q0 -114 55.5 -171t166.5 -57q110 0 165.5 57t55.5 171v371h148v-379q0 -167 -95.5 -258t-273.5 -91zM572 759h-108l95 151h164zM337 759h-108l88 151h171z" />
    <glyph glyph-name="uhungarumlaut" unicode="&#x171;" horiz-adv-x="660" 
d="M467 526h140v-526h-140v66q-33 -37 -81.5 -57t-107.5 -20q-104 0 -166 65t-62 174v298h140v-274q0 -69 33.5 -104.5t98.5 -35.5q69 0 107 39t38 110v265zM465 573h-106l93 145h154zM252 573h-106l93 145h153z" />
    <glyph glyph-name="Uogonek" unicode="&#x172;" horiz-adv-x="824" 
d="M533 2q-54 -12 -82.5 -30t-28.5 -39q0 -15 16.5 -24t45.5 -9q13 0 25.5 1.5t23.5 4.5v-82q-23 -4 -41 -6t-33 -2q-58 0 -94.5 24.5t-36.5 65.5q0 24 10 45.5t29 40.5q-157 11 -240.5 100.5t-83.5 246.5v379h148v-371q0 -115 55 -171.5t166 -56.5q112 0 167 56.5t55 171.5
v371h147v-379q0 -137 -63.5 -223.5t-184.5 -113.5z" />
    <glyph glyph-name="uogonek" unicode="&#x173;" horiz-adv-x="660" 
d="M520 -184q-58 0 -94.5 24.5t-36.5 64.5q0 32 20 59.5t58 48.5v53q-33 -37 -81.5 -57t-107.5 -20q-104 0 -166 65t-62 174v298h140v-274q0 -69 33.5 -104.5t98.5 -35.5q69 0 107 39t38 110v265h140v-526h-12q-58 -18 -84.5 -34t-26.5 -35q0 -14 16.5 -22.5t44.5 -8.5
q13 0 25.5 1.5t24.5 4.5v-82q-23 -4 -41.5 -6t-33.5 -2z" />
    <glyph glyph-name="Wcircumflex" unicode="&#x174;" horiz-adv-x="1182" 
d="M336 162l180 556h153l179 -556l189 556h151l-251 -718h-171l-175 549l-177 -549h-170l-251 718h154zM515 910h156l144 -151h-116l-106 67l-106 -67h-116z" />
    <glyph glyph-name="wcircumflex" unicode="&#x175;" horiz-adv-x="921" 
d="M278 170l125 356h122l126 -356l128 356h144l-207 -526h-126l-129 350l-129 -350h-126l-208 526h149zM389 718h142l129 -145h-109l-91 58l-91 -58h-109z" />
    <glyph glyph-name="Ycircumflex" unicode="&#x176;" horiz-adv-x="848" 
d="M169 718l257 -294l257 294h175l-360 -413v-305h-147v305l-361 413h179zM349 910h156l144 -151h-116l-106 67l-106 -67h-116z" />
    <glyph glyph-name="ycircumflex" unicode="&#x177;" horiz-adv-x="658" 
d="M660 526l-275 -563q-39 -81 -91 -115.5t-136 -34.5q-29 0 -62.5 6.5t-51.5 15.5l25 114q21 -11 39.5 -15.5t37.5 -4.5q42 0 67.5 16.5t38.5 51.5l5 16l-259 513h156l180 -375l176 375h150zM258 718h142l129 -145h-109l-91 58l-91 -58h-109z" />
    <glyph glyph-name="Ydieresis" unicode="&#x178;" horiz-adv-x="848" 
d="M169 718l257 -294l257 294h175l-360 -413v-305h-147v305l-361 413h179zM372 759h-144v132h144v-132zM626 759h-144v132h144v-132z" />
    <glyph glyph-name="Zacute" unicode="&#x179;" horiz-adv-x="795" 
d="M245 127h512v-127h-721v112l507 479h-503v127h713v-112zM441 759h-126l117 151h199z" />
    <glyph glyph-name="zacute" unicode="&#x17a;" horiz-adv-x="625" 
d="M231 117h361v-117h-558v104l360 305h-357v117h552v-105zM357 573h-118l104 145h180z" />
    <glyph glyph-name="Zdotaccent" unicode="&#x17b;" horiz-adv-x="795" 
d="M245 127h512v-127h-721v112l507 479h-503v127h713v-112zM471 759h-150v132h150v-132z" />
    <glyph glyph-name="zdotaccent" unicode="&#x17c;" horiz-adv-x="625" 
d="M231 117h361v-117h-558v104l360 305h-357v117h552v-105zM384 588h-144v130h144v-130z" />
    <glyph glyph-name="Zcaron" unicode="&#x17d;" horiz-adv-x="795" 
d="M245 127h512v-127h-721v112l507 479h-503v127h713v-112zM618 910l-144 -151h-156l-144 151h116l106 -67l106 67h116z" />
    <glyph glyph-name="zcaron" unicode="&#x17e;" horiz-adv-x="625" 
d="M231 117h361v-117h-558v104l360 305h-357v117h552v-105zM512 718l-129 -145h-142l-129 145h109l91 -58l91 58h109z" />
    <glyph glyph-name="florin" unicode="&#x192;" horiz-adv-x="818" 
d="M477 332l-22 -122q-19 -111 -84 -166t-177 -55q-59 0 -110.5 14.5t-83.5 40.5l59 103q24 -19 58 -30t67 -11q52 0 83.5 28t41.5 83l21 115h-143v98h161l14 78q20 112 85 166.5t177 54.5q59 0 110.5 -14.5t83.5 -40.5l-59 -103q-24 19 -58 30t-68 11q-51 0 -82.5 -28
t-42.5 -83l-13 -71h158v-98h-176z" />
    <glyph glyph-name="AEacute" unicode="&#x1fc;" horiz-adv-x="1419" 
d="M-12 0l642 718h758v-127h-550v-160h493v-126h-493v-178h550v-127h-695v165h-374l-146 -165h-185zM693 587l-264 -298h264v298zM1026 759h-126l117 151h199z" />
    <glyph glyph-name="aeacute" unicode="&#x1fd;" horiz-adv-x="1072" 
d="M22 152q0 77 63 121t175 44h190v26q0 37 -34.5 58.5t-96.5 21.5q-56 0 -100 -22.5t-58 -57.5l-121 41q24 68 103 110t181 42q77 0 132 -19.5t86 -57.5q41 37 97 57t120 20q130 0 210 -75t80 -193v-44h-465q13 -56 59 -88.5t114 -32.5q58 0 101.5 25.5t62.5 70.5l119 -51
q-28 -70 -105.5 -114.5t-175.5 -44.5q-81 0 -147 29t-108 82q-41 -55 -107 -83t-151 -28q-102 0 -163 43.5t-61 119.5zM753 425q-61 0 -105 -29t-60 -79h325q-8 44 -54 76t-106 32zM158 158q0 -30 27.5 -46t76.5 -16q77 0 132.5 30t55.5 77v21h-175q-59 0 -88 -16.5
t-29 -49.5zM604 573h-118l104 145h180z" />
    <glyph glyph-name="Oslashacute" unicode="&#x1fe;" horiz-adv-x="893" 
d="M117 -29l-84 83l76 73q-42 49 -64 108t-22 124q0 160 120 265t304 105q71 0 135.5 -17.5t118.5 -50.5l76 73l83 -82l-70 -67q40 -48 60.5 -105.5t20.5 -120.5q0 -160 -120.5 -265t-303.5 -105q-68 0 -130.5 16t-116.5 47zM447 604q-125 0 -201 -67t-76 -178
q0 -41 11.5 -77.5t34.5 -67.5l381 356q-32 17 -70 25.5t-80 8.5zM447 114q124 0 200 67t76 178q0 38 -10.5 73t-30.5 65l-378 -353q32 -15 68 -22.5t75 -7.5zM496 759h-126l117 151h199z" />
    <glyph glyph-name="oslashacute" unicode="&#x1ff;" horiz-adv-x="661" 
d="M24 263q0 120 87 196.5t220 76.5q48 0 91.5 -11t79.5 -32l62 62l69 -67l-56 -56q29 -35 44.5 -78t15.5 -91q0 -120 -87 -197t-219 -77q-48 0 -91.5 11t-80.5 32l-61 -61l-70 66l56 57q-29 34 -44.5 77t-15.5 92zM331 426q-78 0 -127.5 -45t-49.5 -118q0 -25 6 -47.5
t18 -41.5l235 235q-18 8 -39 12.5t-43 4.5zM331 100q78 0 127 44.5t49 118.5q0 24 -6 46t-18 41l-235 -234q18 -8 39 -12t44 -4zM382 573h-118l104 145h180z" />
    <glyph glyph-name="uni0218" unicode="&#x218;" horiz-adv-x="776" 
d="M399 -11q-131 0 -245 46.5t-166 120.5l99 103q52 -70 135 -107t183 -37q92 0 148.5 25.5t56.5 68.5q0 34 -23.5 50.5t-87.5 27.5q-20 3 -48 6.5t-102 11.5q-178 20 -244.5 65t-66.5 130q0 103 92.5 166t244.5 63q119 0 219.5 -39t149.5 -104l-98 -94q-41 53 -114.5 82.5
t-164.5 29.5q-87 0 -136.5 -24t-49.5 -65q0 -36 40.5 -52t189.5 -33q87 -10 136.5 -19t84.5 -22q66 -23 96.5 -63t30.5 -101q0 -110 -97.5 -173t-262.5 -63zM362 -119h-52v85h140v-57q0 -56 -37 -86t-103 -30v56q25 0 37 7.5t15 24.5z" />
    <glyph glyph-name="uni0219" unicode="&#x219;" horiz-adv-x="585" 
d="M299 -11q-97 0 -178 29.5t-125 80.5l80 92q43 -46 100.5 -69.5t128.5 -23.5q62 0 95 14.5t33 41.5q0 18 -15.5 27.5t-58.5 15.5q-15 3 -48 6.5t-47 5.5q-140 18 -188.5 52.5t-48.5 99.5q0 79 71 127t189 48q87 0 159.5 -26.5t112.5 -72.5l-80 -85q-34 37 -85 56.5
t-114 19.5q-55 0 -85.5 -13.5t-30.5 -38.5q0 -19 21 -28.5t130 -22.5q65 -8 101.5 -15t62.5 -17q48 -19 70.5 -49.5t22.5 -75.5q0 -83 -74.5 -131t-198.5 -48zM273 -119h-52v85h140v-57q0 -56 -37 -86t-103 -30v56q25 0 37 7.5t15 24.5z" />
    <glyph glyph-name="uni021A" unicode="&#x21a;" horiz-adv-x="818" 
d="M800 718v-127h-317v-591h-148v591h-317v127h782zM391 -119h-52v85h140v-57q0 -56 -37 -86t-103 -30v56q25 0 37 7.5t15 24.5z" />
    <glyph glyph-name="uni021B" unicode="&#x21b;" horiz-adv-x="523" 
d="M339 -7q-103 0 -158.5 47t-55.5 136v233h-126v117h126v150h138v-150h224v-117h-224v-210q0 -44 24.5 -63.5t82.5 -19.5q26 0 53 5t62 17l24 -115q-36 -14 -81.5 -22t-88.5 -8zM280 -119h-52v85h140v-57q0 -56 -37 -86t-103 -30v56q25 0 37 7.5t15 24.5z" />
    <glyph glyph-name="uni0237" unicode="&#x237;" horiz-adv-x="247" 
d="M-39 -73q50 0 71.5 21t21.5 67v511h140v-508q0 -101 -56.5 -153t-166.5 -52q-27 0 -59.5 5t-53.5 13l21 109q26 -7 43.5 -10t38.5 -3z" />
    <glyph glyph-name="circumflex" unicode="&#x2c6;" 
d="M229 718h142l129 -145h-109l-91 58l-91 -58h-109z" />
    <glyph glyph-name="caron" unicode="&#x2c7;" 
d="M500 718l-129 -145h-142l-129 145h109l91 -58l91 58h109z" />
    <glyph glyph-name="breve" unicode="&#x2d8;" 
d="M300 662q42 0 65 14.5t26 41.5h96q-1 -70 -50 -109t-137 -39t-137 39t-50 109h96q3 -27 26 -41.5t65 -14.5z" />
    <glyph glyph-name="dotaccent" unicode="&#x2d9;" 
d="M372 588h-144v130h144v-130z" />
    <glyph glyph-name="ring" unicode="&#x2da;" 
d="M300 561q-49 0 -81.5 31.5t-32.5 77.5q0 45 32.5 76.5t81.5 31.5t81.5 -31.5t32.5 -76.5q0 -46 -32.5 -77.5t-81.5 -31.5zM300 715q-18 0 -31 -13.5t-13 -31.5q0 -19 12.5 -32t31.5 -13t31.5 13t12.5 32q0 18 -13 31.5t-31 13.5z" />
    <glyph glyph-name="ogonek" unicode="&#x2db;" 
d="M307 -184q-58 0 -94.5 24.5t-36.5 64.5q0 47 42.5 84t122.5 58l41 -47q-58 -18 -84.5 -34t-26.5 -35q0 -14 16.5 -22.5t44.5 -8.5q13 0 25.5 1.5t24.5 4.5v-82q-23 -4 -41.5 -6t-33.5 -2z" />
    <glyph glyph-name="tilde" unicode="&#x2dc;" 
d="M216 726q22 0 43 -6t54 -25q22 -12 33.5 -16t21.5 -4q15 0 24 12t14 39h86q-3 -71 -32 -112t-77 -41q-22 0 -43 6t-54 25q-23 13 -34 16.5t-21 3.5q-15 0 -24 -12t-14 -39h-86q3 71 32 112t77 41z" />
    <glyph glyph-name="hungarumlaut" unicode="&#x2dd;" 
d="M389 573h-106l93 145h154zM176 573h-106l93 145h153z" />
    <glyph glyph-name="gravecmb" unicode="&#x300;" horiz-adv-x="0" 
d="M38 718l104 -145h-118l-166 145h180z" />
    <glyph glyph-name="acutecmb" unicode="&#x301;" horiz-adv-x="0" 
d="M-24 573h-118l104 145h180z" />
    <glyph glyph-name="uni0302" unicode="&#x302;" horiz-adv-x="0" 
d="M-71 718h142l129 -145h-109l-91 58l-91 -58h-109z" />
    <glyph glyph-name="tildecmb" unicode="&#x303;" horiz-adv-x="0" 
d="M-83 726q22 0 43 -6t54 -25q22 -12 33.5 -16t21.5 -4q15 0 24 12t14 39h86q-3 -71 -32 -112t-77 -41q-22 0 -43 6t-54 25q-23 13 -34 16.5t-21 3.5q-15 0 -24 -12t-14 -39h-86q3 71 32 112t77 41z" />
    <glyph glyph-name="uni0304" unicode="&#x304;" horiz-adv-x="0" 
d="M183 696v-106h-366v106h366z" />
    <glyph glyph-name="uni0306" unicode="&#x306;" horiz-adv-x="0" 
d="M0 662q42 0 65 14.5t26 41.5h96q-1 -70 -50 -109t-137 -39t-137 39t-50 109h96q3 -27 26 -41.5t65 -14.5z" />
    <glyph glyph-name="uni0307" unicode="&#x307;" horiz-adv-x="0" 
d="M72 588h-144v130h144v-130z" />
    <glyph glyph-name="uni0308" unicode="&#x308;" horiz-adv-x="0" 
d="M-51 588h-144v130h144v-130zM195 588h-144v130h144v-130z" />
    <glyph glyph-name="uni030A" unicode="&#x30a;" horiz-adv-x="0" 
d="M0 561q-49 0 -81.5 31.5t-32.5 77.5q0 45 32.5 76.5t81.5 31.5t81.5 -31.5t32.5 -76.5q0 -46 -32.5 -77.5t-81.5 -31.5zM0 715q-18 0 -31 -13.5t-13 -31.5q0 -19 12.5 -32t31.5 -13t31.5 13t12.5 32q0 18 -13 31.5t-31 13.5z" />
    <glyph glyph-name="uni030B" unicode="&#x30b;" horiz-adv-x="0" 
d="M89 573h-106l93 145h154zM-124 573h-106l93 145h153z" />
    <glyph glyph-name="uni030C" unicode="&#x30c;" horiz-adv-x="0" 
d="M200 718l-129 -145h-142l-129 145h109l91 -58l91 58h109z" />
    <glyph glyph-name="uni0315" unicode="&#x315;" horiz-adv-x="0" 
d="M6 552h-95l25 166h153z" />
    <glyph glyph-name="uni0327" unicode="&#x327;" horiz-adv-x="0" 
d="M139 -100q0 -40 -39.5 -64t-102.5 -24q-42 0 -78 9.5t-58 26.5l43 64q18 -14 39.5 -21t47.5 -7t39.5 6t13.5 18q0 14 -21.5 20.5t-74.5 7.5l23 76h67l-10 -33q51 -2 81 -23.5t30 -55.5z" />
    <glyph glyph-name="uni0328" unicode="&#x328;" horiz-adv-x="0" 
d="M28 -184q-58 0 -94.5 24.5t-36.5 64.5q0 47 42.5 84t122.5 58l41 -47q-58 -18 -84.5 -34t-26.5 -35q0 -14 16.5 -22.5t44.5 -8.5q13 0 25.5 1.5t24.5 4.5v-82q-23 -4 -41.5 -6t-33.5 -2z" />
    <glyph glyph-name="Wgrave" unicode="&#x1e80;" horiz-adv-x="1182" 
d="M336 162l180 556h153l179 -556l189 556h151l-251 -718h-171l-175 549l-177 -549h-170l-251 718h154zM546 910l117 -151h-126l-190 151h199z" />
    <glyph glyph-name="wgrave" unicode="&#x1e81;" horiz-adv-x="921" 
d="M278 170l125 356h122l126 -356l128 356h144l-207 -526h-126l-129 350l-129 -350h-126l-208 526h149zM425 718l104 -145h-118l-166 145h180z" />
    <glyph glyph-name="Wacute" unicode="&#x1e82;" horiz-adv-x="1182" 
d="M336 162l180 556h153l179 -556l189 556h151l-251 -718h-171l-175 549l-177 -549h-170l-251 718h154zM652 759h-126l117 151h199z" />
    <glyph glyph-name="wacute" unicode="&#x1e83;" horiz-adv-x="921" 
d="M278 170l125 356h122l126 -356l128 356h144l-207 -526h-126l-129 350l-129 -350h-126l-208 526h149zM520 573h-118l104 145h180z" />
    <glyph glyph-name="Wdieresis" unicode="&#x1e84;" horiz-adv-x="1182" 
d="M336 162l180 556h153l179 -556l189 556h151l-251 -718h-171l-175 549l-177 -549h-170l-251 718h154zM536 759h-144v132h144v-132zM790 759h-144v132h144v-132z" />
    <glyph glyph-name="wdieresis" unicode="&#x1e85;" horiz-adv-x="921" 
d="M278 170l125 356h122l126 -356l128 356h144l-207 -526h-126l-129 350l-129 -350h-126l-208 526h149zM409 588h-144v130h144v-130zM655 588h-144v130h144v-130z" />
    <glyph glyph-name="Ygrave" unicode="&#x1ef2;" horiz-adv-x="848" 
d="M169 718l257 -294l257 294h175l-360 -413v-305h-147v305l-361 413h179zM407 910l117 -151h-126l-190 151h199z" />
    <glyph glyph-name="ygrave" unicode="&#x1ef3;" horiz-adv-x="658" 
d="M660 526l-275 -563q-39 -81 -91 -115.5t-136 -34.5q-29 0 -62.5 6.5t-51.5 15.5l25 114q21 -11 39.5 -15.5t37.5 -4.5q42 0 67.5 16.5t38.5 51.5l5 16l-259 513h156l180 -375l176 375h150zM308 718l104 -145h-118l-166 145h180z" />
    <glyph glyph-name="uni2009" unicode="&#x2009;" horiz-adv-x="100" 
 />
    <glyph glyph-name="endash" unicode="&#x2013;" horiz-adv-x="542" 
d="M502 235h-462v114h462v-114z" />
    <glyph glyph-name="emdash" unicode="&#x2014;" horiz-adv-x="976" 
d="M936 235h-896v114h896v-114z" />
    <glyph glyph-name="quoteleft" unicode="&#x2018;" horiz-adv-x="208" 
d="M117 572h69v-155h-164v157q0 66 44.5 104.5t119.5 39.5v-74q-35 -3 -52 -18t-17 -44v-10z" />
    <glyph glyph-name="quoteright" unicode="&#x2019;" horiz-adv-x="208" 
d="M91 563h-69v155h164v-157q0 -66 -44.5 -104.5t-119.5 -39.5v74q35 3 52 18t17 44v10z" />
    <glyph glyph-name="quotesinglbase" unicode="&#x201a;" horiz-adv-x="208" 
d="M91 11h-69v155h164v-157q0 -66 -44.5 -104.5t-119.5 -39.5v74q35 3 52 18t17 44v10z" />
    <glyph glyph-name="quotedblleft" unicode="&#x201c;" horiz-adv-x="423" 
d="M117 572h69v-155h-164v157q0 66 44.5 104.5t119.5 39.5v-74q-35 -3 -52 -18t-17 -44v-10zM333 572h69v-155h-164v157q0 66 44.5 104.5t119.5 39.5v-74q-35 -3 -52 -18t-17 -44v-10z" />
    <glyph glyph-name="quotedblright" unicode="&#x201d;" horiz-adv-x="423" 
d="M90 563h-69v155h164v-157q0 -66 -44.5 -104.5t-119.5 -39.5v74q35 3 52 18t17 44v10zM306 563h-69v155h164v-157q0 -66 -44.5 -104.5t-119.5 -39.5v74q35 3 52 18t17 44v10z" />
    <glyph glyph-name="quotedblbase" unicode="&#x201e;" horiz-adv-x="423" 
d="M306 11h-69v155h164v-157q0 -66 -44.5 -104.5t-119.5 -39.5v74q35 3 52 18t17 44v10zM90 11h-69v155h164v-157q0 -66 -44.5 -104.5t-119.5 -39.5v74q35 3 52 18t17 44v10z" />
    <glyph glyph-name="dagger" unicode="&#x2020;" horiz-adv-x="409" 
d="M258 282h-107v226h-133v106h133v124h107v-124h133v-106h-133v-226z" />
    <glyph glyph-name="daggerdbl" unicode="&#x2021;" horiz-adv-x="405" 
d="M257 282h-109v89h-129v98h129v82h-129v99h129v88h109v-88h130v-99h-130v-82h130v-98h-130v-89z" />
    <glyph glyph-name="bullet" unicode="&#x2022;" horiz-adv-x="434" 
d="M37 291q0 78 51.5 129.5t129.5 51.5q77 0 128 -51.5t51 -129.5q0 -77 -51.5 -128t-127.5 -51q-77 0 -129 51t-52 128z" />
    <glyph glyph-name="ellipsis" unicode="&#x2026;" horiz-adv-x="695" 
d="M202 0h-164v162h164v-162zM430 0h-164v162h164v-162zM657 0h-164v162h164v-162z" />
    <glyph glyph-name="guilsinglleft" unicode="&#x2039;" horiz-adv-x="298" 
d="M260 59l-222 136v130l222 136v-135l-102 -66l102 -66v-135z" />
    <glyph glyph-name="guilsinglright" unicode="&#x203a;" horiz-adv-x="298" 
d="M260 325v-130l-222 -136v135l102 66l-102 66v135z" />
    <glyph glyph-name="fraction" unicode="&#x2044;" horiz-adv-x="152" 
d="M-270 0l569 718h123l-569 -718h-123z" />
    <glyph glyph-name="uni2070" unicode="&#x2070;" horiz-adv-x="510" 
d="M255 314q-100 0 -165.5 58.5t-65.5 147.5t65.5 146.5t165.5 57.5t165.5 -57.5t65.5 -146.5t-65.5 -147.5t-165.5 -58.5zM255 632q-53 0 -85.5 -31t-32.5 -81q0 -51 32.5 -82.5t85.5 -31.5q52 0 84.5 31.5t32.5 82.5q0 50 -32.5 81t-84.5 31z" />
    <glyph glyph-name="uni2074" unicode="&#x2074;" horiz-adv-x="471" 
d="M369 407v-87h-106v87h-252v81l217 230h141v-225h91v-86h-91zM263 630l-130 -137h130v137z" />
    <glyph glyph-name="uni2075" unicode="&#x2075;" horiz-adv-x="443" 
d="M219 509q-28 0 -53.5 -7t-44.5 -19l-96 14l29 221h346v-90h-262l-8 -60q22 11 50.5 17t59.5 6q86 0 137 -36.5t51 -98.5q0 -63 -58.5 -102.5t-149.5 -39.5q-81 0 -140 30t-80 82l100 39q14 -29 46.5 -46t74.5 -17q43 0 69.5 14.5t26.5 38.5q0 25 -26.5 39.5t-71.5 14.5z
" />
    <glyph glyph-name="uni2076" unicode="&#x2076;" horiz-adv-x="489" 
d="M268 724q66 0 116 -19t79 -55l-68 -64q-21 25 -55 38.5t-74 13.5q-59 0 -97 -26.5t-38 -63.5q24 20 60.5 30.5t79.5 10.5q86 0 141 -37.5t55 -95.5q0 -64 -60 -103t-157 -39q-104 0 -165 53.5t-61 143.5q0 96 67 154.5t177 58.5zM249 398q47 0 76.5 15t29.5 39
q0 25 -29 40t-78 15q-48 0 -77 -15t-29 -40t29.5 -39.5t77.5 -14.5z" />
    <glyph glyph-name="uni2077" unicode="&#x2077;" horiz-adv-x="443" 
d="M310 628h-206v-74h-93v164h421v-96q-77 -63 -113.5 -136.5t-36.5 -165.5h-116q0 91 36.5 168.5t107.5 139.5z" />
    <glyph glyph-name="uni2078" unicode="&#x2078;" horiz-adv-x="474" 
d="M39 607q0 54 55 85.5t143 31.5t143 -31.5t55 -85.5q0 -27 -15 -46.5t-47 -34.5q42 -14 63.5 -37.5t21.5 -55.5q0 -56 -60 -87.5t-161 -31.5t-161 31.5t-60 87.5q0 32 22 55.5t64 37.5q-32 14 -47.5 34t-15.5 47zM150 606q0 -19 22.5 -29t64.5 -10t65 10t23 29t-22.5 29
t-65.5 10t-65 -10t-22 -29zM347 441q0 22 -29 33.5t-81 11.5t-80.5 -11.5t-28.5 -33.5t28 -34t81 -12t81.5 12t28.5 34z" />
    <glyph glyph-name="uni2079" unicode="&#x2079;" horiz-adv-x="489" 
d="M222 314q-66 0 -116 19.5t-79 55.5l68 63q21 -25 54.5 -38.5t74.5 -13.5q58 0 96 26.5t38 62.5q-25 -19 -61 -29t-78 -10q-86 0 -141.5 37.5t-55.5 94.5q0 64 60 103t157 39q105 0 165.5 -53t60.5 -143q0 -97 -66.5 -155.5t-176.5 -58.5zM241 640q-48 0 -77.5 -15
t-29.5 -39q0 -25 29.5 -40t77.5 -15t77.5 15t29.5 40q0 24 -29.5 39t-77.5 15z" />
    <glyph glyph-name="uni2080" unicode="&#x2080;" horiz-adv-x="510" 
d="M255 -126q-100 0 -165.5 58.5t-65.5 147.5t65.5 146.5t165.5 57.5t165.5 -57.5t65.5 -146.5t-65.5 -147.5t-165.5 -58.5zM255 192q-53 0 -85.5 -31t-32.5 -81q0 -51 32.5 -82.5t85.5 -31.5q52 0 84.5 31.5t32.5 82.5q0 50 -32.5 81t-84.5 31z" />
    <glyph glyph-name="uni2081" unicode="&#x2081;" horiz-adv-x="373" 
d="M141 -28v156h-128v82l60 2q45 1 66.5 16.5t27.5 49.5h85v-306h114v-92h-353v92h128z" />
    <glyph glyph-name="uni2082" unicode="&#x2082;" horiz-adv-x="444" 
d="M27 -120v79l169 92q71 36 89.5 53.5t18.5 38.5q0 22 -20 36t-54 14q-44 0 -74.5 -24t-37.5 -63l-100 21q10 70 69 113.5t148 43.5q81 0 131.5 -36t50.5 -96q0 -44 -27.5 -77t-89.5 -62l-83 -42h209v-91h-399z" />
    <glyph glyph-name="uni2083" unicode="&#x2083;" horiz-adv-x="464" 
d="M447 -6q0 -52 -59 -86t-154 -34q-84 0 -143 29t-87 83l97 44q15 -31 51.5 -49.5t81.5 -18.5q41 0 66.5 11.5t25.5 30.5t-22 28t-66 9h-74v82h69q43 0 64 8.5t21 26.5q0 17 -22.5 27t-61.5 10q-43 0 -76 -17t-46 -44l-92 43q24 49 84 78t138 29q89 0 142.5 -32t53.5 -84
q0 -29 -19 -52t-51 -33q40 -12 59.5 -34t19.5 -55z" />
    <glyph glyph-name="uni2084" unicode="&#x2084;" horiz-adv-x="471" 
d="M369 -33v-87h-106v87h-252v81l217 230h141v-225h91v-86h-91zM263 190l-130 -137h130v137z" />
    <glyph glyph-name="uni2085" unicode="&#x2085;" horiz-adv-x="443" 
d="M219 69q-28 0 -53.5 -7t-44.5 -19l-96 14l29 221h346v-90h-262l-8 -60q22 11 50.5 17t59.5 6q86 0 137 -36.5t51 -98.5q0 -63 -58.5 -102.5t-149.5 -39.5q-81 0 -140 30t-80 82l100 39q14 -29 46.5 -46t74.5 -17q43 0 69.5 14.5t26.5 38.5q0 25 -26.5 39.5t-71.5 14.5z
" />
    <glyph glyph-name="uni2086" unicode="&#x2086;" horiz-adv-x="489" 
d="M268 284q66 0 116 -19t79 -55l-68 -64q-21 25 -55 38.5t-74 13.5q-59 0 -97 -26.5t-38 -63.5q24 20 60.5 30.5t79.5 10.5q86 0 141 -37.5t55 -95.5q0 -64 -60 -103t-157 -39q-104 0 -165 53.5t-61 143.5q0 96 67 154.5t177 58.5zM249 -42q47 0 76.5 15t29.5 39
q0 25 -29 40t-78 15q-48 0 -77 -15t-29 -40t29.5 -39.5t77.5 -14.5z" />
    <glyph glyph-name="uni2087" unicode="&#x2087;" horiz-adv-x="443" 
d="M310 188h-206v-74h-93v164h421v-96q-77 -63 -113.5 -136.5t-36.5 -165.5h-116q0 91 36.5 168.5t107.5 139.5z" />
    <glyph glyph-name="uni2088" unicode="&#x2088;" horiz-adv-x="474" 
d="M39 167q0 54 55 85.5t143 31.5t143 -31.5t55 -85.5q0 -27 -15 -46.5t-47 -34.5q42 -14 63.5 -37.5t21.5 -55.5q0 -56 -60 -87.5t-161 -31.5t-161 31.5t-60 87.5q0 32 22 55.5t64 37.5q-32 14 -47.5 34t-15.5 47zM150 166q0 -19 22.5 -29t64.5 -10t65 10t23 29t-22.5 29
t-65.5 10t-65 -10t-22 -29zM347 1q0 22 -29 33.5t-81 11.5t-80.5 -11.5t-28.5 -33.5t28 -34t81 -12t81.5 12t28.5 34z" />
    <glyph glyph-name="uni2089" unicode="&#x2089;" horiz-adv-x="489" 
d="M221 -126q-66 0 -116 19.5t-79 55.5l68 63q21 -25 54.5 -38.5t74.5 -13.5q58 0 96 26.5t38 62.5q-25 -19 -61 -29t-78 -10q-86 0 -141.5 37.5t-55.5 94.5q0 64 60 103t157 39q105 0 165.5 -53t60.5 -143q0 -97 -66.5 -155.5t-176.5 -58.5zM240 200q-48 0 -77.5 -15
t-29.5 -39q0 -25 29.5 -40t77.5 -15t77.5 15t29.5 40q0 24 -29.5 39t-77.5 15z" />
    <glyph glyph-name="Euro" unicode="&#x20ac;" horiz-adv-x="892" 
d="M132 236h-113v96h93q-1 5 -1 10.5v16.5v19.5t1 11.5h-93v95h114q42 112 146.5 178t240.5 66q132 0 228 -58.5t136 -162.5l-122 -64q-30 76 -93.5 117t-151.5 41q-77 0 -138 -30.5t-94 -86.5h304l-22 -95h-313q-1 -12 -1.5 -18.5t-0.5 -12.5v-16.5t1 -10.5h301l-21 -96
h-249q33 -57 94 -88.5t139 -31.5q88 0 151.5 41t93.5 117l122 -64q-40 -104 -136 -162.5t-228 -58.5q-137 0 -242 67t-146 180z" />
    <glyph glyph-name="trademark" unicode="&#x2122;" horiz-adv-x="929" 
d="M253 624v-244h-106v244h-127v94h359v-94h-126zM794 594l-102 -214h-58l-102 214v-214h-95v338h136l92 -187l91 187h134v-338h-96v214z" />
    <glyph glyph-name="uni2153" unicode="&#x2153;" horiz-adv-x="1060" 
d="M366 320h-353v92h128v156h-128v82l60 2q45 1 66.5 16.5t27.5 49.5h85v-306h114v-92zM173 0l569 718h123l-569 -718h-123zM1042 114q0 -52 -59 -86t-154 -34q-84 0 -143 29t-87 83l97 44q15 -31 51.5 -49.5t81.5 -18.5q41 0 66.5 11.5t25.5 30.5t-22 28t-66 9h-74v82h69
q43 0 64 8.5t21 26.5q0 17 -22.5 27t-61.5 10q-43 0 -76 -17t-46 -44l-92 43q24 49 84 78t138 29q89 0 142.5 -32t53.5 -84q0 -29 -19 -52t-51 -33q40 -12 59.5 -34t19.5 -55z" />
    <glyph glyph-name="uni2154" unicode="&#x2154;" horiz-adv-x="1115" 
d="M25 320v79l169 92q71 36 89.5 53.5t18.5 38.5q0 22 -20 36t-54 14q-44 0 -74.5 -24t-37.5 -63l-100 21q10 70 69 113.5t148 43.5q81 0 131.5 -36t50.5 -96q0 -44 -27.5 -77t-89.5 -62l-83 -42h209v-91h-399zM228 0l569 718h123l-569 -718h-123zM1098 114q0 -52 -59 -86
t-154 -34q-84 0 -143 29t-87 83l97 44q15 -31 51.5 -49.5t81.5 -18.5q41 0 66.5 11.5t25.5 30.5t-22 28t-66 9h-74v82h69q43 0 64 8.5t21 26.5q0 17 -22.5 27t-61.5 10q-43 0 -76 -17t-46 -44l-92 43q24 49 84 78t138 29q89 0 142.5 -32t53.5 -84q0 -29 -19 -52t-51 -33
q40 -12 59.5 -34t19.5 -55z" />
    <glyph glyph-name="uni215B" unicode="&#x215b;" horiz-adv-x="1069" 
d="M366 320h-353v92h128v156h-128v82l60 2q45 1 66.5 16.5t27.5 49.5h85v-306h114v-92zM173 0l569 718h123l-569 -718h-123zM634 287q0 54 55 85.5t143 31.5t143 -31.5t55 -85.5q0 -27 -15 -46.5t-47 -34.5q42 -14 63.5 -37.5t21.5 -55.5q0 -56 -60 -87.5t-161 -31.5
t-161 31.5t-60 87.5q0 32 22 55.5t64 37.5q-32 14 -47.5 34t-15.5 47zM745 286q0 -19 22.5 -29t64.5 -10t65 10t23 29t-22.5 29t-65.5 10t-65 -10t-22 -29zM942 121q0 22 -29 33.5t-81 11.5t-80.5 -11.5t-28.5 -33.5t28 -34t81 -12t81.5 12t28.5 34z" />
    <glyph glyph-name="uni215C" unicode="&#x215c;" horiz-adv-x="1091" 
d="M447 434q0 -52 -59 -86t-154 -34q-84 0 -143 29t-87 83l97 44q15 -31 51.5 -49.5t81.5 -18.5q41 0 66.5 11.5t25.5 30.5t-22 28t-66 9h-74v82h69q43 0 64 8.5t21 26.5q0 17 -22.5 27t-61.5 10q-43 0 -76 -17t-46 -44l-92 43q24 49 84 78t138 29q89 0 142.5 -32t53.5 -84
q0 -29 -19 -52t-51 -33q40 -12 59.5 -34t19.5 -55zM194 0l569 718h123l-569 -718h-123zM656 287q0 54 55 85.5t143 31.5t143 -31.5t55 -85.5q0 -27 -15 -46.5t-47 -34.5q42 -14 63.5 -37.5t21.5 -55.5q0 -56 -60 -87.5t-161 -31.5t-161 31.5t-60 87.5q0 32 22 55.5t64 37.5
q-32 14 -47.5 34t-15.5 47zM767 286q0 -19 22.5 -29t64.5 -10t65 10t23 29t-22.5 29t-65.5 10t-65 -10t-22 -29zM964 121q0 22 -29 33.5t-81 11.5t-80.5 -11.5t-28.5 -33.5t28 -34t81 -12t81.5 12t28.5 34z" />
    <glyph glyph-name="uni215D" unicode="&#x215d;" horiz-adv-x="1070" 
d="M219 509q-28 0 -53.5 -7t-44.5 -19l-96 14l29 221h346v-90h-262l-8 -60q22 11 50.5 17t59.5 6q86 0 137 -36.5t51 -98.5q0 -63 -58.5 -102.5t-149.5 -39.5q-81 0 -140 30t-80 82l100 39q14 -29 46.5 -46t74.5 -17q43 0 69.5 14.5t26.5 38.5q0 25 -26.5 39.5t-71.5 14.5z
M173 0l569 718h123l-569 -718h-123zM635 287q0 54 55 85.5t143 31.5t143 -31.5t55 -85.5q0 -27 -15 -46.5t-47 -34.5q42 -14 63.5 -37.5t21.5 -55.5q0 -56 -60 -87.5t-161 -31.5t-161 31.5t-60 87.5q0 32 22 55.5t64 37.5q-32 14 -47.5 34t-15.5 47zM746 286q0 -19 22.5 -29
t64.5 -10t65 10t23 29t-22.5 29t-65.5 10t-65 -10t-22 -29zM943 121q0 22 -29 33.5t-81 11.5t-80.5 -11.5t-28.5 -33.5t28 -34t81 -12t81.5 12t28.5 34z" />
    <glyph glyph-name="uni215E" unicode="&#x215e;" horiz-adv-x="1036" 
d="M310 628h-206v-74h-93v164h421v-96q-77 -63 -113.5 -136.5t-36.5 -165.5h-116q0 91 36.5 168.5t107.5 139.5zM139 0l569 718h123l-569 -718h-123zM601 287q0 54 55 85.5t143 31.5t143 -31.5t55 -85.5q0 -27 -15 -46.5t-47 -34.5q42 -14 63.5 -37.5t21.5 -55.5
q0 -56 -60 -87.5t-161 -31.5t-161 31.5t-60 87.5q0 32 22 55.5t64 37.5q-32 14 -47.5 34t-15.5 47zM712 286q0 -19 22.5 -29t64.5 -10t65 10t23 29t-22.5 29t-65.5 10t-65 -10t-22 -29zM909 121q0 22 -29 33.5t-81 11.5t-80.5 -11.5t-28.5 -33.5t28 -34t81 -12t81.5 12
t28.5 34z" />
    <glyph glyph-name="minus" unicode="&#x2212;" horiz-adv-x="800" 
d="M740 294h-680v120h680v-120z" />
    <glyph glyph-name="uniF6C3" unicode="&#xf6c3;" 
d="M281 -119h-52v85h140v-57q0 -56 -37 -86t-103 -30v56q25 0 37 7.5t15 24.5z" />
    <glyph glyph-name="NULL" horiz-adv-x="0" 
 />
    <glyph glyph-name="i.loclTRK" horiz-adv-x="247" 
d="M195 588h-143v130h143v-130zM54 526h140v-526h-140v526z" />
    <glyph glyph-name="a.ord" horiz-adv-x="487" 
d="M336 384q-27 -24 -68 -37t-88 -13q-72 0 -115.5 31.5t-43.5 84.5q0 50 40 80.5t113 37.5l152 15v2q0 25 -23 39t-65 14q-38 0 -67 -14.5t-37 -37.5l-99 28q17 50 74 80.5t134 30.5q92 0 141 -36t49 -105v-140q0 -18 11 -22q5 -2 13 -2q10 0 25 3v-81q-27 -6 -49 -6
q-24 0 -43 6q-37 11 -54 42zM200 415q51 0 88.5 20.5t37.5 50.5v22l-136 -14q-33 -3 -47 -12.5t-14 -27.5q0 -19 18.5 -29t52.5 -10z" />
    <glyph glyph-name="b.ord" horiz-adv-x="528" 
d="M505 529q0 -86 -56 -141t-147 -55q-43 0 -79 14t-59 38v-43h-111v513h111v-180q22 23 58.5 36.5t79.5 13.5q91 0 147 -55t56 -141zM280 636q-52 0 -86 -30t-34 -76v-2q0 -46 34 -75.5t86 -29.5q51 0 84.5 29.5t33.5 76.5q0 48 -33 77.5t-85 29.5z" />
    <glyph glyph-name="c.ord" horiz-adv-x="458" 
d="M248 635q-52 0 -84.5 -29t-32.5 -77q0 -47 32.5 -76t84.5 -29q39 0 68.5 21t40.5 54l95 -43q-19 -54 -74.5 -88.5t-128.5 -34.5q-99 0 -162.5 55t-63.5 141q0 87 63.5 141.5t162.5 54.5q74 0 130 -35t73 -88l-95 -41q-11 33 -41 53.5t-68 20.5z" />
    <glyph glyph-name="d.ord" horiz-adv-x="528" 
d="M226 333q-90 0 -146.5 55.5t-56.5 140.5q0 86 56 141t147 55q44 0 80 -13.5t58 -36.5v180h111v-513h-111v43q-22 -24 -58 -38t-80 -14zM368 528v2q0 46 -34 76t-85 30q-52 0 -85 -29.5t-33 -77.5t33 -77t85 -29q51 0 85 29.5t34 75.5z" />
    <glyph glyph-name="e.ord" horiz-adv-x="483" 
d="M249 333q-100 0 -163 55t-63 142q0 84 63.5 139.5t161.5 55.5q95 0 153.5 -54t58.5 -139v-31h-330q10 -37 41 -58t77 -21q39 0 68 17t41 46l97 -37q-21 -52 -77 -83.5t-128 -31.5zM245 640q-41 0 -71 -18.5t-41 -51.5h217q-5 29 -35 49.5t-70 20.5z" />
    <glyph glyph-name="f.ord" horiz-adv-x="336" 
d="M260 863q24 0 49.5 -4t42.5 -10l-14 -87q-16 5 -33 7t-39 2q-38 0 -55.5 -11.5t-17.5 -37.5v-4h141v-91h-140v-285h-109v285h-87v91h87v6q0 68 44.5 103.5t130.5 35.5z" />
    <glyph glyph-name="g.ord" horiz-adv-x="524" 
d="M471 718v-321q0 -87 -65.5 -138.5t-171.5 -51.5q-78 0 -133.5 25t-78.5 71l89 52q15 -30 47 -46t76 -16q55 0 90.5 25.5t35.5 67.5v13q-22 -24 -57.5 -37t-78.5 -13q-91 0 -147.5 53t-56.5 135t56.5 135t147.5 53q43 0 78.5 -13t57.5 -36v42h111zM365 536v3q0 44 -34 72
t-85 28t-84.5 -28.5t-33.5 -73.5t33.5 -73t84.5 -28q52 0 85.5 28t33.5 72z" />
    <glyph glyph-name="h.ord" horiz-adv-x="515" 
d="M164 342h-111v513h111v-183q24 25 59.5 39t77.5 14q75 0 120 -46.5t45 -123.5v-213h-111v182q0 49 -23.5 76t-67.5 27q-47 0 -73.5 -27.5t-26.5 -76.5v-181z" />
    <glyph glyph-name="i.ord" horiz-adv-x="216" 
d="M164 758h-112v97h112v-97zM52 718h111v-376h-111v376z" />
    <glyph glyph-name="j.ord" horiz-adv-x="216" 
d="M164 758h-112v97h112v-97zM-11 296q34 0 48.5 14.5t14.5 46.5v361h111v-362q0 -73 -41 -110t-122 -37q-21 0 -45 3.5t-39 8.5l16 85q16 -5 29 -7.5t28 -2.5z" />
    <glyph glyph-name="k.ord" horiz-adv-x="493" 
d="M53 855h111v-300l189 163h151l-190 -159l195 -217h-138l-136 151l-71 -60v-91h-111v513z" />
    <glyph glyph-name="l.ord" horiz-adv-x="217" 
d="M53 855h111v-513h-111v513z" />
    <glyph glyph-name="m.ord" horiz-adv-x="794" 
d="M258 628q-45 0 -69.5 -26.5t-24.5 -75.5v-184h-111v376h111v-45q24 26 57 39t73 13q42 0 76.5 -17.5t53.5 -48.5q29 32 68.5 49t85.5 17q78 0 122 -46t44 -127v-210h-111v185q0 49 -22 75t-63 26q-45 0 -69.5 -26.5t-24.5 -75.5v-184h-111v185q0 49 -22 75t-63 26z" />
    <glyph glyph-name="n.ord" horiz-adv-x="515" 
d="M164 342h-111v376h111v-46q24 25 59.5 39t77.5 14q75 0 120 -46.5t45 -123.5v-213h-111v182q0 49 -23.5 76t-67.5 27q-47 0 -73.5 -27.5t-26.5 -76.5v-181z" />
    <glyph glyph-name="o.ord" horiz-adv-x="492" 
d="M246 725q98 0 160.5 -54.5t62.5 -141.5q0 -86 -63 -141t-160 -55t-160 55t-63 141q0 87 62.5 141.5t160.5 54.5zM246 635q-51 0 -83 -29t-32 -77t32 -76.5t83 -28.5t83.5 29t32.5 76q0 48 -32.5 77t-83.5 29z" />
    <glyph glyph-name="p.ord" horiz-adv-x="528" 
d="M505 529q0 -86 -56 -141t-147 -55q-43 0 -79 14t-59 38v-170h-111v503h111v-43q22 23 58.5 36.5t79.5 13.5q91 0 147 -55t56 -141zM280 636q-52 0 -86 -30t-34 -76v-2q0 -46 34 -75.5t86 -29.5q51 0 84.5 29.5t33.5 76.5q0 48 -33 77.5t-85 29.5z" />
    <glyph glyph-name="q.ord" horiz-adv-x="528" 
d="M226 333q-90 0 -146.5 55.5t-56.5 140.5q0 86 56 141t147 55q44 0 80 -13.5t58 -36.5v43h111v-503h-111v170q-22 -24 -58 -38t-80 -14zM368 528v2q0 46 -34 76t-85 30q-52 0 -85 -29.5t-33 -77.5t33 -77t85 -29q51 0 85 29.5t34 75.5z" />
    <glyph glyph-name="r.ord" horiz-adv-x="356" 
d="M304 720q9 0 18.5 -1t23.5 -3v-108q-21 4 -28.5 4.5t-17.5 0.5q-68 0 -102 -29.5t-34 -87.5v-154h-111v376h111v-65q23 34 57 50.5t83 16.5z" />
    <glyph glyph-name="s.ord" horiz-adv-x="427" 
d="M211 333q-68 0 -125.5 19.5t-89.5 53.5l55 74q32 -31 74 -47t93 -16q42 0 63.5 9t21.5 26q0 12 -11 18t-42 10q-11 2 -33.5 4.5t-33.5 3.5q-97 13 -131.5 38t-34.5 72q0 58 51.5 92.5t139.5 34.5q61 0 113.5 -17.5t83.5 -47.5l-59 -67q-26 24 -63 37t-80 13
q-38 0 -57.5 -8.5t-19.5 -24.5q0 -12 12 -17.5t95 -15.5q108 -13 144.5 -39t36.5 -74q0 -61 -55 -96t-148 -35z" />
    <glyph glyph-name="t.ord" horiz-adv-x="381" 
d="M239 336q-73 0 -113.5 33.5t-40.5 95.5v162h-86v91h86v105h109v-105h157v-91h-157v-139q0 -30 17 -43.5t56 -13.5q17 0 36 3.5t45 12.5l20 -89q-27 -10 -61 -16t-68 -6z" />
    <glyph glyph-name="u.ord" horiz-adv-x="511" 
d="M347 718h110v-376h-110v45q-25 -27 -59 -40.5t-76 -13.5q-74 0 -118 46t-44 123v216h110v-194q0 -47 22.5 -70.5t67.5 -23.5q46 0 71.5 26t25.5 74v188z" />
    <glyph glyph-name="v.ord" horiz-adv-x="478" 
d="M481 718l-184 -376h-115l-184 376h122l122 -258l120 258h119z" />
    <glyph glyph-name="w.ord" horiz-adv-x="671" 
d="M205 475l84 243h98l85 -243l87 243h115l-149 -376h-101l-89 241l-87 -241h-101l-149 376h118z" />
    <glyph glyph-name="x.ord" horiz-adv-x="488" 
d="M490 342h-139l-107 119l-110 -119h-135l178 189l-172 187h138l101 -113l104 113h135l-171 -183z" />
    <glyph glyph-name="y.ord" horiz-adv-x="478" 
d="M480 718l-191 -396q-30 -62 -69 -87.5t-103 -25.5q-22 0 -46 4.5t-37 10.5l18 88q15 -7 28.5 -10.5t26.5 -3.5q28 0 44.5 10.5t24.5 32.5l4 11l-182 366h123l122 -259l120 259h117z" />
    <glyph glyph-name="z.ord" horiz-adv-x="471" 
d="M192 433h246v-91h-405v81l247 204h-244v91h400v-83z" />
    <glyph glyph-name="caron.Slovak" 
d="M305 552h-95l25 166h153z" />
    <glyph glyph-name="commaturn" 
d="M318 658h52v-85h-140v57q0 56 37 86t103 30v-56q-25 0 -37 -7.5t-15 -24.5z" />
    <glyph glyph-name="grave.cap" 
d="M327 910l117 -151h-126l-190 151h199z" />
    <glyph glyph-name="acute.cap" 
d="M270 759h-126l117 151h199z" />
    <glyph glyph-name="circumflex.cap" 
d="M222 910h156l144 -151h-116l-106 67l-106 -67h-116z" />
    <glyph glyph-name="caron.cap" 
d="M522 910l-144 -151h-156l-144 151h116l106 -67l106 67h116z" />
    <glyph glyph-name="tilde.cap" 
d="M200 923q26 0 50.5 -6t64.5 -26q29 -14 43.5 -18t27.5 -4q17 0 27 12.5t16 41.5h93q-4 -76 -37 -120t-86 -44q-25 0 -50 6.5t-65 25.5q-29 15 -43 19t-27 4q-18 0 -28 -13t-15 -42h-93q3 76 35.5 120t86.5 44z" />
    <glyph glyph-name="macron.cap" 
d="M496 876v-109h-392v109h392z" />
    <glyph glyph-name="breve.cap" 
d="M300 849q42 0 69.5 17t27.5 44h103q0 -70 -54 -112.5t-146 -42.5t-146 42.5t-54 112.5h103q0 -27 27.5 -44t69.5 -17z" />
    <glyph glyph-name="dotaccent.cap" 
d="M375 759h-150v132h150v-132z" />
    <glyph glyph-name="dieresis.cap" 
d="M245 759h-144v132h144v-132zM499 759h-144v132h144v-132z" />
    <glyph glyph-name="ring.cap" 
d="M300 756q-58 0 -96.5 37.5t-38.5 92.5q0 54 38.5 91t96.5 37t96.5 -37t38.5 -91q0 -55 -38.5 -92.5t-96.5 -37.5zM300 938q-22 0 -36.5 -14.5t-14.5 -37.5q0 -24 14 -38t37 -14t37 14t14 38q0 23 -14.5 37.5t-36.5 14.5z" />
    <glyph glyph-name="hungarumlaut.cap" 
d="M410 759h-108l95 151h164zM175 759h-108l88 151h171z" />
    <glyph glyph-name="guilsinglleft.cap" horiz-adv-x="298" 
d="M260 157l-222 136v130l222 136v-135l-102 -66l102 -66v-135z" />
    <glyph glyph-name="guilsinglright.cap" horiz-adv-x="298" 
d="M260 423v-130l-222 -136v135l102 66l-102 66v135z" />
    <glyph glyph-name="guillemotleft.cap" horiz-adv-x="545" 
d="M260 157l-222 136v130l222 136v-135l-102 -66l102 -66v-135zM507 157l-222 136v130l222 136v-135l-102 -66l102 -66v-135z" />
    <glyph glyph-name="guillemotright.cap" horiz-adv-x="545" 
d="M260 423v-130l-222 -136v135l102 66l-102 66v135zM507 423v-130l-222 -136v135l102 66l-102 66v135z" />
    <glyph glyph-name="slash.cap" horiz-adv-x="560" 
d="M161 -61h-149l387 836h149z" />
    <glyph glyph-name="backslash.cap" horiz-adv-x="560" 
d="M399 -61h149l-387 836h-149z" />
    <glyph glyph-name="bar.cap" horiz-adv-x="270" 
d="M204 -61h-138v836h138v-836z" />
    <glyph glyph-name="periodcentered.cap" horiz-adv-x="244" 
d="M204 280h-164v162h164v-162z" />
    <glyph glyph-name="bullet.cap" horiz-adv-x="434" 
d="M37 357q0 78 51.5 129.5t129.5 51.5q77 0 128 -51.5t51 -129.5q0 -77 -51.5 -128t-127.5 -51q-77 0 -129 51t-52 128z" />
    <glyph glyph-name="hyphen.cap" horiz-adv-x="368" 
d="M328 296h-288v125h288v-125z" />
    <glyph glyph-name="endash.cap" horiz-adv-x="542" 
d="M502 301h-462v114h462v-114z" />
    <glyph glyph-name="emdash.cap" horiz-adv-x="976" 
d="M936 301h-896v114h896v-114z" />
    <glyph glyph-name="parenleft.cap" horiz-adv-x="392" 
d="M166 342q0 -119 57 -224t169 -194h-146q-107 69 -167 179.5t-60 238.5t60 238.5t167 179.5h146q-112 -90 -169 -194.5t-57 -223.5z" />
    <glyph glyph-name="parenright.cap" horiz-adv-x="392" 
d="M226 342q0 119 -57 223.5t-169 194.5h146q107 -69 167 -179.5t60 -238.5t-60 -238.5t-167 -179.5h-146q112 89 169 194t57 224z" />
    <glyph glyph-name="bracketleft.cap" horiz-adv-x="364" 
d="M354 650h-179v-617h179v-109h-314v836h314v-110z" />
    <glyph glyph-name="bracketright.cap" horiz-adv-x="364" 
d="M189 33v617h-179v110h314v-836h-314v109h179z" />
    <glyph glyph-name="braceleft.cap" horiz-adv-x="422" 
d="M69 286h-49v112h49q28 0 41.5 19t13.5 56v114q0 82 50.5 127.5t142.5 45.5h95v-110h-71q-47 0 -69 -22t-22 -71v-89q0 -49 -17.5 -79.5t-54.5 -46.5q37 -16 54.5 -46.5t17.5 -79.5v-89q0 -49 22 -71t69 -22h71v-110h-95q-92 0 -142.5 45.5t-50.5 127.5v114q0 37 -13.5 56
t-41.5 19z" />
    <glyph glyph-name="braceright.cap" horiz-adv-x="422" 
d="M402 398v-112h-49q-28 0 -41.5 -19t-13.5 -56v-114q0 -82 -50.5 -127.5t-142.5 -45.5h-95v110h71q47 0 69 22t22 71v89q0 49 17.5 79.5t54.5 46.5q-37 16 -54.5 46.5t-17.5 79.5v89q0 49 -22 71t-69 22h-71v110h95q92 0 142.5 -45.5t50.5 -127.5v-114q0 -37 13.5 -56
t41.5 -19h49z" />
    <glyph glyph-name="at.cap" horiz-adv-x="1062" 
d="M801 543l-50 -254q-6 -30 5 -44.5t40 -14.5q56 0 94 47t38 121q0 118 -96.5 185t-263.5 67q-194 0 -311 -92.5t-117 -242.5q0 -137 104.5 -213t293.5 -76q97 0 189 20.5t156 55.5l52 -88q-73 -44 -177 -68.5t-221 -24.5q-238 0 -376 105t-138 289q0 101 45 187t129 146
q73 51 167 78t204 27q212 0 341.5 -95.5t129.5 -254.5q0 -123 -75 -198t-192 -74q-46 0 -82.5 15.5t-55.5 42.5q-24 -27 -68.5 -42t-95.5 -15q-96 0 -152.5 50t-56.5 133q0 100 72 168.5t181 68.5q48 0 87.5 -14.5t64.5 -41.5l10 47h125zM400 326q0 -42 27.5 -66t75.5 -24
q57 0 95 35.5t38 86.5q0 42 -27.5 66t-75.5 24q-57 0 -95 -35.5t-38 -86.5z" />
    <glyph glyph-name="zero.dnom" horiz-adv-x="510" 
d="M255 -6q-100 0 -165.5 58.5t-65.5 147.5t65.5 146.5t165.5 57.5t165.5 -57.5t65.5 -146.5t-65.5 -147.5t-165.5 -58.5zM255 312q-53 0 -85.5 -31t-32.5 -81q0 -51 32.5 -82.5t85.5 -31.5q52 0 84.5 31.5t32.5 82.5q0 50 -32.5 81t-84.5 31z" />
    <glyph glyph-name="one.dnom" horiz-adv-x="373" 
d="M141 92v156h-128v82l60 2q45 1 66.5 16.5t27.5 49.5h85v-306h114v-92h-353v92h128z" />
    <glyph glyph-name="two.dnom" horiz-adv-x="444" 
d="M27 0v79l169 92q71 36 89.5 53.5t18.5 38.5q0 22 -20 36t-54 14q-44 0 -74.5 -24t-37.5 -63l-100 21q10 70 69 113.5t148 43.5q81 0 131.5 -36t50.5 -96q0 -44 -27.5 -77t-89.5 -62l-83 -42h209v-91h-399z" />
    <glyph glyph-name="three.dnom" horiz-adv-x="464" 
d="M447 114q0 -52 -59 -86t-154 -34q-84 0 -143 29t-87 83l97 44q15 -31 51.5 -49.5t81.5 -18.5q41 0 66.5 11.5t25.5 30.5t-22 28t-66 9h-74v82h69q43 0 64 8.5t21 26.5q0 17 -22.5 27t-61.5 10q-43 0 -76 -17t-46 -44l-92 43q24 49 84 78t138 29q89 0 142.5 -32t53.5 -84
q0 -29 -19 -52t-51 -33q40 -12 59.5 -34t19.5 -55z" />
    <glyph glyph-name="four.dnom" horiz-adv-x="471" 
d="M369 87v-87h-106v87h-252v81l217 230h141v-225h91v-86h-91zM263 310l-130 -137h130v137z" />
    <glyph glyph-name="five.dnom" horiz-adv-x="443" 
d="M219 189q-28 0 -53.5 -7t-44.5 -19l-96 14l29 221h346v-90h-262l-8 -60q22 11 50.5 17t59.5 6q86 0 137 -36.5t51 -98.5q0 -63 -58.5 -102.5t-149.5 -39.5q-81 0 -140 30t-80 82l100 39q14 -29 46.5 -46t74.5 -17q43 0 69.5 14.5t26.5 38.5q0 25 -26.5 39.5t-71.5 14.5z
" />
    <glyph glyph-name="six.dnom" horiz-adv-x="489" 
d="M268 404q66 0 116 -19t79 -55l-68 -64q-21 25 -55 38.5t-74 13.5q-59 0 -97 -26.5t-38 -63.5q24 20 60.5 30.5t79.5 10.5q86 0 141 -37.5t55 -95.5q0 -64 -60 -103t-157 -39q-104 0 -165 53.5t-61 143.5q0 96 67 154.5t177 58.5zM249 78q47 0 76.5 15t29.5 39
q0 25 -29 40t-78 15q-48 0 -77 -15t-29 -40t29.5 -39.5t77.5 -14.5z" />
    <glyph glyph-name="seven.dnom" horiz-adv-x="443" 
d="M310 308h-206v-74h-93v164h421v-96q-77 -63 -113.5 -136.5t-36.5 -165.5h-116q0 91 36.5 168.5t107.5 139.5z" />
    <glyph glyph-name="eight.dnom" horiz-adv-x="474" 
d="M39 287q0 54 55 85.5t143 31.5t143 -31.5t55 -85.5q0 -27 -15 -46.5t-47 -34.5q42 -14 63.5 -37.5t21.5 -55.5q0 -56 -60 -87.5t-161 -31.5t-161 31.5t-60 87.5q0 32 22 55.5t64 37.5q-32 14 -47.5 34t-15.5 47zM150 286q0 -19 22.5 -29t64.5 -10t65 10t23 29t-22.5 29
t-65.5 10t-65 -10t-22 -29zM347 121q0 22 -29 33.5t-81 11.5t-80.5 -11.5t-28.5 -33.5t28 -34t81 -12t81.5 12t28.5 34z" />
    <glyph glyph-name="nine.dnom" horiz-adv-x="489" 
d="M221 -6q-66 0 -116 19.5t-79 55.5l68 63q21 -25 54.5 -38.5t74.5 -13.5q58 0 96 26.5t38 62.5q-25 -19 -61 -29t-78 -10q-86 0 -141.5 37.5t-55.5 94.5q0 64 60 103t157 39q105 0 165.5 -53t60.5 -143q0 -97 -66.5 -155.5t-176.5 -58.5zM240 320q-48 0 -77.5 -15
t-29.5 -39q0 -25 29.5 -40t77.5 -15t77.5 15t29.5 40q0 24 -29.5 39t-77.5 15z" />
    <glyph glyph-name="colon.mid" horiz-adv-x="401" 
d="M283 110h-164v162h164v-162zM283 449h-164v162h164v-162z" />
    <glyph glyph-name="commaturncmb" horiz-adv-x="0" 
d="M18 658h52v-85h-140v57q0 56 37 86t103 30v-56q-25 0 -37 -7.5t-15 -24.5z" />
    <glyph glyph-name="commaaccentcmb" horiz-adv-x="0" 
d="M-18 -119h-52v85h140v-57q0 -56 -37 -86t-103 -30v56q25 0 37 7.5t15 24.5z" />
    <glyph glyph-name="space.tab" horiz-adv-x="400" 
 />
    <glyph glyph-name="period.tab" horiz-adv-x="400" 
d="M283 0h-164v162h164v-162z" />
    <glyph glyph-name="comma.tab" horiz-adv-x="400" 
d="M188 0h-69v162h164v-159q0 -69 -44 -109.5t-120 -40.5v74q35 2 52 18.5t17 47.5v7z" />
    <glyph glyph-name="colon.tab" horiz-adv-x="400" 
d="M283 0h-164v162h164v-162zM283 339h-164v162h164v-162z" />
    <glyph glyph-name="semicolon.tab" horiz-adv-x="400" 
d="M188 0h-69v162h164v-159q0 -69 -44 -109.5t-120 -40.5v74q35 2 52 18.5t17 47.5v7zM283 339h-164v162h164v-162z" />
    <glyph glyph-name="florin.lt" horiz-adv-x="799" 
d="M468 332l-22 -122q-20 -111 -84.5 -166t-175.5 -55q-57 0 -106.5 14.5t-82.5 41.5l60 103q26 -20 56.5 -31t62.5 -11q51 0 82 28t42 83l21 115h-144v98h162l14 78q20 111 84.5 166t174.5 55q58 0 107.5 -14.5t82.5 -41.5l-61 -103q-25 20 -56 31t-63 11q-51 0 -82 -28
t-41 -83l-13 -71h157v-98h-175z" />
    <glyph glyph-name="Euro.lt" horiz-adv-x="800" 
d="M92 236h-67v96h49q-1 5 -1 10.5v16.5v19.5t1 11.5h-49v95h68q37 112 132 178t220 66q122 0 207.5 -57t124.5 -164l-122 -59q-29 75 -83 114t-130 39q-69 0 -122 -30.5t-81 -86.5h265l-20 -95h-273v-6v-9q-1 -6 -1 -9.5v-6.5v-16.5t1 -10.5h260l-19 -96h-215
q28 -57 82 -88.5t123 -31.5q76 0 130 39t83 114l122 -59q-39 -107 -124.5 -164t-207.5 -57q-127 0 -222 66.5t-131 180.5z" />
    <glyph glyph-name="dollar.lt" horiz-adv-x="800" 
d="M-1 164l99 96q44 -55 111 -90t147 -46v185q-176 21 -242 65t-66 127q0 92 83 150t225 66v103h117v-106q99 -10 178.5 -46.5t120.5 -89.5l-98 -91q-30 39 -82 66t-119 38v-169q185 -22 250.5 -67t65.5 -130q0 -97 -82 -155t-234 -68v-106h-117v106q-117 10 -214 54
t-143 108zM186 514q0 -34 35 -50t135 -29v163q-86 -3 -128 -23.5t-42 -60.5zM646 210q0 38 -33 55.5t-140 30.5v-174q84 5 128.5 28t44.5 60z" />
    <glyph glyph-name="cent.lt" horiz-adv-x="800" 
d="M478 -103h-111v95q-122 15 -198 91.5t-76 186.5t76 186.5t198 91.5v107h111v-107q85 -11 149 -55.5t90 -107.5l-103 -60q-18 42 -53 70t-83 38v-327q48 11 84 40t52 70l102 -63q-26 -63 -89.5 -106.5t-148.5 -54.5v-95zM221 270q0 -62 39.5 -106t106.5 -58v328
q-67 -14 -106.5 -58t-39.5 -106z" />
    <glyph glyph-name="sterling.lt" horiz-adv-x="800" 
d="M264 282h-159v100h91q-21 32 -30 61.5t-9 61.5q0 96 83.5 160t211.5 64q132 0 210 -66.5t78 -180.5q0 -18 -1 -32.5t-4 -27.5h-130q1 8 2 17t1 17q0 72 -41 110.5t-118 38.5q-68 0 -109 -33t-41 -87q0 -23 8 -45.5t31 -57.5h211v-100h-159q4 -11 5.5 -24t1.5 -28
q0 -16 -2 -32.5t-7 -33.5q45 -27 77 -37.5t62 -10.5q55 0 90 32t38 85h130q1 -107 -67 -175.5t-173 -68.5q-50 0 -97 18t-106 63q-31 -39 -73 -60t-90 -21q-65 0 -106.5 36t-41.5 95q0 56 42 90t110 34q25 0 50 -5t49 -16q-1 14 -5.5 28.5t-12.5 30.5zM187 158
q-24 0 -38 -10.5t-14 -27.5t13.5 -26.5t37.5 -9.5t43.5 12t32.5 35q-22 14 -40 20.5t-35 6.5z" />
    <glyph glyph-name="yen.lt" horiz-adv-x="799" 
d="M329 176h-215v97h215v52l-6 7h-209v97h133l-228 289h182l201 -277l200 277h178l-228 -289h134v-97h-210l-6 -7v-52h216v-97h-216v-176h-141v176z" />
    <glyph glyph-name="zero.lt" horiz-adv-x="800" 
d="M400 -11q-156 0 -260 105.5t-104 264.5t104 264.5t260 105.5t260 -105.5t104 -264.5t-104 -264.5t-260 -105.5zM400 600q-95 0 -154.5 -66.5t-59.5 -174.5t59.5 -174.5t154.5 -66.5t154 66.5t59 174.5t-59 174.5t-154 66.5z" />
    <glyph glyph-name="one.lt" horiz-adv-x="800" 
d="M394 722h112v-599h254v-123h-688v123h287v358h-283v112l174 6q71 3 104 31t40 92z" />
    <glyph glyph-name="two.lt" horiz-adv-x="800" 
d="M56 0v117l333 182q57 31 81.5 45.5t41.5 26.5q40 28 57.5 54.5t17.5 59.5q0 53 -48 85.5t-126 32.5q-93 0 -156 -49.5t-79 -133.5l-134 34q24 124 126 199.5t250 75.5q139 0 226.5 -66.5t87.5 -172.5q0 -75 -49.5 -134t-172.5 -123l-197 -106h437v-127h-696z" />
    <glyph glyph-name="three.lt" horiz-adv-x="800" 
d="M764 206q0 -93 -100.5 -155t-258.5 -62q-144 0 -246.5 58t-135.5 156l132 57q25 -67 92.5 -107.5t157.5 -40.5q93 0 149.5 28.5t56.5 76.5q0 44 -49.5 67.5t-140.5 23.5h-124v120h121q83 0 127 22t44 64t-49 66.5t-131 24.5q-85 0 -148.5 -37t-85.5 -98l-129 49
q33 95 133 152.5t237 57.5q148 0 237 -56.5t89 -147.5q0 -53 -37 -95t-98 -59q77 -19 117 -61t40 -104z" />
    <glyph glyph-name="four.lt" horiz-adv-x="800" 
d="M628 172v-172h-141v172h-458v114l407 432h194v-426h149v-120h-151zM485 598l-286 -306h286v306z" />
    <glyph glyph-name="five.lt" horiz-adv-x="800" 
d="M407 369q-65 0 -120.5 -16t-97.5 -46l-114 29l47 382h597v-127h-486l-20 -151q39 23 97.5 36t124.5 12q148 -2 241 -69.5t93 -176.5q0 -111 -101 -182t-256 -71q-148 0 -253.5 58t-135.5 157l133 55q24 -66 94 -106.5t163 -40.5q92 0 150 35t58 93t-59 93.5t-155 35.5z
" />
    <glyph glyph-name="six.lt" horiz-adv-x="800" 
d="M435 729q106 0 191.5 -40.5t132.5 -112.5l-103 -89q-31 56 -91.5 88.5t-134.5 32.5q-109 0 -180 -63t-71 -156q41 46 107 71t148 25q143 0 235.5 -68.5t92.5 -173.5q0 -111 -97.5 -182.5t-250.5 -71.5q-175 0 -274 96t-99 260q0 172 107.5 278t286.5 106zM409 108
q92 0 149.5 35.5t57.5 92.5t-57 93t-148 36q-92 0 -149.5 -36t-57.5 -93q0 -58 56.5 -93t148.5 -35z" />
    <glyph glyph-name="seven.lt" horiz-adv-x="800" 
d="M615 593h-452v-141h-126v266h735v-131q-148 -137 -214 -276.5t-66 -310.5h-150q0 169 67.5 316t205.5 277z" />
    <glyph glyph-name="eight.lt" horiz-adv-x="800" 
d="M75 527q0 93 89 147.5t236 54.5t236 -54.5t89 -147.5q0 -53 -30.5 -89.5t-97.5 -62.5q79 -22 123 -67t44 -108q0 -99 -98 -155t-266 -56t-266 56t-98 155q0 63 44 108.5t123 66.5q-67 26 -97.5 62.5t-30.5 89.5zM219 525q0 -45 47 -68.5t134 -23.5t134 23.5t47 68.5
q0 44 -47.5 68t-133.5 24t-133.5 -24t-47.5 -68zM615 211q0 51 -56 78.5t-159 27.5t-159.5 -27.5t-56.5 -78.5q0 -52 55.5 -79.5t160.5 -27.5q104 0 159.5 27.5t55.5 79.5z" />
    <glyph glyph-name="nine.lt" horiz-adv-x="800" 
d="M365 -11q-106 0 -191.5 40.5t-132.5 112.5l103 89q31 -56 91.5 -88.5t134.5 -32.5q109 0 180 63t71 156q-41 -46 -107 -71t-148 -25q-143 0 -235.5 68.5t-92.5 173.5q0 111 97.5 182.5t250.5 71.5q175 0 274 -96t99 -260q0 -172 -107.5 -278t-286.5 -106zM391 610
q-92 0 -149.5 -35.5t-57.5 -92.5t57 -93t148 -36q92 0 149.5 36t57.5 93q0 58 -56.5 93t-148.5 35z" />
    <glyph glyph-name="percent.lt" horiz-adv-x="800" 
d="M195 375q-78 0 -128.5 50t-50.5 127t50.5 127t128.5 50q77 0 127.5 -50t50.5 -127t-50.5 -127t-127.5 -50zM203 0h-122l516 718h122zM195 463q34 0 55 24.5t21 64.5t-21 64.5t-55 24.5t-55 -24.5t-21 -64.5q0 -41 21 -65t55 -24zM600 343q77 0 127.5 -50t50.5 -127
t-50.5 -127t-127.5 -50t-128 50t-51 127t51 127t128 50zM600 255q-34 0 -55 -24.5t-21 -64.5t21 -64.5t55 -24.5t55 24.5t21 64.5t-21 64.5t-55 24.5z" />
    </font>
</defs>
</svg>
