<?xml version="1.0" standalone="no"?>
<!DOCTYPE svg PUBLIC "-//W3C//DTD SVG 1.1//EN" "http://www.w3.org/Graphics/SVG/1.1/DTD/svg11.dtd" >
<svg xmlns="http://www.w3.org/2000/svg" xmlns:xlink="http://www.w3.org/1999/xlink" version="1.1">
<metadata>
Created by FontForge 20170731 at Mon Feb 17 13:33:02 2020
 By Aleksey,,,
Copyright 2020, Kris Sowersby, Klim Type Foundry.
</metadata>
<defs>
<font id="SohneBreit-Kraftig" horiz-adv-x="600" >
  <font-face 
    font-family="Copyright Klim Type Foundry"
    font-weight="500"
    font-stretch="expanded"
    units-per-em="1000"
    panose-1="2 11 6 5 3 2 2 6 2 3"
    ascent="800"
    descent="-200"
    x-height="525"
    cap-height="718"
    bbox="-270 -201 1374 1008"
    underline-thickness="100"
    underline-position="-290"
    unicode-range="U+000D-FB04"
  />
<missing-glyph 
d="M0 0v718h600v-718h-600zM132 242l51 -51l117 117l118 -117l50 51l-116 118l116 117l-50 51l-118 -117l-117 117l-51 -51l117 -117z" />
    <glyph glyph-name="ff" unicode="ff" horiz-adv-x="851" 
d="M130 525v10q0 95 59 144.5t171 49.5q33 0 66 -4.5t54 -12.5l-20 -105q-29 7 -50 9.5t-50 2.5q-60 0 -86.5 -21t-26.5 -67v-6h270v10q0 95 59 144.5t171 49.5q33 0 66 -4.5t54 -12.5l-20 -105q-29 7 -50 9.5t-50 2.5q-60 0 -86.5 -21t-26.5 -67v-6h207v-102h-207v-423
h-117v423h-270v-423h-117v423h-132v102h132z" />
    <glyph glyph-name="fi" unicode="fi" horiz-adv-x="715" 
d="M130 525v10q0 95 59 144.5t171 49.5q30 0 59.5 -3.5t50.5 -10.5l-23 -105q-22 5 -41 7t-46 2q-60 0 -86.5 -21t-26.5 -67v-6h197v-102h-197v-423h-117v423h-132v102h132zM639 595h-124v123h124v-123zM517 525h120v-525h-120v525z" />
    <glyph glyph-name="fl" unicode="fl" horiz-adv-x="715" 
d="M130 525v10q0 95 59 144.5t171 49.5q30 0 59.5 -3.5t50.5 -10.5l-23 -105q-22 5 -41 7t-46 2q-60 0 -86.5 -21t-26.5 -67v-6h197v-102h-197v-423h-117v423h-132v102h132zM517 718h120v-718h-120v718z" />
    <glyph glyph-name="ffi" unicode="ffi" horiz-adv-x="1082" 
d="M130 525v10q0 95 59 144.5t171 49.5q33 0 66 -4.5t54 -12.5l-20 -105q-29 7 -50 9.5t-50 2.5q-60 0 -86.5 -21t-26.5 -67v-6h270v10q0 95 59 144.5t171 49.5q30 0 59.5 -3.5t50.5 -10.5l-23 -105q-22 5 -41 7t-46 2q-60 0 -86.5 -21t-26.5 -67v-6h197v-102h-197v-423
h-117v423h-270v-423h-117v423h-132v102h132zM1026 595h-124v123h124v-123zM904 525h120v-525h-120v525z" />
    <glyph glyph-name="ffl" unicode="ffl" horiz-adv-x="1082" 
d="M130 525v10q0 95 59 144.5t171 49.5q33 0 66 -4.5t54 -12.5l-20 -105q-29 7 -50 9.5t-50 2.5q-60 0 -86.5 -21t-26.5 -67v-6h270v10q0 95 59 144.5t171 49.5q30 0 59.5 -3.5t50.5 -10.5l-23 -105q-22 5 -41 7t-46 2q-60 0 -86.5 -21t-26.5 -67v-6h197v-102h-197v-423
h-117v423h-270v-423h-117v423h-132v102h132zM904 718h120v-718h-120v718z" />
    <glyph glyph-name="f_b" unicode="fb" horiz-adv-x="1155" 
d="M360 729q30 0 59.5 -3.5t50.5 -10.5l-23 -105q-22 5 -41 7t-46 2q-60 0 -86.5 -21t-26.5 -67v-6h197v-102h-197v-423h-117v423h-132v102h132v10q0 95 59 144.5t171 49.5zM841 -11q-64 0 -117.5 20.5t-86.5 56.5v-66h-120v718h120v-260q33 36 86.5 56.5t117.5 20.5
q128 0 208 -77t80 -196t-80 -196t-208 -77zM824 435q-82 0 -137.5 -48.5t-55.5 -120.5v-8q0 -72 55.5 -120.5t137.5 -48.5q84 0 137.5 47.5t53.5 125.5t-53.5 125.5t-137.5 47.5z" />
    <glyph glyph-name="f_h" unicode="fh" horiz-adv-x="1113" 
d="M360 729q30 0 59.5 -3.5t50.5 -10.5l-23 -105q-22 5 -41 7t-46 2q-60 0 -86.5 -21t-26.5 -67v-6h197v-102h-197v-423h-117v423h-132v102h132v10q0 95 59 144.5t171 49.5zM637 0h-120v718h120v-262q32 37 82.5 58t111.5 21q106 0 167 -67t61 -182v-286h-120v266
q0 74 -38 116.5t-107 42.5q-74 0 -115.5 -43t-41.5 -118v-264z" />
    <glyph glyph-name="f_idieresis" unicode="f&#xef;" horiz-adv-x="700" 
d="M360 729q33 0 66 -4.5t54 -12.5l-20 -105q-29 7 -50 9.5t-50 2.5q-60 0 -86.5 -21t-26.5 -67v-6h207v-102h-207v-423h-117v423h-132v102h132v10q0 95 59 144.5t171 49.5zM769 595h-128v123h128v-123zM522 525h120v-525h-120v525z" />
    <glyph glyph-name="f_j" unicode="fj" horiz-adv-x="695" 
d="M360 729q30 0 59.5 -3.5t50.5 -10.5l-23 -105q-22 5 -41 7t-46 2q-60 0 -86.5 -21t-26.5 -67v-6h197v-102h-197v-423h-117v423h-132v102h132v10q0 95 59 144.5t171 49.5zM639 595h-124v123h124v-123zM637 525v-509q0 -101 -54 -152.5t-158 -51.5q-27 0 -58 5.5t-50 12.5
l18 99q26 -8 43.5 -11t39.5 -3q53 0 76 22.5t23 72.5v515h120z" />
    <glyph glyph-name="f_k" unicode="fk" horiz-adv-x="1111" 
d="M360 729q30 0 59.5 -3.5t50.5 -10.5l-23 -105q-22 5 -41 7t-46 2q-60 0 -86.5 -21t-26.5 -67v-6h197v-102h-197v-423h-117v423h-132v102h132v10q0 95 59 144.5t171 49.5zM517 718h120v-456l311 263h168l-279 -230l290 -295h-154l-222 224l-114 -94v-130h-120v718z" />
    <glyph glyph-name=".notdef" 
d="M0 0v718h600v-718h-600zM132 242l51 -51l117 117l118 -117l50 51l-116 118l116 117l-50 51l-118 -117l-117 117l-51 -51l117 -117z" />
    <glyph glyph-name=".null" horiz-adv-x="0" 
 />
    <glyph glyph-name="uni000D" unicode="&#xd;" horiz-adv-x="260" 
 />
    <glyph glyph-name="space" unicode=" " horiz-adv-x="260" 
 />
    <glyph glyph-name="exclam" unicode="!" horiz-adv-x="305" 
d="M197 217h-90l-31 501h152zM225 0h-145v145h145v-145z" />
    <glyph glyph-name="quotedbl" unicode="&#x22;" horiz-adv-x="355" 
d="M131 434h-82l-29 284h140zM306 434h-82l-29 284h140z" />
    <glyph glyph-name="numbersign" unicode="#" horiz-adv-x="728" 
d="M203 0h-108l46 192h-111v95h133l35 144h-137v95h159l46 192h109l-46 -192h170l46 192h108l-45 -192h90v-95h-113l-34 -144h117v-95h-140l-45 -192h-110l46 192h-170zM306 431l-34 -144h170l34 144h-170z" />
    <glyph glyph-name="dollar" unicode="$" horiz-adv-x="796" 
d="M-8 177l94 81q43 -61 112.5 -99.5t154.5 -47.5v206q-184 19 -247.5 61.5t-63.5 125.5q0 91 84.5 149t226.5 64v105h103v-108q103 -11 184 -49.5t120 -95.5l-93 -77q-30 44 -84.5 73t-126.5 40v-189q79 -8 125.5 -17t79.5 -20q60 -22 87.5 -59t27.5 -96q0 -97 -84 -155.5
t-236 -67.5v-107h-103v108q-121 9 -218.5 56.5t-142.5 118.5zM163 512q0 -38 38 -55t152 -30v183q-96 -3 -143 -27t-47 -71zM651 213q0 43 -34 61t-161 32v-197q95 6 145 32.5t50 71.5z" />
    <glyph glyph-name="percent" unicode="%" horiz-adv-x="967" 
d="M232 353q-90 0 -148.5 53t-58.5 135t58.5 135t148.5 53t148.5 -53t58.5 -135t-58.5 -135t-148.5 -53zM711 718h115l-569 -718h-115zM232 643q-47 0 -76 -28t-29 -74t29 -74t76 -28t76 28t29 74t-29 74t-76 28zM735 365q90 0 148.5 -53t58.5 -135t-58.5 -135t-148.5 -53
t-148.5 53t-58.5 135t58.5 135t148.5 53zM735 279q-47 0 -76 -28t-29 -74t29 -74t76 -28t76 28t29 74t-29 74t-76 28z" />
    <glyph glyph-name="ampersand" unicode="&#x26;" horiz-adv-x="884" 
d="M718 394l119 -24q-16 -64 -49.5 -122t-81.5 -105q42 -26 77 -34.5t87 -3.5v-106q-68 -8 -128.5 8.5t-127.5 62.5q-64 -40 -137 -60.5t-150 -20.5q-143 0 -226.5 59t-83.5 157q0 69 47 121.5t130 76.5q-27 30 -39.5 61.5t-12.5 68.5q0 86 67 141t176 55q111 0 175 -51
t64 -135q0 -67 -51.5 -119t-139.5 -74l179 -139q38 36 65 83t41 100zM383 633q-55 0 -88.5 -26t-33.5 -65q0 -31 17 -58t56 -57q85 6 128.5 35t43.5 79q0 42 -32.5 67t-90.5 25zM144 217q0 -54 53.5 -87t141.5 -33q47 0 93 11.5t88 34.5l-239 184q-65 -7 -101 -35.5
t-36 -74.5z" />
    <glyph glyph-name="quotesingle" unicode="'" horiz-adv-x="180" 
d="M131 434h-82l-29 284h140z" />
    <glyph glyph-name="parenleft" unicode="(" horiz-adv-x="379" 
d="M147 320q0 -118 58.5 -224t173.5 -194h-129q-108 70 -169 180.5t-61 237.5t61 237.5t169 180.5h129q-115 -90 -173.5 -195t-58.5 -223z" />
    <glyph glyph-name="parenright" unicode=")" horiz-adv-x="379" 
d="M232 320q0 118 -58.5 223t-173.5 195h129q108 -70 169 -180.5t61 -237.5t-61 -237.5t-169 -180.5h-129q115 88 173.5 194t58.5 224z" />
    <glyph glyph-name="asterisk" unicode="*" horiz-adv-x="444" 
d="M381 388l-73 -53l-86 118l-86 -118l-73 53l86 118l-139 45l28 85l139 -44v146h90v-146l140 44l27 -85l-140 -45z" />
    <glyph glyph-name="plus" unicode="+" horiz-adv-x="800" 
d="M738 405v-105h-286v-286h-104v286h-286v105h286v286h104v-286h286z" />
    <glyph glyph-name="comma" unicode="," horiz-adv-x="225" 
d="M106 0h-66v145h145v-152q0 -62 -39 -98.5t-106 -37.5v67q34 2 50 18.5t16 49.5v8z" />
    <glyph glyph-name="hyphen" unicode="-" horiz-adv-x="360" 
d="M320 238h-280v107h280v-107z" />
    <glyph glyph-name="period" unicode="." horiz-adv-x="225" 
d="M185 0h-145v145h145v-145z" />
    <glyph glyph-name="slash" unicode="/" horiz-adv-x="532" 
d="M135 -98h-125l387 836h125z" />
    <glyph glyph-name="zero" unicode="0" horiz-adv-x="868" 
d="M434 -11q-176 0 -292.5 105.5t-116.5 264.5t116.5 264.5t292.5 105.5t292.5 -105.5t116.5 -264.5t-116.5 -264.5t-292.5 -105.5zM434 616q-124 0 -201.5 -71.5t-77.5 -185.5t77.5 -185.5t201.5 -71.5t201 71.5t77 185.5t-77 185.5t-201 71.5z" />
    <glyph glyph-name="one" unicode="1" horiz-adv-x="454" 
d="M289 723h97v-723h-128v495h-253v96l150 8q68 4 98.5 32t35.5 92z" />
    <glyph glyph-name="two" unicode="2" horiz-adv-x="740" 
d="M29 0v104l347 193q53 30 85 48.5t44 26.5q40 28 57.5 55.5t17.5 62.5q0 58 -53 94t-137 36q-102 0 -171 -52.5t-85 -141.5l-116 32q27 126 127 198.5t251 72.5q137 0 223.5 -66.5t86.5 -171.5q0 -71 -49 -127.5t-189 -133.5l-216 -118h471v-112h-694z" />
    <glyph glyph-name="three" unicode="3" horiz-adv-x="768" 
d="M750 206q0 -92 -101.5 -154.5t-259.5 -62.5q-147 0 -251.5 60t-132.5 160l115 48q25 -72 97.5 -116t170.5 -44q105 0 168 31.5t63 85.5q0 50 -54 76t-153 26h-131v108h129q89 0 136.5 24.5t47.5 70.5q0 47 -53.5 74.5t-144.5 27.5q-94 0 -163 -40.5t-91 -107.5l-114 38
q30 99 130 158.5t242 59.5q147 0 236.5 -55.5t89.5 -145.5q0 -57 -35 -98t-97 -56q77 -17 116.5 -59.5t39.5 -108.5z" />
    <glyph glyph-name="four" unicode="4" horiz-adv-x="820" 
d="M617 175v-175h-123v175h-484v100l439 443h168v-437h193v-106h-193zM494 614l-334 -333h334v333z" />
    <glyph glyph-name="five" unicode="5" horiz-adv-x="768" 
d="M380 381q-68 0 -126 -19t-106 -56l-94 32l46 380h590v-112h-494l-23 -176q47 27 106.5 42t126.5 15q152 0 248.5 -68.5t96.5 -177.5q0 -111 -102.5 -181.5t-262.5 -70.5q-149 0 -253 59t-131 160l113 49q29 -79 98 -119.5t174 -40.5q106 0 170 38.5t64 103.5t-66 103.5
t-175 38.5z" />
    <glyph glyph-name="six" unicode="6" horiz-adv-x="816" 
d="M439 729q118 0 212 -43t139 -117l-93 -80q-29 61 -100 96.5t-163 35.5q-126 0 -208.5 -69t-82.5 -173q44 51 121 79t174 28q157 0 256.5 -68.5t99.5 -175.5q0 -110 -104.5 -181.5t-266.5 -71.5q-187 0 -292.5 96t-105.5 261q0 172 113 277.5t301 105.5zM418 97
q111 0 180.5 39t69.5 102t-69 102.5t-179 39.5q-111 0 -180.5 -39.5t-69.5 -102.5t68.5 -102t179.5 -39z" />
    <glyph glyph-name="seven" unicode="7" horiz-adv-x="725" 
d="M580 608h-459v-144h-111v254h705v-114q-147 -143 -212.5 -286t-65.5 -318h-130q0 174 67.5 325t205.5 283z" />
    <glyph glyph-name="eight" unicode="8" horiz-adv-x="806" 
d="M69 531q0 91 91.5 144.5t242.5 53.5t242.5 -53.5t91.5 -144.5q0 -51 -33 -89t-104 -66q93 -23 141.5 -68t48.5 -109q0 -97 -105.5 -153.5t-281.5 -56.5t-281.5 56.5t-105.5 153.5q0 64 48.5 109t141.5 68q-71 28 -104 66t-33 89zM194 525q0 -48 55 -74t154 -26t154 26
t55 74t-55 74t-154 26t-154 -26t-55 -74zM661 209q0 53 -69 83t-189 30t-189 -30t-69 -83q0 -55 68.5 -85.5t189.5 -30.5t189.5 30.5t68.5 85.5z" />
    <glyph glyph-name="nine" unicode="9" horiz-adv-x="816" 
d="M377 -11q-118 0 -212 43t-139 117l93 80q29 -61 100 -96.5t163 -35.5q126 0 208.5 69t82.5 173q-44 -51 -121 -79t-174 -28q-157 0 -256.5 68.5t-99.5 175.5q0 110 104.5 181.5t266.5 71.5q187 0 292.5 -96t105.5 -261q0 -172 -113 -277.5t-301 -105.5zM398 621
q-111 0 -180.5 -39t-69.5 -102t69 -102.5t179 -39.5q111 0 180.5 39.5t69.5 102.5t-68.5 102t-179.5 39z" />
    <glyph glyph-name="colon" unicode=":" horiz-adv-x="225" 
d="M185 0h-145v145h145v-145zM185 349h-145v145h145v-145z" />
    <glyph glyph-name="semicolon" unicode=";" horiz-adv-x="225" 
d="M106 0h-66v145h145v-152q0 -62 -39 -98.5t-106 -37.5v67q34 2 50 18.5t16 49.5v8zM185 349h-145v145h145v-145z" />
    <glyph glyph-name="less" unicode="&#x3c;" horiz-adv-x="800" 
d="M738 24l-676 252v158l676 251v-129l-575 -201l575 -202v-129z" />
    <glyph glyph-name="equal" unicode="=" horiz-adv-x="800" 
d="M738 431h-676v105h676v-105zM738 165h-676v105h676v-105z" />
    <glyph glyph-name="greater" unicode="&#x3e;" horiz-adv-x="800" 
d="M738 434v-158l-676 -252v129l575 202l-575 201v129z" />
    <glyph glyph-name="question" unicode="?" horiz-adv-x="685" 
d="M543 500q0 59 -50 89.5t-147 30.5q-89 0 -149.5 -37t-71.5 -99l-125 19q18 102 114 164t239 62q145 0 233.5 -60.5t88.5 -161.5q0 -86 -71.5 -141t-196.5 -70v-79h-118v168q132 0 193 28t61 87zM427 0h-145v145h145v-145z" />
    <glyph glyph-name="at" unicode="@" horiz-adv-x="1047" 
d="M787 452l-50 -260q-6 -30 6 -44.5t42 -14.5q59 0 99 48.5t40 124.5q0 121 -98 191t-266 70q-194 0 -313 -95t-119 -247q0 -140 105.5 -217t296.5 -77q99 0 191 21t153 57l47 -79q-73 -45 -173.5 -69t-215.5 -24q-235 0 -371 103.5t-136 284.5q0 99 44 184t125 144
q71 52 164 79t200 27q207 0 335.5 -96t128.5 -253q0 -121 -71 -193.5t-185 -72.5q-44 0 -78.5 15t-51.5 42q-24 -26 -70 -41.5t-96 -15.5q-96 0 -153 49.5t-57 131.5q0 99 72 167.5t180 68.5q49 0 90 -15t66 -42l10 48h109zM382 235q0 -45 29 -70.5t80 -25.5
q63 0 103.5 37.5t40.5 93.5q0 45 -29 70.5t-80 25.5q-63 0 -103.5 -37.5t-40.5 -93.5z" />
    <glyph glyph-name="A" unicode="A" horiz-adv-x="861" 
d="M-6 0l366 718h141l365 -718h-136l-91 180h-417l-91 -180h-137zM583 292l-152 300l-152 -300h304z" />
    <glyph glyph-name="B" unicode="B" horiz-adv-x="813" 
d="M547 0h-479v718h461q116 0 178.5 -49t62.5 -140q0 -55 -28 -95t-79 -60q60 -19 95 -65.5t35 -108.5q0 -93 -66.5 -146.5t-179.5 -53.5zM191 610v-189h326q63 0 97.5 24.5t34.5 70.5t-34 70t-98 24h-326zM540 313h-349v-205h349q59 0 94.5 28t35.5 75q0 46 -35.5 74
t-94.5 28z" />
    <glyph glyph-name="C" unicode="C" horiz-adv-x="832" 
d="M449 616q-129 0 -211 -72t-82 -185t82 -185t211 -72q97 0 165 42.5t103 124.5l106 -58q-42 -105 -140.5 -163.5t-234.5 -58.5q-182 0 -302.5 105.5t-120.5 264.5t120.5 264.5t302.5 105.5q136 0 234.5 -58.5t140.5 -163.5l-106 -58q-35 82 -103 124.5t-165 42.5z" />
    <glyph glyph-name="D" unicode="D" horiz-adv-x="862" 
d="M432 0h-364v718h364q185 0 295 -97.5t110 -261.5t-110 -261.5t-295 -97.5zM194 608v-498h238q127 0 200.5 67t73.5 182t-73.5 182t-201.5 67h-237z" />
    <glyph glyph-name="E" unicode="E" horiz-adv-x="796" 
d="M68 0v718h694v-112h-568v-180h511v-112h-511v-202h568v-112h-694z" />
    <glyph glyph-name="F" unicode="F" horiz-adv-x="774" 
d="M194 299v-299h-126v718h681v-112h-555v-195h498v-112h-498z" />
    <glyph glyph-name="G" unicode="G" horiz-adv-x="895" 
d="M845 0h-120v92q-35 -45 -111 -74t-164 -29q-184 0 -304.5 105.5t-120.5 266.5q0 159 122 263.5t308 104.5q138 0 238 -58.5t142 -162.5l-106 -59q-35 81 -105 124t-168 43q-132 0 -215.5 -71t-83.5 -185t82 -186t211 -72q112 0 195 50t87 123h-343v112h456v-387z" />
    <glyph glyph-name="H" unicode="H" horiz-adv-x="880" 
d="M684 426v292h128v-718h-128v314h-488v-314h-128v718h128v-292h488z" />
    <glyph glyph-name="I" unicode="I" horiz-adv-x="264" 
d="M68 718h128v-718h-128v718z" />
    <glyph glyph-name="J" unicode="J" horiz-adv-x="705" 
d="M334 -11q-119 0 -212 59.5t-122 153.5l118 63q16 -71 76.5 -117.5t139.5 -46.5q94 0 145.5 44.5t51.5 125.5v447h128v-450q0 -124 -90 -201.5t-235 -77.5z" />
    <glyph glyph-name="K" unicode="K" horiz-adv-x="818" 
d="M68 718h128v-360l431 360h182l-381 -307l404 -411h-172l-325 336l-139 -111v-225h-128v718z" />
    <glyph glyph-name="L" unicode="L" horiz-adv-x="743" 
d="M720 0h-652v718h128v-606h524v-112z" />
    <glyph glyph-name="M" unicode="M" horiz-adv-x="1044" 
d="M851 602l-277 -602h-104l-277 602v-602h-125v718h198l258 -562l258 562h194v-718h-125v602z" />
    <glyph glyph-name="N" unicode="N" horiz-adv-x="861" 
d="M670 718h123v-718h-112l-490 557v-557h-123v718h132l470 -533v533z" />
    <glyph glyph-name="O" unicode="O" horiz-adv-x="892" 
d="M25 359q0 160 119.5 265t301.5 105t301.5 -105t119.5 -265t-119.5 -265t-301.5 -105t-301.5 105t-119.5 265zM736 359q0 115 -80 186t-210 71t-210 -71t-80 -186t80 -186t210 -71t210 71t80 186z" />
    <glyph glyph-name="P" unicode="P" horiz-adv-x="798" 
d="M514 278h-318v-278h-128v718h446q125 0 195 -57.5t70 -162.5q0 -104 -70.5 -162t-194.5 -58zM196 608v-220h311q69 0 107.5 29t38.5 81q0 53 -38 81.5t-108 28.5h-311z" />
    <glyph glyph-name="Q" unicode="Q" horiz-adv-x="892" 
d="M446 -11q-182 0 -301.5 105t-119.5 265t119.5 265t301.5 105t301.5 -105t119.5 -265q0 -87 -38.5 -162t-110.5 -127q22 -26 55 -45t74 -29l-74 -92q-47 14 -90 45t-67 69q-38 -14 -81 -21.5t-89 -7.5zM446 102q130 0 210 71t80 186t-80 186t-210 71t-210 -71t-80 -186
t80 -186t210 -71z" />
    <glyph glyph-name="R" unicode="R" horiz-adv-x="802" 
d="M477 278h-281v-278h-128v718h447q124 0 194.5 -58t70.5 -162q0 -80 -43.5 -134t-124.5 -75l186 -289h-146zM196 608v-220h312q69 0 107.5 29t38.5 81q0 53 -38 81.5t-108 28.5h-312z" />
    <glyph glyph-name="S" unicode="S" horiz-adv-x="768" 
d="M399 -11q-133 0 -245.5 50t-162.5 132l92 85q51 -76 134 -116t185 -40q98 0 160 30t62 77q0 38 -24 56.5t-89 29.5q-20 3 -49 7t-108 13q-184 21 -248.5 64.5t-64.5 126.5q0 100 90.5 162.5t237.5 62.5q120 0 219.5 -42t144.5 -112l-92 -77q-39 58 -111 89t-166 31
t-148 -27.5t-54 -73.5q0 -40 42.5 -58t191.5 -35q91 -10 140 -19t83 -20q68 -23 99 -62t31 -101q0 -107 -96 -170t-254 -63z" />
    <glyph glyph-name="T" unicode="T" horiz-adv-x="812" 
d="M794 718v-112h-324v-606h-128v606h-324v112h776z" />
    <glyph glyph-name="U" unicode="U" horiz-adv-x="820" 
d="M410 -10q-177 0 -270.5 92.5t-93.5 264.5v371h128v-367q0 -125 58.5 -186.5t177.5 -61.5t177.5 61.5t58.5 186.5v367h128v-371q0 -172 -93.5 -264.5t-270.5 -92.5z" />
    <glyph glyph-name="V" unicode="V" horiz-adv-x="873" 
d="M879 718l-369 -718h-148l-368 718h137l306 -598l306 598h136z" />
    <glyph glyph-name="W" unicode="W" horiz-adv-x="1183" 
d="M330 129l193 589h139l192 -589l202 589h133l-256 -718h-154l-187 580l-189 -580h-154l-255 718h134z" />
    <glyph glyph-name="X" unicode="X" horiz-adv-x="835" 
d="M663 718h154l-321 -344l349 -374h-161l-268 291l-271 -291h-155l348 372l-322 346h160l243 -263z" />
    <glyph glyph-name="Y" unicode="Y" horiz-adv-x="835" 
d="M148 718l271 -305l270 305h156l-363 -406v-312h-128v312l-364 406h158z" />
    <glyph glyph-name="Z" unicode="Z" horiz-adv-x="787" 
d="M216 112h532v-112h-711v99l527 507h-523v112h703v-99z" />
    <glyph glyph-name="bracketleft" unicode="[" horiz-adv-x="351" 
d="M341 640h-184v-641h184v-97h-301v836h301v-98z" />
    <glyph glyph-name="backslash" unicode="\" horiz-adv-x="532" 
d="M10 738h125l387 -836h-125z" />
    <glyph glyph-name="bracketright" unicode="]" horiz-adv-x="351" 
d="M194 -1v641h-184v98h301v-836h-301v97h184z" />
    <glyph glyph-name="asciicircum" unicode="^" horiz-adv-x="570" 
d="M15 410l211 308h118l211 -308h-130l-140 209l-141 -209h-129z" />
    <glyph glyph-name="underscore" unicode="_" horiz-adv-x="434" 
d="M394 -156h-354v101h354v-101z" />
    <glyph glyph-name="grave" unicode="`" 
d="M306 718l109 -141h-102l-165 141h158z" />
    <glyph glyph-name="a" unicode="a" horiz-adv-x="653" 
d="M469 71q-38 -39 -97.5 -60.5t-128.5 -21.5q-99 0 -158.5 44t-59.5 119q0 67 52 108.5t150 53.5l228 27v4q0 41 -37 64.5t-105 23.5q-60 0 -108.5 -24.5t-63.5 -63.5l-99 44q24 65 101 105.5t174 40.5q123 0 188.5 -49.5t65.5 -142.5v-221q0 -26 18 -32q7 -3 18 -3
q17 0 42 6v-93q-32 -6 -59 -6q-34 0 -59 10q-46 19 -62 67zM253 86q81 0 141.5 33t60.5 84v44l-208 -25q-57 -7 -81 -23t-24 -46q0 -32 29 -49.5t82 -17.5z" />
    <glyph glyph-name="b" unicode="b" horiz-adv-x="696" 
d="M670 262q0 -119 -80 -196t-208 -77q-64 0 -117.5 20.5t-86.5 56.5v-66h-120v718h120v-260q33 36 86.5 56.5t117.5 20.5q128 0 208 -77t80 -196zM365 435q-82 0 -137.5 -48.5t-55.5 -120.5v-8q0 -72 55.5 -120.5t137.5 -48.5q84 0 137.5 47.5t53.5 125.5t-53.5 125.5
t-137.5 47.5z" />
    <glyph glyph-name="c" unicode="c" horiz-adv-x="606" 
d="M330 433q-84 0 -136.5 -47t-52.5 -124t52.5 -124t136.5 -47q60 0 108 33t65 83l95 -57q-29 -71 -102 -116t-165 -45q-131 0 -218 77t-87 196t87 196t218 77q93 0 166.5 -45.5t101.5 -117.5l-96 -55q-17 50 -65 83t-108 33z" />
    <glyph glyph-name="d" unicode="d" horiz-adv-x="696" 
d="M314 -11q-128 0 -208 77t-80 196t80 196t208 77q64 0 117.5 -20.5t86.5 -56.5v260h120v-718h-120v66q-33 -36 -86.5 -56.5t-117.5 -20.5zM524 258v8q0 72 -55.5 120.5t-137.5 48.5q-84 0 -137.5 -47.5t-53.5 -125.5t53.5 -125.5t137.5 -47.5q82 0 137.5 48.5t55.5 120.5z
" />
    <glyph glyph-name="e" unicode="e" horiz-adv-x="636" 
d="M329 -11q-133 0 -218 76.5t-85 196.5q0 118 85.5 195.5t217.5 77.5q126 0 204 -74.5t78 -191.5v-42h-471q12 -62 63.5 -99t125.5 -37q63 0 109.5 29t66.5 79l96 -51q-27 -70 -101.5 -114.5t-170.5 -44.5zM323 435q-66 0 -114 -31.5t-64 -86.5h350q-7 48 -56 83t-116 35z
" />
    <glyph glyph-name="f" unicode="f" horiz-adv-x="464" 
d="M360 729q33 0 66 -4.5t54 -12.5l-20 -105q-29 7 -50 9.5t-50 2.5q-60 0 -86.5 -21t-26.5 -67v-6h207v-102h-207v-423h-117v423h-132v102h132v10q0 95 59 144.5t171 49.5z" />
    <glyph glyph-name="g" unicode="g" horiz-adv-x="690" 
d="M632 525v-456q0 -115 -88 -187.5t-225 -72.5q-108 0 -185.5 38t-108.5 105l96 62q19 -49 72 -78.5t123 -29.5q87 0 141.5 41.5t54.5 110.5v24q-37 -38 -88 -57.5t-114 -19.5q-128 0 -208 75.5t-80 190.5q0 114 80 189t208 75q62 0 113 -19t89 -56v65h120zM519 270v3
q0 71 -55 117t-138 46q-82 0 -135.5 -46t-53.5 -119t53.5 -119t135.5 -46q83 0 138 46t55 118z" />
    <glyph glyph-name="h" unicode="h" horiz-adv-x="654" 
d="M178 0h-120v718h120v-262q32 37 82.5 58t111.5 21q106 0 167 -67t61 -182v-286h-120v266q0 74 -38 116.5t-107 42.5q-74 0 -115.5 -43t-41.5 -118v-264z" />
    <glyph glyph-name="i" unicode="i" horiz-adv-x="236" 
d="M180 595h-124v123h124v-123zM58 525h120v-525h-120v525z" />
    <glyph glyph-name="j" unicode="j" horiz-adv-x="236" 
d="M180 595h-124v123h124v-123zM-41 -85q53 0 76 22.5t23 72.5v515h120v-509q0 -101 -54 -152.5t-158 -51.5q-27 0 -58 5.5t-50 12.5l18 99q26 -8 43.5 -11t39.5 -3z" />
    <glyph glyph-name="k" unicode="k" horiz-adv-x="652" 
d="M58 718h120v-456l311 263h168l-279 -230l290 -295h-154l-222 224l-114 -94v-130h-120v718z" />
    <glyph glyph-name="l" unicode="l" horiz-adv-x="236" 
d="M58 718h120v-718h-120v718z" />
    <glyph glyph-name="m" unicode="m" horiz-adv-x="1054" 
d="M330 425q-74 0 -113 -42t-39 -119v-264h-120v525h120v-67q34 39 80 58t104 19q62 0 109.5 -25t74.5 -73q41 48 95 73t118 25q116 0 178.5 -66.5t62.5 -187.5v-281h-120v266q0 77 -35.5 118t-103.5 41q-73 0 -112.5 -42t-39.5 -119v-264h-120v266q0 77 -35.5 118
t-103.5 41z" />
    <glyph glyph-name="n" unicode="n" horiz-adv-x="654" 
d="M178 0h-120v525h120v-69q32 37 82.5 58t111.5 21q106 0 167 -67t61 -182v-286h-120v266q0 74 -38 116.5t-107 42.5q-74 0 -115.5 -43t-41.5 -118v-264z" />
    <glyph glyph-name="o" unicode="o" horiz-adv-x="651" 
d="M326 535q128 0 213.5 -77t85.5 -196t-85.5 -196t-213.5 -77q-129 0 -214.5 77t-85.5 196t85.5 196t214.5 77zM326 432q-82 0 -133.5 -47t-51.5 -123t51.5 -123t133.5 -47q81 0 132.5 47t51.5 123t-51.5 123t-132.5 47z" />
    <glyph glyph-name="p" unicode="p" horiz-adv-x="696" 
d="M670 262q0 -119 -80 -196t-208 -77q-64 0 -117.5 20.5t-86.5 56.5v-246h-120v705h120v-67q33 36 86.5 56.5t117.5 20.5q128 0 208 -77t80 -196zM365 435q-82 0 -137.5 -48.5t-55.5 -120.5v-8q0 -72 55.5 -120.5t137.5 -48.5q84 0 137.5 47.5t53.5 125.5t-53.5 125.5
t-137.5 47.5z" />
    <glyph glyph-name="q" unicode="q" horiz-adv-x="696" 
d="M314 -11q-128 0 -208 77t-80 196t80 196t208 77q64 0 117.5 -20.5t86.5 -56.5v67h120v-705h-120v246q-33 -36 -86.5 -56.5t-117.5 -20.5zM524 258v8q0 72 -55.5 120.5t-137.5 48.5q-84 0 -137.5 -47.5t-53.5 -125.5t53.5 -125.5t137.5 -47.5q82 0 137.5 48.5t55.5 120.5z
" />
    <glyph glyph-name="r" unicode="r" horiz-adv-x="449" 
d="M379 528q15 0 29.5 -2t29.5 -6v-120q-25 6 -36 7.5t-26 1.5q-98 0 -148 -44.5t-50 -131.5v-233h-120v525h120v-95q31 49 81 73.5t120 24.5z" />
    <glyph glyph-name="s" unicode="s" horiz-adv-x="574" 
d="M303 -11q-102 0 -183 32t-124 90l85 77q39 -50 93.5 -75t127.5 -25q68 0 103.5 16.5t35.5 47.5q0 22 -15 32.5t-57 17.5q-18 3 -56.5 7.5t-41.5 4.5q-142 18 -191.5 52t-49.5 99q0 76 68 123t180 47q87 0 159.5 -29.5t109.5 -78.5l-77 -74q-30 40 -81.5 61.5t-115.5 21.5
q-62 0 -95 -15.5t-33 -44.5q0 -22 23 -32.5t131 -23.5q71 -9 106 -15.5t60 -16.5q48 -17 71 -47.5t23 -76.5q0 -80 -71.5 -127.5t-184.5 -47.5z" />
    <glyph glyph-name="t" unicode="t" horiz-adv-x="518" 
d="M344 -6q-103 0 -158 47.5t-55 138.5v243h-132v102h132v154h118v-154h231v-102h-231v-232q0 -48 26.5 -68.5t89.5 -20.5q24 0 48.5 4.5t66.5 17.5l20 -102q-32 -12 -75.5 -20t-80.5 -8z" />
    <glyph glyph-name="u" unicode="u" horiz-adv-x="649" 
d="M471 525h120v-525h-120v68q-33 -38 -81.5 -58.5t-107.5 -20.5q-105 0 -166.5 66t-61.5 178v292h120v-279q0 -72 36 -110t106 -38q74 0 114.5 42t40.5 117v268z" />
    <glyph glyph-name="v" unicode="v" horiz-adv-x="642" 
d="M642 525l-260 -525h-121l-261 525h133l190 -393l189 393h130z" />
    <glyph glyph-name="w" unicode="w" horiz-adv-x="896" 
d="M502 525l135 -376l136 376h123l-206 -525h-104l-138 367l-137 -367h-104l-207 525h127l139 -376l134 376h102z" />
    <glyph glyph-name="x" unicode="x" horiz-adv-x="651" 
d="M651 0h-154l-171 190l-180 -190h-146l252 261l-245 264h152l167 -184l173 184h145l-244 -255z" />
    <glyph glyph-name="y" unicode="y" horiz-adv-x="642" 
d="M642 525l-281 -574q-36 -73 -85.5 -106t-127.5 -33q-28 0 -60.5 6.5t-48.5 15.5l24 101q21 -11 39.5 -15.5t38.5 -4.5q45 0 73 19t43 59l6 18l-263 514h133l192 -393l187 393h130z" />
    <glyph glyph-name="z" unicode="z" horiz-adv-x="616" 
d="M198 102h384v-102h-547v90l379 333h-375v102h540v-91z" />
    <glyph glyph-name="braceleft" unicode="{" horiz-adv-x="411" 
d="M67 271h-47v98h47q30 0 45 21t15 64v112q0 82 49.5 127t138.5 45h86v-98h-68q-51 0 -74 -23.5t-23 -76.5v-86q0 -52 -18.5 -85t-58.5 -49q40 -16 58.5 -49t18.5 -85v-86q0 -53 23 -76.5t74 -23.5h68v-98h-86q-89 0 -138.5 45t-49.5 127v112q0 43 -15 64t-45 21z" />
    <glyph glyph-name="bar" unicode="|" horiz-adv-x="258" 
d="M188 -98h-118v836h118v-836z" />
    <glyph glyph-name="braceright" unicode="}" horiz-adv-x="411" 
d="M344 271q-26 0 -43 -18.5t-17 -66.5v-112q0 -84 -50 -128t-138 -44h-86v98h68q53 0 75 24t22 76v86q0 32 6.5 55t17 38.5t24.5 25t29 15.5q-15 6 -29 15.5t-24.5 25t-17 38.5t-6.5 55v86q0 52 -22 76t-75 24h-68v98h86q88 0 138 -44t50 -128v-112q0 -48 17 -66.5
t43 -18.5h47v-98h-47z" />
    <glyph glyph-name="asciitilde" unicode="~" horiz-adv-x="493" 
d="M172 410q18 0 35 -7t46 -29q22 -18 33 -23t22 -5q22 0 33.5 15t18.5 50h93q-6 -88 -41 -139.5t-91 -51.5q-18 0 -35.5 7.5t-45.5 29.5q-22 18 -33 23t-21 5q-22 0 -34 -15t-19 -50h-93q6 87 41 138.5t91 51.5z" />
    <glyph glyph-name="uni00A0" unicode="&#xa0;" horiz-adv-x="260" 
 />
    <glyph glyph-name="exclamdown" unicode="&#xa1;" horiz-adv-x="305" 
d="M80 573v145h145v-145h-145zM76 0l31 501h90l31 -501h-152z" />
    <glyph glyph-name="cent" unicode="&#xa2;" horiz-adv-x="630" 
d="M389 -106h-96v98q-119 15 -193.5 91t-74.5 185t74.5 185.5t193.5 91.5v112h96v-112q84 -10 148 -55.5t88 -108.5l-92 -54q-17 46 -55 77t-89 41v-353q51 10 89.5 42t54.5 77l91 -57q-25 -63 -88.5 -107.5t-146.5 -54.5v-98zM137 268q0 -67 42.5 -115t113.5 -61v352
q-71 -13 -113.5 -60.5t-42.5 -115.5z" />
    <glyph glyph-name="sterling" unicode="&#xa3;" horiz-adv-x="872" 
d="M244 287h-159v95h92q-21 30 -30 57t-9 55q0 99 95.5 167t240.5 68q148 0 240 -70t92 -186q0 -14 -1 -26.5t-3 -24.5h-113q2 10 2.5 19t0.5 17q0 78 -58.5 120t-164.5 42q-95 0 -151.5 -38.5t-56.5 -100.5q0 -22 8 -44t31 -55h282v-95h-225q6 -18 9 -34.5t3 -33.5
q0 -5 -0.5 -11.5t-1.5 -18.5q5 -3 44.5 -25t63.5 -34q33 -15 62 -22.5t56 -7.5q65 0 104.5 33t43.5 91h118q-1 -103 -72 -169t-183 -66q-59 0 -118 21.5t-152 83.5q-30 -50 -77 -77.5t-104 -27.5q-68 0 -111 36.5t-43 95.5t45.5 96t115.5 37q25 0 51 -4t53 -13
q-3 12 -7.5 24.5t-12.5 25.5zM165 168q-29 0 -46 -12.5t-17 -33.5q0 -19 15 -31t39 -12q32 0 57.5 16.5t40.5 46.5q-25 13 -46.5 19.5t-42.5 6.5z" />
    <glyph glyph-name="yen" unicode="&#xa5;" horiz-adv-x="895" 
d="M388 180h-280v90h280v66h-280v90h192l-300 292h161l288 -284l287 284h159l-299 -292h193v-90h-281v-66h281v-90h-281v-180h-120v180z" />
    <glyph glyph-name="section" unicode="&#xa7;" horiz-adv-x="801" 
d="M715 252q17 -17 26 -39t9 -48q0 -81 -90 -128.5t-243 -47.5q-136 0 -244.5 33t-162.5 90l85 85q50 -52 137 -81t198 -29q86 0 139 18t53 48q0 26 -25.5 39.5t-81.5 16.5l-300 18q-79 5 -124.5 41.5t-45.5 96.5q0 29 13 54.5t38 47.5q-19 18 -29 40t-10 48q0 80 86.5 127
t235.5 47q127 0 224 -29t149 -82l-81 -79q-41 42 -119.5 64.5t-186.5 22.5q-88 0 -135.5 -15.5t-47.5 -43.5q0 -22 20 -33.5t65 -13.5l284 -15q104 -5 158 -43t54 -106q0 -31 -12 -57t-36 -47zM249 331l277 -15q27 -1 53 -5.5t49 -10.5q9 10 13.5 20.5t4.5 21.5
q0 28 -26 41.5t-87 16.5l-296 16q-14 1 -28 3t-28 5q-12 -9 -18 -19.5t-6 -23.5q0 -23 22.5 -35t69.5 -15z" />
    <glyph glyph-name="dieresis" unicode="&#xa8;" 
d="M241 595h-128v123h128v-123zM487 595h-128v123h128v-123z" />
    <glyph glyph-name="copyright" unicode="&#xa9;" horiz-adv-x="895" 
d="M448 729q173 0 291 -105.5t118 -264.5q0 -158 -118 -264t-291 -106q-174 0 -292 106t-118 264q0 159 118 264.5t292 105.5zM448 53q145 0 244.5 88t99.5 218q0 131 -99 218.5t-245 87.5q-147 0 -246 -87.5t-99 -218.5q0 -130 99.5 -218t245.5 -88zM453 150
q-104 0 -169.5 58t-65.5 152t65.5 152t169.5 58q81 0 136 -30.5t78 -88.5l-98 -45q-16 36 -45 54t-71 18q-59 0 -94 -32t-35 -86t35 -86t94 -32q42 0 71 18t45 54l98 -45q-23 -58 -77.5 -88.5t-136.5 -30.5z" />
    <glyph glyph-name="ordfeminine" unicode="&#xaa;" horiz-adv-x="505" 
d="M337 389q-27 -26 -68.5 -40t-89.5 -14q-71 0 -114 31.5t-43 84.5q0 49 38.5 79.5t109.5 37.5l157 17v2q0 27 -24.5 42t-69.5 15q-40 0 -71 -15.5t-41 -40.5l-86 29q17 49 72.5 78.5t129.5 29.5q90 0 138 -35.5t48 -103.5v-147q0 -18 12 -23q5 -2 13 -2q11 0 27 4v-75
q-25 -5 -46 -5q-24 0 -43 7q-36 12 -49 44zM193 411q54 0 94 21.5t40 54.5v26l-141 -15q-36 -4 -51.5 -14t-15.5 -30q0 -21 19 -32t55 -11zM475 192h-443v90h443v-90z" />
    <glyph glyph-name="guillemotleft" unicode="&#xab;" horiz-adv-x="497" 
d="M237 69l-197 131v120l197 131v-120l-100 -71l100 -71v-120zM457 69l-197 131v120l197 131v-120l-100 -71l100 -71v-120z" />
    <glyph glyph-name="registered" unicode="&#xae;" horiz-adv-x="542" 
d="M271 729q102 0 171.5 -63.5t69.5 -157.5t-69.5 -157.5t-171.5 -63.5t-171.5 63.5t-69.5 157.5t69.5 157.5t171.5 63.5zM271 331q81 0 137.5 51t56.5 126t-56.5 126t-137.5 51t-137.5 -51t-56.5 -126t56.5 -126t137.5 -51zM343 490l57 -90h-70l-45 74h-60v-74h-63v223h138
q42 0 65.5 -19t23.5 -53q0 -20 -12 -36t-34 -25zM324 546q0 12 -8.5 19t-24.5 7h-66v-52h66q16 0 24.5 7t8.5 19z" />
    <glyph glyph-name="macron" unicode="&#xaf;" 
d="M481 691v-95h-362v95h362z" />
    <glyph glyph-name="degree" unicode="&#xb0;" horiz-adv-x="401" 
d="M20 579q0 65 50 107.5t130 42.5t130.5 -42.5t50.5 -107.5t-51 -108t-130 -43t-129.5 43t-50.5 108zM109 579q0 -32 25 -50.5t66 -18.5q43 0 67 18t24 51t-24 51t-67 18q-41 0 -66 -18.5t-25 -50.5z" />
    <glyph glyph-name="uni00B2" unicode="&#xb2;" horiz-adv-x="439" 
d="M26 320v76l175 92q72 37 91.5 55.5t19.5 40.5q0 25 -22 40t-60 15q-47 0 -80 -24.5t-41 -66.5l-91 20q11 69 70 112.5t146 43.5q80 0 129.5 -36.5t49.5 -96.5q0 -44 -27 -77t-88 -62l-94 -47h218v-85h-396z" />
    <glyph glyph-name="uni00B3" unicode="&#xb3;" horiz-adv-x="455" 
d="M437 434q0 -52 -58.5 -86t-150.5 -34q-83 0 -141.5 30t-81.5 83l90 40q13 -31 50 -50.5t84 -19.5q45 0 73 12.5t28 33.5q0 20 -24.5 30.5t-72.5 10.5h-74v77h71q45 0 67.5 10t22.5 29q0 18 -24.5 29t-66.5 11q-44 0 -77.5 -17.5t-45.5 -45.5l-86 38q20 49 79 79t136 30
q87 0 139.5 -32t52.5 -84q0 -29 -19.5 -52t-51.5 -32q41 -13 61 -35t20 -55z" />
    <glyph glyph-name="acute" unicode="&#xb4;" 
d="M287 577h-102l109 141h158z" />
    <glyph glyph-name="paragraph" unicode="&#xb6;" horiz-adv-x="836" 
d="M691 0h-120v609h-145v-272h-175q-101 0 -163.5 51.5t-62.5 136.5q0 86 66 139.5t173 53.5h562v-109h-135v-609z" />
    <glyph glyph-name="periodcentered" unicode="&#xb7;" horiz-adv-x="225" 
d="M185 217h-145v145h145v-145z" />
    <glyph glyph-name="cedilla" unicode="&#xb8;" 
d="M433 -101q0 -39 -39 -64t-99 -25q-41 0 -76 9.5t-57 26.5l42 61q18 -14 39 -21t48 -7q30 0 44 6.5t14 19.5q0 14 -21 21t-75 9l23 77h62l-10 -33q47 -3 76 -25t29 -55z" />
    <glyph glyph-name="uni00B9" unicode="&#xb9;" horiz-adv-x="369" 
d="M364 320h-354v86h133v167h-133v76l68 2q42 1 62.5 16.5t25.5 50.5h77v-312h121v-86z" />
    <glyph glyph-name="ordmasculine" unicode="&#xba;" horiz-adv-x="483" 
d="M242 725q95 0 156.5 -54.5t61.5 -140.5q0 -85 -62 -140t-156 -55q-95 0 -157 55t-62 140q0 86 62 140.5t157 54.5zM242 642q-54 0 -88.5 -31t-34.5 -81t34.5 -81t88.5 -31t88 31t34 81t-34 81t-88 31zM455 192h-427v90h427v-90z" />
    <glyph glyph-name="guillemotright" unicode="&#xbb;" horiz-adv-x="497" 
d="M237 320v-120l-197 -131v120l100 71l-100 71v120zM457 320v-120l-197 -131v120l100 71l-100 71v120z" />
    <glyph glyph-name="onequarter" unicode="&#xbc;" horiz-adv-x="1001" 
d="M364 320h-354v86h133v167h-133v76l68 2q42 1 62.5 16.5t25.5 50.5h77v-312h121v-86zM179 0l573 718h111l-573 -718h-111zM895 92v-92h-95v92h-257v77l224 229h128v-226h96v-80h-96zM800 316l-143 -144h143v144z" />
    <glyph glyph-name="onehalf" unicode="&#xbd;" horiz-adv-x="1032" 
d="M364 320h-354v86h133v167h-133v76l68 2q42 1 62.5 16.5t25.5 50.5h77v-312h121v-86zM179 0l573 718h111l-573 -718h-111zM619 0v76l175 92q72 37 91.5 55.5t19.5 40.5q0 25 -22 40t-60 15q-47 0 -80 -24.5t-41 -66.5l-91 20q11 69 70 112.5t146 43.5q80 0 129.5 -36.5
t49.5 -96.5q0 -44 -27 -77t-88 -62l-94 -47h218v-85h-396z" />
    <glyph glyph-name="threequarters" unicode="&#xbe;" horiz-adv-x="1007" 
d="M437 434q0 -52 -58.5 -86t-150.5 -34q-83 0 -141.5 30t-81.5 83l90 40q13 -31 50 -50.5t84 -19.5q45 0 73 12.5t28 33.5q0 20 -24.5 30.5t-72.5 10.5h-74v77h71q45 0 67.5 10t22.5 29q0 18 -24.5 29t-66.5 11q-44 0 -77.5 -17.5t-45.5 -45.5l-86 38q20 49 79 79t136 30
q87 0 139.5 -32t52.5 -84q0 -29 -19.5 -52t-51.5 -32q41 -13 61 -35t20 -55zM185 0l573 718h111l-573 -718h-111zM901 92v-92h-95v92h-257v77l224 229h128v-226h96v-80h-96zM806 316l-143 -144h143v144z" />
    <glyph glyph-name="questiondown" unicode="&#xbf;" horiz-adv-x="685" 
d="M258 729h145v-145h-145v145zM142 229q0 -59 50 -89.5t147 -30.5q89 0 149.5 37t71.5 99l125 -19q-18 -102 -114 -164t-239 -62q-145 0 -233.5 60.5t-88.5 161.5q0 86 71.5 141t196.5 70v79h118v-168q-132 0 -193 -28t-61 -87z" />
    <glyph glyph-name="Agrave" unicode="&#xc0;" horiz-adv-x="861" 
d="M-6 0l366 718h141l365 -718h-136l-91 180h-417l-91 -180h-137zM583 292l-152 300l-152 -300h304zM375 907l123 -147h-110l-190 147h177z" />
    <glyph glyph-name="Aacute" unicode="&#xc1;" horiz-adv-x="861" 
d="M-6 0l366 718h141l365 -718h-136l-91 180h-417l-91 -180h-137zM583 292l-152 300l-152 -300h304zM479 760h-110l123 147h177z" />
    <glyph glyph-name="Acircumflex" unicode="&#xc2;" horiz-adv-x="861" 
d="M-6 0l366 718h141l365 -718h-136l-91 180h-417l-91 -180h-137zM583 292l-152 300l-152 -300h304zM360 907h140l146 -147h-105l-111 71l-111 -71h-105z" />
    <glyph glyph-name="Atilde" unicode="&#xc3;" horiz-adv-x="861" 
d="M-6 0l366 718h141l365 -718h-136l-91 180h-417l-91 -180h-137zM583 292l-152 300l-152 -300h304zM329 916q27 0 52.5 -6.5t66.5 -26.5q31 -15 46 -19.5t28 -4.5q17 0 27.5 13t16.5 44h81q-5 -72 -36 -113.5t-81 -41.5q-27 0 -52.5 6.5t-66.5 26.5q-30 15 -45 19.5
t-28 4.5q-18 0 -28.5 -13.5t-15.5 -43.5h-81q4 72 35 113.5t81 41.5z" />
    <glyph glyph-name="Adieresis" unicode="&#xc4;" horiz-adv-x="861" 
d="M-6 0l366 718h141l365 -718h-136l-91 180h-417l-91 -180h-137zM583 292l-152 300l-152 -300h304zM367 760h-128v123h128v-123zM621 760h-128v123h128v-123z" />
    <glyph glyph-name="Aring" unicode="&#xc5;" horiz-adv-x="861" 
d="M298 795q0 51 37.5 85.5t94.5 34.5t94.5 -34.5t37.5 -85.5q0 -29 -13.5 -54.5t-37.5 -42.5l355 -698h-136l-91 180h-417l-91 -180h-137l356 697q-25 18 -38.5 43.5t-13.5 54.5zM430 849q-26 0 -42.5 -15t-16.5 -39q0 -23 17 -38.5t42 -15.5t42 15.5t17 38.5
q0 24 -16.5 39t-42.5 15zM583 292l-152 300l-152 -300h304z" />
    <glyph glyph-name="AE" unicode="&#xc6;" horiz-adv-x="1408" 
d="M-12 0l644 718h742v-112h-568v-180h511v-112h-511v-202h568v-112h-694v176h-377l-156 -176h-159zM680 600l-277 -312h277v312z" />
    <glyph glyph-name="Ccedilla" unicode="&#xc7;" horiz-adv-x="832" 
d="M25 359q0 159 120.5 264.5t302.5 105.5q136 0 234.5 -58.5t140.5 -163.5l-106 -58q-35 82 -103 124.5t-165 42.5q-129 0 -211 -72t-82 -185t82 -185t211 -72q97 0 165 42.5t103 124.5l106 -58q-42 -105 -140.5 -163.5t-234.5 -58.5h-5l-3 -10q47 -3 76 -25t29 -55
q0 -39 -39 -64t-99 -25q-41 0 -76 9.5t-57 26.5l42 61q18 -14 39 -21t48 -7q30 0 44 6.5t14 19.5q0 14 -21 21t-75 9l17 58q-158 20 -257.5 121.5t-99.5 244.5z" />
    <glyph glyph-name="Egrave" unicode="&#xc8;" horiz-adv-x="796" 
d="M68 0v718h694v-112h-568v-180h511v-112h-511v-202h568v-112h-694zM388 907l123 -147h-110l-190 147h177z" />
    <glyph glyph-name="Eacute" unicode="&#xc9;" horiz-adv-x="796" 
d="M68 0v718h694v-112h-568v-180h511v-112h-511v-202h568v-112h-694zM449 760h-110l123 147h177z" />
    <glyph glyph-name="Ecircumflex" unicode="&#xca;" horiz-adv-x="796" 
d="M68 0v718h694v-112h-568v-180h511v-112h-511v-202h568v-112h-694zM342 907h140l146 -147h-105l-111 71l-111 -71h-105z" />
    <glyph glyph-name="Edieresis" unicode="&#xcb;" horiz-adv-x="796" 
d="M68 0v718h694v-112h-568v-180h511v-112h-511v-202h568v-112h-694zM349 760h-128v123h128v-123zM603 760h-128v123h128v-123z" />
    <glyph glyph-name="Igrave" unicode="&#xcc;" horiz-adv-x="264" 
d="M68 718h128v-718h-128v718zM63 907l123 -147h-110l-190 147h177z" />
    <glyph glyph-name="Iacute" unicode="&#xcd;" horiz-adv-x="264" 
d="M68 718h128v-718h-128v718zM187 760h-110l123 147h177z" />
    <glyph glyph-name="Icircumflex" unicode="&#xce;" horiz-adv-x="264" 
d="M68 718h128v-718h-128v718zM62 907h140l146 -147h-105l-111 71l-111 -71h-105z" />
    <glyph glyph-name="Idieresis" unicode="&#xcf;" horiz-adv-x="264" 
d="M68 718h128v-718h-128v718zM69 760h-128v123h128v-123zM323 760h-128v123h128v-123z" />
    <glyph glyph-name="Eth" unicode="&#xd0;" horiz-adv-x="902" 
d="M472 0h-364v314h-104v110h104v294h364q185 0 295 -97.5t110 -261.5t-110 -261.5t-295 -97.5zM234 314v-204h238q127 0 200.5 67t73.5 182t-73.5 182t-201.5 67h-237v-184h169v-110h-169z" />
    <glyph glyph-name="Ntilde" unicode="&#xd1;" horiz-adv-x="861" 
d="M670 718h123v-718h-112l-490 557v-557h-123v718h132l470 -533v533zM324 916q27 0 52.5 -6.5t66.5 -26.5q31 -15 46 -19.5t28 -4.5q17 0 27.5 13t16.5 44h81q-5 -72 -36 -113.5t-81 -41.5q-27 0 -52.5 6.5t-66.5 26.5q-30 15 -45 19.5t-28 4.5q-18 0 -28.5 -13.5
t-15.5 -43.5h-81q4 72 35 113.5t81 41.5z" />
    <glyph glyph-name="Ograve" unicode="&#xd2;" horiz-adv-x="892" 
d="M25 359q0 160 119.5 265t301.5 105t301.5 -105t119.5 -265t-119.5 -265t-301.5 -105t-301.5 105t-119.5 265zM736 359q0 115 -80 186t-210 71t-210 -71t-80 -186t80 -186t210 -71t210 71t80 186zM396 907l123 -147h-110l-190 147h177z" />
    <glyph glyph-name="Oacute" unicode="&#xd3;" horiz-adv-x="892" 
d="M25 359q0 160 119.5 265t301.5 105t301.5 -105t119.5 -265t-119.5 -265t-301.5 -105t-301.5 105t-119.5 265zM736 359q0 115 -80 186t-210 71t-210 -71t-80 -186t80 -186t210 -71t210 71t80 186zM488 760h-110l123 147h177z" />
    <glyph glyph-name="Ocircumflex" unicode="&#xd4;" horiz-adv-x="892" 
d="M25 359q0 160 119.5 265t301.5 105t301.5 -105t119.5 -265t-119.5 -265t-301.5 -105t-301.5 105t-119.5 265zM736 359q0 115 -80 186t-210 71t-210 -71t-80 -186t80 -186t210 -71t210 71t80 186zM376 907h140l146 -147h-105l-111 71l-111 -71h-105z" />
    <glyph glyph-name="Otilde" unicode="&#xd5;" horiz-adv-x="892" 
d="M25 359q0 160 119.5 265t301.5 105t301.5 -105t119.5 -265t-119.5 -265t-301.5 -105t-301.5 105t-119.5 265zM736 359q0 115 -80 186t-210 71t-210 -71t-80 -186t80 -186t210 -71t210 71t80 186zM345 916q27 0 52.5 -6.5t66.5 -26.5q31 -15 46 -19.5t28 -4.5
q17 0 27.5 13t16.5 44h81q-5 -72 -36 -113.5t-81 -41.5q-27 0 -52.5 6.5t-66.5 26.5q-30 15 -45 19.5t-28 4.5q-18 0 -28.5 -13.5t-15.5 -43.5h-81q4 72 35 113.5t81 41.5z" />
    <glyph glyph-name="Odieresis" unicode="&#xd6;" horiz-adv-x="892" 
d="M25 359q0 160 119.5 265t301.5 105t301.5 -105t119.5 -265t-119.5 -265t-301.5 -105t-301.5 105t-119.5 265zM736 359q0 115 -80 186t-210 71t-210 -71t-80 -186t80 -186t210 -71t210 71t80 186zM383 760h-128v123h128v-123zM637 760h-128v123h128v-123z" />
    <glyph glyph-name="multiply" unicode="&#xd7;" horiz-adv-x="800" 
d="M81 108l245 244l-245 245l74 74l245 -244l245 244l73 -73l-244 -245l244 -245l-74 -74l-245 245l-244 -245z" />
    <glyph glyph-name="Oslash" unicode="&#xd8;" horiz-adv-x="892" 
d="M113 -28l-76 76l78 75q-44 49 -67 109t-23 127q0 160 119.5 265t301.5 105q72 0 137.5 -18t118.5 -53l77 74l76 -76l-71 -69q41 -48 62 -106t21 -122q0 -160 -119.5 -265t-301.5 -105q-69 0 -131.5 16.5t-116.5 48.5zM446 618q-130 0 -211 -71.5t-81 -187.5
q0 -45 13.5 -85.5t40.5 -74.5l405 379q-35 20 -77.5 30t-89.5 10zM446 100q130 0 211 71.5t81 187.5q0 43 -12 81.5t-36 70.5l-401 -376q33 -17 72.5 -26t84.5 -9z" />
    <glyph glyph-name="Ugrave" unicode="&#xd9;" horiz-adv-x="820" 
d="M410 -10q-177 0 -270.5 92.5t-93.5 264.5v371h128v-367q0 -125 58.5 -186.5t177.5 -61.5t177.5 61.5t58.5 186.5v367h128v-371q0 -172 -93.5 -264.5t-270.5 -92.5zM379 907l123 -147h-110l-190 147h177z" />
    <glyph glyph-name="Uacute" unicode="&#xda;" horiz-adv-x="820" 
d="M410 -10q-177 0 -270.5 92.5t-93.5 264.5v371h128v-367q0 -125 58.5 -186.5t177.5 -61.5t177.5 61.5t58.5 186.5v367h128v-371q0 -172 -93.5 -264.5t-270.5 -92.5zM443 760h-110l123 147h177z" />
    <glyph glyph-name="Ucircumflex" unicode="&#xdb;" horiz-adv-x="820" 
d="M410 -10q-177 0 -270.5 92.5t-93.5 264.5v371h128v-367q0 -125 58.5 -186.5t177.5 -61.5t177.5 61.5t58.5 186.5v367h128v-371q0 -172 -93.5 -264.5t-270.5 -92.5zM340 907h140l146 -147h-105l-111 71l-111 -71h-105z" />
    <glyph glyph-name="Udieresis" unicode="&#xdc;" horiz-adv-x="820" 
d="M410 -10q-177 0 -270.5 92.5t-93.5 264.5v371h128v-367q0 -125 58.5 -186.5t177.5 -61.5t177.5 61.5t58.5 186.5v367h128v-371q0 -172 -93.5 -264.5t-270.5 -92.5zM347 760h-128v123h128v-123zM601 760h-128v123h128v-123z" />
    <glyph glyph-name="Yacute" unicode="&#xdd;" horiz-adv-x="835" 
d="M148 718l271 -305l270 305h156l-363 -406v-312h-128v312l-364 406h158zM453 760h-110l123 147h177z" />
    <glyph glyph-name="Thorn" unicode="&#xde;" horiz-adv-x="798" 
d="M779 369q0 -104 -70.5 -162t-194.5 -58h-318v-149h-128v718h128v-129h318q125 0 195 -57.5t70 -162.5zM507 482h-311v-226h311q69 0 107.5 30t38.5 83q0 54 -38.5 83.5t-107.5 29.5z" />
    <glyph glyph-name="germandbls" unicode="&#xdf;" horiz-adv-x="723" 
d="M371 729q112 0 181.5 -50t69.5 -129q0 -50 -28 -86.5t-77 -53.5q88 -18 136 -69t48 -128q0 -98 -76 -161t-194 -63q-73 0 -133.5 25t-98.5 72l76 85q32 -41 71.5 -61.5t85.5 -20.5q67 0 109 34.5t42 88.5q0 63 -56.5 96.5t-163.5 33.5h-105v105h108q66 0 103 23.5
t37 65.5q0 43 -36.5 67.5t-101.5 24.5q-89 0 -137.5 -48t-48.5 -132v-448h-119v453q0 119 85.5 197.5t222.5 78.5z" />
    <glyph glyph-name="agrave" unicode="&#xe0;" horiz-adv-x="653" 
d="M469 71q-38 -39 -97.5 -60.5t-128.5 -21.5q-99 0 -158.5 44t-59.5 119q0 67 52 108.5t150 53.5l228 27v4q0 41 -37 64.5t-105 23.5q-60 0 -108.5 -24.5t-63.5 -63.5l-99 44q24 65 101 105.5t174 40.5q123 0 188.5 -49.5t65.5 -142.5v-221q0 -26 18 -32q7 -3 18 -3
q17 0 42 6v-93q-32 -6 -59 -6q-34 0 -59 10q-46 19 -62 67zM253 86q81 0 141.5 33t60.5 84v44l-208 -25q-57 -7 -81 -23t-24 -46q0 -32 29 -49.5t82 -17.5zM285 718l109 -141h-102l-165 141h158z" />
    <glyph glyph-name="aacute" unicode="&#xe1;" horiz-adv-x="653" 
d="M469 71q-38 -39 -97.5 -60.5t-128.5 -21.5q-99 0 -158.5 44t-59.5 119q0 67 52 108.5t150 53.5l228 27v4q0 41 -37 64.5t-105 23.5q-60 0 -108.5 -24.5t-63.5 -63.5l-99 44q24 65 101 105.5t174 40.5q123 0 188.5 -49.5t65.5 -142.5v-221q0 -26 18 -32q7 -3 18 -3
q17 0 42 6v-93q-32 -6 -59 -6q-34 0 -59 10q-46 19 -62 67zM253 86q81 0 141.5 33t60.5 84v44l-208 -25q-57 -7 -81 -23t-24 -46q0 -32 29 -49.5t82 -17.5zM362 577h-102l109 141h158z" />
    <glyph glyph-name="acircumflex" unicode="&#xe2;" horiz-adv-x="653" 
d="M469 71q-38 -39 -97.5 -60.5t-128.5 -21.5q-99 0 -158.5 44t-59.5 119q0 67 52 108.5t150 53.5l228 27v4q0 41 -37 64.5t-105 23.5q-60 0 -108.5 -24.5t-63.5 -63.5l-99 44q24 65 101 105.5t174 40.5q123 0 188.5 -49.5t65.5 -142.5v-221q0 -26 18 -32q7 -3 18 -3
q17 0 42 6v-93q-32 -6 -59 -6q-34 0 -59 10q-46 19 -62 67zM253 86q81 0 141.5 33t60.5 84v44l-208 -25q-57 -7 -81 -23t-24 -46q0 -32 29 -49.5t82 -17.5zM252 718h126l129 -141h-97l-95 60l-95 -60h-97z" />
    <glyph glyph-name="atilde" unicode="&#xe3;" horiz-adv-x="653" 
d="M469 71q-38 -39 -97.5 -60.5t-128.5 -21.5q-99 0 -158.5 44t-59.5 119q0 67 52 108.5t150 53.5l228 27v4q0 41 -37 64.5t-105 23.5q-60 0 -108.5 -24.5t-63.5 -63.5l-99 44q24 65 101 105.5t174 40.5q123 0 188.5 -49.5t65.5 -142.5v-221q0 -26 18 -32q7 -3 18 -3
q17 0 42 6v-93q-32 -6 -59 -6q-34 0 -59 10q-46 19 -62 67zM253 86q81 0 141.5 33t60.5 84v44l-208 -25q-57 -7 -81 -23t-24 -46q0 -32 29 -49.5t82 -17.5zM223 725q22 0 43 -6.5t54 -26.5q23 -14 34.5 -18t21.5 -4q15 0 24 12.5t14 42.5h76q-4 -69 -31.5 -108.5
t-72.5 -39.5q-22 0 -43.5 6.5t-54.5 26.5q-23 13 -34 17t-21 4q-15 0 -24 -12t-14 -42h-76q4 69 31.5 108.5t72.5 39.5z" />
    <glyph glyph-name="adieresis" unicode="&#xe4;" horiz-adv-x="653" 
d="M469 71q-38 -39 -97.5 -60.5t-128.5 -21.5q-99 0 -158.5 44t-59.5 119q0 67 52 108.5t150 53.5l228 27v4q0 41 -37 64.5t-105 23.5q-60 0 -108.5 -24.5t-63.5 -63.5l-99 44q24 65 101 105.5t174 40.5q123 0 188.5 -49.5t65.5 -142.5v-221q0 -26 18 -32q7 -3 18 -3
q17 0 42 6v-93q-32 -6 -59 -6q-34 0 -59 10q-46 19 -62 67zM253 86q81 0 141.5 33t60.5 84v44l-208 -25q-57 -7 -81 -23t-24 -46q0 -32 29 -49.5t82 -17.5zM260 595h-128v123h128v-123zM506 595h-128v123h128v-123z" />
    <glyph glyph-name="aring" unicode="&#xe5;" horiz-adv-x="653" 
d="M469 71q-38 -39 -97.5 -60.5t-128.5 -21.5q-99 0 -158.5 44t-59.5 119q0 67 52 108.5t150 53.5l228 27v4q0 41 -37 64.5t-105 23.5q-60 0 -108.5 -24.5t-63.5 -63.5l-99 44q24 65 101 105.5t174 40.5q123 0 188.5 -49.5t65.5 -142.5v-221q0 -26 18 -32q7 -3 18 -3
q17 0 42 6v-93q-32 -6 -59 -6q-34 0 -59 10q-46 19 -62 67zM253 86q81 0 141.5 33t60.5 84v44l-208 -25q-57 -7 -81 -23t-24 -46q0 -32 29 -49.5t82 -17.5zM313 561q-47 0 -79 31t-32 76t32 75.5t79 30.5t79 -30.5t32 -75.5t-32 -76t-79 -31zM313 716q-20 0 -33.5 -14
t-13.5 -34t13.5 -34t33.5 -14t33.5 14t13.5 34t-13.5 34t-33.5 14z" />
    <glyph glyph-name="ae" unicode="&#xe6;" horiz-adv-x="1065" 
d="M25 152q0 76 63.5 120.5t175.5 44.5h191v28q0 41 -37 64.5t-105 23.5q-60 0 -108.5 -24.5t-63.5 -63.5l-99 44q24 65 101 105.5t174 40.5q78 0 134 -20.5t86 -60.5q41 39 98 60t123 21q126 0 204 -74.5t78 -191.5v-42h-471q12 -62 63.5 -99t125.5 -37q63 0 109.5 29
t66.5 79l96 -51q-27 -70 -101.5 -114.5t-170.5 -44.5q-82 0 -149 31t-106 88q-43 -59 -109 -89t-151 -30q-99 0 -158.5 44t-59.5 119zM752 435q-65 0 -113.5 -32t-64.5 -86h350q-7 47 -56.5 82.5t-115.5 35.5zM142 153q0 -32 29 -49.5t82 -17.5q81 0 141.5 33t60.5 84v24
h-183q-65 0 -97.5 -18.5t-32.5 -55.5z" />
    <glyph glyph-name="ccedilla" unicode="&#xe7;" horiz-adv-x="606" 
d="M26 262q0 119 87 196t218 77q93 0 166.5 -45.5t101.5 -117.5l-96 -55q-17 50 -65 83t-108 33q-84 0 -136.5 -47t-52.5 -124t52.5 -124t136.5 -47q60 0 108 33t65 83l95 -57q-29 -71 -101 -116t-161 -45l-3 -10q47 -3 76 -25t29 -55q0 -39 -39 -64t-99 -25q-41 0 -76 9.5
t-57 26.5l42 61q18 -14 39 -21t48 -7q30 0 44 6.5t14 19.5q0 14 -21 21t-75 9l17 58q-111 16 -180 90t-69 179z" />
    <glyph glyph-name="egrave" unicode="&#xe8;" horiz-adv-x="636" 
d="M329 -11q-133 0 -218 76.5t-85 196.5q0 118 85.5 195.5t217.5 77.5q126 0 204 -74.5t78 -191.5v-42h-471q12 -62 63.5 -99t125.5 -37q63 0 109.5 29t66.5 79l96 -51q-27 -70 -101.5 -114.5t-170.5 -44.5zM323 435q-66 0 -114 -31.5t-64 -86.5h350q-7 48 -56 83t-116 35z
M295 718l109 -141h-102l-165 141h158z" />
    <glyph glyph-name="eacute" unicode="&#xe9;" horiz-adv-x="636" 
d="M329 -11q-133 0 -218 76.5t-85 196.5q0 118 85.5 195.5t217.5 77.5q126 0 204 -74.5t78 -191.5v-42h-471q12 -62 63.5 -99t125.5 -37q63 0 109.5 29t66.5 79l96 -51q-27 -70 -101.5 -114.5t-170.5 -44.5zM323 435q-66 0 -114 -31.5t-64 -86.5h350q-7 48 -56 83t-116 35z
M372 577h-102l109 141h158z" />
    <glyph glyph-name="ecircumflex" unicode="&#xea;" horiz-adv-x="636" 
d="M329 -11q-133 0 -218 76.5t-85 196.5q0 118 85.5 195.5t217.5 77.5q126 0 204 -74.5t78 -191.5v-42h-471q12 -62 63.5 -99t125.5 -37q63 0 109.5 29t66.5 79l96 -51q-27 -70 -101.5 -114.5t-170.5 -44.5zM323 435q-66 0 -114 -31.5t-64 -86.5h350q-7 48 -56 83t-116 35z
M263 718h126l129 -141h-97l-95 60l-95 -60h-97z" />
    <glyph glyph-name="edieresis" unicode="&#xeb;" horiz-adv-x="636" 
d="M329 -11q-133 0 -218 76.5t-85 196.5q0 118 85.5 195.5t217.5 77.5q126 0 204 -74.5t78 -191.5v-42h-471q12 -62 63.5 -99t125.5 -37q63 0 109.5 29t66.5 79l96 -51q-27 -70 -101.5 -114.5t-170.5 -44.5zM323 435q-66 0 -114 -31.5t-64 -86.5h350q-7 48 -56 83t-116 35z
M262 595h-128v123h128v-123zM508 595h-128v123h128v-123z" />
    <glyph glyph-name="igrave" unicode="&#xec;" horiz-adv-x="236" 
d="M58 525h120v-525h-120v525zM65 718l109 -141h-102l-165 141h158z" />
    <glyph glyph-name="iacute" unicode="&#xed;" horiz-adv-x="236" 
d="M58 525h120v-525h-120v525zM165 577h-102l109 141h158z" />
    <glyph glyph-name="icircumflex" unicode="&#xee;" horiz-adv-x="236" 
d="M58 525h120v-525h-120v525zM55 718h126l129 -141h-97l-95 60l-95 -60h-97z" />
    <glyph glyph-name="idieresis" unicode="&#xef;" horiz-adv-x="236" 
d="M58 525h120v-525h-120v525zM59 595h-128v123h128v-123zM305 595h-128v123h128v-123z" />
    <glyph glyph-name="eth" unicode="&#xf0;" horiz-adv-x="651" 
d="M314 533q40 0 75.5 -8t57.5 -21q-14 19 -37 40.5t-56 45.5l-227 -57v87l127 32q-22 13 -46 25t-50 23l129 28q22 -10 44 -21t45 -24l179 45v-87l-89 -23q78 -68 118.5 -153t40.5 -182q0 -131 -84 -212.5t-215 -81.5q-129 0 -214.5 77t-85.5 196q0 117 83.5 194t204.5 77z
M326 432q-82 0 -133.5 -47t-51.5 -123t51.5 -123t133.5 -47q81 0 132.5 47t51.5 123t-51.5 123t-132.5 47z" />
    <glyph glyph-name="ntilde" unicode="&#xf1;" horiz-adv-x="654" 
d="M178 0h-120v525h120v-69q32 37 82.5 58t111.5 21q106 0 167 -67t61 -182v-286h-120v266q0 74 -38 116.5t-107 42.5q-74 0 -115.5 -43t-41.5 -118v-264zM248 725q22 0 43 -6.5t54 -26.5q23 -14 34.5 -18t21.5 -4q15 0 24 12.5t14 42.5h76q-4 -69 -31.5 -108.5t-72.5 -39.5
q-22 0 -43.5 6.5t-54.5 26.5q-23 13 -34 17t-21 4q-15 0 -24 -12t-14 -42h-76q4 69 31.5 108.5t72.5 39.5z" />
    <glyph glyph-name="ograve" unicode="&#xf2;" horiz-adv-x="651" 
d="M326 535q128 0 213.5 -77t85.5 -196t-85.5 -196t-213.5 -77q-129 0 -214.5 77t-85.5 196t85.5 196t214.5 77zM326 432q-82 0 -133.5 -47t-51.5 -123t51.5 -123t133.5 -47q81 0 132.5 47t51.5 123t-51.5 123t-132.5 47zM283 719l109 -141h-102l-165 141h158z" />
    <glyph glyph-name="oacute" unicode="&#xf3;" horiz-adv-x="651" 
d="M326 535q128 0 213.5 -77t85.5 -196t-85.5 -196t-213.5 -77q-129 0 -214.5 77t-85.5 196t85.5 196t214.5 77zM326 432q-82 0 -133.5 -47t-51.5 -123t51.5 -123t133.5 -47q81 0 132.5 47t51.5 123t-51.5 123t-132.5 47zM367 577h-102l109 141h158z" />
    <glyph glyph-name="ocircumflex" unicode="&#xf4;" horiz-adv-x="651" 
d="M326 535q128 0 213.5 -77t85.5 -196t-85.5 -196t-213.5 -77q-129 0 -214.5 77t-85.5 196t85.5 196t214.5 77zM326 432q-82 0 -133.5 -47t-51.5 -123t51.5 -123t133.5 -47q81 0 132.5 47t51.5 123t-51.5 123t-132.5 47zM262 718h126l129 -141h-97l-95 60l-95 -60h-97z" />
    <glyph glyph-name="otilde" unicode="&#xf5;" horiz-adv-x="651" 
d="M326 535q128 0 213.5 -77t85.5 -196t-85.5 -196t-213.5 -77q-129 0 -214.5 77t-85.5 196t85.5 196t214.5 77zM326 432q-82 0 -133.5 -47t-51.5 -123t51.5 -123t133.5 -47q81 0 132.5 47t51.5 123t-51.5 123t-132.5 47zM244 725q22 0 43 -6.5t54 -26.5q23 -14 34.5 -18
t21.5 -4q15 0 24 12.5t14 42.5h76q-4 -69 -31.5 -108.5t-72.5 -39.5q-22 0 -43.5 6.5t-54.5 26.5q-23 13 -34 17t-21 4q-15 0 -24 -12t-14 -42h-76q4 69 31.5 108.5t72.5 39.5z" />
    <glyph glyph-name="odieresis" unicode="&#xf6;" horiz-adv-x="651" 
d="M326 535q128 0 213.5 -77t85.5 -196t-85.5 -196t-213.5 -77q-129 0 -214.5 77t-85.5 196t85.5 196t214.5 77zM326 432q-82 0 -133.5 -47t-51.5 -123t51.5 -123t133.5 -47q81 0 132.5 47t51.5 123t-51.5 123t-132.5 47zM266 595h-128v123h128v-123zM512 595h-128v123h128
v-123z" />
    <glyph glyph-name="divide" unicode="&#xf7;" horiz-adv-x="800" 
d="M467 520h-136v132h136v-132zM738 300h-676v105h676v-105zM467 53h-136v132h136v-132z" />
    <glyph glyph-name="oslash" unicode="&#xf8;" horiz-adv-x="651" 
d="M27 262q0 119 85.5 196t213.5 77q48 0 91.5 -11.5t79.5 -34.5l60 62l64 -60l-56 -59q29 -35 44.5 -78t15.5 -92q0 -119 -85.5 -196t-213.5 -77q-48 0 -91.5 11.5t-79.5 34.5l-60 -62l-64 60l56 59q-29 35 -44.5 78t-15.5 92zM326 436q-83 0 -135.5 -48t-52.5 -126
q0 -28 7.5 -53.5t21.5 -45.5l252 253q-22 10 -45 15t-48 5zM326 88q83 0 135.5 48t52.5 126q0 28 -7.5 53.5t-21.5 45.5l-252 -253q22 -10 45 -15t48 -5z" />
    <glyph glyph-name="ugrave" unicode="&#xf9;" horiz-adv-x="649" 
d="M471 525h120v-525h-120v68q-33 -38 -81.5 -58.5t-107.5 -20.5q-105 0 -166.5 66t-61.5 178v292h120v-279q0 -72 36 -110t106 -38q74 0 114.5 42t40.5 117v268zM284 718l109 -141h-102l-165 141h158z" />
    <glyph glyph-name="uacute" unicode="&#xfa;" horiz-adv-x="649" 
d="M471 525h120v-525h-120v68q-33 -38 -81.5 -58.5t-107.5 -20.5q-105 0 -166.5 66t-61.5 178v292h120v-279q0 -72 36 -110t106 -38q74 0 114.5 42t40.5 117v268zM363 577h-102l109 141h158z" />
    <glyph glyph-name="ucircumflex" unicode="&#xfb;" horiz-adv-x="649" 
d="M471 525h120v-525h-120v68q-33 -38 -81.5 -58.5t-107.5 -20.5q-105 0 -166.5 66t-61.5 178v292h120v-279q0 -72 36 -110t106 -38q74 0 114.5 42t40.5 117v268zM259 718h126l129 -141h-97l-95 60l-95 -60h-97z" />
    <glyph glyph-name="udieresis" unicode="&#xfc;" horiz-adv-x="649" 
d="M471 525h120v-525h-120v68q-33 -38 -81.5 -58.5t-107.5 -20.5q-105 0 -166.5 66t-61.5 178v292h120v-279q0 -72 36 -110t106 -38q74 0 114.5 42t40.5 117v268zM263 595h-128v123h128v-123zM509 595h-128v123h128v-123z" />
    <glyph glyph-name="yacute" unicode="&#xfd;" horiz-adv-x="642" 
d="M642 525l-281 -574q-36 -73 -85.5 -106t-127.5 -33q-28 0 -60.5 6.5t-48.5 15.5l24 101q21 -11 39.5 -15.5t38.5 -4.5q45 0 73 19t43 59l6 18l-263 514h133l192 -393l187 393h130zM360 577h-102l109 141h158z" />
    <glyph glyph-name="thorn" unicode="&#xfe;" horiz-adv-x="696" 
d="M670 262q0 -119 -80 -196t-208 -77q-64 0 -117.5 20.5t-86.5 56.5v-246h-120v898h120v-260q33 36 86.5 56.5t117.5 20.5q128 0 208 -77t80 -196zM365 435q-82 0 -137.5 -48.5t-55.5 -120.5v-8q0 -72 55.5 -120.5t137.5 -48.5q84 0 137.5 47.5t53.5 125.5t-53.5 125.5
t-137.5 47.5z" />
    <glyph glyph-name="ydieresis" unicode="&#xff;" horiz-adv-x="642" 
d="M642 525l-281 -574q-36 -73 -85.5 -106t-127.5 -33q-28 0 -60.5 6.5t-48.5 15.5l24 101q21 -11 39.5 -15.5t38.5 -4.5q45 0 73 19t43 59l6 18l-263 514h133l192 -393l187 393h130zM262 595h-128v123h128v-123zM508 595h-128v123h128v-123z" />
    <glyph glyph-name="Amacron" unicode="&#x100;" horiz-adv-x="861" 
d="M-6 0l366 718h141l365 -718h-136l-91 180h-417l-91 -180h-137zM583 292l-152 300l-152 -300h304zM622 869v-99h-384v99h384z" />
    <glyph glyph-name="amacron" unicode="&#x101;" horiz-adv-x="653" 
d="M469 71q-38 -39 -97.5 -60.5t-128.5 -21.5q-99 0 -158.5 44t-59.5 119q0 67 52 108.5t150 53.5l228 27v4q0 41 -37 64.5t-105 23.5q-60 0 -108.5 -24.5t-63.5 -63.5l-99 44q24 65 101 105.5t174 40.5q123 0 188.5 -49.5t65.5 -142.5v-221q0 -26 18 -32q7 -3 18 -3
q17 0 42 6v-93q-32 -6 -59 -6q-34 0 -59 10q-46 19 -62 67zM253 86q81 0 141.5 33t60.5 84v44l-208 -25q-57 -7 -81 -23t-24 -46q0 -32 29 -49.5t82 -17.5zM493 691v-95h-362v95h362z" />
    <glyph glyph-name="Abreve" unicode="&#x102;" horiz-adv-x="861" 
d="M-6 0l366 718h141l365 -718h-136l-91 180h-417l-91 -180h-137zM583 292l-152 300l-152 -300h304zM430 840q46 0 75.5 19t29.5 48h90q0 -68 -53 -109t-142 -41t-142 41t-53 109h90q0 -29 29.5 -48t75.5 -19z" />
    <glyph glyph-name="abreve" unicode="&#x103;" horiz-adv-x="653" 
d="M469 71q-38 -39 -97.5 -60.5t-128.5 -21.5q-99 0 -158.5 44t-59.5 119q0 67 52 108.5t150 53.5l228 27v4q0 41 -37 64.5t-105 23.5q-60 0 -108.5 -24.5t-63.5 -63.5l-99 44q24 65 101 105.5t174 40.5q123 0 188.5 -49.5t65.5 -142.5v-221q0 -26 18 -32q7 -3 18 -3
q17 0 42 6v-93q-32 -6 -59 -6q-34 0 -59 10q-46 19 -62 67zM253 86q81 0 141.5 33t60.5 84v44l-208 -25q-57 -7 -81 -23t-24 -46q0 -32 29 -49.5t82 -17.5zM326 657q45 0 70 15.5t29 45.5h82q0 -68 -48.5 -106.5t-132.5 -38.5t-132.5 38.5t-48.5 106.5h82q4 -30 29 -45.5
t70 -15.5z" />
    <glyph glyph-name="Aogonek" unicode="&#x104;" horiz-adv-x="861" 
d="M732 -186q-55 0 -90 24.5t-35 63.5q0 38 28 71.5t80 55.5l-76 151h-417l-91 -180h-137l366 718h141l365 -718h-63q-58 -19 -85 -37t-27 -39q0 -15 17 -24t47 -9q13 0 25 1.5t23 4.5v-75q-22 -4 -39.5 -6t-31.5 -2zM583 292l-152 300l-152 -300h304z" />
    <glyph glyph-name="aogonek" unicode="&#x105;" horiz-adv-x="653" 
d="M469 71q-38 -39 -97.5 -60.5t-128.5 -21.5q-99 0 -158.5 44t-59.5 119q0 67 52 108.5t150 53.5l228 27v4q0 41 -37 64.5t-105 23.5q-60 0 -108.5 -24.5t-63.5 -63.5l-99 44q24 65 101 105.5t174 40.5q123 0 188.5 -49.5t65.5 -142.5v-221q0 -26 18 -32q7 -3 18 -3
q17 0 42 6v-93q-58 -19 -85 -37t-27 -39q0 -15 17 -24t47 -9q13 0 25 1.5t23 4.5v-75q-22 -4 -39.5 -6t-31.5 -2q-55 0 -90 24.5t-35 63.5q0 30 17.5 57.5t50.5 48.5q-19 11 -32.5 27t-19.5 36zM253 86q81 0 141.5 33t60.5 84v44l-208 -25q-57 -7 -81 -23t-24 -46
q0 -32 29 -49.5t82 -17.5z" />
    <glyph glyph-name="Cacute" unicode="&#x106;" horiz-adv-x="832" 
d="M449 616q-129 0 -211 -72t-82 -185t82 -185t211 -72q97 0 165 42.5t103 124.5l106 -58q-42 -105 -140.5 -163.5t-234.5 -58.5q-182 0 -302.5 105.5t-120.5 264.5t120.5 264.5t302.5 105.5q136 0 234.5 -58.5t140.5 -163.5l-106 -58q-35 82 -103 124.5t-165 42.5zM492 760
h-110l123 147h177z" />
    <glyph glyph-name="cacute" unicode="&#x107;" horiz-adv-x="606" 
d="M330 433q-84 0 -136.5 -47t-52.5 -124t52.5 -124t136.5 -47q60 0 108 33t65 83l95 -57q-29 -71 -102 -116t-165 -45q-131 0 -218 77t-87 196t87 196t218 77q93 0 166.5 -45.5t101.5 -117.5l-96 -55q-17 50 -65 83t-108 33zM367 577h-102l109 141h158z" />
    <glyph glyph-name="Ccircumflex" unicode="&#x108;" horiz-adv-x="832" 
d="M449 616q-129 0 -211 -72t-82 -185t82 -185t211 -72q97 0 165 42.5t103 124.5l106 -58q-42 -105 -140.5 -163.5t-234.5 -58.5q-182 0 -302.5 105.5t-120.5 264.5t120.5 264.5t302.5 105.5q136 0 234.5 -58.5t140.5 -163.5l-106 -58q-35 82 -103 124.5t-165 42.5zM374 907
h140l146 -147h-105l-111 71l-111 -71h-105z" />
    <glyph glyph-name="ccircumflex" unicode="&#x109;" horiz-adv-x="606" 
d="M330 433q-84 0 -136.5 -47t-52.5 -124t52.5 -124t136.5 -47q60 0 108 33t65 83l95 -57q-29 -71 -102 -116t-165 -45q-131 0 -218 77t-87 196t87 196t218 77q93 0 166.5 -45.5t101.5 -117.5l-96 -55q-17 50 -65 83t-108 33zM263 718h126l129 -141h-97l-95 60l-95 -60h-97z
" />
    <glyph glyph-name="Cdotaccent" unicode="&#x10a;" horiz-adv-x="832" 
d="M449 616q-129 0 -211 -72t-82 -185t82 -185t211 -72q97 0 165 42.5t103 124.5l106 -58q-42 -105 -140.5 -163.5t-234.5 -58.5q-182 0 -302.5 105.5t-120.5 264.5t120.5 264.5t302.5 105.5q136 0 234.5 -58.5t140.5 -163.5l-106 -58q-35 82 -103 124.5t-165 42.5zM504 760
h-128v123h128v-123z" />
    <glyph glyph-name="cdotaccent" unicode="&#x10b;" horiz-adv-x="606" 
d="M330 433q-84 0 -136.5 -47t-52.5 -124t52.5 -124t136.5 -47q60 0 108 33t65 83l95 -57q-29 -71 -102 -116t-165 -45q-131 0 -218 77t-87 196t87 196t218 77q93 0 166.5 -45.5t101.5 -117.5l-96 -55q-17 50 -65 83t-108 33zM388 595h-124v123h124v-123z" />
    <glyph glyph-name="Ccaron" unicode="&#x10c;" horiz-adv-x="832" 
d="M449 616q-129 0 -211 -72t-82 -185t82 -185t211 -72q97 0 165 42.5t103 124.5l106 -58q-42 -105 -140.5 -163.5t-234.5 -58.5q-182 0 -302.5 105.5t-120.5 264.5t120.5 264.5t302.5 105.5q136 0 234.5 -58.5t140.5 -163.5l-106 -58q-35 82 -103 124.5t-165 42.5zM663 907
l-146 -147h-140l-146 147h105l111 -71l111 71h105z" />
    <glyph glyph-name="ccaron" unicode="&#x10d;" horiz-adv-x="606" 
d="M330 433q-84 0 -136.5 -47t-52.5 -124t52.5 -124t136.5 -47q60 0 108 33t65 83l95 -57q-29 -71 -102 -116t-165 -45q-131 0 -218 77t-87 196t87 196t218 77q93 0 166.5 -45.5t101.5 -117.5l-96 -55q-17 50 -65 83t-108 33zM522 718l-129 -141h-126l-129 141h97l95 -60
l95 60h97z" />
    <glyph glyph-name="Dcaron" unicode="&#x10e;" horiz-adv-x="862" 
d="M432 0h-364v718h364q185 0 295 -97.5t110 -261.5t-110 -261.5t-295 -97.5zM194 608v-498h238q127 0 200.5 67t73.5 182t-73.5 182t-201.5 67h-237zM614 907l-146 -147h-140l-146 147h105l111 -71l111 71h105z" />
    <glyph glyph-name="dcaron" unicode="&#x10f;" horiz-adv-x="696" 
d="M314 -11q-128 0 -208 77t-80 196t80 196t208 77q64 0 117.5 -20.5t86.5 -56.5v260h120v-718h-120v66q-33 -36 -86.5 -56.5t-117.5 -20.5zM524 258v8q0 72 -55.5 120.5t-137.5 48.5q-84 0 -137.5 -47.5t-53.5 -125.5t53.5 -125.5t137.5 -47.5q82 0 137.5 48.5t55.5 120.5z
M770 555h-82l27 163h136z" />
    <glyph glyph-name="Dcroat" unicode="&#x110;" horiz-adv-x="902" 
d="M472 0h-364v314h-104v110h104v294h364q185 0 295 -97.5t110 -261.5t-110 -261.5t-295 -97.5zM234 314v-204h238q127 0 200.5 67t73.5 182t-73.5 182t-201.5 67h-237v-184h169v-110h-169z" />
    <glyph glyph-name="dcroat" unicode="&#x111;" horiz-adv-x="736" 
d="M314 -11q-128 0 -208 77t-80 196t80 196t208 77q64 0 117.5 -20.5t86.5 -56.5v108h-165v95h165v57h120v-57h75v-95h-75v-566h-120v66q-33 -36 -86.5 -56.5t-117.5 -20.5zM524 258v8q0 72 -55.5 120.5t-137.5 48.5q-84 0 -137.5 -47.5t-53.5 -125.5t53.5 -125.5
t137.5 -47.5q82 0 137.5 48.5t55.5 120.5z" />
    <glyph glyph-name="Emacron" unicode="&#x112;" horiz-adv-x="796" 
d="M68 0v718h694v-112h-568v-180h511v-112h-511v-202h568v-112h-694zM604 869v-99h-384v99h384z" />
    <glyph glyph-name="emacron" unicode="&#x113;" horiz-adv-x="636" 
d="M329 -11q-133 0 -218 76.5t-85 196.5q0 118 85.5 195.5t217.5 77.5q126 0 204 -74.5t78 -191.5v-42h-471q12 -62 63.5 -99t125.5 -37q63 0 109.5 29t66.5 79l96 -51q-27 -70 -101.5 -114.5t-170.5 -44.5zM323 435q-66 0 -114 -31.5t-64 -86.5h350q-7 48 -56 83t-116 35z
M504 691v-95h-362v95h362z" />
    <glyph glyph-name="Ebreve" unicode="&#x114;" horiz-adv-x="796" 
d="M68 0v718h694v-112h-568v-180h511v-112h-511v-202h568v-112h-694zM412 840q46 0 75.5 19t29.5 48h90q0 -68 -53 -109t-142 -41t-142 41t-53 109h90q0 -29 29.5 -48t75.5 -19z" />
    <glyph glyph-name="ebreve" unicode="&#x115;" horiz-adv-x="636" 
d="M329 -11q-133 0 -218 76.5t-85 196.5q0 118 85.5 195.5t217.5 77.5q126 0 204 -74.5t78 -191.5v-42h-471q12 -62 63.5 -99t125.5 -37q63 0 109.5 29t66.5 79l96 -51q-27 -70 -101.5 -114.5t-170.5 -44.5zM323 435q-66 0 -114 -31.5t-64 -86.5h350q-7 48 -56 83t-116 35z
M326 657q45 0 70 15.5t29 45.5h82q0 -68 -48.5 -106.5t-132.5 -38.5t-132.5 38.5t-48.5 106.5h82q4 -30 29 -45.5t70 -15.5z" />
    <glyph glyph-name="Edotaccent" unicode="&#x116;" horiz-adv-x="796" 
d="M68 0v718h694v-112h-568v-180h511v-112h-511v-202h568v-112h-694zM476 760h-128v123h128v-123z" />
    <glyph glyph-name="edotaccent" unicode="&#x117;" horiz-adv-x="636" 
d="M329 -11q-133 0 -218 76.5t-85 196.5q0 118 85.5 195.5t217.5 77.5q126 0 204 -74.5t78 -191.5v-42h-471q12 -62 63.5 -99t125.5 -37q63 0 109.5 29t66.5 79l96 -51q-27 -70 -101.5 -114.5t-170.5 -44.5zM323 435q-66 0 -114 -31.5t-64 -86.5h350q-7 48 -56 83t-116 35z
M382 595h-124v123h124v-123z" />
    <glyph glyph-name="Eogonek" unicode="&#x118;" horiz-adv-x="796" 
d="M617 -186q-55 0 -90 24.5t-35 63.5q0 27 14.5 52.5t41.5 45.5h-480v718h694v-112h-568v-180h511v-112h-511v-202h568v-112h-74q-58 -19 -85 -37t-27 -39q0 -15 17 -24t47 -9q13 0 25 1.5t23 4.5v-75q-22 -4 -39.5 -6t-31.5 -2z" />
    <glyph glyph-name="eogonek" unicode="&#x119;" horiz-adv-x="636" 
d="M453 11q-43 -16 -64.5 -35t-21.5 -41q0 -20 17 -32t47 -12q13 0 25 1.5t23 4.5v-75q-22 -4 -39.5 -6t-31.5 -2q-55 0 -90 27.5t-35 71.5q0 20 8 39t23 37q-127 5 -207.5 81t-80.5 192q0 118 85.5 195.5t217.5 77.5q126 0 204 -74.5t78 -191.5v-42h-471q12 -62 63.5 -99
t125.5 -37q63 0 109.5 29t66.5 79l96 -51q-18 -45 -56.5 -81t-91.5 -56zM323 435q-65 0 -113.5 -32t-64.5 -86h350q-7 47 -56.5 82.5t-115.5 35.5z" />
    <glyph glyph-name="Ecaron" unicode="&#x11a;" horiz-adv-x="796" 
d="M68 0v718h694v-112h-568v-180h511v-112h-511v-202h568v-112h-694zM628 907l-146 -147h-140l-146 147h105l111 -71l111 71h105z" />
    <glyph glyph-name="ecaron" unicode="&#x11b;" horiz-adv-x="636" 
d="M329 -11q-133 0 -218 76.5t-85 196.5q0 118 85.5 195.5t217.5 77.5q126 0 204 -74.5t78 -191.5v-42h-471q12 -62 63.5 -99t125.5 -37q63 0 109.5 29t66.5 79l96 -51q-27 -70 -101.5 -114.5t-170.5 -44.5zM323 435q-66 0 -114 -31.5t-64 -86.5h350q-7 48 -56 83t-116 35z
M518 718l-129 -141h-126l-129 141h97l95 -60l95 60h97z" />
    <glyph glyph-name="Gcircumflex" unicode="&#x11c;" horiz-adv-x="895" 
d="M845 0h-120v92q-35 -45 -111 -74t-164 -29q-184 0 -304.5 105.5t-120.5 266.5q0 159 122 263.5t308 104.5q138 0 238 -58.5t142 -162.5l-106 -59q-35 81 -105 124t-168 43q-132 0 -215.5 -71t-83.5 -185t82 -186t211 -72q112 0 195 50t87 123h-343v112h456v-387zM385 907
h140l146 -147h-105l-111 71l-111 -71h-105z" />
    <glyph glyph-name="gcircumflex" unicode="&#x11d;" horiz-adv-x="690" 
d="M632 525v-456q0 -115 -88 -187.5t-225 -72.5q-108 0 -185.5 38t-108.5 105l96 62q19 -49 72 -78.5t123 -29.5q87 0 141.5 41.5t54.5 110.5v24q-37 -38 -88 -57.5t-114 -19.5q-128 0 -208 75.5t-80 190.5q0 114 80 189t208 75q62 0 113 -19t89 -56v65h120zM519 270v3
q0 71 -55 117t-138 46q-82 0 -135.5 -46t-53.5 -119t53.5 -119t135.5 -46q83 0 138 46t55 118zM264 718h126l129 -141h-97l-95 60l-95 -60h-97z" />
    <glyph glyph-name="Gbreve" unicode="&#x11e;" horiz-adv-x="895" 
d="M845 0h-120v92q-35 -45 -111 -74t-164 -29q-184 0 -304.5 105.5t-120.5 266.5q0 159 122 263.5t308 104.5q138 0 238 -58.5t142 -162.5l-106 -59q-35 81 -105 124t-168 43q-132 0 -215.5 -71t-83.5 -185t82 -186t211 -72q112 0 195 50t87 123h-343v112h456v-387zM455 840
q46 0 75.5 19t29.5 48h90q0 -68 -53 -109t-142 -41t-142 41t-53 109h90q0 -29 29.5 -48t75.5 -19z" />
    <glyph glyph-name="gbreve" unicode="&#x11f;" horiz-adv-x="690" 
d="M632 525v-456q0 -115 -88 -187.5t-225 -72.5q-108 0 -185.5 38t-108.5 105l96 62q19 -49 72 -78.5t123 -29.5q87 0 141.5 41.5t54.5 110.5v24q-37 -38 -88 -57.5t-114 -19.5q-128 0 -208 75.5t-80 190.5q0 114 80 189t208 75q62 0 113 -19t89 -56v65h120zM519 270v3
q0 71 -55 117t-138 46q-82 0 -135.5 -46t-53.5 -119t53.5 -119t135.5 -46q83 0 138 46t55 118zM334 657q45 0 70 15.5t29 45.5h82q0 -68 -48.5 -106.5t-132.5 -38.5t-132.5 38.5t-48.5 106.5h82q4 -30 29 -45.5t70 -15.5z" />
    <glyph glyph-name="Gdotaccent" unicode="&#x120;" horiz-adv-x="895" 
d="M845 0h-120v92q-35 -45 -111 -74t-164 -29q-184 0 -304.5 105.5t-120.5 266.5q0 159 122 263.5t308 104.5q138 0 238 -58.5t142 -162.5l-106 -59q-35 81 -105 124t-168 43q-132 0 -215.5 -71t-83.5 -185t82 -186t211 -72q112 0 195 50t87 123h-343v112h456v-387zM519 760
h-128v123h128v-123z" />
    <glyph glyph-name="gdotaccent" unicode="&#x121;" horiz-adv-x="690" 
d="M632 525v-456q0 -115 -88 -187.5t-225 -72.5q-108 0 -185.5 38t-108.5 105l96 62q19 -49 72 -78.5t123 -29.5q87 0 141.5 41.5t54.5 110.5v24q-37 -38 -88 -57.5t-114 -19.5q-128 0 -208 75.5t-80 190.5q0 114 80 189t208 75q62 0 113 -19t89 -56v65h120zM519 270v3
q0 71 -55 117t-138 46q-82 0 -135.5 -46t-53.5 -119t53.5 -119t135.5 -46q83 0 138 46t55 118zM399 595h-124v123h124v-123z" />
    <glyph glyph-name="uni0122" unicode="&#x122;" horiz-adv-x="895" 
d="M845 0h-120v92q-35 -45 -111 -74t-164 -29q-184 0 -304.5 105.5t-120.5 266.5q0 159 122 263.5t308 104.5q138 0 238 -58.5t142 -162.5l-106 -59q-35 81 -105 124t-168 43q-132 0 -215.5 -71t-83.5 -185t82 -186t211 -72q112 0 195 50t87 123h-343v112h456v-387z
M423 -117h-48v80h120v-63q0 -47 -32.5 -74t-87.5 -27v52q22 0 33.5 7.5t14.5 24.5z" />
    <glyph glyph-name="uni0123" unicode="&#x123;" horiz-adv-x="690" 
d="M632 525v-456q0 -115 -88 -187.5t-225 -72.5q-108 0 -185.5 38t-108.5 105l96 62q19 -49 72 -78.5t123 -29.5q87 0 141.5 41.5t54.5 110.5v24q-37 -38 -88 -57.5t-114 -19.5q-128 0 -208 75.5t-80 190.5q0 114 80 189t208 75q62 0 113 -19t89 -56v65h120zM519 270v3
q0 71 -55 117t-138 46q-82 0 -135.5 -46t-53.5 -119t53.5 -119t135.5 -46q83 0 138 46t55 118zM349 657h48v-80h-120v63q0 47 32.5 74t87.5 27v-52q-22 0 -33.5 -7.5t-14.5 -24.5z" />
    <glyph glyph-name="Hcircumflex" unicode="&#x124;" horiz-adv-x="880" 
d="M684 426v292h128v-718h-128v314h-488v-314h-128v718h128v-292h488zM360 907h140l146 -147h-105l-111 71l-111 -71h-105z" />
    <glyph glyph-name="hcircumflex" unicode="&#x125;" horiz-adv-x="654" 
d="M178 0h-120v718h120v-262q32 37 82.5 58t111.5 21q106 0 167 -67t61 -182v-286h-120v266q0 74 -38 116.5t-107 42.5q-74 0 -115.5 -43t-41.5 -118v-264zM245 907h140l146 -147h-105l-111 71l-111 -71h-105z" />
    <glyph glyph-name="Hbar" unicode="&#x126;" horiz-adv-x="920" 
d="M924 583v-110h-92v-473h-128v253h-488v-253h-128v473h-86v110h86v135h128v-135h488v135h128v-135h92zM216 473v-110h488v110h-488z" />
    <glyph glyph-name="hbar" unicode="&#x127;" horiz-adv-x="694" 
d="M218 0h-120v566h-75v95h75v57h120v-57h165v-95h-165v-110q32 37 82.5 58t111.5 21q106 0 167 -67t61 -182v-286h-120v266q0 74 -38 116.5t-107 42.5q-74 0 -115.5 -43t-41.5 -118v-264z" />
    <glyph glyph-name="Itilde" unicode="&#x128;" horiz-adv-x="264" 
d="M68 718h128v-718h-128v718zM31 916q27 0 52.5 -6.5t66.5 -26.5q31 -15 46 -19.5t28 -4.5q17 0 27.5 13t16.5 44h81q-5 -72 -36 -113.5t-81 -41.5q-27 0 -52.5 6.5t-66.5 26.5q-30 15 -45 19.5t-28 4.5q-18 0 -28.5 -13.5t-15.5 -43.5h-81q4 72 35 113.5t81 41.5z" />
    <glyph glyph-name="itilde" unicode="&#x129;" horiz-adv-x="236" 
d="M58 525h120v-525h-120v525zM36 725q22 0 43 -6.5t54 -26.5q23 -14 34.5 -18t21.5 -4q15 0 24 12.5t14 42.5h76q-4 -69 -31.5 -108.5t-72.5 -39.5q-22 0 -43.5 6.5t-54.5 26.5q-23 13 -34 17t-21 4q-15 0 -24 -12t-14 -42h-76q4 69 31.5 108.5t72.5 39.5z" />
    <glyph glyph-name="Imacron" unicode="&#x12a;" horiz-adv-x="264" 
d="M68 718h128v-718h-128v718zM324 869v-99h-384v99h384z" />
    <glyph glyph-name="imacron" unicode="&#x12b;" horiz-adv-x="236" 
d="M58 525h120v-525h-120v525zM299 691v-95h-362v95h362z" />
    <glyph glyph-name="Ibreve" unicode="&#x12c;" horiz-adv-x="264" 
d="M68 718h128v-718h-128v718zM132 840q46 0 75.5 19t29.5 48h90q0 -68 -53 -109t-142 -41t-142 41t-53 109h90q0 -29 29.5 -48t75.5 -19z" />
    <glyph glyph-name="ibreve" unicode="&#x12d;" horiz-adv-x="236" 
d="M58 525h120v-525h-120v525zM118 657q45 0 70 15.5t29 45.5h82q0 -68 -48.5 -106.5t-132.5 -38.5t-132.5 38.5t-48.5 106.5h82q4 -30 29 -45.5t70 -15.5z" />
    <glyph glyph-name="Iogonek" unicode="&#x12e;" horiz-adv-x="264" 
d="M125 -186q-55 0 -90 24.5t-35 63.5q0 30 17.5 57.5t50.5 48.5v710h128v-718q-58 -19 -85 -37t-27 -39q0 -15 17 -24t47 -9q13 0 25 1.5t23 4.5v-75q-22 -4 -39.5 -6t-31.5 -2z" />
    <glyph glyph-name="iogonek" unicode="&#x12f;" horiz-adv-x="236" 
d="M180 595h-124v123h124v-123zM118 -186q-55 0 -90 24.5t-35 63.5q0 29 16.5 56t48.5 48v519h120v-513l11 -12q-58 -19 -85 -37t-27 -39q0 -15 17 -24t47 -9q13 0 25 1.5t23 4.5v-75q-22 -4 -39.5 -6t-31.5 -2z" />
    <glyph glyph-name="Idotaccent" unicode="&#x130;" horiz-adv-x="264" 
d="M68 718h128v-718h-128v718zM196 760h-128v123h128v-123z" />
    <glyph glyph-name="dotlessi" unicode="&#x131;" horiz-adv-x="236" 
d="M58 525h120v-525h-120v525z" />
    <glyph glyph-name="Jcircumflex" unicode="&#x134;" horiz-adv-x="705" 
d="M334 -11q-119 0 -212 59.5t-122 153.5l118 63q16 -71 76.5 -117.5t139.5 -46.5q94 0 145.5 44.5t51.5 125.5v447h128v-450q0 -124 -90 -201.5t-235 -77.5zM522 907h140l146 -147h-105l-111 71l-111 -71h-105z" />
    <glyph glyph-name="jcircumflex" unicode="&#x135;" horiz-adv-x="236" 
d="M-41 -85q53 0 76 22.5t23 72.5v515h120v-509q0 -101 -54 -152.5t-158 -51.5q-27 0 -58 5.5t-50 12.5l18 99q26 -8 43.5 -11t39.5 -3zM55 718h126l129 -141h-97l-95 60l-95 -60h-97z" />
    <glyph glyph-name="uni0136" unicode="&#x136;" horiz-adv-x="818" 
d="M68 718h128v-360l431 360h182l-381 -307l404 -411h-172l-325 336l-139 -111v-225h-128v718zM410 -117h-48v80h120v-63q0 -47 -32.5 -74t-87.5 -27v52q22 0 33.5 7.5t14.5 24.5z" />
    <glyph glyph-name="uni0137" unicode="&#x137;" horiz-adv-x="652" 
d="M58 718h120v-456l311 263h168l-279 -230l290 -295h-154l-222 224l-114 -94v-130h-120v718zM331 -117h-48v80h120v-63q0 -47 -32.5 -74t-87.5 -27v52q22 0 33.5 7.5t14.5 24.5z" />
    <glyph glyph-name="kgreenlandic" unicode="&#x138;" horiz-adv-x="652" 
d="M58 525h120v-263l311 263h168l-279 -230l290 -295h-154l-222 224l-114 -94v-130h-120v525z" />
    <glyph glyph-name="Lacute" unicode="&#x139;" horiz-adv-x="743" 
d="M720 0h-652v718h128v-606h524v-112zM189 760h-110l123 147h177z" />
    <glyph glyph-name="lacute" unicode="&#x13a;" horiz-adv-x="236" 
d="M58 718h120v-718h-120v718zM178 760h-110l123 147h177z" />
    <glyph glyph-name="uni013B" unicode="&#x13b;" horiz-adv-x="743" 
d="M720 0h-652v718h128v-606h524v-112zM294 -117h-48v80h120v-63q0 -47 -32.5 -74t-87.5 -27v52q22 0 33.5 7.5t14.5 24.5z" />
    <glyph glyph-name="uni013C" unicode="&#x13c;" horiz-adv-x="236" 
d="M58 718h120v-718h-120v718zM106 -117h-48v80h120v-63q0 -47 -32.5 -74t-87.5 -27v52q22 0 33.5 7.5t14.5 24.5z" />
    <glyph glyph-name="Lcaron" unicode="&#x13d;" horiz-adv-x="743" 
d="M720 0h-652v718h128v-606h524v-112zM418 555h-82l27 163h136z" />
    <glyph glyph-name="lcaron" unicode="&#x13e;" horiz-adv-x="236" 
d="M58 718h120v-718h-120v718zM310 555h-82l27 163h136z" />
    <glyph glyph-name="Ldot" unicode="&#x13f;" horiz-adv-x="743" 
d="M720 0h-652v718h128v-606h524v-112zM565 302h-124v123h124v-123z" />
    <glyph glyph-name="ldot" unicode="&#x140;" horiz-adv-x="406" 
d="M58 718h120v-718h-120v718zM383 302h-124v123h124v-123z" />
    <glyph glyph-name="Lslash" unicode="&#x141;" horiz-adv-x="763" 
d="M740 0h-652v249l-97 -37v107l97 37v362h128v-319l215 82v-108l-215 -81v-180h524v-112z" />
    <glyph glyph-name="lslash" unicode="&#x142;" horiz-adv-x="336" 
d="M334 531v-110l-106 -52v-369h-120v319l-104 -51v110l104 51v289h120v-239z" />
    <glyph glyph-name="Nacute" unicode="&#x143;" horiz-adv-x="861" 
d="M670 718h123v-718h-112l-490 557v-557h-123v718h132l470 -533v533zM462 760h-110l123 147h177z" />
    <glyph glyph-name="nacute" unicode="&#x144;" horiz-adv-x="654" 
d="M178 0h-120v525h120v-69q32 37 82.5 58t111.5 21q106 0 167 -67t61 -182v-286h-120v266q0 74 -38 116.5t-107 42.5q-74 0 -115.5 -43t-41.5 -118v-264zM379 577h-102l109 141h158z" />
    <glyph glyph-name="uni0145" unicode="&#x145;" horiz-adv-x="861" 
d="M670 718h123v-718h-112l-490 557v-557h-123v718h132l470 -533v533zM413 -117h-48v80h120v-63q0 -47 -32.5 -74t-87.5 -27v52q22 0 33.5 7.5t14.5 24.5z" />
    <glyph glyph-name="uni0146" unicode="&#x146;" horiz-adv-x="654" 
d="M178 0h-120v525h120v-69q32 37 82.5 58t111.5 21q106 0 167 -67t61 -182v-286h-120v266q0 74 -38 116.5t-107 42.5q-74 0 -115.5 -43t-41.5 -118v-264zM317 -117h-48v80h120v-63q0 -47 -32.5 -74t-87.5 -27v52q22 0 33.5 7.5t14.5 24.5z" />
    <glyph glyph-name="Ncaron" unicode="&#x147;" horiz-adv-x="861" 
d="M670 718h123v-718h-112l-490 557v-557h-123v718h132l470 -533v533zM641 907l-146 -147h-140l-146 147h105l111 -71l111 71h105z" />
    <glyph glyph-name="ncaron" unicode="&#x148;" horiz-adv-x="654" 
d="M178 0h-120v525h120v-69q32 37 82.5 58t111.5 21q106 0 167 -67t61 -182v-286h-120v266q0 74 -38 116.5t-107 42.5q-74 0 -115.5 -43t-41.5 -118v-264zM521 718l-129 -141h-126l-129 141h97l95 -60l95 60h97z" />
    <glyph glyph-name="Eng" unicode="&#x14a;" horiz-adv-x="861" 
d="M670 185v533h123v-702q0 -101 -54 -152.5t-158 -51.5q-27 0 -58 5.5t-50 12.5l18 99q26 -8 43.5 -11t39.5 -3q50 0 74.5 21.5t24.5 64.5v8l-482 541v-550h-123v718h132z" />
    <glyph glyph-name="eng" unicode="&#x14b;" horiz-adv-x="654" 
d="M372 535q106 0 167 -67t61 -182v-270q0 -101 -54 -152.5t-158 -51.5q-27 0 -58 5.5t-50 12.5l18 99q26 -8 43.5 -11t39.5 -3q53 0 76 22.5t23 72.5v256q0 74 -38 116.5t-107 42.5q-74 0 -115.5 -43t-41.5 -118v-264h-120v525h120v-69q32 37 82.5 58t111.5 21z" />
    <glyph glyph-name="Omacron" unicode="&#x14c;" horiz-adv-x="892" 
d="M25 359q0 160 119.5 265t301.5 105t301.5 -105t119.5 -265t-119.5 -265t-301.5 -105t-301.5 105t-119.5 265zM736 359q0 115 -80 186t-210 71t-210 -71t-80 -186t80 -186t210 -71t210 71t80 186zM638 869v-99h-384v99h384z" />
    <glyph glyph-name="omacron" unicode="&#x14d;" horiz-adv-x="651" 
d="M326 535q128 0 213.5 -77t85.5 -196t-85.5 -196t-213.5 -77q-129 0 -214.5 77t-85.5 196t85.5 196t214.5 77zM326 432q-82 0 -133.5 -47t-51.5 -123t51.5 -123t133.5 -47q81 0 132.5 47t51.5 123t-51.5 123t-132.5 47zM506 691v-95h-362v95h362z" />
    <glyph glyph-name="Obreve" unicode="&#x14e;" horiz-adv-x="892" 
d="M25 359q0 160 119.5 265t301.5 105t301.5 -105t119.5 -265t-119.5 -265t-301.5 -105t-301.5 105t-119.5 265zM736 359q0 115 -80 186t-210 71t-210 -71t-80 -186t80 -186t210 -71t210 71t80 186zM446 840q46 0 75.5 19t29.5 48h90q0 -68 -53 -109t-142 -41t-142 41
t-53 109h90q0 -29 29.5 -48t75.5 -19z" />
    <glyph glyph-name="obreve" unicode="&#x14f;" horiz-adv-x="651" 
d="M326 535q128 0 213.5 -77t85.5 -196t-85.5 -196t-213.5 -77q-129 0 -214.5 77t-85.5 196t85.5 196t214.5 77zM326 432q-82 0 -133.5 -47t-51.5 -123t51.5 -123t133.5 -47q81 0 132.5 47t51.5 123t-51.5 123t-132.5 47zM325 657q45 0 70 15.5t29 45.5h82
q0 -68 -48.5 -106.5t-132.5 -38.5t-132.5 38.5t-48.5 106.5h82q4 -30 29 -45.5t70 -15.5z" />
    <glyph glyph-name="Ohungarumlaut" unicode="&#x150;" horiz-adv-x="892" 
d="M25 359q0 160 119.5 265t301.5 105t301.5 -105t119.5 -265t-119.5 -265t-301.5 -105t-301.5 105t-119.5 265zM736 359q0 115 -80 186t-210 71t-210 -71t-80 -186t80 -186t210 -71t210 71t80 186zM603 760h-93l96 147h149zM375 760h-93l87 147h158z" />
    <glyph glyph-name="ohungarumlaut" unicode="&#x151;" horiz-adv-x="651" 
d="M326 535q128 0 213.5 -77t85.5 -196t-85.5 -196t-213.5 -77q-129 0 -214.5 77t-85.5 196t85.5 196t214.5 77zM326 432q-82 0 -133.5 -47t-51.5 -123t51.5 -123t133.5 -47q81 0 132.5 47t51.5 123t-51.5 123t-132.5 47zM459 577h-90l94 141h136zM254 577h-90l94 141h136z
" />
    <glyph glyph-name="OE" unicode="&#x152;" horiz-adv-x="1362" 
d="M30 359q0 164 110 261.5t295 97.5h893v-112h-548v-180h491v-112h-491v-202h548v-112h-893q-185 0 -295 97.5t-110 261.5zM654 110v498h-218q-128 0 -201.5 -67t-73.5 -182t73.5 -182t200.5 -67h219z" />
    <glyph glyph-name="oe" unicode="&#x153;" horiz-adv-x="1120" 
d="M989 199l96 -51q-27 -70 -101.5 -114.5t-170.5 -44.5q-77 0 -141 29t-105 83q-40 -53 -103 -82.5t-138 -29.5q-129 0 -214.5 77t-85.5 196t85.5 196t214.5 77q74 0 137.5 -29.5t104.5 -83.5q41 54 104.5 83.5t140.5 29.5q126 0 204 -74.5t78 -191.5v-42h-471
q12 -62 63.5 -99t125.5 -37q63 0 109.5 29t66.5 79zM807 435q-65 0 -113.5 -32t-64.5 -86h350q-7 47 -56.5 82.5t-115.5 35.5zM141 262q0 -76 51.5 -123t133.5 -47q81 0 132.5 47t51.5 123t-51.5 123t-132.5 47q-82 0 -133.5 -47t-51.5 -123z" />
    <glyph glyph-name="Racute" unicode="&#x154;" horiz-adv-x="802" 
d="M477 278h-281v-278h-128v718h447q124 0 194.5 -58t70.5 -162q0 -80 -43.5 -134t-124.5 -75l186 -289h-146zM196 608v-220h312q69 0 107.5 29t38.5 81q0 53 -38 81.5t-108 28.5h-312zM433 760h-110l123 147h177z" />
    <glyph glyph-name="racute" unicode="&#x155;" horiz-adv-x="449" 
d="M379 528q15 0 29.5 -2t29.5 -6v-120q-25 6 -36 7.5t-26 1.5q-98 0 -148 -44.5t-50 -131.5v-233h-120v525h120v-95q31 49 81 73.5t120 24.5zM285 577h-102l109 141h158z" />
    <glyph glyph-name="uni0156" unicode="&#x156;" horiz-adv-x="802" 
d="M477 278h-281v-278h-128v718h447q124 0 194.5 -58t70.5 -162q0 -80 -43.5 -134t-124.5 -75l186 -289h-146zM196 608v-220h312q69 0 107.5 29t38.5 81q0 53 -38 81.5t-108 28.5h-312zM373 -117h-48v80h120v-63q0 -47 -32.5 -74t-87.5 -27v52q22 0 33.5 7.5t14.5 24.5z" />
    <glyph glyph-name="uni0157" unicode="&#x157;" horiz-adv-x="449" 
d="M379 528q15 0 29.5 -2t29.5 -6v-120q-25 6 -36 7.5t-26 1.5q-98 0 -148 -44.5t-50 -131.5v-233h-120v525h120v-95q31 49 81 73.5t120 24.5zM106 -117h-48v80h120v-63q0 -47 -32.5 -74t-87.5 -27v52q22 0 33.5 7.5t14.5 24.5z" />
    <glyph glyph-name="Rcaron" unicode="&#x158;" horiz-adv-x="802" 
d="M477 278h-281v-278h-128v718h447q124 0 194.5 -58t70.5 -162q0 -80 -43.5 -134t-124.5 -75l186 -289h-146zM196 608v-220h312q69 0 107.5 29t38.5 81q0 53 -38 81.5t-108 28.5h-312zM614 907l-146 -147h-140l-146 147h105l111 -71l111 71h105z" />
    <glyph glyph-name="rcaron" unicode="&#x159;" horiz-adv-x="449" 
d="M379 528q15 0 29.5 -2t29.5 -6v-120q-25 6 -36 7.5t-26 1.5q-98 0 -148 -44.5t-50 -131.5v-233h-120v525h120v-95q31 49 81 73.5t120 24.5zM443 718l-129 -141h-126l-129 141h97l95 -60l95 60h97z" />
    <glyph glyph-name="Sacute" unicode="&#x15a;" horiz-adv-x="768" 
d="M399 -11q-133 0 -245.5 50t-162.5 132l92 85q51 -76 134 -116t185 -40q98 0 160 30t62 77q0 38 -24 56.5t-89 29.5q-20 3 -49 7t-108 13q-184 21 -248.5 64.5t-64.5 126.5q0 100 90.5 162.5t237.5 62.5q120 0 219.5 -42t144.5 -112l-92 -77q-39 58 -111 89t-166 31
t-148 -27.5t-54 -73.5q0 -40 42.5 -58t191.5 -35q91 -10 140 -19t83 -20q68 -23 99 -62t31 -101q0 -107 -96 -170t-254 -63zM433 760h-110l123 147h177z" />
    <glyph glyph-name="sacute" unicode="&#x15b;" horiz-adv-x="574" 
d="M303 -11q-102 0 -183 32t-124 90l85 77q39 -50 93.5 -75t127.5 -25q68 0 103.5 16.5t35.5 47.5q0 22 -15 32.5t-57 17.5q-18 3 -56.5 7.5t-41.5 4.5q-142 18 -191.5 52t-49.5 99q0 76 68 123t180 47q87 0 159.5 -29.5t109.5 -78.5l-77 -74q-30 40 -81.5 61.5t-115.5 21.5
q-62 0 -95 -15.5t-33 -44.5q0 -22 23 -32.5t131 -23.5q71 -9 106 -15.5t60 -16.5q48 -17 71 -47.5t23 -76.5q0 -80 -71.5 -127.5t-184.5 -47.5zM335 577h-102l109 141h158z" />
    <glyph glyph-name="Scircumflex" unicode="&#x15c;" horiz-adv-x="768" 
d="M399 -11q-133 0 -245.5 50t-162.5 132l92 85q51 -76 134 -116t185 -40q98 0 160 30t62 77q0 38 -24 56.5t-89 29.5q-20 3 -49 7t-108 13q-184 21 -248.5 64.5t-64.5 126.5q0 100 90.5 162.5t237.5 62.5q120 0 219.5 -42t144.5 -112l-92 -77q-39 58 -111 89t-166 31
t-148 -27.5t-54 -73.5q0 -40 42.5 -58t191.5 -35q91 -10 140 -19t83 -20q68 -23 99 -62t31 -101q0 -107 -96 -170t-254 -63zM310 907h140l146 -147h-105l-111 71l-111 -71h-105z" />
    <glyph glyph-name="scircumflex" unicode="&#x15d;" horiz-adv-x="574" 
d="M303 -11q-102 0 -183 32t-124 90l85 77q39 -50 93.5 -75t127.5 -25q68 0 103.5 16.5t35.5 47.5q0 22 -15 32.5t-57 17.5q-18 3 -56.5 7.5t-41.5 4.5q-142 18 -191.5 52t-49.5 99q0 76 68 123t180 47q87 0 159.5 -29.5t109.5 -78.5l-77 -74q-30 40 -81.5 61.5t-115.5 21.5
q-62 0 -95 -15.5t-33 -44.5q0 -22 23 -32.5t131 -23.5q71 -9 106 -15.5t60 -16.5q48 -17 71 -47.5t23 -76.5q0 -80 -71.5 -127.5t-184.5 -47.5zM218 718h126l129 -141h-97l-95 60l-95 -60h-97z" />
    <glyph glyph-name="Scedilla" unicode="&#x15e;" horiz-adv-x="768" 
d="M-9 171l92 85q51 -76 134 -116t185 -40q98 0 160 30t62 77q0 38 -24 56.5t-89 29.5q-20 3 -49 7t-108 13q-184 21 -248.5 64.5t-64.5 126.5q0 100 90.5 162.5t237.5 62.5q120 0 219.5 -42t144.5 -112l-92 -77q-39 58 -111 89t-166 31t-148 -27.5t-54 -73.5
q0 -40 42.5 -58t191.5 -35q91 -10 140 -19t83 -20q68 -23 99 -62t31 -101q0 -107 -95.5 -170t-250.5 -63l-3 -10q47 -3 76 -25t29 -55q0 -39 -39 -64t-99 -25q-41 0 -76 9.5t-57 26.5l42 61q18 -14 39 -21t48 -7q30 0 44 6.5t14 19.5q0 14 -21 21t-75 9l17 57
q-116 10 -211 58.5t-140 120.5z" />
    <glyph glyph-name="scedilla" unicode="&#x15f;" horiz-adv-x="574" 
d="M-4 111l85 77q39 -50 93.5 -75t127.5 -25q68 0 103.5 16.5t35.5 47.5q0 22 -15 32.5t-57 17.5q-18 3 -56.5 7.5t-41.5 4.5q-142 18 -191.5 52t-49.5 99q0 76 68 123t180 47q87 0 159.5 -29.5t109.5 -78.5l-77 -74q-30 40 -81.5 61.5t-115.5 21.5q-62 0 -95 -15.5
t-33 -44.5q0 -22 23 -32.5t131 -23.5q71 -9 106 -15.5t60 -16.5q48 -17 71 -47.5t23 -76.5q0 -80 -71.5 -127.5t-184.5 -47.5h-14l-3 -10q47 -3 76 -25t29 -55q0 -39 -39 -64t-99 -25q-41 0 -76 9.5t-57 26.5l42 61q18 -14 39 -21t48 -7q30 0 44 6.5t14 19.5q0 14 -21 21
t-75 9l18 59q-78 10 -138 40t-95 77z" />
    <glyph glyph-name="Scaron" unicode="&#x160;" horiz-adv-x="768" 
d="M399 -11q-133 0 -245.5 50t-162.5 132l92 85q51 -76 134 -116t185 -40q98 0 160 30t62 77q0 38 -24 56.5t-89 29.5q-20 3 -49 7t-108 13q-184 21 -248.5 64.5t-64.5 126.5q0 100 90.5 162.5t237.5 62.5q120 0 219.5 -42t144.5 -112l-92 -77q-39 58 -111 89t-166 31
t-148 -27.5t-54 -73.5q0 -40 42.5 -58t191.5 -35q91 -10 140 -19t83 -20q68 -23 99 -62t31 -101q0 -107 -96 -170t-254 -63zM596 907l-146 -147h-140l-146 147h105l111 -71l111 71h105z" />
    <glyph glyph-name="scaron" unicode="&#x161;" horiz-adv-x="574" 
d="M303 -11q-102 0 -183 32t-124 90l85 77q39 -50 93.5 -75t127.5 -25q68 0 103.5 16.5t35.5 47.5q0 22 -15 32.5t-57 17.5q-18 3 -56.5 7.5t-41.5 4.5q-142 18 -191.5 52t-49.5 99q0 76 68 123t180 47q87 0 159.5 -29.5t109.5 -78.5l-77 -74q-30 40 -81.5 61.5t-115.5 21.5
q-62 0 -95 -15.5t-33 -44.5q0 -22 23 -32.5t131 -23.5q71 -9 106 -15.5t60 -16.5q48 -17 71 -47.5t23 -76.5q0 -80 -71.5 -127.5t-184.5 -47.5zM478 718l-129 -141h-126l-129 141h97l95 -60l95 60h97z" />
    <glyph glyph-name="uni0162" unicode="&#x162;" horiz-adv-x="812" 
d="M532 -101q0 -39 -39 -64t-99 -25q-41 0 -76 9.5t-57 26.5l42 61q18 -14 39 -21t48 -7q30 0 44 6.5t14 19.5q0 14 -21 21t-75 9l19 65h-29v606h-324v112h776v-112h-324v-606h-37l-6 -21q47 -3 76 -25t29 -55z" />
    <glyph glyph-name="uni0163" unicode="&#x163;" horiz-adv-x="518" 
d="M131 180v243h-132v102h132v154h118v-154h231v-102h-231v-232q0 -48 26.5 -68.5t89.5 -20.5q24 0 48.5 4.5t66.5 17.5l20 -102q-32 -12 -75.5 -20t-80.5 -8h-18.5t-11.5 1l-5 -16q47 -3 76 -25t29 -55q0 -39 -39 -64t-99 -25q-41 0 -76 9.5t-57 26.5l42 61q18 -14 39 -21
t48 -7q30 0 44 6.5t14 19.5q0 14 -21 21t-75 9l21 71q-61 17 -92.5 61t-31.5 113z" />
    <glyph glyph-name="Tcaron" unicode="&#x164;" horiz-adv-x="812" 
d="M794 718v-112h-324v-606h-128v606h-324v112h776zM622 907l-146 -147h-140l-146 147h105l111 -71l111 71h105z" />
    <glyph glyph-name="tcaron" unicode="&#x165;" horiz-adv-x="518" 
d="M344 -6q-103 0 -158 47.5t-55 138.5v243h-132v102h132v154h118v-154h231v-102h-231v-232q0 -48 26.5 -68.5t89.5 -20.5q24 0 48.5 4.5t66.5 17.5l20 -102q-32 -12 -75.5 -20t-80.5 -8zM381 575h-82l27 163h136z" />
    <glyph glyph-name="Tbar" unicode="&#x166;" horiz-adv-x="812" 
d="M630 425v-112h-160v-313h-128v313h-160v112h160v181h-324v112h776v-112h-324v-181h160z" />
    <glyph glyph-name="tbar" unicode="&#x167;" horiz-adv-x="518" 
d="M344 -6q-103 0 -158 47.5t-55 138.5v59h-130v102h130v82h-132v102h132v154h118v-154h231v-102h-231v-82h231v-102h-231v-48q0 -48 26.5 -68.5t89.5 -20.5q24 0 48.5 4.5t66.5 17.5l20 -102q-32 -12 -75.5 -20t-80.5 -8z" />
    <glyph glyph-name="Utilde" unicode="&#x168;" horiz-adv-x="820" 
d="M410 -10q-177 0 -270.5 92.5t-93.5 264.5v371h128v-367q0 -125 58.5 -186.5t177.5 -61.5t177.5 61.5t58.5 186.5v367h128v-371q0 -172 -93.5 -264.5t-270.5 -92.5zM309 916q27 0 52.5 -6.5t66.5 -26.5q31 -15 46 -19.5t28 -4.5q17 0 27.5 13t16.5 44h81
q-5 -72 -36 -113.5t-81 -41.5q-27 0 -52.5 6.5t-66.5 26.5q-30 15 -45 19.5t-28 4.5q-18 0 -28.5 -13.5t-15.5 -43.5h-81q4 72 35 113.5t81 41.5z" />
    <glyph glyph-name="utilde" unicode="&#x169;" horiz-adv-x="649" 
d="M471 525h120v-525h-120v68q-33 -38 -81.5 -58.5t-107.5 -20.5q-105 0 -166.5 66t-61.5 178v292h120v-279q0 -72 36 -110t106 -38q74 0 114.5 42t40.5 117v268zM241 725q22 0 43 -6.5t54 -26.5q23 -14 34.5 -18t21.5 -4q15 0 24 12.5t14 42.5h76q-4 -69 -31.5 -108.5
t-72.5 -39.5q-22 0 -43.5 6.5t-54.5 26.5q-23 13 -34 17t-21 4q-15 0 -24 -12t-14 -42h-76q4 69 31.5 108.5t72.5 39.5z" />
    <glyph glyph-name="Umacron" unicode="&#x16a;" horiz-adv-x="820" 
d="M410 -10q-177 0 -270.5 92.5t-93.5 264.5v371h128v-367q0 -125 58.5 -186.5t177.5 -61.5t177.5 61.5t58.5 186.5v367h128v-371q0 -172 -93.5 -264.5t-270.5 -92.5zM602 869v-99h-384v99h384z" />
    <glyph glyph-name="umacron" unicode="&#x16b;" horiz-adv-x="649" 
d="M471 525h120v-525h-120v68q-33 -38 -81.5 -58.5t-107.5 -20.5q-105 0 -166.5 66t-61.5 178v292h120v-279q0 -72 36 -110t106 -38q74 0 114.5 42t40.5 117v268zM503 691v-95h-362v95h362z" />
    <glyph glyph-name="Ubreve" unicode="&#x16c;" horiz-adv-x="820" 
d="M410 -10q-177 0 -270.5 92.5t-93.5 264.5v371h128v-367q0 -125 58.5 -186.5t177.5 -61.5t177.5 61.5t58.5 186.5v367h128v-371q0 -172 -93.5 -264.5t-270.5 -92.5zM410 840q46 0 75.5 19t29.5 48h90q0 -68 -53 -109t-142 -41t-142 41t-53 109h90q0 -29 29.5 -48t75.5 -19
z" />
    <glyph glyph-name="ubreve" unicode="&#x16d;" horiz-adv-x="649" 
d="M471 525h120v-525h-120v68q-33 -38 -81.5 -58.5t-107.5 -20.5q-105 0 -166.5 66t-61.5 178v292h120v-279q0 -72 36 -110t106 -38q74 0 114.5 42t40.5 117v268zM322 657q45 0 70 15.5t29 45.5h82q0 -68 -48.5 -106.5t-132.5 -38.5t-132.5 38.5t-48.5 106.5h82
q4 -30 29 -45.5t70 -15.5z" />
    <glyph glyph-name="Uring" unicode="&#x16e;" horiz-adv-x="820" 
d="M410 -10q-177 0 -270.5 92.5t-93.5 264.5v371h128v-367q0 -125 58.5 -186.5t177.5 -61.5t177.5 61.5t58.5 186.5v367h128v-371q0 -172 -93.5 -264.5t-270.5 -92.5zM410 730q-55 0 -92 36.5t-37 88.5t37 87.5t92 35.5q56 0 92.5 -35.5t36.5 -87.5q0 -53 -37 -89t-92 -36z
M410 908q-23 0 -37.5 -15t-14.5 -38q0 -24 14.5 -38.5t37.5 -14.5t37.5 14.5t14.5 38.5q0 23 -14.5 38t-37.5 15z" />
    <glyph glyph-name="uring" unicode="&#x16f;" horiz-adv-x="649" 
d="M471 525h120v-525h-120v68q-33 -38 -81.5 -58.5t-107.5 -20.5q-105 0 -166.5 66t-61.5 178v292h120v-279q0 -72 36 -110t106 -38q74 0 114.5 42t40.5 117v268zM322 561q-47 0 -79 31t-32 76t32 75.5t79 30.5t79 -30.5t32 -75.5t-32 -76t-79 -31zM322 716q-20 0 -33.5 -14
t-13.5 -34t13.5 -34t33.5 -14t33.5 14t13.5 34t-13.5 34t-33.5 14z" />
    <glyph glyph-name="Uhungarumlaut" unicode="&#x170;" horiz-adv-x="820" 
d="M410 -10q-177 0 -270.5 92.5t-93.5 264.5v371h128v-367q0 -125 58.5 -186.5t177.5 -61.5t177.5 61.5t58.5 186.5v367h128v-371q0 -172 -93.5 -264.5t-270.5 -92.5zM558 760h-93l96 147h149zM330 760h-93l87 147h158z" />
    <glyph glyph-name="uhungarumlaut" unicode="&#x171;" horiz-adv-x="649" 
d="M471 525h120v-525h-120v68q-33 -38 -81.5 -58.5t-107.5 -20.5q-105 0 -166.5 66t-61.5 178v292h120v-279q0 -72 36 -110t106 -38q74 0 114.5 42t40.5 117v268zM444 577h-90l94 141h136zM239 577h-90l94 141h136z" />
    <glyph glyph-name="Uogonek" unicode="&#x172;" horiz-adv-x="820" 
d="M525 2q-54 -12 -83 -32t-29 -44q0 -16 17 -25.5t47 -9.5q13 0 25 1.5t23 4.5v-75q-22 -4 -39.5 -6t-31.5 -2q-55 0 -90 25t-35 65q0 23 10.5 45.5t29.5 41.5q-158 11 -240.5 102t-82.5 254v371h128v-367q0 -126 58.5 -187t177.5 -61t177.5 61t58.5 187v367h128v-371
q0 -142 -63.5 -230t-185.5 -115z" />
    <glyph glyph-name="uogonek" unicode="&#x173;" horiz-adv-x="649" 
d="M520 -186q-55 0 -90 24.5t-35 63.5q0 32 19.5 60.5t56.5 50.5v55q-33 -38 -81.5 -58.5t-107.5 -20.5q-105 0 -166.5 66t-61.5 178v292h120v-279q0 -72 36 -110t106 -38q74 0 114.5 42t40.5 117v268h120v-525q-58 -19 -85 -37t-27 -39q0 -15 17 -24t47 -9q13 0 25 1.5
t23 4.5v-75q-22 -4 -39.5 -6t-31.5 -2z" />
    <glyph glyph-name="Wcircumflex" unicode="&#x174;" horiz-adv-x="1183" 
d="M330 129l193 589h139l192 -589l202 589h133l-256 -718h-154l-187 580l-189 -580h-154l-255 718h134zM522 907h140l146 -147h-105l-111 71l-111 -71h-105z" />
    <glyph glyph-name="wcircumflex" unicode="&#x175;" horiz-adv-x="896" 
d="M502 525l135 -376l136 376h123l-206 -525h-104l-138 367l-137 -367h-104l-207 525h127l139 -376l134 376h102zM385 718h126l129 -141h-97l-95 60l-95 -60h-97z" />
    <glyph glyph-name="Ycircumflex" unicode="&#x176;" horiz-adv-x="835" 
d="M148 718l271 -305l270 305h156l-363 -406v-312h-128v312l-364 406h158zM351 907h140l146 -147h-105l-111 71l-111 -71h-105z" />
    <glyph glyph-name="ycircumflex" unicode="&#x177;" horiz-adv-x="642" 
d="M642 525l-281 -574q-36 -73 -85.5 -106t-127.5 -33q-28 0 -60.5 6.5t-48.5 15.5l24 101q21 -11 39.5 -15.5t38.5 -4.5q45 0 73 19t43 59l6 18l-263 514h133l192 -393l187 393h130zM258 718h126l129 -141h-97l-95 60l-95 -60h-97z" />
    <glyph glyph-name="Ydieresis" unicode="&#x178;" horiz-adv-x="835" 
d="M148 718l271 -305l270 305h156l-363 -406v-312h-128v312l-364 406h158zM358 760h-128v123h128v-123zM612 760h-128v123h128v-123z" />
    <glyph glyph-name="Zacute" unicode="&#x179;" horiz-adv-x="787" 
d="M216 112h532v-112h-711v99l527 507h-523v112h703v-99zM428 760h-110l123 147h177z" />
    <glyph glyph-name="zacute" unicode="&#x17a;" horiz-adv-x="616" 
d="M198 102h384v-102h-547v90l379 333h-375v102h540v-91zM345 577h-102l109 141h158z" />
    <glyph glyph-name="Zdotaccent" unicode="&#x17b;" horiz-adv-x="787" 
d="M216 112h532v-112h-711v99l527 507h-523v112h703v-99zM456 760h-128v123h128v-123z" />
    <glyph glyph-name="zdotaccent" unicode="&#x17c;" horiz-adv-x="616" 
d="M198 102h384v-102h-547v90l379 333h-375v102h540v-91zM370 595h-124v123h124v-123z" />
    <glyph glyph-name="Zcaron" unicode="&#x17d;" horiz-adv-x="787" 
d="M216 112h532v-112h-711v99l527 507h-523v112h703v-99zM608 907l-146 -147h-140l-146 147h105l111 -71l111 71h105z" />
    <glyph glyph-name="zcaron" unicode="&#x17e;" horiz-adv-x="616" 
d="M198 102h384v-102h-547v90l379 333h-375v102h540v-91zM500 718l-129 -141h-126l-129 141h97l95 -60l95 60h97z" />
    <glyph glyph-name="florin" unicode="&#x192;" horiz-adv-x="818" 
d="M470 342l-25 -135q-19 -109 -82.5 -163.5t-171.5 -54.5q-58 0 -109 15t-82 41l53 91q26 -21 62 -33t71 -12q55 0 88.5 31t44.5 92l23 128h-147v86h163l15 83q19 109 82.5 163.5t171.5 54.5q58 0 109.5 -15t81.5 -41l-53 -91q-25 21 -61 33t-72 12q-55 0 -88.5 -31
t-44.5 -92l-14 -76h157v-86h-172z" />
    <glyph glyph-name="AEacute" unicode="&#x1fc;" horiz-adv-x="1408" 
d="M-12 0l644 718h742v-112h-568v-180h511v-112h-511v-202h568v-112h-694v176h-377l-156 -176h-159zM680 600l-277 -312h277v312zM1008 760h-110l123 147h177z" />
    <glyph glyph-name="aeacute" unicode="&#x1fd;" horiz-adv-x="1065" 
d="M25 152q0 76 63.5 120.5t175.5 44.5h191v28q0 41 -37 64.5t-105 23.5q-60 0 -108.5 -24.5t-63.5 -63.5l-99 44q24 65 101 105.5t174 40.5q78 0 134 -20.5t86 -60.5q41 39 98 60t123 21q126 0 204 -74.5t78 -191.5v-42h-471q12 -62 63.5 -99t125.5 -37q63 0 109.5 29
t66.5 79l96 -51q-27 -70 -101.5 -114.5t-170.5 -44.5q-82 0 -149 31t-106 88q-43 -59 -109 -89t-151 -30q-99 0 -158.5 44t-59.5 119zM752 435q-65 0 -113.5 -32t-64.5 -86h350q-7 47 -56.5 82.5t-115.5 35.5zM142 153q0 -32 29 -49.5t82 -17.5q81 0 141.5 33t60.5 84v24
h-183q-65 0 -97.5 -18.5t-32.5 -55.5zM591 577h-102l109 141h158z" />
    <glyph glyph-name="Oslashacute" unicode="&#x1fe;" horiz-adv-x="892" 
d="M113 -28l-76 76l78 75q-44 49 -67 109t-23 127q0 160 119.5 265t301.5 105q72 0 137.5 -18t118.5 -53l77 74l76 -76l-71 -69q41 -48 62 -106t21 -122q0 -160 -119.5 -265t-301.5 -105q-69 0 -131.5 16.5t-116.5 48.5zM446 618q-130 0 -211 -71.5t-81 -187.5
q0 -45 13.5 -85.5t40.5 -74.5l405 379q-35 20 -77.5 30t-89.5 10zM446 100q130 0 211 71.5t81 187.5q0 43 -12 81.5t-36 70.5l-401 -376q33 -17 72.5 -26t84.5 -9zM488 760h-110l123 147h177z" />
    <glyph glyph-name="oslashacute" unicode="&#x1ff;" horiz-adv-x="651" 
d="M27 262q0 119 85.5 196t213.5 77q48 0 91.5 -11.5t79.5 -34.5l60 62l64 -60l-56 -59q29 -35 44.5 -78t15.5 -92q0 -119 -85.5 -196t-213.5 -77q-48 0 -91.5 11.5t-79.5 34.5l-60 -62l-64 60l56 59q-29 35 -44.5 78t-15.5 92zM326 436q-83 0 -135.5 -48t-52.5 -126
q0 -28 7.5 -53.5t21.5 -45.5l252 253q-22 10 -45 15t-48 5zM326 88q83 0 135.5 48t52.5 126q0 28 -7.5 53.5t-21.5 45.5l-252 -253q22 -10 45 -15t48 -5zM367 577h-102l109 141h158z" />
    <glyph glyph-name="uni0218" unicode="&#x218;" horiz-adv-x="768" 
d="M399 -11q-133 0 -245.5 50t-162.5 132l92 85q51 -76 134 -116t185 -40q98 0 160 30t62 77q0 38 -24 56.5t-89 29.5q-20 3 -49 7t-108 13q-184 21 -248.5 64.5t-64.5 126.5q0 100 90.5 162.5t237.5 62.5q120 0 219.5 -42t144.5 -112l-92 -77q-39 58 -111 89t-166 31
t-148 -27.5t-54 -73.5q0 -40 42.5 -58t191.5 -35q91 -10 140 -19t83 -20q68 -23 99 -62t31 -101q0 -107 -96 -170t-254 -63zM368 -117h-48v80h120v-63q0 -47 -32.5 -74t-87.5 -27v52q22 0 33.5 7.5t14.5 24.5z" />
    <glyph glyph-name="uni0219" unicode="&#x219;" horiz-adv-x="574" 
d="M303 -11q-102 0 -183 32t-124 90l85 77q39 -50 93.5 -75t127.5 -25q68 0 103.5 16.5t35.5 47.5q0 22 -15 32.5t-57 17.5q-18 3 -56.5 7.5t-41.5 4.5q-142 18 -191.5 52t-49.5 99q0 76 68 123t180 47q87 0 159.5 -29.5t109.5 -78.5l-77 -74q-30 40 -81.5 61.5t-115.5 21.5
q-62 0 -95 -15.5t-33 -44.5q0 -22 23 -32.5t131 -23.5q71 -9 106 -15.5t60 -16.5q48 -17 71 -47.5t23 -76.5q0 -80 -71.5 -127.5t-184.5 -47.5zM277 -117h-48v80h120v-63q0 -47 -32.5 -74t-87.5 -27v52q22 0 33.5 7.5t14.5 24.5z" />
    <glyph glyph-name="uni021A" unicode="&#x21a;" horiz-adv-x="812" 
d="M794 718v-112h-324v-606h-128v606h-324v112h776zM394 -117h-48v80h120v-63q0 -47 -32.5 -74t-87.5 -27v52q22 0 33.5 7.5t14.5 24.5z" />
    <glyph glyph-name="uni021B" unicode="&#x21b;" horiz-adv-x="518" 
d="M344 -6q-103 0 -158 47.5t-55 138.5v243h-132v102h132v154h118v-154h231v-102h-231v-232q0 -48 26.5 -68.5t89.5 -20.5q24 0 48.5 4.5t66.5 17.5l20 -102q-32 -12 -75.5 -20t-80.5 -8zM283 -117h-48v80h120v-63q0 -47 -32.5 -74t-87.5 -27v52q22 0 33.5 7.5t14.5 24.5z
" />
    <glyph glyph-name="uni0237" unicode="&#x237;" horiz-adv-x="236" 
d="M-41 -85q53 0 76 22.5t23 72.5v515h120v-509q0 -101 -54 -152.5t-158 -51.5q-27 0 -58 5.5t-50 12.5l18 99q26 -8 43.5 -11t39.5 -3z" />
    <glyph glyph-name="circumflex" unicode="&#x2c6;" 
d="M237 718h126l129 -141h-97l-95 60l-95 -60h-97z" />
    <glyph glyph-name="caron" unicode="&#x2c7;" 
d="M492 718l-129 -141h-126l-129 141h97l95 -60l95 60h97z" />
    <glyph glyph-name="breve" unicode="&#x2d8;" 
d="M300 657q45 0 70 15.5t29 45.5h82q0 -68 -48.5 -106.5t-132.5 -38.5t-132.5 38.5t-48.5 106.5h82q4 -30 29 -45.5t70 -15.5z" />
    <glyph glyph-name="dotaccent" unicode="&#x2d9;" 
d="M362 595h-124v123h124v-123z" />
    <glyph glyph-name="ring" unicode="&#x2da;" 
d="M300 561q-47 0 -79 31t-32 76t32 75.5t79 30.5t79 -30.5t32 -75.5t-32 -76t-79 -31zM300 716q-20 0 -33.5 -14t-13.5 -34t13.5 -34t33.5 -14t33.5 14t13.5 34t-13.5 34t-33.5 14z" />
    <glyph glyph-name="ogonek" unicode="&#x2db;" 
d="M309 -186q-55 0 -90 24.5t-35 63.5q0 47 40.5 85t114.5 59l41 -46q-58 -19 -85 -37t-27 -39q0 -15 17 -24t47 -9q13 0 25 1.5t23 4.5v-75q-22 -4 -39.5 -6t-31.5 -2z" />
    <glyph glyph-name="tilde" unicode="&#x2dc;" 
d="M218 725q22 0 43 -6.5t54 -26.5q23 -14 34.5 -18t21.5 -4q15 0 24 12.5t14 42.5h76q-4 -69 -31.5 -108.5t-72.5 -39.5q-22 0 -43.5 6.5t-54.5 26.5q-23 13 -34 17t-21 4q-15 0 -24 -12t-14 -42h-76q4 69 31.5 108.5t72.5 39.5z" />
    <glyph glyph-name="hungarumlaut" unicode="&#x2dd;" 
d="M376 577h-90l94 141h136zM171 577h-90l94 141h136z" />
    <glyph glyph-name="gravecmb" unicode="&#x300;" horiz-adv-x="0" 
d="M25 718l109 -141h-102l-165 141h158z" />
    <glyph glyph-name="acutecmb" unicode="&#x301;" horiz-adv-x="0" 
d="M-31 577h-102l109 141h158z" />
    <glyph glyph-name="uni0302" unicode="&#x302;" horiz-adv-x="0" 
d="M-63 718h126l129 -141h-97l-95 60l-95 -60h-97z" />
    <glyph glyph-name="tildecmb" unicode="&#x303;" horiz-adv-x="0" 
d="M-81 725q22 0 43 -6.5t54 -26.5q23 -14 34.5 -18t21.5 -4q15 0 24 12.5t14 42.5h76q-4 -69 -31.5 -108.5t-72.5 -39.5q-22 0 -43.5 6.5t-54.5 26.5q-23 13 -34 17t-21 4q-15 0 -24 -12t-14 -42h-76q4 69 31.5 108.5t72.5 39.5z" />
    <glyph glyph-name="uni0304" unicode="&#x304;" horiz-adv-x="0" 
d="M181 691v-95h-362v95h362z" />
    <glyph glyph-name="uni0306" unicode="&#x306;" horiz-adv-x="0" 
d="M0 657q45 0 70 15.5t29 45.5h82q0 -68 -48.5 -106.5t-132.5 -38.5t-132.5 38.5t-48.5 106.5h82q4 -30 29 -45.5t70 -15.5z" />
    <glyph glyph-name="uni0307" unicode="&#x307;" horiz-adv-x="0" 
d="M62 595h-124v123h124v-123z" />
    <glyph glyph-name="uni0308" unicode="&#x308;" horiz-adv-x="0" 
d="M-59 595h-128v123h128v-123zM187 595h-128v123h128v-123z" />
    <glyph glyph-name="uni030A" unicode="&#x30a;" horiz-adv-x="0" 
d="M0 561q-47 0 -79 31t-32 76t32 75.5t79 30.5t79 -30.5t32 -75.5t-32 -76t-79 -31zM0 716q-20 0 -33.5 -14t-13.5 -34t13.5 -34t33.5 -14t33.5 14t13.5 34t-13.5 34t-33.5 14z" />
    <glyph glyph-name="uni030B" unicode="&#x30b;" horiz-adv-x="0" 
d="M78 577h-90l94 141h136zM-127 577h-90l94 141h136z" />
    <glyph glyph-name="uni030C" unicode="&#x30c;" horiz-adv-x="0" 
d="M192 718l-129 -141h-126l-129 141h97l95 -60l95 60h97z" />
    <glyph glyph-name="uni0315" unicode="&#x315;" horiz-adv-x="0" 
d="M1 555h-82l27 163h136z" />
    <glyph glyph-name="uni0327" unicode="&#x327;" horiz-adv-x="0" 
d="M136 -101q0 -39 -39 -64t-99 -25q-41 0 -76 9.5t-57 26.5l42 61q18 -14 39 -21t48 -7q30 0 44 6.5t14 19.5q0 14 -21 21t-75 9l23 77h62l-10 -33q47 -3 76 -25t29 -55z" />
    <glyph glyph-name="uni0328" unicode="&#x328;" horiz-adv-x="0" 
d="M27 -186q-55 0 -90 24.5t-35 63.5q0 47 40.5 85t114.5 59l41 -46q-58 -19 -85 -37t-27 -39q0 -15 17 -24t47 -9q13 0 25 1.5t23 4.5v-75q-22 -4 -39.5 -6t-31.5 -2z" />
    <glyph glyph-name="Wgrave" unicode="&#x1e80;" horiz-adv-x="1183" 
d="M330 129l193 589h139l192 -589l202 589h133l-256 -718h-154l-187 580l-189 -580h-154l-255 718h134zM534 907l123 -147h-110l-190 147h177z" />
    <glyph glyph-name="wgrave" unicode="&#x1e81;" horiz-adv-x="896" 
d="M502 525l135 -376l136 376h123l-206 -525h-104l-138 367l-137 -367h-104l-207 525h127l139 -376l134 376h102zM398 718l109 -141h-102l-165 141h158z" />
    <glyph glyph-name="Wacute" unicode="&#x1e82;" horiz-adv-x="1183" 
d="M330 129l193 589h139l192 -589l202 589h133l-256 -718h-154l-187 580l-189 -580h-154l-255 718h134zM645 760h-110l123 147h177z" />
    <glyph glyph-name="wacute" unicode="&#x1e83;" horiz-adv-x="896" 
d="M502 525l135 -376l136 376h123l-206 -525h-104l-138 367l-137 -367h-104l-207 525h127l139 -376l134 376h102zM502 577h-102l109 141h158z" />
    <glyph glyph-name="Wdieresis" unicode="&#x1e84;" horiz-adv-x="1183" 
d="M330 129l193 589h139l192 -589l202 589h133l-256 -718h-154l-187 580l-189 -580h-154l-255 718h134zM529 760h-128v123h128v-123zM783 760h-128v123h128v-123z" />
    <glyph glyph-name="wdieresis" unicode="&#x1e85;" horiz-adv-x="896" 
d="M502 525l135 -376l136 376h123l-206 -525h-104l-138 367l-137 -367h-104l-207 525h127l139 -376l134 376h102zM389 595h-128v123h128v-123zM635 595h-128v123h128v-123z" />
    <glyph glyph-name="Ygrave" unicode="&#x1ef2;" horiz-adv-x="835" 
d="M148 718l271 -305l270 305h156l-363 -406v-312h-128v312l-364 406h158zM392 907l123 -147h-110l-190 147h177z" />
    <glyph glyph-name="ygrave" unicode="&#x1ef3;" horiz-adv-x="642" 
d="M642 525l-281 -574q-36 -73 -85.5 -106t-127.5 -33q-28 0 -60.5 6.5t-48.5 15.5l24 101q21 -11 39.5 -15.5t38.5 -4.5q45 0 73 19t43 59l6 18l-263 514h133l192 -393l187 393h130zM290 718l109 -141h-102l-165 141h158z" />
    <glyph glyph-name="uni2009" unicode="&#x2009;" horiz-adv-x="100" 
 />
    <glyph glyph-name="endash" unicode="&#x2013;" horiz-adv-x="542" 
d="M502 243h-462v97h462v-97z" />
    <glyph glyph-name="emdash" unicode="&#x2014;" horiz-adv-x="976" 
d="M936 243h-896v97h896v-97z" />
    <glyph glyph-name="quoteleft" unicode="&#x2018;" horiz-adv-x="185" 
d="M99 576h66v-142h-145v150q0 61 39.5 97t105.5 37v-67q-34 -3 -50 -18.5t-16 -44.5v-12z" />
    <glyph glyph-name="quoteright" unicode="&#x2019;" horiz-adv-x="185" 
d="M86 576h-66v142h145v-150q0 -61 -39.5 -97t-105.5 -37v67q34 3 50 18.5t16 44.5v12z" />
    <glyph glyph-name="quotesinglbase" unicode="&#x201a;" horiz-adv-x="185" 
d="M86 11h-66v142h145v-150q0 -61 -39.5 -97t-105.5 -37v67q34 3 50 18.5t16 44.5v12z" />
    <glyph glyph-name="quotedblleft" unicode="&#x201c;" horiz-adv-x="384" 
d="M99 576h66v-142h-145v150q0 61 39.5 97t105.5 37v-67q-34 -3 -50 -18.5t-16 -44.5v-12zM298 576h66v-142h-145v150q0 61 39.5 97t105.5 37v-67q-34 -3 -50 -18.5t-16 -44.5v-12z" />
    <glyph glyph-name="quotedblright" unicode="&#x201d;" horiz-adv-x="384" 
d="M86 576h-66v142h145v-150q0 -61 -39.5 -97t-105.5 -37v67q34 3 50 18.5t16 44.5v12zM285 576h-66v142h145v-150q0 -61 -39.5 -97t-105.5 -37v67q34 3 50 18.5t16 44.5v12z" />
    <glyph glyph-name="quotedblbase" unicode="&#x201e;" horiz-adv-x="384" 
d="M285 11h-66v142h145v-150q0 -61 -39.5 -97t-105.5 -37v67q34 3 50 18.5t16 44.5v12zM86 11h-66v142h145v-150q0 -61 -39.5 -97t-105.5 -37v67q34 3 50 18.5t16 44.5v12z" />
    <glyph glyph-name="dagger" unicode="&#x2020;" horiz-adv-x="397" 
d="M246 285h-95v233h-131v96h131v124h95v-124h131v-96h-131v-233z" />
    <glyph glyph-name="daggerdbl" unicode="&#x2021;" horiz-adv-x="397" 
d="M246 285h-95v93h-131v90h131v88h-131v90h131v92h95v-92h131v-90h-131v-88h131v-90h-131v-93z" />
    <glyph glyph-name="bullet" unicode="&#x2022;" horiz-adv-x="426" 
d="M40 290q0 75 50 124.5t124 49.5q73 0 122.5 -49.5t49.5 -124.5q0 -74 -49.5 -123t-122.5 -49q-74 0 -124 49t-50 123z" />
    <glyph glyph-name="ellipsis" unicode="&#x2026;" horiz-adv-x="645" 
d="M185 0h-145v145h145v-145zM395 0h-145v145h145v-145zM605 0h-145v145h145v-145z" />
    <glyph glyph-name="guilsinglleft" unicode="&#x2039;" horiz-adv-x="277" 
d="M237 69l-197 131v120l197 131v-120l-100 -71l100 -71v-120z" />
    <glyph glyph-name="guilsinglright" unicode="&#x203a;" horiz-adv-x="277" 
d="M237 320v-120l-197 -131v120l100 71l-100 71v120z" />
    <glyph glyph-name="fraction" unicode="&#x2044;" horiz-adv-x="144" 
d="M-270 0l573 718h111l-573 -718h-111z" />
    <glyph glyph-name="uni2070" unicode="&#x2070;" horiz-adv-x="510" 
d="M255 314q-100 0 -165 58.5t-65 147.5q0 88 65.5 146t164.5 58t164.5 -58t65.5 -146q0 -89 -65 -147.5t-165 -58.5zM255 638q-57 0 -93 -32.5t-36 -85.5q0 -54 36 -87t93 -33t92.5 33t35.5 87q0 53 -35.5 85.5t-92.5 32.5z" />
    <glyph glyph-name="uni2074" unicode="&#x2074;" horiz-adv-x="468" 
d="M362 412v-92h-95v92h-257v77l224 229h128v-226h96v-80h-96zM267 636l-143 -144h143v144z" />
    <glyph glyph-name="uni2075" unicode="&#x2075;" horiz-adv-x="442" 
d="M217 513q-32 0 -59.5 -7t-47.5 -21l-83 15l28 218h341v-85h-266l-9 -65q21 11 51 17.5t62 6.5q86 0 138.5 -37t52.5 -99q0 -63 -58 -102.5t-148 -39.5q-82 0 -141 30.5t-78 83.5l91 37q14 -32 48.5 -50.5t80.5 -18.5q47 0 76.5 16t29.5 42q0 27 -29.5 43t-79.5 16z" />
    <glyph glyph-name="uni2076" unicode="&#x2076;" horiz-adv-x="487" 
d="M265 724q67 0 118 -20.5t78 -57.5l-66 -59q-20 27 -54.5 41.5t-78.5 14.5q-62 0 -102 -28.5t-40 -68.5q24 21 62 32.5t84 11.5q87 0 142.5 -38t55.5 -96q0 -63 -59.5 -102.5t-154.5 -39.5q-105 0 -165 53t-60 144q0 96 65.5 154.5t174.5 58.5zM248 393q52 0 84 16t32 43
t-32 43.5t-84 16.5t-84 -16.5t-32 -43.5t32 -43t84 -16z" />
    <glyph glyph-name="uni2077" unicode="&#x2077;" horiz-adv-x="433" 
d="M314 634h-220v-75h-84v159h413v-89q-79 -67 -115.5 -141.5t-36.5 -167.5h-103q0 92 36.5 170.5t109.5 143.5z" />
    <glyph glyph-name="uni2078" unicode="&#x2078;" horiz-adv-x="471" 
d="M42 609q0 53 53.5 84t140.5 31t140 -31t53 -84q0 -27 -15.5 -47.5t-48.5 -34.5q43 -13 66.5 -37.5t23.5 -56.5q0 -56 -59 -87.5t-160 -31.5t-160.5 31.5t-59.5 87.5q0 32 23.5 56.5t67.5 37.5q-33 14 -49 34t-16 48zM141 608q0 -21 24.5 -32t70.5 -11q45 0 70 11t25 32
t-24.5 31.5t-70.5 10.5t-70.5 -10.5t-24.5 -31.5zM355 440q0 24 -31 36.5t-88 12.5q-58 0 -89 -12.5t-31 -36.5t31 -37t89 -13q57 0 88 13t31 37z" />
    <glyph glyph-name="uni2079" unicode="&#x2079;" horiz-adv-x="487" 
d="M223 314q-67 0 -118 20.5t-78 58.5l66 59q20 -27 54.5 -42t78.5 -15q62 0 102 28.5t40 69.5q-24 -21 -62 -32.5t-84 -11.5q-87 0 -142.5 38t-55.5 96q0 63 59.5 102t154.5 39q105 0 165 -53t60 -143q0 -96 -65.5 -155t-174.5 -59zM240 645q-52 0 -84 -16t-32 -42
q0 -27 32 -43.5t84 -16.5t84 16.5t32 43.5t-31.5 42.5t-84.5 15.5z" />
    <glyph glyph-name="uni2080" unicode="&#x2080;" horiz-adv-x="510" 
d="M255 -126q-100 0 -165 58.5t-65 147.5q0 88 65.5 146t164.5 58t164.5 -58t65.5 -146q0 -89 -65 -147.5t-165 -58.5zM255 198q-57 0 -93 -32.5t-36 -85.5q0 -54 36 -87t93 -33t92.5 33t35.5 87q0 53 -35.5 85.5t-92.5 32.5z" />
    <glyph glyph-name="uni2081" unicode="&#x2081;" horiz-adv-x="369" 
d="M143 -34v167h-133v76l68 2q42 1 62.5 16.5t25.5 50.5h77v-312h121v-86h-354v86h133z" />
    <glyph glyph-name="uni2082" unicode="&#x2082;" horiz-adv-x="439" 
d="M26 -120v76l175 92q72 37 91.5 55.5t19.5 40.5q0 25 -22 40t-60 15q-47 0 -80 -24.5t-41 -66.5l-91 20q11 69 70 112.5t146 43.5q80 0 129.5 -36.5t49.5 -96.5q0 -44 -27 -77t-88 -62l-94 -47h218v-85h-396z" />
    <glyph glyph-name="uni2083" unicode="&#x2083;" horiz-adv-x="455" 
d="M437 -6q0 -52 -58.5 -86t-150.5 -34q-83 0 -141.5 30t-81.5 83l90 40q13 -31 50 -50.5t84 -19.5q45 0 73 12.5t28 33.5q0 20 -24.5 30.5t-72.5 10.5h-74v77h71q45 0 67.5 10t22.5 29q0 18 -24.5 29t-66.5 11q-44 0 -77.5 -17.5t-45.5 -45.5l-86 38q20 49 79 79t136 30
q87 0 139.5 -32t52.5 -84q0 -29 -19.5 -52t-51.5 -32q41 -13 61 -35t20 -55z" />
    <glyph glyph-name="uni2084" unicode="&#x2084;" horiz-adv-x="468" 
d="M362 -28v-92h-95v92h-257v77l224 229h128v-226h96v-80h-96zM267 196l-143 -144h143v144z" />
    <glyph glyph-name="uni2085" unicode="&#x2085;" horiz-adv-x="442" 
d="M217 73q-32 0 -59.5 -7t-47.5 -21l-83 15l28 218h341v-85h-266l-9 -65q21 11 51 17.5t62 6.5q86 0 138.5 -37t52.5 -99q0 -63 -58 -102.5t-148 -39.5q-82 0 -141 30.5t-78 83.5l91 37q14 -32 48.5 -50.5t80.5 -18.5q47 0 76.5 16t29.5 42q0 27 -29.5 43t-79.5 16z" />
    <glyph glyph-name="uni2086" unicode="&#x2086;" horiz-adv-x="487" 
d="M265 284q67 0 118 -20.5t78 -57.5l-66 -59q-20 27 -54.5 41.5t-78.5 14.5q-62 0 -102 -28.5t-40 -68.5q24 21 62 32.5t84 11.5q87 0 142.5 -38t55.5 -96q0 -63 -59.5 -102.5t-154.5 -39.5q-105 0 -165 53t-60 144q0 96 65.5 154.5t174.5 58.5zM248 -47q52 0 84 16t32 43
t-32 43.5t-84 16.5t-84 -16.5t-32 -43.5t32 -43t84 -16z" />
    <glyph glyph-name="uni2087" unicode="&#x2087;" horiz-adv-x="433" 
d="M314 194h-220v-75h-84v159h413v-89q-79 -67 -115.5 -141.5t-36.5 -167.5h-103q0 92 36.5 170.5t109.5 143.5z" />
    <glyph glyph-name="uni2088" unicode="&#x2088;" horiz-adv-x="471" 
d="M42 169q0 53 53.5 84t140.5 31t140 -31t53 -84q0 -27 -15.5 -47.5t-48.5 -34.5q43 -13 66.5 -37.5t23.5 -56.5q0 -56 -59 -87.5t-160 -31.5t-160.5 31.5t-59.5 87.5q0 32 23.5 56.5t67.5 37.5q-33 14 -49 34t-16 48zM141 168q0 -21 24.5 -32t70.5 -11q45 0 70 11t25 32
t-24.5 31.5t-70.5 10.5t-70.5 -10.5t-24.5 -31.5zM355 0q0 24 -31 36.5t-88 12.5q-58 0 -89 -12.5t-31 -36.5t31 -37t89 -13q57 0 88 13t31 37z" />
    <glyph glyph-name="uni2089" unicode="&#x2089;" horiz-adv-x="487" 
d="M222 -126q-67 0 -118 20.5t-78 58.5l66 59q20 -27 54.5 -42t78.5 -15q62 0 102 28.5t40 69.5q-24 -21 -62 -32.5t-84 -11.5q-87 0 -142.5 38t-55.5 96q0 63 59.5 102t154.5 39q105 0 165 -53t60 -143q0 -96 -65.5 -155t-174.5 -59zM239 205q-52 0 -84 -16t-32 -42
q0 -27 32 -43.5t84 -16.5t84 16.5t32 43.5t-31.5 42.5t-84.5 15.5z" />
    <glyph glyph-name="Euro" unicode="&#x20ac;" horiz-adv-x="895" 
d="M136 238h-116v90h97q-1 5 -1 11.5v19.5q0 7 0.5 15t1.5 20h-98v90h118q41 112 145.5 178.5t240.5 66.5q131 0 226 -58.5t136 -163.5l-106 -58q-33 81 -100 124t-160 43q-84 0 -150 -35t-99 -97h330l-20 -90h-339q-1 -12 -1.5 -20t-0.5 -15q0 -6 0.5 -12.5t1.5 -18.5h324
l-19 -90h-279q34 -64 100 -100t152 -36q93 0 160 43t100 124l106 -58q-41 -105 -136 -163.5t-226 -58.5q-137 0 -242.5 67.5t-145.5 181.5z" />
    <glyph glyph-name="trademark" unicode="&#x2122;" horiz-adv-x="906" 
d="M244 632v-247h-96v247h-128v86h351v-86h-127zM781 604l-105 -219h-54l-104 219v-219h-86v333h124l95 -195l95 195h122v-333h-87v219z" />
    <glyph glyph-name="uni2153" unicode="&#x2153;" horiz-adv-x="1048" 
d="M364 320h-354v86h133v167h-133v76l68 2q42 1 62.5 16.5t25.5 50.5h77v-312h121v-86zM179 0l573 718h111l-573 -718h-111zM1030 114q0 -52 -58.5 -86t-150.5 -34q-83 0 -141.5 30t-81.5 83l90 40q13 -31 50 -50.5t84 -19.5q45 0 73 12.5t28 33.5q0 20 -24.5 30.5
t-72.5 10.5h-74v77h71q45 0 67.5 10t22.5 29q0 18 -24.5 29t-66.5 11q-44 0 -77.5 -17.5t-45.5 -45.5l-86 38q20 49 79 79t136 30q87 0 139.5 -32t52.5 -84q0 -29 -19.5 -52t-51.5 -32q41 -13 61 -35t20 -55z" />
    <glyph glyph-name="uni2154" unicode="&#x2154;" horiz-adv-x="1098" 
d="M26 320v76l175 92q72 37 91.5 55.5t19.5 40.5q0 25 -22 40t-60 15q-47 0 -80 -24.5t-41 -66.5l-91 20q11 69 70 112.5t146 43.5q80 0 129.5 -36.5t49.5 -96.5q0 -44 -27 -77t-88 -62l-94 -47h218v-85h-396zM229 0l573 718h111l-573 -718h-111zM1080 114q0 -52 -58.5 -86
t-150.5 -34q-83 0 -141.5 30t-81.5 83l90 40q13 -31 50 -50.5t84 -19.5q45 0 73 12.5t28 33.5q0 20 -24.5 30.5t-72.5 10.5h-74v77h71q45 0 67.5 10t22.5 29q0 18 -24.5 29t-66.5 11q-44 0 -77.5 -17.5t-45.5 -45.5l-86 38q20 49 79 79t136 30q87 0 139.5 -32t52.5 -84
q0 -29 -19.5 -52t-51.5 -32q41 -13 61 -35t20 -55z" />
    <glyph glyph-name="uni215B" unicode="&#x215b;" horiz-adv-x="1064" 
d="M364 320h-354v86h133v167h-133v76l68 2q42 1 62.5 16.5t25.5 50.5h77v-312h121v-86zM179 0l573 718h111l-573 -718h-111zM635 289q0 53 53.5 84t140.5 31t140 -31t53 -84q0 -27 -15.5 -47.5t-48.5 -34.5q43 -13 66.5 -37.5t23.5 -56.5q0 -56 -59 -87.5t-160 -31.5
t-160.5 31.5t-59.5 87.5q0 32 23.5 56.5t67.5 37.5q-33 14 -49 34t-16 48zM734 288q0 -21 24.5 -32t70.5 -11q45 0 70 11t25 32t-24.5 31.5t-70.5 10.5t-70.5 -10.5t-24.5 -31.5zM948 120q0 24 -31 36.5t-88 12.5q-58 0 -89 -12.5t-31 -36.5t31 -37t89 -13q57 0 88 13t31 37
z" />
    <glyph glyph-name="uni215C" unicode="&#x215c;" horiz-adv-x="1070" 
d="M437 434q0 -52 -58.5 -86t-150.5 -34q-83 0 -141.5 30t-81.5 83l90 40q13 -31 50 -50.5t84 -19.5q45 0 73 12.5t28 33.5q0 20 -24.5 30.5t-72.5 10.5h-74v77h71q45 0 67.5 10t22.5 29q0 18 -24.5 29t-66.5 11q-44 0 -77.5 -17.5t-45.5 -45.5l-86 38q20 49 79 79t136 30
q87 0 139.5 -32t52.5 -84q0 -29 -19.5 -52t-51.5 -32q41 -13 61 -35t20 -55zM185 0l573 718h111l-573 -718h-111zM641 289q0 53 53.5 84t140.5 31t140 -31t53 -84q0 -27 -15.5 -47.5t-48.5 -34.5q43 -13 66.5 -37.5t23.5 -56.5q0 -56 -59 -87.5t-160 -31.5t-160.5 31.5
t-59.5 87.5q0 32 23.5 56.5t67.5 37.5q-33 14 -49 34t-16 48zM740 288q0 -21 24.5 -32t70.5 -11q45 0 70 11t25 32t-24.5 31.5t-70.5 10.5t-70.5 -10.5t-24.5 -31.5zM954 120q0 24 -31 36.5t-88 12.5q-58 0 -89 -12.5t-31 -36.5t31 -37t89 -13q57 0 88 13t31 37z" />
    <glyph glyph-name="uni215D" unicode="&#x215d;" horiz-adv-x="1057" 
d="M217 513q-32 0 -59.5 -7t-47.5 -21l-83 15l28 218h341v-85h-266l-9 -65q21 11 51 17.5t62 6.5q86 0 138.5 -37t52.5 -99q0 -63 -58 -102.5t-148 -39.5q-82 0 -141 30.5t-78 83.5l91 37q14 -32 48.5 -50.5t80.5 -18.5q47 0 76.5 16t29.5 42q0 27 -29.5 43t-79.5 16zM172 0
l573 718h111l-573 -718h-111zM628 289q0 53 53.5 84t140.5 31t140 -31t53 -84q0 -27 -15.5 -47.5t-48.5 -34.5q43 -13 66.5 -37.5t23.5 -56.5q0 -56 -59 -87.5t-160 -31.5t-160.5 31.5t-59.5 87.5q0 32 23.5 56.5t67.5 37.5q-33 14 -49 34t-16 48zM727 288q0 -21 24.5 -32
t70.5 -11q45 0 70 11t25 32t-24.5 31.5t-70.5 10.5t-70.5 -10.5t-24.5 -31.5zM941 120q0 24 -31 36.5t-88 12.5q-58 0 -89 -12.5t-31 -36.5t31 -37t89 -13q57 0 88 13t31 37z" />
    <glyph glyph-name="uni215E" unicode="&#x215e;" horiz-adv-x="1018" 
d="M314 634h-220v-75h-84v159h413v-89q-79 -67 -115.5 -141.5t-36.5 -167.5h-103q0 92 36.5 170.5t109.5 143.5zM133 0l573 718h111l-573 -718h-111zM589 289q0 53 53.5 84t140.5 31t140 -31t53 -84q0 -27 -15.5 -47.5t-48.5 -34.5q43 -13 66.5 -37.5t23.5 -56.5
q0 -56 -59 -87.5t-160 -31.5t-160.5 31.5t-59.5 87.5q0 32 23.5 56.5t67.5 37.5q-33 14 -49 34t-16 48zM688 288q0 -21 24.5 -32t70.5 -11q45 0 70 11t25 32t-24.5 31.5t-70.5 10.5t-70.5 -10.5t-24.5 -31.5zM902 120q0 24 -31 36.5t-88 12.5q-58 0 -89 -12.5t-31 -36.5
t31 -37t89 -13q57 0 88 13t31 37z" />
    <glyph glyph-name="minus" unicode="&#x2212;" horiz-adv-x="800" 
d="M738 300h-676v105h676v-105z" />
    <glyph glyph-name="uniF6C3" unicode="&#xf6c3;" 
d="M287 -117h-48v80h120v-63q0 -47 -32.5 -74t-87.5 -27v52q22 0 33.5 7.5t14.5 24.5z" />
    <glyph glyph-name="NULL" horiz-adv-x="0" 
 />
    <glyph glyph-name="i.loclTRK" horiz-adv-x="236" 
d="M180 595h-124v123h124v-123zM58 525h120v-525h-120v525z" />
    <glyph glyph-name="a.ord" horiz-adv-x="476" 
d="M337 389q-27 -26 -68.5 -40t-89.5 -14q-71 0 -114 31.5t-43 84.5q0 49 38.5 79.5t109.5 37.5l157 17v2q0 27 -24.5 42t-69.5 15q-40 0 -71 -15.5t-41 -40.5l-86 29q17 49 72.5 78.5t129.5 29.5q90 0 138 -35.5t48 -103.5v-147q0 -18 12 -23q5 -2 12 -2q11 0 28 4v-75
q-24 -5 -45 -5q-24 0 -44 7q-36 12 -49 44zM193 411q54 0 94 21.5t40 54.5v26l-141 -15q-36 -4 -51.5 -14t-15.5 -30q0 -21 19 -32t55 -11z" />
    <glyph glyph-name="b.ord" horiz-adv-x="523" 
d="M500 530q0 -85 -56.5 -140t-147.5 -55q-45 0 -82 14t-59 39v-45h-100v512h100v-182q22 24 59.5 38t81.5 14q91 0 147.5 -55t56.5 -140zM278 644q-55 0 -91 -32t-36 -81v-2q0 -49 36 -80.5t91 -31.5t90.5 31t35.5 82t-35.5 82.5t-90.5 31.5z" />
    <glyph glyph-name="c.ord" horiz-adv-x="447" 
d="M244 643q-55 0 -90 -31t-35 -82q0 -50 34.5 -81t90.5 -31q40 0 72 22t43 56l83 -42q-20 -52 -74 -85.5t-123 -33.5q-96 0 -159 55t-63 140q0 86 62.5 140.5t159.5 54.5q70 0 124.5 -34t72.5 -86l-83 -40q-12 34 -43.5 56t-71.5 22z" />
    <glyph glyph-name="d.ord" horiz-adv-x="523" 
d="M227 335q-91 0 -147.5 55t-56.5 140t56.5 140t147.5 55q44 0 81.5 -14t59.5 -38v182h100v-512h-100v45q-22 -25 -59 -39t-82 -14zM372 529v2q0 49 -36 81t-91 32t-90.5 -31.5t-35.5 -82.5t35.5 -82t90.5 -31t91 31.5t36 80.5z" />
    <glyph glyph-name="e.ord" horiz-adv-x="473" 
d="M244 335q-97 0 -159 54.5t-62 140.5q0 84 62.5 139.5t158.5 55.5q93 0 150 -53.5t57 -137.5v-31h-332q9 -40 42 -63t82 -23q42 0 73 18.5t44 50.5l84 -37q-20 -51 -75 -82.5t-125 -31.5zM240 646q-43 0 -74.5 -20.5t-43.5 -55.5h231q-6 32 -38 54t-75 22z" />
    <glyph glyph-name="f.ord" horiz-adv-x="325" 
d="M255 863q23 0 48 -3.5t41 -9.5l-14 -82q-18 5 -34 7t-38 2q-40 0 -58 -13t-18 -42v-4h144v-83h-143v-292h-98v292h-90v83h90v6q0 68 43.5 103.5t126.5 35.5z" />
    <glyph glyph-name="g.ord" horiz-adv-x="518" 
d="M463 718v-322q0 -85 -64 -136.5t-167 -51.5q-78 0 -133 25.5t-78 72.5l81 49q14 -32 48 -50t81 -18q58 0 95 27t37 72v15q-23 -25 -59 -38.5t-80 -13.5q-92 0 -148.5 53t-56.5 135t57 135t148 53q44 0 79.5 -13t59.5 -38v44h100zM368 536v3q0 47 -36.5 77t-90.5 30
t-89.5 -30.5t-35.5 -78.5t35.5 -78t89.5 -30q55 0 91 30t36 77z" />
    <glyph glyph-name="h.ord" horiz-adv-x="507" 
d="M155 343h-100v512h100v-184q24 26 59.5 40t77.5 14q75 0 119.5 -47t44.5 -126v-209h-100v185q0 51 -25 79.5t-71 28.5q-50 0 -77.5 -29t-27.5 -80v-184z" />
    <glyph glyph-name="i.ord" horiz-adv-x="208" 
d="M155 762h-102v93h102v-93zM54 718h100v-375h-100v375z" />
    <glyph glyph-name="j.ord" horiz-adv-x="208" 
d="M155 762h-102v93h102v-93zM-12 291q35 0 50.5 15t15.5 49v363h100v-362q0 -72 -40 -109t-118 -37q-20 0 -43 3.5t-38 8.5l15 79q18 -6 30.5 -8t27.5 -2z" />
    <glyph glyph-name="k.ord" horiz-adv-x="482" 
d="M55 855h100v-310l203 173h137l-193 -161l199 -214h-125l-146 154l-75 -62v-92h-100v512z" />
    <glyph glyph-name="l.ord" horiz-adv-x="210" 
d="M55 855h100v-512h-100v512z" />
    <glyph glyph-name="m.ord" horiz-adv-x="788" 
d="M255 636q-48 0 -74 -27.5t-26 -79.5v-186h-100v375h100v-46q24 26 57 39.5t74 13.5q43 0 76.5 -17.5t52.5 -50.5q29 33 69.5 50.5t86.5 17.5q79 0 122.5 -46.5t43.5 -129.5v-206h-100v187q0 51 -23.5 78.5t-67.5 27.5q-48 0 -74 -27.5t-26 -79.5v-186h-100v187
q0 51 -23.5 78.5t-67.5 27.5z" />
    <glyph glyph-name="n.ord" horiz-adv-x="507" 
d="M155 343h-100v375h100v-47q24 26 59.5 40t77.5 14q75 0 119.5 -47t44.5 -126v-209h-100v185q0 51 -25 79.5t-71 28.5q-50 0 -77.5 -29t-27.5 -80v-184z" />
    <glyph glyph-name="o.ord" horiz-adv-x="483" 
d="M242 725q95 0 156.5 -54.5t61.5 -140.5q0 -85 -62 -140t-156 -55q-95 0 -157 55t-62 140q0 86 62 140.5t157 54.5zM242 642q-54 0 -88.5 -31t-34.5 -81t34.5 -81t88.5 -31t88 31t34 81t-34 81t-88 31z" />
    <glyph glyph-name="p.ord" horiz-adv-x="523" 
d="M500 530q0 -85 -56.5 -140t-147.5 -55q-45 0 -82 14t-59 39v-172h-100v502h100v-45q22 24 59.5 38t81.5 14q91 0 147.5 -55t56.5 -140zM278 644q-55 0 -91 -32t-36 -81v-2q0 -49 36 -80.5t91 -31.5t90.5 31t35.5 82t-35.5 82.5t-90.5 31.5z" />
    <glyph glyph-name="q.ord" horiz-adv-x="523" 
d="M227 335q-91 0 -147.5 55t-56.5 140t56.5 140t147.5 55q44 0 81.5 -14t59.5 -38v45h100v-502h-100v172q-22 -25 -59 -39t-82 -14zM372 529v2q0 49 -36 81t-91 32t-90.5 -31.5t-35.5 -82.5t35.5 -82t90.5 -31t91 31.5t36 80.5z" />
    <glyph glyph-name="r.ord" horiz-adv-x="346" 
d="M296 720q12 0 22.5 -1.5t19.5 -3.5v-98q-18 4 -26 5t-19 1q-68 0 -103 -30.5t-35 -90.5v-159h-100v375h100v-66q23 34 57.5 51t83.5 17z" />
    <glyph glyph-name="s.ord" horiz-adv-x="416" 
d="M210 335q-70 0 -127.5 21t-89.5 58l58 65q29 -33 70 -49.5t92 -16.5q45 0 68 10t23 29q0 15 -14 22t-106 18q-98 13 -133 37.5t-35 71.5q0 56 50 90t134 34q61 0 113 -19t82 -51l-57 -61q-25 26 -61.5 40t-80.5 14q-40 0 -61.5 -9.5t-21.5 -27.5q0 -14 14 -20t94 -16
q111 -14 147 -39t36 -73q0 -59 -53 -93.5t-141 -34.5z" />
    <glyph glyph-name="t.ord" horiz-adv-x="375" 
d="M239 338q-73 0 -113 33.5t-40 96.5v167h-90v83h90v107h98v-107h160v-83h-160v-150q0 -32 18 -46t59 -14q17 0 35.5 3.5t45.5 12.5l18 -82q-26 -10 -58.5 -15.5t-62.5 -5.5z" />
    <glyph glyph-name="u.ord" horiz-adv-x="502" 
d="M348 718h99v-375h-99v47q-24 -27 -58.5 -41t-76.5 -14q-74 0 -118 46t-44 125v212h99v-196q0 -49 24 -74t71 -25q49 0 76 28t27 78v189z" />
    <glyph glyph-name="v.ord" horiz-adv-x="465" 
d="M468 718l-184 -375h-102l-185 375h110l128 -267l126 267h107z" />
    <glyph glyph-name="w.ord" horiz-adv-x="653" 
d="M196 464l89 254h87l90 -254l91 254h103l-148 -375h-89l-93 250l-92 -250h-89l-148 375h106z" />
    <glyph glyph-name="x.ord" horiz-adv-x="473" 
d="M476 343h-126l-113 126l-118 -126h-122l179 188l-173 187h125l109 -121l112 121h121l-172 -182z" />
    <glyph glyph-name="y.ord" horiz-adv-x="465" 
d="M468 718l-195 -401q-28 -58 -65.5 -82.5t-97.5 -24.5q-21 0 -45 4.5t-36 10.5l18 81q15 -7 28.5 -10.5t26.5 -3.5q30 0 48 12t27 37l4 11l-184 366h111l128 -268l126 268h106z" />
    <glyph glyph-name="z.ord" horiz-adv-x="461" 
d="M172 426h258v-83h-398v74l257 218h-254v83h393v-75z" />
    <glyph glyph-name="caron.Slovak" 
d="M303 555h-82l27 163h136z" />
    <glyph glyph-name="commaturn" 
d="M312 657h48v-80h-120v63q0 47 32.5 74t87.5 27v-52q-22 0 -33.5 -7.5t-14.5 -24.5z" />
    <glyph glyph-name="grave.cap" 
d="M312 907l123 -147h-110l-190 147h177z" />
    <glyph glyph-name="acute.cap" 
d="M260 760h-110l123 147h177z" />
    <glyph glyph-name="circumflex.cap" 
d="M230 907h140l146 -147h-105l-111 71l-111 -71h-105z" />
    <glyph glyph-name="caron.cap" 
d="M516 907l-146 -147h-140l-146 147h105l111 -71l111 71h105z" />
    <glyph glyph-name="tilde.cap" 
d="M199 916q27 0 52.5 -6.5t66.5 -26.5q31 -15 46 -19.5t28 -4.5q17 0 27.5 13t16.5 44h81q-5 -72 -36 -113.5t-81 -41.5q-27 0 -52.5 6.5t-66.5 26.5q-30 15 -45 19.5t-28 4.5q-18 0 -28.5 -13.5t-15.5 -43.5h-81q4 72 35 113.5t81 41.5z" />
    <glyph glyph-name="macron.cap" 
d="M492 869v-99h-384v99h384z" />
    <glyph glyph-name="breve.cap" 
d="M300 840q46 0 75.5 19t29.5 48h90q0 -68 -53 -109t-142 -41t-142 41t-53 109h90q0 -29 29.5 -48t75.5 -19z" />
    <glyph glyph-name="dotaccent.cap" 
d="M364 760h-128v123h128v-123z" />
    <glyph glyph-name="dieresis.cap" 
d="M237 760h-128v123h128v-123zM491 760h-128v123h128v-123z" />
    <glyph glyph-name="ring.cap" 
d="M300 760q-55 0 -92 36.5t-37 88.5t37 87.5t92 35.5q56 0 92.5 -35.5t36.5 -87.5q0 -53 -37 -89t-92 -36zM300 938q-23 0 -37.5 -15t-14.5 -38q0 -24 14.5 -38.5t37.5 -14.5t37.5 14.5t14.5 38.5q0 23 -14.5 38t-37.5 15z" />
    <glyph glyph-name="hungarumlaut.cap" 
d="M401 760h-93l96 147h149zM173 760h-93l87 147h158z" />
    <glyph glyph-name="guilsinglleft.cap" horiz-adv-x="277" 
d="M237 167l-197 131v120l197 131v-120l-100 -71l100 -71v-120z" />
    <glyph glyph-name="guilsinglright.cap" horiz-adv-x="277" 
d="M40 287l100 71l-100 71v120l197 -131v-120l-197 -131v120z" />
    <glyph glyph-name="guillemotleft.cap" horiz-adv-x="497" 
d="M237 167l-197 131v120l197 131v-120l-100 -71l100 -71v-120zM457 167l-197 131v120l197 131v-120l-100 -71l100 -71v-120z" />
    <glyph glyph-name="guillemotright.cap" horiz-adv-x="497" 
d="M237 420v-120l-197 -131v120l100 71l-100 71v120zM457 420v-120l-197 -131v120l100 71l-100 71v120z" />
    <glyph glyph-name="slash.cap" horiz-adv-x="532" 
d="M135 -60h-125l387 836h125z" />
    <glyph glyph-name="backslash.cap" horiz-adv-x="532" 
d="M10 776h125l387 -836h-125z" />
    <glyph glyph-name="bar.cap" horiz-adv-x="258" 
d="M188 -60h-118v836h118v-836z" />
    <glyph glyph-name="periodcentered.cap" horiz-adv-x="225" 
d="M185 285h-145v145h145v-145z" />
    <glyph glyph-name="bullet.cap" horiz-adv-x="426" 
d="M40 358q0 75 50 124.5t124 49.5q73 0 122.5 -49.5t49.5 -124.5q0 -74 -49.5 -123t-122.5 -49q-74 0 -124 49t-50 123z" />
    <glyph glyph-name="hyphen.cap" horiz-adv-x="360" 
d="M320 306h-280v107h280v-107z" />
    <glyph glyph-name="endash.cap" horiz-adv-x="542" 
d="M502 311h-462v97h462v-97z" />
    <glyph glyph-name="emdash.cap" horiz-adv-x="976" 
d="M936 311h-896v97h896v-97z" />
    <glyph glyph-name="parenleft.cap" horiz-adv-x="379" 
d="M147 340q0 -118 58.5 -224t173.5 -194h-129q-108 70 -169 180.5t-61 237.5t61 237.5t169 180.5h129q-115 -90 -173.5 -195t-58.5 -223z" />
    <glyph glyph-name="parenright.cap" horiz-adv-x="379" 
d="M232 340q0 118 -58.5 223t-173.5 195h129q108 -70 169 -180.5t61 -237.5t-61 -237.5t-169 -180.5h-129q115 88 173.5 194t58.5 224z" />
    <glyph glyph-name="bracketleft.cap" horiz-adv-x="351" 
d="M341 660h-184v-641h184v-97h-301v836h301v-98z" />
    <glyph glyph-name="bracketright.cap" horiz-adv-x="351" 
d="M194 19v641h-184v98h301v-836h-301v97h184z" />
    <glyph glyph-name="braceleft.cap" horiz-adv-x="411" 
d="M67 291h-47v98h47q30 0 45 21t15 64v112q0 82 49.5 127t138.5 45h86v-98h-68q-51 0 -74 -23.5t-23 -76.5v-86q0 -52 -18.5 -85t-58.5 -49q40 -16 58.5 -49t18.5 -85v-86q0 -53 23 -76.5t74 -23.5h68v-98h-86q-89 0 -138.5 45t-49.5 127v112q0 43 -15 64t-45 21z" />
    <glyph glyph-name="braceright.cap" horiz-adv-x="411" 
d="M344 291q-26 0 -43 -18.5t-17 -66.5v-112q0 -84 -50 -128t-138 -44h-86v98h68q53 0 75 24t22 76v86q0 32 6.5 55t17 38.5t24.5 25t29 15.5q-15 6 -29 15.5t-24.5 25t-17 38.5t-6.5 55v86q0 52 -22 76t-75 24h-68v98h86q88 0 138 -44t50 -128v-112q0 -48 17 -66.5
t43 -18.5h47v-98h-47z" />
    <glyph glyph-name="at.cap" horiz-adv-x="1047" 
d="M787 542l-50 -260q-6 -30 6 -44.5t42 -14.5q59 0 99 48.5t40 124.5q0 121 -98 191t-266 70q-194 0 -313 -95t-119 -247q0 -140 105.5 -217t296.5 -77q99 0 191 21t153 57l47 -79q-73 -45 -173.5 -69t-215.5 -24q-235 0 -371 103.5t-136 284.5q0 99 44 184t125 144
q71 52 164 79t200 27q207 0 335.5 -96t128.5 -253q0 -121 -71 -193.5t-185 -72.5q-44 0 -78.5 15t-51.5 42q-24 -26 -70 -41.5t-96 -15.5q-96 0 -153 49.5t-57 131.5q0 99 72 167.5t180 68.5q49 0 90 -15t66 -42l10 48h109zM382 325q0 -45 29 -70.5t80 -25.5
q63 0 103.5 37.5t40.5 93.5q0 45 -29 70.5t-80 25.5q-63 0 -103.5 -37.5t-40.5 -93.5z" />
    <glyph glyph-name="zero.dnom" horiz-adv-x="510" 
d="M255 -6q-100 0 -165 58.5t-65 147.5q0 88 65.5 146t164.5 58t164.5 -58t65.5 -146q0 -89 -65 -147.5t-165 -58.5zM255 318q-57 0 -93 -32.5t-36 -85.5q0 -54 36 -87t93 -33t92.5 33t35.5 87q0 53 -35.5 85.5t-92.5 32.5z" />
    <glyph glyph-name="one.dnom" horiz-adv-x="369" 
d="M143 86v167h-133v76l68 2q42 1 62.5 16.5t25.5 50.5h77v-312h121v-86h-354v86h133z" />
    <glyph glyph-name="two.dnom" horiz-adv-x="439" 
d="M26 0v76l175 92q72 37 91.5 55.5t19.5 40.5q0 25 -22 40t-60 15q-47 0 -80 -24.5t-41 -66.5l-91 20q11 69 70 112.5t146 43.5q80 0 129.5 -36.5t49.5 -96.5q0 -44 -27 -77t-88 -62l-94 -47h218v-85h-396z" />
    <glyph glyph-name="three.dnom" horiz-adv-x="455" 
d="M437 114q0 -52 -58.5 -86t-150.5 -34q-83 0 -141.5 30t-81.5 83l90 40q13 -31 50 -50.5t84 -19.5q45 0 73 12.5t28 33.5q0 20 -24.5 30.5t-72.5 10.5h-74v77h71q45 0 67.5 10t22.5 29q0 18 -24.5 29t-66.5 11q-44 0 -77.5 -17.5t-45.5 -45.5l-86 38q20 49 79 79t136 30
q87 0 139.5 -32t52.5 -84q0 -29 -19.5 -52t-51.5 -32q41 -13 61 -35t20 -55z" />
    <glyph glyph-name="four.dnom" horiz-adv-x="468" 
d="M362 92v-92h-95v92h-257v77l224 229h128v-226h96v-80h-96zM267 316l-143 -144h143v144z" />
    <glyph glyph-name="five.dnom" horiz-adv-x="442" 
d="M217 193q-32 0 -59.5 -7t-47.5 -21l-83 15l28 218h341v-85h-266l-9 -65q21 11 51 17.5t62 6.5q86 0 138.5 -37t52.5 -99q0 -63 -58 -102.5t-148 -39.5q-82 0 -141 30.5t-78 83.5l91 37q14 -32 48.5 -50.5t80.5 -18.5q47 0 76.5 16t29.5 42q0 27 -29.5 43t-79.5 16z" />
    <glyph glyph-name="six.dnom" horiz-adv-x="487" 
d="M265 404q67 0 118 -20.5t78 -57.5l-66 -59q-20 27 -54.5 41.5t-78.5 14.5q-62 0 -102 -28.5t-40 -68.5q24 21 62 32.5t84 11.5q87 0 142.5 -38t55.5 -96q0 -63 -59.5 -102.5t-154.5 -39.5q-105 0 -165 53t-60 144q0 96 65.5 154.5t174.5 58.5zM248 73q52 0 84 16t32 43
t-32 43.5t-84 16.5t-84 -16.5t-32 -43.5t32 -43t84 -16z" />
    <glyph glyph-name="seven.dnom" horiz-adv-x="433" 
d="M314 314h-220v-75h-84v159h413v-89q-79 -67 -115.5 -141.5t-36.5 -167.5h-103q0 92 36.5 170.5t109.5 143.5z" />
    <glyph glyph-name="eight.dnom" horiz-adv-x="471" 
d="M42 289q0 53 53.5 84t140.5 31t140 -31t53 -84q0 -27 -15.5 -47.5t-48.5 -34.5q43 -13 66.5 -37.5t23.5 -56.5q0 -56 -59 -87.5t-160 -31.5t-160.5 31.5t-59.5 87.5q0 32 23.5 56.5t67.5 37.5q-33 14 -49 34t-16 48zM141 288q0 -21 24.5 -32t70.5 -11q45 0 70 11t25 32
t-24.5 31.5t-70.5 10.5t-70.5 -10.5t-24.5 -31.5zM355 120q0 24 -31 36.5t-88 12.5q-58 0 -89 -12.5t-31 -36.5t31 -37t89 -13q57 0 88 13t31 37z" />
    <glyph glyph-name="nine.dnom" horiz-adv-x="487" 
d="M222 -6q-67 0 -118 20.5t-78 58.5l66 59q20 -27 54.5 -42t78.5 -15q62 0 102 28.5t40 69.5q-24 -21 -62 -32.5t-84 -11.5q-87 0 -142.5 38t-55.5 96q0 63 59.5 102t154.5 39q105 0 165 -53t60 -143q0 -96 -65.5 -155t-174.5 -59zM239 325q-52 0 -84 -16t-32 -42
q0 -27 32 -43.5t84 -16.5t84 16.5t32 43.5t-31.5 42.5t-84.5 15.5z" />
    <glyph glyph-name="colon.mid" horiz-adv-x="401" 
d="M273 112h-145v145h145v-145zM273 461h-145v145h145v-145z" />
    <glyph glyph-name="commaturncmb" horiz-adv-x="0" 
d="M12 657h48v-80h-120v63q0 47 32.5 74t87.5 27v-52q-22 0 -33.5 -7.5t-14.5 -24.5z" />
    <glyph glyph-name="commaaccentcmb" horiz-adv-x="0" 
d="M-12 -117h-48v80h120v-63q0 -47 -32.5 -74t-87.5 -27v52q22 0 33.5 7.5t14.5 24.5z" />
    <glyph glyph-name="space.tab" horiz-adv-x="400" 
 />
    <glyph glyph-name="period.tab" horiz-adv-x="400" 
d="M273 0h-145v145h145v-145z" />
    <glyph glyph-name="comma.tab" horiz-adv-x="400" 
d="M194 0h-66v145h145v-152q0 -62 -39 -98.5t-106 -37.5v67q34 2 50 18.5t16 49.5v8z" />
    <glyph glyph-name="colon.tab" horiz-adv-x="400" 
d="M273 0h-145v145h145v-145zM273 349h-145v145h145v-145z" />
    <glyph glyph-name="semicolon.tab" horiz-adv-x="400" 
d="M194 0h-66v145h145v-152q0 -62 -39 -98.5t-106 -37.5v67q34 2 50 18.5t16 49.5v8zM273 349h-145v145h145v-145z" />
    <glyph glyph-name="florin.lt" horiz-adv-x="799" 
d="M460 342l-25 -135q-20 -109 -83 -163.5t-169 -54.5q-56 0 -104.5 15t-80.5 42l55 91q27 -22 59 -34t66 -12q53 0 86.5 31t44.5 92l23 128h-147v86h163l15 83q20 109 83 163.5t169 54.5q56 0 104.5 -15t80.5 -42l-55 -91q-27 22 -59 34t-66 12q-53 0 -86.5 -31t-44.5 -92
l-14 -76h157v-86h-172z" />
    <glyph glyph-name="Euro.lt" horiz-adv-x="800" 
d="M87 238h-65v90h47q-1 5 -1 11.5v19.5v22t1 13h-47v90h66q38 112 134.5 178.5t222.5 66.5q119 0 205.5 -57t127.5 -162l-106 -58q-33 81 -91.5 122.5t-139.5 41.5q-75 0 -133.5 -35t-88.5 -97h294l-20 -90h-299q-1 -12 -1.5 -20t-0.5 -15v-19.5t1 -11.5h285l-19 -90h-242
q30 -64 89 -100t135 -36q81 0 139.5 41.5t91.5 122.5l106 -58q-41 -105 -127.5 -162t-205.5 -57q-128 0 -224.5 67.5t-133.5 181.5z" />
    <glyph glyph-name="dollar.lt" horiz-adv-x="800" 
d="M3 177l94 81q43 -61 112.5 -99.5t154.5 -47.5v206q-181 22 -246 65t-65 124q0 90 85 147.5t226 63.5v105h103v-108q103 -11 184 -49.5t120 -95.5l-93 -77q-30 44 -84.5 73t-126.5 40v-189q191 -23 255.5 -66t64.5 -128q0 -96 -84 -154t-236 -67v-107h-103v108
q-121 9 -218.5 56.5t-142.5 118.5zM174 516q0 -38 39 -56t151 -32v182q-96 -3 -143 -26t-47 -68zM662 209q0 43 -37 62t-158 34v-196q94 6 144.5 32t50.5 68z" />
    <glyph glyph-name="cent.lt" horiz-adv-x="800" 
d="M471 -106h-96v98q-119 15 -193.5 91t-74.5 185t74.5 185.5t193.5 91.5v112h96v-112q84 -10 148 -55.5t88 -108.5l-92 -54q-17 46 -55 77t-89 41v-353q51 10 89.5 42t54.5 77l91 -57q-25 -63 -88.5 -107.5t-146.5 -54.5v-98zM219 268q0 -67 42.5 -115t113.5 -61v352
q-71 -13 -113.5 -60.5t-42.5 -115.5z" />
    <glyph glyph-name="sterling.lt" horiz-adv-x="800" 
d="M270 284h-164v95h99q-20 32 -29 62t-9 63q0 96 81 160.5t204 64.5q129 0 205.5 -68t76.5 -183q0 -15 -1 -29t-3 -27h-114q1 15 1.5 22t0.5 13q0 79 -44 121t-126 42q-71 0 -114.5 -36t-43.5 -95q0 -26 8.5 -50.5t30.5 -59.5h224v-95h-173q5 -16 7.5 -31.5t2.5 -31.5
q0 -15 -2 -30.5t-6 -31.5q54 -35 87 -47t65 -12q56 0 93.5 34t41.5 91h115q1 -101 -67 -168.5t-168 -67.5q-48 0 -94.5 18.5t-110.5 66.5q-29 -41 -71 -63t-91 -22q-65 0 -105.5 36t-40.5 94q0 54 41.5 87t107.5 33q26 0 51.5 -6t52.5 -18q0 17 -4.5 33.5t-14.5 35.5z
M189 158q-25 0 -40 -11t-15 -30q0 -18 14.5 -28t39.5 -10t45.5 13t34.5 38q-22 14 -41.5 21t-37.5 7z" />
    <glyph glyph-name="yen.lt" horiz-adv-x="799" 
d="M340 180h-220v90h220v66h-220v90h148l-246 292h161l218 -284l217 284h159l-245 -292h149v-90h-221v-66h221v-90h-221v-180h-120v180z" />
    <glyph glyph-name="zero.lt" horiz-adv-x="800" 
d="M400 -11q-154 0 -256.5 105.5t-102.5 264.5t102.5 264.5t256.5 105.5t256.5 -105.5t102.5 -264.5t-102.5 -264.5t-256.5 -105.5zM400 616q-102 0 -165.5 -71.5t-63.5 -185.5t63.5 -185.5t165.5 -71.5q101 0 164.5 71.5t63.5 185.5t-63.5 185.5t-164.5 71.5z" />
    <glyph glyph-name="one.lt" horiz-adv-x="800" 
d="M398 723h97v-616h261v-107h-679v107h290v388h-290v96l187 8q67 3 98 31.5t36 92.5z" />
    <glyph glyph-name="two.lt" horiz-adv-x="800" 
d="M61 0v104l347 193q56 31 81 46.5t43 28.5q37 28 53.5 56t16.5 63q0 57 -52 93t-133 36q-100 0 -167.5 -52.5t-83.5 -141.5l-116 32q27 124 127 197.5t246 73.5q135 0 220 -66t85 -171q0 -74 -49.5 -132.5t-178.5 -129.5l-216 -118h461v-112h-684z" />
    <glyph glyph-name="three.lt" horiz-adv-x="800" 
d="M759 206q0 -92 -100 -154.5t-255 -62.5q-144 0 -246.5 60t-130.5 160l114 48q25 -72 96 -116t166 -44q103 0 164.5 31.5t61.5 85.5q0 50 -53 76t-150 26h-128v108h126q87 0 134 24.5t47 70.5q0 47 -53 74.5t-142 27.5q-92 0 -158.5 -40.5t-88.5 -107.5l-113 38
q29 99 127 158.5t238 59.5q145 0 232.5 -55.5t87.5 -145.5q0 -54 -38.5 -96.5t-101.5 -58.5q80 -18 122 -60.5t42 -106.5z" />
    <glyph glyph-name="four.lt" horiz-adv-x="800" 
d="M617 175v-175h-123v175h-464v100l419 443h170v-437h161v-106h-163zM492 614l-312 -333h312v333z" />
    <glyph glyph-name="five.lt" horiz-adv-x="800" 
d="M405 381q-70 0 -129 -17.5t-103 -50.5l-93 30l45 375h590v-112h-494l-22 -169q41 24 102 37.5t130 12.5q147 -2 241 -70t94 -176q0 -110 -100.5 -181t-254.5 -71q-149 0 -254 60t-132 160l115 48q23 -70 98.5 -115t173.5 -45q99 0 161.5 39t62.5 103q0 63 -64 102.5
t-167 39.5z" />
    <glyph glyph-name="six.lt" horiz-adv-x="800" 
d="M433 729q105 0 190.5 -42.5t130.5 -117.5l-93 -78q-28 60 -92 96t-141 36q-113 0 -188 -70t-75 -174q42 50 110.5 77.5t154.5 27.5q143 0 234.5 -68.5t91.5 -173.5q0 -109 -96.5 -181t-244.5 -72q-173 0 -270.5 96t-97.5 261q0 172 105.5 277.5t280.5 105.5zM410 94
q97 0 158.5 39t61.5 102t-61 102.5t-157 39.5q-98 0 -159 -39.5t-61 -102.5t60 -102t158 -39z" />
    <glyph glyph-name="seven.lt" horiz-adv-x="800" 
d="M633 608h-479v-144h-111v254h725v-114q-152 -147 -218 -289t-66 -315h-130q0 172 68.5 321.5t210.5 286.5z" />
    <glyph glyph-name="eight.lt" horiz-adv-x="800" 
d="M81 531q0 92 86.5 145t232.5 53t232.5 -53t86.5 -145q0 -55 -32 -92t-102 -62q82 -21 128 -67t46 -111q0 -99 -96.5 -154.5t-262.5 -55.5t-262.5 55.5t-96.5 154.5q0 65 46 111t128 67q-70 25 -102 62t-32 92zM205 529q0 -49 50.5 -75t144.5 -26t144.5 26t50.5 75
q0 48 -51 74.5t-144 26.5t-144 -26.5t-51 -74.5zM630 208q0 56 -60.5 86t-169.5 30t-169.5 -30t-60.5 -86q0 -57 59.5 -87.5t170.5 -30.5t170.5 30.5t59.5 87.5z" />
    <glyph glyph-name="nine.lt" horiz-adv-x="800" 
d="M367 -11q-105 0 -190.5 42.5t-130.5 117.5l93 78q28 -60 92 -96t141 -36q113 0 188 70t75 174q-42 -50 -110.5 -77.5t-154.5 -27.5q-143 0 -234.5 68.5t-91.5 173.5q0 109 96.5 181t244.5 72q173 0 270.5 -96t97.5 -261q0 -172 -105.5 -277.5t-280.5 -105.5zM390 624
q-97 0 -158.5 -39t-61.5 -102t61 -102.5t157 -39.5q98 0 159 39.5t61 102.5t-60 102t-158 39z" />
    <glyph glyph-name="percent.lt" horiz-adv-x="800" 
d="M195 373q-77 0 -127 50.5t-50 127.5t50 127.5t127 50.5t127 -50.5t50 -127.5t-50 -127.5t-127 -50.5zM197 0h-115l521 718h115zM195 454q37 0 59.5 26.5t22.5 70.5t-22.5 70.5t-59.5 26.5t-59.5 -26.5t-22.5 -70.5t22.5 -70.5t59.5 -26.5zM598 345q77 0 127 -50.5
t50 -127.5t-50 -127.5t-127 -50.5q-76 0 -126.5 50.5t-50.5 127.5t50.5 127.5t126.5 50.5zM598 264q-37 0 -59.5 -26.5t-22.5 -70.5t22.5 -70.5t59.5 -26.5t59.5 26.5t22.5 70.5t-22.5 70.5t-59.5 26.5z" />
    </font>
</defs>
</svg>
