<svg width="22" height="22" viewBox="0 0 22 22" fill="none" xmlns="http://www.w3.org/2000/svg">
<path d="M19.5732 19.9063C16.2068 22.6544 5.69541 22.6544 2.39771 19.9063C-0.968682 17.1582 -0.625179 5.41026 2.39771 2.31868C5.42059 -0.772894 16.5503 -0.772894 19.5732 2.31868C22.596 5.41026 22.9395 17.1583 19.5732 19.9063Z" fill="#FFD500"/>
<g opacity="0.2">
<path opacity="0.2" d="M11.069 15.1298C8.04613 17.5344 4.67974 18.771 1.51947 18.8397C-0.81641 14.855 -0.335477 5.16809 2.4126 2.35132C4.88586 -0.190631 12.6491 -0.671564 17.1148 0.90857C18.214 5.4429 15.9468 11.2138 11.069 15.1298Z" fill="white"/>
</g>
<path d="M11 16C13.7614 16 16 13.7614 16 11C16 8.23858 13.7614 6 11 6C8.23858 6 6 8.23858 6 11C6 13.7614 8.23858 16 11 16Z" stroke="white" stroke-width="1.3" stroke-linecap="square"/>
<path d="M11 7.5V11L13 13" stroke="white" stroke-width="1.3" stroke-linecap="square"/>
</svg>
