<svg width="120" height="120" viewBox="0 0 120 120" fill="none" xmlns="http://www.w3.org/2000/svg">
<circle cx="60" cy="60" r="60" fill="#F7F2FD"/>
<g clip-path="url(#clip0)">
<path d="M60.0021 30C51.4306 30 44.4238 37.0068 44.4238 45.5783C44.4238 54.1497 51.4306 61.1565 60.0021 61.1565C68.5735 61.1565 75.5803 54.1497 75.5803 45.5783C75.5803 37.0068 68.5735 30 60.0021 30Z" fill="#E8DAFA"/>
<path d="M86.7409 73.6055C86.3327 72.5851 85.7886 71.6328 85.1763 70.7484C82.047 66.1225 77.2172 63.0613 71.775 62.313C71.0948 62.245 70.3465 62.3809 69.8022 62.7891C66.9451 64.898 63.5438 65.9864 60.0063 65.9864C56.4688 65.9864 53.0675 64.898 50.2103 62.7891C49.6661 62.3809 48.9177 62.1769 48.2375 62.313C42.7953 63.0613 37.8974 66.1225 34.8362 70.7484C34.224 71.6328 33.6797 72.6532 33.2717 73.6055C33.0676 74.0138 33.1356 74.4899 33.3396 74.8981C33.8839 75.8505 34.5641 76.8029 35.1763 77.6192C36.1287 78.9118 37.1491 80.0682 38.3056 81.1566C39.258 82.1089 40.3464 82.9933 41.4349 83.8777C46.809 87.8914 53.2717 90.0001 59.9383 90.0001C66.605 90.0001 73.0676 87.8912 78.4417 83.8777C79.5301 83.0614 80.6185 82.1089 81.571 81.1566C82.6594 80.0682 83.7478 78.9117 84.7003 77.6192C85.3805 76.7348 85.9929 75.8505 86.537 74.8981C86.877 74.4899 86.945 74.0136 86.7409 73.6055Z" fill="#E8DAFA"/>
</g>
<defs>
<clipPath id="clip0">
<rect width="60" height="60" fill="white" transform="translate(30 30)"/>
</clipPath>
</defs>
</svg>
