<svg width="16" height="16" viewBox="0 0 16 16" fill="none" xmlns="http://www.w3.org/2000/svg">
<path d="M8 15C11.866 15 15 11.866 15 8C15 4.13401 11.866 1 8 1C4.13401 1 1 4.13401 1 8C1 11.866 4.13401 15 8 15Z" stroke="#6400E4" stroke-width="1.3" stroke-linecap="round" stroke-linejoin="round"/>
<path d="M8 8.87498V7.99998L9.23744 6.76255C9.56562 6.43436 9.75 5.98924 9.75 5.52511V5.37498C9.75 4.83873 9.44702 4.34849 8.96738 4.10867L8.78262 4.0163C8.28995 3.76996 7.71005 3.76996 7.21738 4.0163L7.125 4.06248C6.58874 4.33061 6.25 4.87871 6.25 5.47826V6.24998" stroke="#6400E4" stroke-width="1.3" stroke-linecap="round" stroke-linejoin="round"/>
<path d="M8 12.375C8.48325 12.375 8.875 11.9832 8.875 11.5C8.875 11.0168 8.48325 10.625 8 10.625C7.51675 10.625 7.125 11.0168 7.125 11.5C7.125 11.9832 7.51675 12.375 8 12.375Z" fill="#6400E4"/>
</svg>
