<svg width="20" height="18" viewBox="0 0 20 18" fill="none" xmlns="http://www.w3.org/2000/svg">
<path d="M13.4047 6.46584C13.8516 5.7205 14.066 4.95652 14.066 4.17391C14.066 3.89441 14.0303 3.61491 13.9767 3.31677C13.7443 2.23602 13.1724 1.36025 12.2429 0.689441C11.528 0.223602 10.813 -3.70329e-07 10.0623 -4.03143e-07C9.79422 -4.14862e-07 9.50825 0.0372667 9.24014 0.0931673C8.18559 0.31677 7.34553 0.913043 6.70208 1.88199L0.642892 11.5342C0.213924 12.2609 -0.000557514 13.0062 -0.000557549 13.7888C-0.000557561 14.0683 0.03519 14.3665 0.0888112 14.6646C0.303294 15.764 0.875253 16.6397 1.80468 17.3106C2.51963 17.7764 3.25245 18 4.00315 18C4.27125 18 4.53936 17.9627 4.82534 17.9068C5.86201 17.6646 6.70208 17.0683 7.34553 16.0994L13.4047 6.46584ZM12.3502 17.9814C11.7961 17.5714 11.3314 17.0311 10.9739 16.3789L10.2947 15.1491L7.23829 17.7578C7.14892 17.8323 7.05955 17.9068 6.95231 17.9814L12.3502 17.9814ZM10.3483 13.1739L11.8318 15.8758C12.4217 16.882 13.0472 17.4783 13.7443 17.6832C14.4235 17.8882 14.9418 17.9814 15.2993 17.9814C15.9606 17.9814 16.6041 17.8137 17.2654 17.441C18.2485 16.8261 18.8204 16.1739 19.0171 15.4472C19.1958 14.7205 19.2852 14.1801 19.2852 13.8075C19.2852 13.118 19.1243 12.4472 18.7668 11.7578L14.9955 4.80745C14.9061 5.59006 14.6559 6.3354 14.2269 7.02484L10.3483 13.1739Z" fill="#6400E4"/>
</svg>
