<svg width="39" height="36" viewBox="0 0 39 36" fill="none" xmlns="http://www.w3.org/2000/svg">
<path d="M26.8104 12.9317C27.7041 11.441 28.1331 9.91304 28.1331 8.34783C28.1331 7.78882 28.0616 7.22981 27.9543 6.63354C27.4896 4.47205 26.3457 2.7205 24.4868 1.37888C23.0569 0.447204 21.627 -7.40657e-07 20.1256 -8.06285e-07C19.5894 -8.29723e-07 19.0175 0.0745333 18.4813 0.186335C16.3722 0.633539 14.692 1.82609 13.4051 3.76397L1.28677 23.0683C0.428832 24.5217 -0.000134651 26.0124 -0.00013472 27.5776C-0.000134744 28.1366 0.0713565 28.7329 0.178599 29.3292C0.607569 31.5279 1.75149 33.2795 3.61035 34.6211C5.04024 35.5528 6.50589 36 8.00728 36C8.54349 36 9.0797 35.9255 9.65166 35.8137C11.725 35.3292 13.4051 34.1366 14.692 32.1988L26.8104 12.9317ZM24.7013 35.9627C23.5931 35.1429 22.6637 34.0621 21.9488 32.7578L20.5904 30.2981L14.4776 35.5155C14.2988 35.6646 14.1201 35.8137 13.9056 35.9627L24.7013 35.9627ZM20.6976 26.3478L23.6646 31.7516C24.8443 33.764 26.0955 34.9565 27.4896 35.3665C28.848 35.7764 29.8847 35.9627 30.5996 35.9627C31.9223 35.9627 33.2092 35.6273 34.5318 34.882C36.4979 33.6522 37.6419 32.3478 38.0351 30.8944C38.3926 29.441 38.5713 28.3603 38.5713 27.6149C38.5713 26.236 38.2496 24.8944 37.5346 23.5155L29.9919 9.61491C29.8132 11.1801 29.3127 12.6708 28.4548 14.0497L20.6976 26.3478Z" fill="#FFD500"/>
</svg>
