<svg width="119" height="28" viewBox="0 0 119 28" fill="none" xmlns="http://www.w3.org/2000/svg">
<path d="M40.112 19H42.156L42.954 16.844H47.098L47.896 19H49.982L46.216 8.948H43.864L40.112 19ZM46.44 15.094H43.598L45.012 11.23L46.44 15.094ZM50.6525 8.948V19H52.6125V8.948H50.6525ZM54.0808 8.948V19H56.0408V8.948H54.0808ZM63.3332 12.588C62.9972 12.238 62.6052 11.972 62.1572 11.776C61.7092 11.594 61.2192 11.496 60.6872 11.496C60.1552 11.496 59.6512 11.594 59.2032 11.776C58.7552 11.972 58.3632 12.238 58.0412 12.588C57.7192 12.938 57.4812 13.344 57.3132 13.806C57.1452 14.282 57.0752 14.786 57.0752 15.318C57.0752 15.864 57.1452 16.368 57.3132 16.83C57.4812 17.306 57.7192 17.712 58.0412 18.048C58.3632 18.412 58.7552 18.692 59.2032 18.874C59.6512 19.07 60.1552 19.154 60.6872 19.154C61.2192 19.154 61.7092 19.07 62.1572 18.874C62.6052 18.692 62.9972 18.412 63.3332 18.048C63.6412 17.712 63.8792 17.306 64.0472 16.83C64.2152 16.368 64.2992 15.864 64.2992 15.318C64.2992 14.786 64.2152 14.282 64.0472 13.806C63.8792 13.344 63.6412 12.938 63.3332 12.588ZM60.6872 13.12C61.1912 13.12 61.5972 13.316 61.8912 13.708C62.1852 14.1 62.3392 14.632 62.3392 15.318C62.3392 16.018 62.1852 16.55 61.8912 16.942C61.5972 17.334 61.1912 17.53 60.6872 17.53C60.1552 17.53 59.7492 17.334 59.4552 16.942C59.1612 16.55 59.0212 16.018 59.0212 15.318C59.0212 14.646 59.1612 14.1 59.4692 13.708C59.7632 13.316 60.1692 13.12 60.6872 13.12ZM68.6156 13.288C68.9796 13.288 69.2456 13.414 69.4416 13.652C69.6376 13.89 69.7356 14.24 69.7356 14.702V19H71.6956V14.744C71.6956 14.324 71.8076 13.974 72.0596 13.694C72.3116 13.428 72.6196 13.288 72.9976 13.288C73.3616 13.288 73.6276 13.414 73.8236 13.652C74.0196 13.89 74.1176 14.24 74.1176 14.702V19H76.0776V14.142C76.0776 13.344 75.8396 12.7 75.3916 12.224C74.9436 11.748 74.3416 11.496 73.5856 11.496C73.1376 11.496 72.7316 11.58 72.3676 11.748C71.9896 11.916 71.6396 12.168 71.3036 12.504C71.0936 12.182 70.8136 11.93 70.4776 11.762C70.1276 11.594 69.7356 11.496 69.3156 11.496C68.8956 11.496 68.5176 11.58 68.1816 11.734C67.8316 11.888 67.5376 12.112 67.3136 12.392V11.636H65.3536V19H67.3136V14.744C67.3136 14.324 67.4256 13.974 67.6776 13.694C67.9296 13.428 68.2376 13.288 68.6156 13.288ZM83.3422 12.588C83.0062 12.238 82.6142 11.972 82.1662 11.776C81.7182 11.594 81.2282 11.496 80.6962 11.496C80.1642 11.496 79.6602 11.594 79.2122 11.776C78.7642 11.972 78.3722 12.238 78.0502 12.588C77.7282 12.938 77.4902 13.344 77.3222 13.806C77.1542 14.282 77.0842 14.786 77.0842 15.318C77.0842 15.864 77.1542 16.368 77.3222 16.83C77.4902 17.306 77.7282 17.712 78.0502 18.048C78.3722 18.412 78.7642 18.692 79.2122 18.874C79.6602 19.07 80.1642 19.154 80.6962 19.154C81.2282 19.154 81.7182 19.07 82.1662 18.874C82.6142 18.692 83.0062 18.412 83.3422 18.048C83.6502 17.712 83.8882 17.306 84.0562 16.83C84.2242 16.368 84.3082 15.864 84.3082 15.318C84.3082 14.786 84.2242 14.282 84.0562 13.806C83.8882 13.344 83.6502 12.938 83.3422 12.588ZM80.6962 13.12C81.2002 13.12 81.6062 13.316 81.9002 13.708C82.1942 14.1 82.3482 14.632 82.3482 15.318C82.3482 16.018 82.1942 16.55 81.9002 16.942C81.6062 17.334 81.2002 17.53 80.6962 17.53C80.1642 17.53 79.7582 17.334 79.4642 16.942C79.1702 16.55 79.0302 16.018 79.0302 15.318C79.0302 14.646 79.1702 14.1 79.4782 13.708C79.7722 13.316 80.1782 13.12 80.6962 13.12ZM87.3226 19V14.744C87.3226 14.31 87.4486 13.96 87.7006 13.694C87.9526 13.428 88.2886 13.288 88.6806 13.288C89.0586 13.288 89.3526 13.414 89.5486 13.652C89.7446 13.904 89.8566 14.254 89.8566 14.702V19H91.8166V14.142C91.8166 13.33 91.5926 12.686 91.1446 12.21C90.6966 11.734 90.0946 11.496 89.3386 11.496C88.9186 11.496 88.5406 11.58 88.2046 11.734C87.8546 11.888 87.5606 12.112 87.3226 12.392V11.636H85.3626V19H87.3226ZM99.674 17.964C99.926 17.628 100.122 17.222 100.262 16.774C100.402 16.326 100.472 15.836 100.472 15.318C100.472 14.814 100.402 14.324 100.262 13.876C100.122 13.428 99.926 13.022 99.674 12.686C99.38 12.294 99.03 12 98.624 11.804C98.204 11.608 97.756 11.496 97.266 11.496C96.832 11.496 96.44 11.58 96.09 11.734C95.726 11.888 95.432 12.112 95.208 12.392V11.636H93.248V21.492H95.208V18.244C95.432 18.538 95.726 18.762 96.09 18.916C96.44 19.084 96.832 19.154 97.266 19.154C97.756 19.154 98.204 19.056 98.624 18.846C99.03 18.65 99.38 18.356 99.674 17.964ZM96.804 13.176C97.336 13.176 97.742 13.372 98.05 13.75C98.344 14.142 98.498 14.66 98.498 15.318C98.498 15.99 98.344 16.522 98.05 16.9C97.742 17.292 97.336 17.474 96.804 17.474C96.3 17.474 95.908 17.306 95.614 16.956C95.306 16.606 95.166 16.13 95.166 15.528V15.122C95.166 14.534 95.306 14.058 95.614 13.708C95.908 13.358 96.3 13.176 96.804 13.176ZM105.423 11.594C104.975 11.594 104.583 11.692 104.233 11.888C103.883 12.084 103.631 12.336 103.463 12.672V11.636H101.503V19H103.463V15.262C103.463 14.73 103.617 14.296 103.953 13.974C104.289 13.666 104.723 13.498 105.269 13.498C105.367 13.498 105.465 13.512 105.563 13.512C105.647 13.512 105.759 13.526 105.899 13.54V11.622C105.787 11.622 105.689 11.608 105.619 11.608C105.549 11.608 105.479 11.594 105.423 11.594ZM112.341 12.588C112.005 12.238 111.613 11.972 111.165 11.776C110.717 11.594 110.227 11.496 109.695 11.496C109.163 11.496 108.659 11.594 108.211 11.776C107.763 11.972 107.371 12.238 107.049 12.588C106.727 12.938 106.489 13.344 106.321 13.806C106.153 14.282 106.083 14.786 106.083 15.318C106.083 15.864 106.153 16.368 106.321 16.83C106.489 17.306 106.727 17.712 107.049 18.048C107.371 18.412 107.763 18.692 108.211 18.874C108.659 19.07 109.163 19.154 109.695 19.154C110.227 19.154 110.717 19.07 111.165 18.874C111.613 18.692 112.005 18.412 112.341 18.048C112.649 17.712 112.887 17.306 113.055 16.83C113.223 16.368 113.307 15.864 113.307 15.318C113.307 14.786 113.223 14.282 113.055 13.806C112.887 13.344 112.649 12.938 112.341 12.588ZM109.695 13.12C110.199 13.12 110.605 13.316 110.899 13.708C111.193 14.1 111.347 14.632 111.347 15.318C111.347 16.018 111.193 16.55 110.899 16.942C110.605 17.334 110.199 17.53 109.695 17.53C109.163 17.53 108.757 17.334 108.463 16.942C108.169 16.55 108.029 16.018 108.029 15.318C108.029 14.646 108.169 14.1 108.477 13.708C108.771 13.316 109.177 13.12 109.695 13.12ZM117.245 8.808C116.363 8.808 115.705 9.018 115.257 9.424C114.809 9.83 114.599 10.432 114.599 11.23V11.636H113.605V13.274H114.599V19H116.559V13.274H117.987V11.636H116.559V11.342C116.559 11.02 116.629 10.782 116.769 10.642C116.909 10.502 117.147 10.432 117.497 10.432H117.805C117.861 10.432 117.931 10.446 118.001 10.446V8.836C117.889 8.836 117.777 8.822 117.679 8.822C117.581 8.822 117.441 8.808 117.245 8.808Z" fill="#FFD500"/>
<path d="M20.8526 10.058C21.5477 8.89855 21.8814 7.71015 21.8814 6.49275C21.8814 6.05797 21.8258 5.62319 21.7424 5.15942C21.3809 3.47826 20.4912 2.11594 19.0454 1.07246C17.9333 0.347826 16.8211 -5.76067e-07 15.6534 -6.2711e-07C15.2363 -6.4534e-07 14.7915 0.0579704 14.3744 0.144927C12.734 0.492753 11.4272 1.42029 10.4263 2.92754L1.00093 17.942C0.333644 19.0725 2.93033e-06 20.2319 2.87712e-06 21.4493C2.85811e-06 21.8841 0.0556097 22.3478 0.13902 22.8116C0.472663 24.5217 1.36237 25.8841 2.80816 26.9275C3.9203 27.6522 5.06024 28 6.22799 28C6.64504 28 7.06209 27.942 7.50695 27.8551C9.11956 27.4783 10.4263 26.5507 11.4272 25.0435L20.8526 10.058ZM19.2122 27.971C18.3503 27.3333 17.6274 26.4928 17.0714 25.4783L16.0148 23.5652L11.2604 27.6232C11.1214 27.7391 10.9824 27.8551 10.8156 27.971L19.2122 27.971ZM16.0982 20.4928L18.4059 24.6957C19.3234 26.2609 20.2966 27.1884 21.3809 27.5072C22.4374 27.8261 23.2437 27.971 23.7998 27.971C24.8285 27.971 25.8295 27.7101 26.8582 27.1304C28.3874 26.1739 29.2771 25.1594 29.5829 24.029C29.861 22.8986 30 22.058 30 21.4783C30 20.4058 29.7498 19.3623 29.1937 18.2899L23.3272 7.47826C23.1881 8.69565 22.7989 9.85507 22.1316 10.9275L16.0982 20.4928Z" fill="#FFD500"/>
</svg>
