<svg width="506" height="609" viewBox="0 0 506 609" fill="none" xmlns="http://www.w3.org/2000/svg">
<path d="M421.725 551.852L423.103 58.4956" stroke="#6400E4" stroke-width="1.94" stroke-miterlimit="10"/>
<path d="M400.581 551.792L401.945 58.4342" stroke="#6400E4" stroke-width="1.94" stroke-miterlimit="10"/>
<path d="M379.42 551.732L380.798 58.3764" stroke="#6400E4" stroke-width="1.94" stroke-miterlimit="10"/>
<path d="M358.262 551.673L359.64 58.3166" stroke="#6400E4" stroke-width="1.94" stroke-miterlimit="10"/>
<path d="M337.118 551.613L338.495 58.257" stroke="#6400E4" stroke-width="1.94" stroke-miterlimit="10"/>
<path d="M315.959 551.553L317.337 58.1972" stroke="#6400E4" stroke-width="1.94" stroke-miterlimit="10"/>
<path d="M294.813 551.496L296.191 58.1403" stroke="#6400E4" stroke-width="1.94" stroke-miterlimit="10"/>
<path d="M273.655 551.434L275.032 58.0778" stroke="#6400E4" stroke-width="1.94" stroke-miterlimit="10"/>
<path d="M252.51 551.377L253.888 58.0207" stroke="#6400E4" stroke-width="1.94" stroke-miterlimit="10"/>
<path d="M231.352 551.314L232.73 57.9585" stroke="#6400E4" stroke-width="1.94" stroke-miterlimit="10"/>
<path d="M210.206 551.257L211.581 57.9143" stroke="#6400E4" stroke-width="1.94" stroke-miterlimit="10"/>
<path d="M189.048 551.197L190.423 57.8545" stroke="#6400E4" stroke-width="1.94" stroke-miterlimit="10"/>
<path d="M167.903 551.138L169.279 57.7949" stroke="#6400E4" stroke-width="1.94" stroke-miterlimit="10"/>
<path d="M146.741 551.091L148.118 57.7351" stroke="#6400E4" stroke-width="1.94" stroke-miterlimit="10"/>
<path d="M125.596 551.031L126.961 57.6732" stroke="#6400E4" stroke-width="1.94" stroke-miterlimit="10"/>
<path d="M104.438 550.972L105.816 57.6157" stroke="#6400E4" stroke-width="1.94" stroke-miterlimit="10"/>
<path d="M83.2798 550.912L84.6575 57.5559" stroke="#6400E4" stroke-width="1.94" stroke-miterlimit="10"/>
</svg>
