<svg width="403" height="404" viewBox="0 0 403 404" fill="none" xmlns="http://www.w3.org/2000/svg">
<path d="M53.9025 0.989258H52.0508V403.911H53.9025V0.989258Z" fill="#6400E4"/>
<path d="M113.303 0.989258H111.451V403.911H113.303V0.989258Z" fill="#6400E4"/>
<path d="M172.707 0.989258H170.855V403.911H172.707V0.989258Z" fill="#6400E4"/>
<path d="M232.113 0.989258H230.262V403.911H232.113V0.989258Z" fill="#6400E4"/>
<path d="M291.494 0.989258H289.643V403.911H291.494V0.989258Z" fill="#6400E4"/>
<path d="M350.899 0.989258H349.047V403.911H350.899V0.989258Z" fill="#6400E4"/>
<path d="M402.921 53.0374H0V54.8891H402.921V53.0374Z" fill="#6400E4"/>
<path d="M402.921 112.442H0V114.294H402.921V112.442Z" fill="#6400E4"/>
<path d="M402.921 171.847H0V173.699H402.921V171.847Z" fill="#6400E4"/>
<path d="M402.921 231.227H0V233.078H402.921V231.227Z" fill="#6400E4"/>
<path d="M402.921 290.631H0V292.483H402.921V290.631Z" fill="#6400E4"/>
<path d="M402.921 350.036H0V351.888H402.921V350.036Z" fill="#6400E4"/>
</svg>
