<svg width="603" height="498" viewBox="0 0 603 498" fill="none" xmlns="http://www.w3.org/2000/svg">
<path d="M545.598 76.2187L52.2839 82.764" stroke="#FFD500" stroke-width="1.94" stroke-miterlimit="10"/>
<path d="M545.88 97.3625L52.5631 103.921" stroke="#FFD500" stroke-width="1.94" stroke-miterlimit="10"/>
<path d="M546.159 118.519L52.8444 125.064" stroke="#FFD500" stroke-width="1.94" stroke-miterlimit="10"/>
<path d="M546.438 139.676L53.1237 146.221" stroke="#FFD500" stroke-width="1.94" stroke-miterlimit="10"/>
<path d="M546.719 160.819L53.405 167.365" stroke="#FFD500" stroke-width="1.94" stroke-miterlimit="10"/>
<path d="M546.999 181.976L53.6843 188.521" stroke="#FFD500" stroke-width="1.94" stroke-miterlimit="10"/>
<path d="M547.282 203.12L53.9675 209.665" stroke="#FFD500" stroke-width="1.94" stroke-miterlimit="10"/>
<path d="M547.559 224.276L54.2448 230.821" stroke="#FFD500" stroke-width="1.94" stroke-miterlimit="10"/>
<path d="M547.841 245.42L54.5261 251.965" stroke="#FFD500" stroke-width="1.94" stroke-miterlimit="10"/>
<path d="M548.118 266.576L54.8034 273.122" stroke="#FFD500" stroke-width="1.94" stroke-miterlimit="10"/>
<path d="M548.402 287.72L55.1003 294.267" stroke="#FFD500" stroke-width="1.94" stroke-miterlimit="10"/>
<path d="M548.681 308.877L55.3796 315.424" stroke="#FFD500" stroke-width="1.94" stroke-miterlimit="10"/>
<path d="M548.96 330.02L55.6589 336.567" stroke="#FFD500" stroke-width="1.94" stroke-miterlimit="10"/>
<path d="M549.255 351.179L55.9401 357.724" stroke="#FFD500" stroke-width="1.94" stroke-miterlimit="10"/>
<path d="M549.534 372.322L56.2173 378.881" stroke="#FFD500" stroke-width="1.94" stroke-miterlimit="10"/>
<path d="M549.813 393.479L56.4987 400.024" stroke="#FFD500" stroke-width="1.94" stroke-miterlimit="10"/>
<path d="M550.094 414.636L56.78 421.181" stroke="#FFD500" stroke-width="1.94" stroke-miterlimit="10"/>
</svg>
