<svg width="338" height="147" viewBox="0 0 338 147" fill="none" xmlns="http://www.w3.org/2000/svg">
<path d="M20.8342 74.5247C27.1021 71.9053 30.0597 64.7009 27.4404 58.4331C24.8211 52.1653 17.6167 49.2076 11.3489 51.8269C5.08107 54.4462 2.12337 61.6506 4.74268 67.9184C7.36199 74.1863 14.5664 77.144 20.8342 74.5247Z" fill="white"/>
<path d="M278.916 110.56C275.916 116.56 278.996 125.46 286.816 129.05C292.246 131.53 294.346 134.86 295.756 140.26C297.546 147.09 303.876 148.71 309.336 144.21C314.796 139.71 317.746 133.72 317.546 127.08C317.696 115.64 311.976 106.08 303.056 102.23C294.296 98.4399 283.016 102.33 278.916 110.56Z" fill="white"/>
<path d="M312.225 56.0701C310.295 59.9501 312.225 65.7 317.335 68.02C320.845 69.63 322.195 71.78 323.115 75.27C324.265 79.68 328.355 80.7301 331.895 77.8201C333.585 76.5205 334.946 74.8412 335.867 72.918C336.788 70.9948 337.243 68.8818 337.195 66.7501C337.295 59.3501 333.595 53.17 327.835 50.68C322.075 48.19 314.885 50.7501 312.225 56.0701Z" fill="white"/>
<path d="M241.806 124C240.866 119.77 235.696 116.56 230.306 117.95C226.566 118.95 224.166 118.1 221.256 115.95C217.576 113.25 213.736 115.02 212.826 119.51C212.334 121.586 212.337 123.748 212.835 125.823C213.334 127.897 214.314 129.825 215.696 131.45C220.286 137.24 227.056 139.71 233.096 138C239.136 136.29 243.106 129.75 241.806 124Z" fill="white"/>
<path d="M252.806 9.48006C250.206 14.6901 252.876 22.4201 259.666 25.4801C264.386 27.6401 266.206 30.53 267.426 35.22C268.976 41.15 274.426 42.56 279.226 38.65C284.026 34.74 286.526 29.55 286.346 23.78C286.476 13.84 281.516 5.54006 273.776 2.20006C266.036 -1.13994 256.376 2.33006 252.806 9.48006Z" fill="white"/>
<path d="M234.495 60.8899C232.555 64.7699 234.495 70.5199 239.595 72.8399C243.105 74.4499 244.465 76.5899 245.375 80.0899C246.525 84.4999 250.625 85.5499 254.155 82.6399C255.845 81.3403 257.206 79.661 258.127 77.7378C259.048 75.8146 259.503 73.7016 259.455 71.5699C259.555 64.1699 255.855 57.9899 250.095 55.4999C244.335 53.0099 237.145 55.5699 234.495 60.8899Z" fill="white"/>
</svg>
