<svg width="644" height="568" viewBox="0 0 644 568" fill="none" xmlns="http://www.w3.org/2000/svg">
<path d="M619.537 497.961C604.968 518.78 583.398 535.245 558.801 540.734C530.419 546.979 501.092 538.841 473.278 530.892C432.219 519.158 389.836 507.614 347.264 511.399C276.5 517.833 213.682 566.473 142.539 567.987C120.483 568.27 98.6038 564.014 78.2607 555.484C57.9175 546.954 39.5448 534.332 24.2834 518.401C16.0336 510.093 9.47873 500.258 4.98407 489.445C0.253828 476.954 -0.50301 462.949 0.253828 449.512C2.46461 414.426 13.7436 380.515 32.9871 351.098L33.3655 350.341C52.8057 319.913 64.0191 284.96 65.9096 248.899C66.4772 235.84 65.9096 222.592 66.8556 209.533C68.5585 184.551 75.9377 160.137 85.7766 137.047C100.346 103.359 120.97 71.7535 149.729 49.4211C169.218 34.0912 191.923 23.4928 214.439 13.0836C225.981 7.78441 237.712 2.29594 250.389 0.592626C259.206 -0.355956 268.109 -0.16513 276.878 1.1604C284.384 2.10111 291.836 3.42767 299.205 5.13481C342.118 15.0264 381.866 35.5235 414.812 64.7509C449.437 95.4107 478.387 129.856 507.146 166.004C546.502 215.4 591.723 261.2 619.915 317.599C625.312 328.398 629.867 339.597 633.538 351.098C649.432 400.494 649.054 455.946 619.537 497.961Z" fill="#6400E4"/>
</svg>
