<svg width="22" height="22" viewBox="0 0 22 22" fill="none" xmlns="http://www.w3.org/2000/svg">
<path d="M19.5873 19.9389C16.2209 22.687 5.70957 22.687 2.41187 19.9389C-0.954522 17.1908 -0.611019 5.44285 2.41187 2.35127C5.43475 -0.740301 16.5644 -0.740301 19.5873 2.35127C22.6102 5.44285 22.9537 17.1909 19.5873 19.9389Z" fill="#6ECCA9"/>
<g opacity="0.2">
<path opacity="0.2" d="M11.069 15.1298C8.04613 17.5344 4.67974 18.771 1.51947 18.8397C-0.81641 14.855 -0.335477 5.16809 2.4126 2.35132C4.88586 -0.190631 12.6491 -0.671564 17.1148 0.90857C18.214 5.4429 15.9468 11.2138 11.069 15.1298Z" fill="white"/>
</g>
<path d="M9.42011 17.1222C8.93918 17.1222 8.45829 16.916 8.18348 16.5039L4.33621 11.5573C3.78658 10.8703 3.92401 9.9085 4.61102 9.35887C5.29802 8.80925 6.25984 8.94668 6.80947 9.63368L9.42011 13.0001L15.1911 5.51159C15.7407 4.82459 16.7025 4.68715 17.3895 5.23678C18.0765 5.78641 18.214 6.74822 17.6643 7.43523L10.6567 16.5039C10.3132 16.8474 9.90104 17.1222 9.42011 17.1222Z" fill="white"/>
</svg>
