<svg width="50" height="40" viewBox="0 0 50 40" fill="none" xmlns="http://www.w3.org/2000/svg">
<path d="M13.4861 37.9793C14.9852 39.4784 17.4185 39.4784 18.9175 37.9793L37.5116 19.3852C38.0455 18.8513 38.4562 18.2148 38.7232 17.5371C40.5918 18.0607 42.4092 18.338 44.0109 18.3277C47.974 18.3072 49.2883 16.572 49.7195 15.535C50.1507 14.5083 50.4587 12.3521 47.6763 9.51833C47.6455 9.48753 47.6147 9.45673 47.5839 9.42593C45.859 7.70102 43.3537 6.10959 40.5097 4.92884C39.9861 4.71323 39.4624 4.51815 38.9491 4.33334V4.30254C38.9183 2.02319 37.0804 0.185343 34.8011 0.154541L23.661 0.000531701C22.1825 -0.0200029 20.7656 0.554967 19.7287 1.60223L1.12427 20.1963C-0.374757 21.6954 -0.374757 24.1287 1.12427 25.6278L13.4861 37.9793ZM27.8193 6.65375C29.0616 5.41141 31.074 5.41141 32.3164 6.65375C33.0556 7.393 33.3534 8.40946 33.2096 9.36432C34.4315 10.2268 35.8894 11.0276 37.45 11.6745C38.0045 11.9004 38.5384 12.1057 39.0517 12.2802L38.9901 7.80369C39.0825 7.84476 39.1647 7.87557 39.2571 7.91663C41.6904 8.9331 43.8774 10.3089 45.284 11.7155C45.3045 11.7361 45.3251 11.7566 45.3456 11.7771C46.6804 13.1427 46.8241 14.0154 46.7112 14.2824C46.3621 15.114 42.6145 15.8533 36.9264 13.4815C35.2631 12.7833 33.7025 11.9209 32.4396 10.9866C32.3985 11.0379 32.3472 11.0892 32.3061 11.1406C31.0638 12.3829 29.0514 12.3829 27.809 11.1406C26.577 9.90849 26.577 7.8961 27.8193 6.65375Z" fill="#6ECCA9"/>
</svg>
