<svg width="46" height="46" viewBox="0 0 46 46" fill="none" xmlns="http://www.w3.org/2000/svg">
<path d="M44.6919 1.82654C44.6711 1.12935 44.1112 0.569106 43.4144 0.547959L25.4386 0.000539235C25.0718 -0.00986139 24.7189 0.130547 24.4613 0.390909L2.27368 22.807C-0.445392 25.5542 -0.445392 30.0237 2.27368 32.7708L12.7655 43.3704C14.0867 44.7055 15.8448 45.4409 17.7151 45.4409C19.5859 45.4409 21.3439 44.7055 22.6651 43.3704L44.8531 20.954C45.1069 20.6974 45.2445 20.348 45.2338 19.9871L44.6919 1.82654ZM27.6294 29.6846C27.3718 29.9418 27.0344 30.0708 26.6968 30.0708C26.3594 30.0708 26.0221 29.9422 25.7645 29.6846L25.1911 29.1108L24.2419 30.0601C23.9843 30.3173 23.647 30.4459 23.3096 30.4459C22.972 30.4459 22.6346 30.3173 22.3774 30.0597C21.8622 29.5449 21.8622 28.7101 22.3774 28.1952L24.902 25.6707C25.3745 25.1981 25.3742 24.4292 24.9016 23.9566C24.4287 23.4838 23.6601 23.4834 23.1876 23.9559L22.5445 24.5987C22.5445 24.599 22.5445 24.599 22.5441 24.599L21.901 25.2425C21.1508 25.9927 20.1652 26.3678 19.1799 26.3678C18.1939 26.3678 17.2083 25.9927 16.4577 25.2418C15.7307 24.5148 15.3303 23.5486 15.3299 22.5203C15.3299 21.6297 15.6305 20.7855 16.1835 20.1032L15.5944 19.5138C15.0796 18.999 15.0796 18.1642 15.5944 17.6494C16.1093 17.1345 16.9441 17.1345 17.4589 17.6494L18.0327 18.2231L18.6339 17.6216C19.1487 17.1068 19.9835 17.1068 20.4987 17.6216C21.0135 18.1368 21.0135 18.9716 20.4987 19.4864L18.3215 21.6633C18.0927 21.8921 17.9668 22.1962 17.9668 22.52C17.9668 22.8438 18.093 23.1482 18.3222 23.3773C18.7951 23.8502 19.564 23.8502 20.0362 23.378L20.6797 22.7346C20.6797 22.7346 20.6797 22.7342 20.68 22.7342L21.3228 22.0911C22.8236 20.5906 25.2653 20.591 26.7661 22.0918C28.1695 23.4948 28.2607 25.7206 27.0403 27.2304L27.6294 27.8198C28.1442 28.3349 28.1442 29.1698 27.6294 29.6846ZM36.9573 13.9713C36.1863 14.7424 35.1733 15.1279 34.1606 15.1279C33.1476 15.1279 32.1346 14.7424 31.3635 13.9713C30.6164 13.2242 30.2049 12.231 30.2049 11.1743C30.2049 10.1179 30.6164 9.12466 31.3635 8.37755C32.9056 6.83548 35.4153 6.83513 36.9573 8.37755C38.4997 9.91961 38.4997 12.4293 36.9573 13.9713Z" fill="#6ECCA9"/>
</svg>
